<svg width="105" height="105" viewBox="0 0 105 105" fill="none" xmlns="http://www.w3.org/2000/svg">
<g clip-path="url(#clip0_208_39229)">
<path d="M74.4189 76.0521L72.2168 82.0896L76.3439 87.0042L82.673 85.8959L84.8751 79.8584L80.748 74.9292L74.4189 76.0521Z" fill="#009DD4"/>
<path d="M76.3438 87.7622C76.2456 87.7544 76.1499 87.7272 76.0622 87.6822C75.9746 87.6371 75.8968 87.5751 75.8334 87.4997L71.6917 82.5851C71.6092 82.482 71.555 82.3592 71.5346 82.2287C71.5141 82.0983 71.528 81.9648 71.575 81.8414L73.7042 75.833C73.7508 75.7088 73.8292 75.5989 73.9316 75.5145C74.034 75.43 74.1567 75.3739 74.2875 75.3518L80.6167 74.2289C80.7483 74.2086 80.8828 74.2221 81.0078 74.268C81.1328 74.3139 81.2441 74.3908 81.3313 74.4914L85.4584 79.4059C85.5397 79.5124 85.5942 79.637 85.617 79.769C85.6399 79.901 85.6305 80.0367 85.5896 80.1643L83.3875 86.1872C83.3444 86.315 83.2673 86.4286 83.1646 86.5159C83.0618 86.6033 82.9372 86.661 82.8042 86.683L76.4896 87.7914L76.3438 87.7622ZM73.0917 81.9289L76.65 86.1726L82.1042 85.2101L84 80.0039L80.4417 75.833L74.9875 76.7955L73.0917 81.9289Z" fill="black"/>
<path d="M79.1726 92.6336H78.3705C76.6362 92.4792 74.9503 91.979 73.4124 91.1625C71.8745 90.346 70.5158 89.2297 69.4164 87.8794L42.3643 55.5919C37.7997 57.3128 27.8976 57.8961 19.6872 48.7815C11.6664 39.944 15.9101 28.0149 16.0414 27.5044C16.0855 27.3813 16.1613 27.272 16.2611 27.1875C16.361 27.103 16.4814 27.0463 16.6101 27.0232C16.7392 27.002 16.8715 27.0121 16.9958 27.0527C17.1202 27.0934 17.233 27.1632 17.3247 27.2565L29.2684 40.5128L41.4455 39.8565L43.3559 27.8253L31.4705 14.5836C31.3867 14.4929 31.3269 14.3827 31.2963 14.263C31.2658 14.1434 31.2655 14.018 31.2955 13.8982C31.3231 13.7769 31.3801 13.6642 31.4614 13.5701C31.5428 13.476 31.6461 13.4034 31.7622 13.3586C35.4216 12.1728 39.3483 12.0851 43.0571 13.1062C46.7658 14.1274 50.0942 16.2126 52.6309 19.1044C52.6309 19.1774 63.2184 29.6774 57.0059 42.4378C61.3809 46.944 85.7789 72.5086 86.1726 72.9169C90.2414 77.6565 92.458 84.5836 86.508 89.9065C84.4822 91.6879 81.8702 92.659 79.1726 92.6336ZM70.5684 86.8003C71.5411 87.9948 72.7427 88.9829 74.1025 89.7066C75.4624 90.4304 76.9531 90.8752 78.4872 91.0149C79.7567 91.1167 81.0336 90.9556 82.2381 90.5415C83.4425 90.1275 84.5486 89.4695 85.4872 88.6086C91.933 82.7753 86.7559 75.7753 85.0059 73.7482C84.583 73.3253 65.6247 53.4482 55.5622 43.0065C55.4557 42.89 55.3875 42.7437 55.3667 42.5873C55.3458 42.4309 55.3733 42.2718 55.4455 42.1315C61.6143 30.2461 51.9455 20.5482 51.5372 20.1399C49.3381 17.6024 46.4774 15.7257 43.2741 14.7188C40.0708 13.712 36.6509 13.6147 33.3955 14.4378L44.7851 27.0815C44.8599 27.1663 44.9155 27.2662 44.9482 27.3744C44.9809 27.4826 44.9899 27.5966 44.9747 27.7086L42.9039 40.7024C42.8798 40.8765 42.7948 41.0365 42.664 41.154C42.5332 41.2715 42.365 41.3388 42.1893 41.344L29.0643 42.0586C28.9509 42.0597 28.8384 42.0383 28.7333 41.9958C28.6282 41.9532 28.5325 41.8903 28.4518 41.8107L17.1789 29.2836C16.3622 32.5065 14.9184 41.1982 20.8247 47.7607C28.8018 56.6128 38.3247 55.694 42.3059 53.9732C42.456 53.9112 42.622 53.899 42.7795 53.9383C42.937 53.9777 43.0777 54.0666 43.1809 54.1919L70.5684 86.8003Z" fill="black"/>
<path d="M7542.38 3764.51H-5759.5V-5252.25H7542.38V3764.51ZM-5758.1 3763.05H7541.04V-5250.9H-5758.1V3763.05Z" fill="#333333"/>
<path d="M7542.38 3764.51H-5759.5V-5252.25H7542.38V3764.51ZM-5758.1 3763.05H7541.04V-5250.9H-5758.1V3763.05Z" fill="#333333"/>
<path d="M7542.38 3764.51H-5759.5V-5252.25H7542.38V3764.51ZM-5758.1 3763.05H7541.04V-5250.9H-5758.1V3763.05Z" fill="#333333"/>
<path d="M63.4375 86.0418C63.3271 86.0422 63.218 86.019 63.1174 85.9738C63.0168 85.9285 62.927 85.8622 62.8541 85.7793L54.1041 75.571C53.9726 75.4163 53.908 75.2157 53.9244 75.0133C53.9408 74.8109 54.0369 74.6233 54.1916 74.4918C54.3463 74.3603 54.547 74.2957 54.7493 74.3121C54.9517 74.3285 55.1393 74.4246 55.2708 74.5793L64.0208 84.7877C64.1505 84.9432 64.2139 85.1433 64.1976 85.3451C64.1812 85.5469 64.0863 85.7343 63.9333 85.8668C63.793 85.9802 63.6179 86.042 63.4375 86.0418Z" fill="black"/>
<path d="M63.4375 91.8748C63.3271 91.8753 63.218 91.852 63.1174 91.8068C63.0168 91.7615 62.927 91.6952 62.8541 91.6123L54.1041 81.404C53.9726 81.2493 53.908 81.0487 53.9244 80.8463C53.9408 80.6439 54.0369 80.4563 54.1916 80.3248C54.3463 80.1933 54.547 80.1287 54.7493 80.1451C54.9517 80.1615 55.1393 80.2576 55.2708 80.4123L64.0208 90.6207C64.1505 90.7762 64.2139 90.9763 64.1976 91.1781C64.1812 91.3799 64.0863 91.5673 63.9333 91.6998C63.793 91.8133 63.6179 91.875 63.4375 91.8748Z" fill="black"/>
</g>
<defs>
<clipPath id="clip0_208_39229">
<rect width="105" height="105" fill="white"/>
</clipPath>
</defs>
</svg>
