<svg width="60" height="65" viewBox="0 0 60 65" fill="none" xmlns="http://www.w3.org/2000/svg">
<g clip-path="url(#clip0_6637_26388)">
<g filter="url(#filter0_d_6637_26388)">
<circle cx="30" cy="30" r="20" fill="white"/>
<circle cx="30" cy="30" r="19.5" stroke="#532CA0"/>
</g>
<path d="M28.48 22C24.349 22 21 25.0444 21 28.8C21 30.7289 21.8895 32.4637 23.3096 33.6995C23.1059 34.3665 22.681 35.03 21.9005 35.6213C21.9 35.6217 21.8996 35.6221 21.8991 35.6226C21.8348 35.6471 21.7793 35.6905 21.7402 35.7472C21.7011 35.8039 21.6801 35.8711 21.68 35.94C21.68 36.0302 21.7158 36.1167 21.7796 36.1804C21.8433 36.2442 21.9298 36.28 22.02 36.28C22.0432 36.2797 22.0664 36.277 22.0891 36.272C23.4083 36.2682 24.5339 35.7047 25.4293 34.9984C25.8542 35.1712 26.2977 35.3137 26.7601 35.4127C26.5534 34.8279 26.44 34.2053 26.44 33.56C26.44 30.1852 29.4905 27.44 33.24 27.44C34.1798 27.44 35.0756 27.6126 35.8909 27.9248C35.4177 24.5832 32.2839 22 28.48 22ZM33.24 28.8C31.7972 28.8 30.4135 29.3015 29.3933 30.1942C28.3731 31.0868 27.8 32.2976 27.8 33.56C27.8 34.8224 28.3731 36.0332 29.3933 36.9258C30.4135 37.8185 31.7972 38.32 33.24 38.32C33.9356 38.319 34.6245 38.2014 35.2694 37.9734C36.1033 38.5559 37.1125 38.988 38.2683 38.992C38.2918 38.9972 38.3159 38.9999 38.34 39C38.4302 39 38.5167 38.9642 38.5804 38.9004C38.6442 38.8367 38.68 38.7502 38.68 38.66C38.6799 38.5904 38.6584 38.5226 38.6185 38.4656C38.5786 38.4086 38.5222 38.3652 38.4569 38.3412C37.8345 37.8688 37.4357 37.3487 37.1965 36.8192C38.1472 35.9377 38.6778 34.772 38.68 33.56C38.68 32.2976 38.1069 31.0868 37.0867 30.1942C36.0665 29.3015 34.6828 28.8 33.24 28.8Z" fill="#532CA0"/>
</g>
<defs>
<filter id="filter0_d_6637_26388" x="-5" y="1" width="70" height="70" filterUnits="userSpaceOnUse" color-interpolation-filters="sRGB">
<feFlood flood-opacity="0" result="BackgroundImageFix"/>
<feColorMatrix in="SourceAlpha" type="matrix" values="0 0 0 0 0 0 0 0 0 0 0 0 0 0 0 0 0 0 127 0" result="hardAlpha"/>
<feOffset dy="6"/>
<feGaussianBlur stdDeviation="7.5"/>
<feComposite in2="hardAlpha" operator="out"/>
<feColorMatrix type="matrix" values="0 0 0 0 0.00784314 0 0 0 0 0.0196078 0 0 0 0 0.12549 0 0 0 0.15 0"/>
<feBlend mode="normal" in2="BackgroundImageFix" result="effect1_dropShadow_6637_26388"/>
<feBlend mode="normal" in="SourceGraphic" in2="effect1_dropShadow_6637_26388" result="shape"/>
</filter>
<clipPath id="clip0_6637_26388">
<rect width="60" height="65" fill="white"/>
</clipPath>
</defs>
</svg>
