<svg width="67" height="67" viewBox="0 0 67 67" fill="none" xmlns="http://www.w3.org/2000/svg">
<g filter="url(#filter0_d_6637_9659)">
<circle cx="33.5" cy="32.5" r="29.5" fill="#532CA0"/>
<g clip-path="url(#clip0_6637_9659)">
<path d="M33.3451 15.8721C25.0646 15.8721 18.3379 22.5988 18.3379 30.8793C18.3379 39.1597 25.0646 45.8864 33.3451 45.8864H34.2279V51.1831C42.8084 47.0517 48.3523 38.8242 48.3523 30.8793C48.3523 22.5988 41.6255 15.8721 33.3451 15.8721ZM35.1106 41.4726H31.5795V37.9415H35.1106V41.4726ZM35.8168 33.0332C35.7992 33.0509 35.7815 33.0862 35.7639 33.1215C35.6756 33.2628 35.5873 33.404 35.5167 33.5452C35.4814 33.5982 35.4637 33.6688 35.4461 33.7394C35.3931 33.863 35.3401 33.9866 35.3048 34.1102C35.1812 34.481 35.1283 34.8694 35.1283 35.3108H31.5795C31.5795 34.4104 31.7208 33.6512 31.9326 33.0156C31.9326 32.9979 31.9326 32.9803 31.9503 32.9626C31.9679 32.892 32.0209 32.8567 32.0386 32.7861C32.1445 32.5036 32.2681 32.2564 32.427 32.0092C32.48 31.9209 32.5506 31.8327 32.6035 31.7444C32.6565 31.6738 32.6918 31.5855 32.7448 31.5325L32.7624 31.5502C34.2455 29.6081 36.6643 29.0078 36.8585 26.8185C37.0174 25.0882 35.7815 23.411 34.0866 23.0579C32.2504 22.6694 30.5908 23.7464 30.0258 25.3178C29.7787 25.9534 29.196 26.4654 28.4722 26.4654H28.119C27.0597 26.4654 26.2829 25.4237 26.583 24.3997C27.0777 22.7761 28.1403 21.3849 29.5765 20.4804C31.0127 19.5759 32.7264 19.2186 34.4044 19.4738C37.3882 19.9152 39.7717 22.3693 40.2837 25.3531C41.0605 29.661 37.4058 30.7027 35.8168 33.0332Z" fill="white"/>
</g>
</g>
<defs>
<filter id="filter0_d_6637_9659" x="0" y="0" width="67" height="67" filterUnits="userSpaceOnUse" color-interpolation-filters="sRGB">
<feFlood flood-opacity="0" result="BackgroundImageFix"/>
<feColorMatrix in="SourceAlpha" type="matrix" values="0 0 0 0 0 0 0 0 0 0 0 0 0 0 0 0 0 0 127 0" result="hardAlpha"/>
<feOffset dy="1"/>
<feGaussianBlur stdDeviation="2"/>
<feColorMatrix type="matrix" values="0 0 0 0 0.00784314 0 0 0 0 0.0196078 0 0 0 0 0.12549 0 0 0 0.3 0"/>
<feBlend mode="normal" in2="BackgroundImageFix" result="effect1_dropShadow_6637_9659"/>
<feBlend mode="normal" in="SourceGraphic" in2="effect1_dropShadow_6637_9659" result="shape"/>
</filter>
<clipPath id="clip0_6637_9659">
<rect width="38.1765" height="38.1765" fill="white" transform="translate(14.2559 12.2549)"/>
</clipPath>
</defs>
</svg>
