<svg width="25" height="19" viewBox="0 0 25 19" fill="none" xmlns="http://www.w3.org/2000/svg">
<path d="M11.2981 5.71371C9.70981 5.33671 8.04021 5.56454 6.60678 6.35385C5.17335 7.14317 4.07605 8.43893 3.52353 9.99477C3.42684 10.2694 1.16597 16.1417 0.421097 18.0765C0.398901 18.1343 0.392861 18.1972 0.403642 18.2582C0.414422 18.3193 0.441606 18.3762 0.482201 18.4226C0.522797 18.469 0.575233 18.5031 0.63374 18.5213C0.692247 18.5394 0.75456 18.5409 0.813823 18.5254L5.39645 17.3287C6.15503 18.0031 7.05521 18.4934 8.02866 18.7625C9.00211 19.0315 10.0232 19.0722 11.0145 18.8815C12.0058 18.6908 12.9412 18.2736 13.7497 17.6616C14.5581 17.0497 15.2184 16.2591 15.6804 15.3498C16.1424 14.4406 16.394 13.4365 16.416 12.414C16.438 11.3915 16.23 10.3773 15.8075 9.44844C15.3851 8.5196 14.7595 7.70053 13.9781 7.05341C13.1968 6.40629 12.2803 5.94813 11.2981 5.71371ZM10.2727 15.7617C10.2103 15.8258 10.1359 15.8766 10.054 15.9113C9.97201 15.946 9.88407 15.9638 9.79525 15.9638C9.62235 15.9609 9.45739 15.8897 9.33546 15.7654C9.21352 15.6412 9.14422 15.4736 9.14229 15.2983C9.14139 15.1228 9.20928 14.954 9.33106 14.8292C9.45283 14.7044 9.61851 14.6338 9.79167 14.6328C9.92134 14.6312 10.0486 14.6685 10.1574 14.7401C10.2662 14.8116 10.3517 14.9142 10.4031 15.0348C10.4545 15.1555 10.4696 15.2889 10.4464 15.4183C10.4232 15.5476 10.3628 15.6671 10.2727 15.7617L10.2727 15.7617ZM10.9794 12.007L10.7753 12.191C10.5831 12.3664 10.379 12.5479 10.3563 12.8516C10.3396 13.0743 10.3288 13.3078 10.3288 13.5643C10.3347 13.6003 10.3266 13.6372 10.3062 13.6672C10.3014 13.672 10.2847 13.6926 10.1999 13.6902C10.1474 13.6865 10.0913 13.6865 10.0388 13.6865H9.75944C9.59948 13.6865 9.43474 13.6865 9.27599 13.6902C9.20556 13.6902 9.18646 13.6696 9.18646 13.5994C9.17214 13.1009 9.17452 12.5334 9.35597 12.1292C9.50197 11.8521 9.71832 11.6194 9.98266 11.4553C10.1879 11.3164 10.3707 11.1462 10.5246 10.9507C10.7956 10.5744 10.7442 10.2767 10.6523 10.0928C10.5614 9.94078 10.4322 9.81605 10.2781 9.73142C10.1239 9.64678 9.95021 9.60528 9.77496 9.61119C9.53973 9.60997 9.3109 9.68885 9.12518 9.8352C8.93946 9.98155 8.8076 10.1869 8.75076 10.4183C8.70063 10.5828 8.6863 10.5937 8.62423 10.5937C8.57946 10.5917 8.53483 10.5872 8.49053 10.5804C8.21956 10.5429 7.94501 10.509 7.67166 10.4751C7.57377 10.4642 7.55945 10.4279 7.5678 10.3529C7.67762 9.18162 8.80089 8.56935 9.85374 8.56935C10.4307 8.55396 10.9935 8.7513 11.4378 9.12475C11.6201 9.28068 11.7676 9.47422 11.8703 9.69247C11.973 9.91073 12.0286 10.1487 12.0334 10.3904C12.0299 11.0681 11.4796 11.5593 10.9794 12.007H10.9794Z" fill="#0099CC"/>
<path d="M24.3664 16.3799L21.8265 10.9726C22.273 10.079 22.5399 9.10437 22.6115 8.10534C22.6831 7.1063 22.5581 6.10279 22.2437 5.15317C21.9293 4.20354 21.4318 3.32673 20.7802 2.57373C20.1285 1.82072 19.3357 1.20654 18.4478 0.76689C17.5599 0.327238 16.5947 0.0708881 15.6082 0.0127438C14.6217 -0.0454005 13.6336 0.0958209 12.7015 0.428198C11.7693 0.760575 10.9116 1.27748 10.1782 1.94885C9.4449 2.62022 8.85053 3.43267 8.42969 4.33897C9.06471 4.22742 9.71081 4.195 10.3536 4.24244C11.2019 2.97533 12.5025 2.0917 13.9811 1.7779C15.4597 1.4641 17.0007 1.74466 18.2792 2.56042C19.5577 3.37618 20.4737 4.66336 20.8339 6.1505C21.1942 7.63764 20.9706 9.20848 20.2103 10.5317L19.9934 10.9086L21.8081 14.7728C20.62 14.5535 18.9779 14.252 17.5303 13.986C17.4135 14.5306 17.2409 15.0612 17.0152 15.5693C18.4847 15.8385 22.4522 16.5695 24.0075 16.8561C24.0677 16.8672 24.1297 16.8612 24.1867 16.8388C24.2437 16.8164 24.2935 16.7785 24.3307 16.7293C24.3678 16.68 24.3908 16.6213 24.3971 16.5597C24.4034 16.4981 24.3928 16.4358 24.3664 16.3799Z" fill="#0099CC"/>
</svg>
