<svg width="60" height="60" viewBox="0 0 60 60" fill="none" xmlns="http://www.w3.org/2000/svg">
<g clip-path="url(#clip0_6637_26394)">
<g filter="url(#filter0_d_6637_26394)">
<circle cx="30" cy="28" r="20" fill="white"/>
<circle cx="30" cy="28" r="19.5" stroke="#532CA0"/>
</g>
<path d="M30.5 20C25.8059 20 22 23.8059 22 28.5C22 30.0946 22.4479 31.5813 23.2119 32.8565L22.0761 37L26.3081 35.8891C27.5458 36.5928 28.9746 37 30.5 37C35.1941 37 39 33.1941 39 28.5C39 23.8059 35.1941 20 30.5 20ZM27.5906 24.535C27.7287 24.535 27.8706 24.5342 27.9932 24.5405C28.1447 24.5441 28.3097 24.5552 28.4677 24.9044C28.6554 25.3195 29.0641 26.3608 29.1165 26.4663C29.169 26.5719 29.2061 26.6962 29.1331 26.8343C29.0637 26.976 29.0276 27.0617 28.9256 27.1871C28.8201 27.3089 28.7044 27.4602 28.6088 27.5523C28.5033 27.6579 28.3943 27.7736 28.5161 27.984C28.6379 28.1943 29.0611 28.884 29.6865 29.4408C30.4905 30.159 31.1688 30.3797 31.3799 30.4853C31.591 30.5908 31.7132 30.5744 31.835 30.4327C31.9604 30.2946 32.3616 29.8206 32.5033 29.6095C32.6414 29.3985 32.7824 29.435 32.9736 29.5044C33.1677 29.5738 34.2027 30.0837 34.4138 30.1892C34.6249 30.2948 34.7633 30.347 34.8164 30.4327C34.8709 30.5212 34.871 30.9427 34.696 31.4343C34.5211 31.9252 33.6619 32.3999 33.2766 32.4332C32.8877 32.4693 32.5248 32.608 30.749 31.9089C28.607 31.0652 27.2562 28.8713 27.1506 28.7297C27.0451 28.5915 26.2929 27.589 26.2929 26.5549C26.2929 25.5171 26.837 25.0089 27.0275 24.7979C27.2216 24.5868 27.4489 24.535 27.5906 24.535Z" fill="#532CA0"/>
</g>
<defs>
<filter id="filter0_d_6637_26394" x="-5" y="-1" width="70" height="70" filterUnits="userSpaceOnUse" color-interpolation-filters="sRGB">
<feFlood flood-opacity="0" result="BackgroundImageFix"/>
<feColorMatrix in="SourceAlpha" type="matrix" values="0 0 0 0 0 0 0 0 0 0 0 0 0 0 0 0 0 0 127 0" result="hardAlpha"/>
<feOffset dy="6"/>
<feGaussianBlur stdDeviation="7.5"/>
<feComposite in2="hardAlpha" operator="out"/>
<feColorMatrix type="matrix" values="0 0 0 0 0.00784314 0 0 0 0 0.0196078 0 0 0 0 0.12549 0 0 0 0.15 0"/>
<feBlend mode="normal" in2="BackgroundImageFix" result="effect1_dropShadow_6637_26394"/>
<feBlend mode="normal" in="SourceGraphic" in2="effect1_dropShadow_6637_26394" result="shape"/>
</filter>
<clipPath id="clip0_6637_26394">
<rect width="60" height="60" fill="white"/>
</clipPath>
</defs>
</svg>
