<svg width="47" height="47" viewBox="0 0 47 47" fill="none" xmlns="http://www.w3.org/2000/svg">
<path d="M35.0387 30.2639C34.234 29.7921 33.2448 29.8021 32.444 30.2778L28.3883 32.6943C27.4805 33.2354 26.3466 33.172 25.5141 32.5218C24.075 31.3978 21.7577 29.5067 19.7418 27.4907C17.7258 25.4747 15.8348 23.1573 14.7108 21.7182C14.0606 20.8856 13.9972 19.7517 14.5384 18.8438L16.9547 14.788C17.4324 13.9871 17.4364 12.99 16.9646 12.1852L11.012 2.01793C10.4351 1.0347 9.28938 0.551021 8.18131 0.822597C7.10495 1.08625 5.70747 1.72455 4.24259 3.18948C-0.344328 7.77656 -2.78051 15.5135 14.469 32.7636C31.7185 50.0137 39.4572 47.5795 44.0441 42.9924C45.5129 41.5235 46.1492 40.124 46.4129 39.0456C46.6805 37.9395 46.2047 36.8016 45.2235 36.2267C42.7735 34.7935 37.4888 31.6991 35.0387 30.2639Z" fill="#3390BF"/>
</svg>
