<svg width="20" height="24" viewBox="0 0 20 24" fill="none" xmlns="http://www.w3.org/2000/svg">
<path d="M16.4944 12.3159C16.5059 11.4395 16.743 10.5802 17.1837 9.81799C17.6245 9.05574 18.2545 8.4153 19.0151 7.95627C18.5319 7.27885 17.8944 6.72136 17.1533 6.32808C16.4122 5.9348 15.5879 5.71657 14.7459 5.69071C12.9497 5.50563 11.2083 6.74578 10.293 6.74578C9.35998 6.74578 7.9507 5.70908 6.43314 5.73973C5.45154 5.77086 4.49489 6.05106 3.65641 6.55302C2.81792 7.05498 2.1262 7.76159 1.64863 8.60399C-0.420096 12.1198 1.12299 17.2869 3.10465 20.1289C4.09612 21.5205 5.25486 23.075 6.77105 23.0198C8.25474 22.9594 8.80887 22.0911 10.5998 22.0911C12.3741 22.0911 12.894 23.0198 14.441 22.9848C16.033 22.9594 17.0361 21.587 17.9928 20.1822C18.7051 19.1906 19.2533 18.0947 19.617 16.9351C18.692 16.551 17.9027 15.9083 17.3474 15.0868C16.7921 14.2654 16.4954 13.3017 16.4944 12.3159V12.3159Z" fill="white"/>
<path d="M13.5726 3.8214C14.4406 2.79848 14.8683 1.48369 14.7647 0.15625C13.4385 0.292982 12.2135 0.915168 11.3337 1.89884C10.9035 2.37939 10.5741 2.93845 10.3642 3.54406C10.1543 4.14966 10.068 4.78995 10.1103 5.4283C10.7737 5.435 11.4299 5.29387 12.0296 5.01553C12.6293 4.73719 13.1569 4.32889 13.5726 3.8214Z" fill="white"/>
</svg>
