<svg width="17" height="17" viewBox="0 0 17 17" fill="none" xmlns="http://www.w3.org/2000/svg">
<path d="M8.5 2.05393C9.66 2.05393 10.6 2.99393 10.6 4.15393C10.6 5.31393 9.66 6.25393 8.5 6.25393C7.34 6.25393 6.4 5.31393 6.4 4.15393C6.4 2.99393 7.34 2.05393 8.5 2.05393ZM8.5 11.0539C11.47 11.0539 14.6 12.5139 14.6 13.1539V14.2539H2.4V13.1539C2.4 12.5139 5.53 11.0539 8.5 11.0539ZM8.5 0.153931C6.29 0.153931 4.5 1.94393 4.5 4.15393C4.5 6.36393 6.29 8.15393 8.5 8.15393C10.71 8.15393 12.5 6.36393 12.5 4.15393C12.5 1.94393 10.71 0.153931 8.5 0.153931ZM8.5 9.15393C5.83 9.15393 0.5 10.4939 0.5 13.1539V15.1539C0.5 15.7039 0.95 16.1539 1.5 16.1539H15.5C16.05 16.1539 16.5 15.7039 16.5 15.1539V13.1539C16.5 10.4939 11.17 9.15393 8.5 9.15393Z" fill="black" fill-opacity="0.54"/>
</svg>
