<svg width="375" height="331" viewBox="0 0 375 331" fill="none" xmlns="http://www.w3.org/2000/svg">
<g opacity="0.2" clip-path="url(#clip0_10128_119501)">
<path d="M43.4666 178.412C43.3458 177.744 39.2393 175.779 38.6622 175.377C34.6631 172.65 30.8921 169.602 27.3626 166.3C17.4184 156.968 9.35295 145.136 6.80315 131.58C5.28669 123.518 4.06547 111.459 10.7218 105.189C14.8686 101.298 22.8669 100.536 25.4435 106.526C25.4435 106.526 21.2699 96.8062 21.2699 82.6482C21.2699 76.3914 23.7124 69.1318 29.1877 65.5355C35.3743 61.4713 39.4943 66.3109 41.561 71.8458C40.1787 68.1559 41.4536 63.3831 42.1917 59.6931C42.9701 55.8027 43.6545 51.7384 44.7281 47.9282C47.1571 39.3317 53.2095 31.7113 61.2347 27.6604C77.1642 19.6121 95.2141 26.2165 103.306 41.4842C108.473 51.2304 110.553 62.8483 110.714 73.8111C110.714 74.2656 110.728 74.7068 110.714 75.1614C110.714 75.1614 110.996 84.6001 109.319 92.0869C109.319 92.0869 129.932 90.1483 129.932 106.245C129.932 122.342 116.552 130.109 116.552 130.109C116.552 130.109 127.691 126.219 128.804 135.938C129.918 145.658 122.953 187.57 75.5941 187.57C75.5941 187.57 66.8577 186.741 60.3624 184.148C60.3758 184.148 44.6744 185.07 43.4666 178.412Z" fill="#DEF5FD"/>
<path d="M43.4666 178.412C43.3458 177.744 39.2393 175.779 38.6622 175.377C34.6631 172.65 30.8921 169.602 27.3626 166.3C17.4184 156.968 9.35295 145.136 6.80315 131.58C5.28669 123.518 4.06547 111.459 10.7218 105.189C14.8686 101.298 22.8669 100.536 25.4435 106.526C25.4435 106.526 21.2699 96.8062 21.2699 82.6482C21.2699 76.3914 23.7124 69.1318 29.1877 65.5355C35.3743 61.4713 39.4943 66.3109 41.561 71.8458C40.1787 68.1559 41.4536 63.3831 42.1917 59.6931C42.9701 55.8027 43.6545 51.7384 44.7281 47.9282C47.1571 39.3317 53.2095 31.7113 61.2347 27.6604C77.1642 19.6121 95.2141 26.2165 103.306 41.4842C108.473 51.2304 110.553 62.8483 110.714 73.8111C110.714 74.2656 110.728 74.7068 110.714 75.1614C110.714 75.1614 110.996 84.6001 109.319 92.0869C109.319 92.0869 129.932 90.1483 129.932 106.245C129.932 122.342 116.552 130.109 116.552 130.109C116.552 130.109 127.691 126.219 128.804 135.938C129.918 145.658 122.953 187.57 75.5941 187.57C75.5941 187.57 66.8577 186.741 60.3624 184.148C60.3758 184.148 44.6744 185.07 43.4666 178.412Z" fill="white" fill-opacity="0.2"/>
<path d="M47.9507 108.52C47.9507 108.52 46.6758 122.451 58.123 128.788C58.123 128.788 28.8809 192.853 28.8809 329.22" stroke="#37CAFC" stroke-miterlimit="10" stroke-linecap="round" stroke-linejoin="round"/>
<path d="M43.4674 178.413C43.4674 178.413 0 159.536 0 117.356C0 75.176 33.0669 106.808 27.4842 109.401C21.9149 111.995 14.8559 93.4919 14.8559 79.4274C14.8559 73.5048 17.2984 67.141 21.2975 62.7426C26.424 57.1007 34.2076 57.2077 39.173 62.9832C40.8639 64.9619 42.6219 67.1811 43.3332 69.7347C43.7358 71.1652 43.7358 72.7561 43.0916 74.0931C42.0985 76.1118 40.2734 76.1386 39.0522 74.4006C35.7509 69.7079 35.724 63.8388 35.8046 58.3173C35.9253 48.3973 38.6362 38.8918 44.8228 31.0574C54.0423 19.3459 72.052 13.1693 85.6464 21.1775C93.5374 25.8166 98.2612 34.4933 101.267 42.8357C104.488 51.7664 106.058 61.6062 106.058 71.0983C106.058 87.9436 98.9993 101.072 91.5646 101.447C85.7404 101.741 94.9062 92.8502 95.9664 92.0079C101.965 87.2351 111.373 82.7296 118.539 87.7297C125.772 92.7566 125.839 103.546 122.39 110.752C118.66 118.519 111.721 124.562 104.743 129.402C108.729 126.634 114.996 121.808 120.243 124.014C121.867 124.696 122.927 126.313 123.424 127.998C127.852 142.771 119.264 159.175 108.138 168.641C99.7777 175.753 90.0079 179.189 79.2585 180.887C77.5408 181.154 75.8096 181.368 74.0784 181.488C67.5831 181.943 60.8597 181.127 55.1159 178.066" stroke="#37CAFC" stroke-miterlimit="10" stroke-linecap="round" stroke-linejoin="round"/>
<path d="M66.1328 124.001C66.1328 124.001 79.5126 121.782 83.6862 110.953" stroke="#37CAFC" stroke-miterlimit="10" stroke-linecap="round" stroke-linejoin="round"/>
<path d="M118.669 203.376C118.568 202.819 115.133 201.183 114.65 200.849C111.304 198.579 108.15 196.041 105.197 193.292C96.8786 185.523 90.1316 175.673 87.9986 164.387C86.7301 157.676 85.7085 147.637 91.2767 142.417C94.7456 139.178 101.437 138.543 103.592 143.53C103.592 143.53 100.101 135.438 100.101 123.651C100.101 118.442 102.144 112.399 106.724 109.405C111.899 106.021 115.346 110.05 117.075 114.658C115.918 111.586 116.985 107.613 117.602 104.541C118.254 101.302 118.826 97.9186 119.724 94.7465C121.756 87.5899 126.819 81.2457 133.533 77.8733C146.858 71.173 161.958 76.6713 168.727 89.3818C173.049 97.4956 174.789 107.168 174.924 116.294C174.924 116.673 174.935 117.04 174.924 117.418C174.924 117.418 175.16 125.276 173.756 131.509C173.756 131.509 191 129.895 191 143.296C191 156.696 179.807 163.163 179.807 163.163C179.807 163.163 189.125 159.924 190.057 168.016C190.989 176.107 185.162 211 145.545 211C145.545 211 138.236 210.31 132.803 208.151C132.814 208.151 119.679 208.919 118.669 203.376Z" fill="#DEF5FD"/>
<path d="M118.669 203.376C118.568 202.819 115.133 201.183 114.65 200.849C111.304 198.579 108.15 196.041 105.197 193.292C96.8786 185.523 90.1316 175.673 87.9986 164.387C86.7301 157.676 85.7085 147.637 91.2767 142.417C94.7456 139.178 101.437 138.543 103.592 143.53C103.592 143.53 100.101 135.438 100.101 123.651C100.101 118.442 102.144 112.399 106.724 109.405C111.899 106.021 115.346 110.05 117.075 114.658C115.918 111.586 116.985 107.613 117.602 104.541C118.254 101.302 118.826 97.9186 119.724 94.7465C121.756 87.5899 126.819 81.2457 133.533 77.8733C146.858 71.173 161.958 76.6713 168.727 89.3818C173.049 97.4956 174.789 107.168 174.924 116.294C174.924 116.673 174.935 117.04 174.924 117.418C174.924 117.418 175.16 125.276 173.756 131.509C173.756 131.509 191 129.895 191 143.296C191 156.696 179.807 163.163 179.807 163.163C179.807 163.163 189.125 159.924 190.057 168.016C190.989 176.107 185.162 211 145.545 211C145.545 211 138.236 210.31 132.803 208.151C132.814 208.151 119.679 208.919 118.669 203.376Z" fill="white" fill-opacity="0.2"/>
<path d="M123.038 144.946C123.038 144.946 121.973 156.578 131.531 161.869C131.531 161.869 107.115 215.361 107.115 329.22" stroke="#37CAFC" stroke-miterlimit="10" stroke-linecap="round" stroke-linejoin="round"/>
<path d="M119.293 203.304C119.293 203.304 83 187.542 83 152.324C83 117.105 110.609 143.516 105.948 145.682C101.298 147.847 95.404 132.398 95.404 120.655C95.404 115.71 97.4433 110.397 100.782 106.724C105.063 102.013 111.562 102.103 115.708 106.925C117.119 108.577 118.587 110.43 119.181 112.562C119.517 113.757 119.517 115.085 118.979 116.201C118.15 117.887 116.626 117.909 115.607 116.458C112.85 112.54 112.828 107.639 112.895 103.029C112.996 94.7464 115.259 86.8097 120.425 80.2684C128.123 70.4899 143.16 65.3327 154.511 72.0192C161.099 75.8926 165.043 83.1372 167.553 90.1027C170.243 97.5594 171.554 105.775 171.554 113.701C171.554 127.766 165.66 138.727 159.452 139.04C154.589 139.286 162.242 131.862 163.127 131.159C168.136 127.174 175.991 123.412 181.974 127.587C188.014 131.784 188.07 140.793 185.19 146.809C182.075 153.295 176.282 158.34 170.455 162.381C173.783 160.071 179.016 156.041 183.397 157.883C184.753 158.452 185.638 159.803 186.053 161.209C189.751 173.544 182.579 187.241 173.29 195.144C166.31 201.082 158.152 203.951 149.177 205.369C147.743 205.592 146.297 205.771 144.852 205.871C139.429 206.251 133.815 205.57 129.019 203.013" stroke="#37CAFC" stroke-miterlimit="10" stroke-linecap="round" stroke-linejoin="round"/>
<path d="M138.217 157.872C138.217 157.872 149.388 156.019 152.873 146.977" stroke="#37CAFC" stroke-miterlimit="10" stroke-linecap="round" stroke-linejoin="round"/>
<path d="M12.6303 330.515C11.5567 327.065 10.5234 321.771 14.2273 319.552C16.3611 318.268 19.394 318.803 21.5412 319.792C21.3265 318.429 21.1252 317.038 21.2191 315.661C21.313 314.284 21.7425 312.881 22.6685 311.851C24.1312 310.233 26.5603 309.779 28.6672 309.846C29.365 309.872 32.9482 310.167 33.2434 311.089C33.2434 311.089 31.0157 304.431 31.0157 298.321C31.0157 294.618 32.5322 290.327 35.9543 288.401C39.6448 286.329 45.2946 287.653 48.9045 289.324C57.3457 293.214 63.009 301.383 67.0484 309.418C67.035 309.391 70.2021 308.442 70.5913 308.362C73.1948 307.827 75.6506 308.322 77.8515 309.832C79.9047 311.236 81.4883 313.228 83.0316 315.18C83.5684 315.849 84.1052 316.544 84.3602 317.373C85.2862 314.859 87.8628 313.509 90.4529 313.509C95.2841 313.509 106.235 322.948 106.235 330.528H12.6303V330.515Z" fill="#37CAFC"/>
<path d="M87.4965 329.993C86.9632 328.236 86.4498 325.539 88.2899 324.409C89.35 323.755 90.8568 324.027 91.9235 324.531C91.8169 323.836 91.7168 323.128 91.7635 322.427C91.8102 321.725 92.0235 321.01 92.4836 320.486C93.2103 319.662 94.417 319.43 95.4638 319.464C95.8105 319.478 97.5906 319.628 97.7373 320.097C97.7373 320.097 96.6305 316.706 96.6305 313.593C96.6305 311.707 97.3839 309.521 99.0841 308.54C100.918 307.484 103.724 308.159 105.518 309.01C109.712 310.992 112.525 315.153 114.532 319.246C114.525 319.233 116.099 318.749 116.292 318.708C117.585 318.436 118.806 318.688 119.899 319.457C120.919 320.172 121.706 321.187 122.472 322.182C122.739 322.522 123.006 322.876 123.133 323.298C123.593 322.018 124.873 321.33 126.159 321.33C128.56 321.33 134 326.138 134 330H87.4965V329.993Z" fill="#37CAFC"/>
<path d="M34.9199 320.153C34.9199 320.153 38.7312 311.036 43.6563 320.715C46.904 327.106 32.8801 308.683 45.5083 308.683C58.1365 308.683 59.6261 322.186 58.7941 322.186C57.9621 322.186 56.8482 305.26 69.1007 323.763" stroke="white" stroke-miterlimit="10" stroke-linecap="round" stroke-linejoin="round"/>
<path d="M97 324.324C97 324.324 98.8956 320.092 101.345 324.585C102.96 327.551 95.9855 319 102.266 319C108.547 319 109.288 325.268 108.874 325.268C108.46 325.268 107.906 317.411 114 326" stroke="white" stroke-miterlimit="10" stroke-linecap="round" stroke-linejoin="round"/>
<path d="M136.565 267.3C136.517 267.03 134.865 266.236 134.633 266.074C133.025 264.972 131.508 263.741 130.089 262.406C126.089 258.636 122.845 253.856 121.82 248.379C121.21 245.122 120.719 240.25 123.396 237.717C125.064 236.145 128.28 235.837 129.317 238.257C129.317 238.257 127.638 234.33 127.638 228.61C127.638 226.082 128.621 223.149 130.823 221.696C133.311 220.054 134.968 222.01 135.799 224.246C135.243 222.755 135.756 220.827 136.053 219.336C136.366 217.764 136.641 216.122 137.073 214.583C138.05 211.11 140.484 208.031 143.711 206.394C150.118 203.143 157.377 205.811 160.632 211.979C162.71 215.917 163.546 220.611 163.611 225.04C163.611 225.224 163.616 225.402 163.611 225.585C163.611 225.585 163.724 229.399 163.05 232.424C163.05 232.424 171.34 231.64 171.34 238.144C171.34 244.647 165.959 247.785 165.959 247.785C165.959 247.785 170.439 246.213 170.886 250.14C171.334 254.067 168.533 271 149.486 271C149.486 271 145.973 270.665 143.36 269.617C143.366 269.617 137.051 269.99 136.565 267.3Z" fill="#DEF5FD"/>
<path d="M136.565 267.3C136.517 267.03 134.865 266.236 134.633 266.074C133.025 264.972 131.508 263.741 130.089 262.406C126.089 258.636 122.845 253.856 121.82 248.379C121.21 245.122 120.719 240.25 123.396 237.717C125.064 236.145 128.28 235.837 129.317 238.257C129.317 238.257 127.638 234.33 127.638 228.61C127.638 226.082 128.621 223.149 130.823 221.696C133.311 220.054 134.968 222.01 135.799 224.246C135.243 222.755 135.756 220.827 136.053 219.336C136.366 217.764 136.641 216.122 137.073 214.583C138.05 211.11 140.484 208.031 143.711 206.394C150.118 203.143 157.377 205.811 160.632 211.979C162.71 215.917 163.546 220.611 163.611 225.04C163.611 225.224 163.616 225.402 163.611 225.585C163.611 225.585 163.724 229.399 163.05 232.424C163.05 232.424 171.34 231.64 171.34 238.144C171.34 244.647 165.959 247.785 165.959 247.785C165.959 247.785 170.439 246.213 170.886 250.14C171.334 254.067 168.533 271 149.486 271C149.486 271 145.973 270.665 143.36 269.617C143.366 269.617 137.051 269.99 136.565 267.3Z" fill="white" fill-opacity="0.2"/>
<path d="M136.744 267.66C136.744 267.66 119 259.954 119 242.736C119 225.518 132.498 238.431 130.219 239.489C127.946 240.548 125.064 232.995 125.064 227.254C125.064 224.836 126.061 222.239 127.694 220.443C129.786 218.14 132.964 218.184 134.991 220.541C135.681 221.349 136.398 222.255 136.689 223.297C136.853 223.881 136.853 224.531 136.59 225.076C136.185 225.9 135.44 225.911 134.941 225.202C133.594 223.286 133.583 220.891 133.616 218.637C133.665 214.587 134.771 210.707 137.297 207.509C141.06 202.728 148.412 200.207 153.961 203.476C157.182 205.37 159.111 208.912 160.338 212.317C161.652 215.963 162.293 219.979 162.293 223.854C162.293 230.73 159.412 236.089 156.377 236.242C153.999 236.362 157.741 232.733 158.174 232.389C160.622 230.441 164.463 228.602 167.388 230.643C170.341 232.695 170.368 237.099 168.96 240.04C167.437 243.211 164.605 245.678 161.756 247.654C163.383 246.524 165.942 244.554 168.084 245.454C168.746 245.733 169.179 246.393 169.382 247.08C171.19 253.111 167.684 259.807 163.142 263.671C159.73 266.574 155.742 267.977 151.354 268.67C150.652 268.779 149.946 268.866 149.239 268.915C146.588 269.101 143.843 268.768 141.498 267.518" stroke="#37CAFC" stroke-miterlimit="10" stroke-linecap="round" stroke-linejoin="round"/>
<path d="M138.573 239.13C138.573 239.13 138.053 244.816 142.726 247.403C142.726 247.403 130.789 273.555 130.789 329.22" stroke="#37CAFC" stroke-miterlimit="10" stroke-linecap="round" stroke-linejoin="round"/>
<path d="M145.996 245.449C145.996 245.449 151.458 244.543 153.161 240.123" stroke="#37CAFC" stroke-miterlimit="10" stroke-linecap="round" stroke-linejoin="round"/>
<path d="M126.539 330.623H8.44336" stroke="#37CAFC" stroke-miterlimit="10" stroke-linecap="round" stroke-linejoin="round"/>
<path d="M290.702 146.591C290.702 146.591 292.837 143.274 296 142.472C299.151 141.674 301.216 143.925 301.216 143.925C301.216 143.925 298.558 113.577 316.943 108.916C335.327 104.254 332.385 126.429 332.385 126.429C332.385 126.429 337.023 120.45 339.786 129.169C339.786 129.169 340.556 113.83 353.171 110.631C365.786 107.433 369.772 118.057 368.205 125.1C368.205 125.1 379.282 121.731 377.289 135.913" stroke="#37CAFC" stroke-miterlimit="10" stroke-linecap="round" stroke-linejoin="round"/>
<path d="M266.32 96C291.422 96 311.771 75.6508 311.771 50.5488C311.771 25.4468 291.422 5.09766 266.32 5.09766C241.218 5.09766 220.869 25.4468 220.869 50.5488C220.869 75.6508 241.218 96 266.32 96Z" fill="#E1F7FE"/>
<path d="M264.451 90.582C289.553 90.582 309.902 70.2328 309.902 45.1308C309.902 20.0289 289.553 -0.320312 264.451 -0.320312C239.349 -0.320312 219 20.0289 219 45.1308C219 70.2328 239.349 90.582 264.451 90.582Z" stroke="#37CAFC" stroke-miterlimit="10"/>
<path d="M241 171C244.716 170.478 249.819 170.98 253.444 169.944C255.465 169.367 256.861 167.535 259 167" stroke="#37CAFC" stroke-width="3" stroke-linecap="round"/>
<path d="M258 183C261.039 182.468 263.248 182.917 266 182" stroke="#37CAFC" stroke-width="3" stroke-linecap="round"/>
</g>
<defs>
<clipPath id="clip0_10128_119501">
<rect width="375" height="331" fill="white"/>
</clipPath>
</defs>
</svg>
