<svg width="809" height="735" viewBox="0 0 809 735" fill="none" xmlns="http://www.w3.org/2000/svg">
<g clip-path="url(#clip0_10377_121483)">
<g clip-path="url(#clip1_10377_121483)">
<path d="M3.86821 735.429C-0.0530998 722.853 -3.82735 703.55 9.70117 695.458C17.4948 690.778 28.5725 692.728 36.4151 696.335C35.6308 691.363 34.8956 686.294 35.2387 681.273C35.5818 676.252 37.1503 671.134 40.5325 667.38C45.8752 661.482 54.7472 659.824 62.4428 660.068C64.9916 660.166 78.079 661.238 79.1574 664.602C79.1574 664.602 71.0206 640.326 71.0206 618.049C71.0206 604.547 76.5595 588.899 89.0587 581.88C102.538 574.324 123.174 579.15 136.359 585.243C167.191 599.428 187.876 629.212 202.63 658.508C202.581 658.411 214.148 654.95 215.57 654.657C225.079 652.708 234.049 654.511 242.088 660.019C249.587 665.138 255.371 672.401 261.008 679.518C262.969 681.955 264.929 684.49 265.861 687.512C269.243 678.348 278.654 673.425 288.114 673.425C305.76 673.425 345.757 707.839 345.757 735.478H3.86821V735.429Z" fill="#37CAFC" fill-opacity="0.5"/>
<path d="M85.2666 697.649C85.2666 697.649 99.1873 664.404 117.176 699.697C129.038 722.997 77.8161 655.825 123.941 655.825C170.065 655.825 175.506 705.059 172.467 705.059C169.428 705.059 165.359 643.346 210.111 710.811" stroke="white" stroke-width="1.95976" stroke-miterlimit="10" stroke-linecap="round" stroke-linejoin="round"/>
<path d="M84.0908 345.151C83.8327 343.722 75.0554 339.523 73.822 338.666C65.2742 332.837 57.214 326.324 49.6701 319.267C28.4154 299.326 11.1763 274.042 5.72638 245.073C2.4851 227.846 -0.125131 202.076 14.1021 188.677C22.9654 180.364 40.061 178.735 45.5683 191.534C45.5683 191.534 36.6476 170.764 36.6476 140.51C36.6476 127.139 41.8681 111.626 53.5711 103.941C66.7944 95.2559 75.6004 105.598 80.0177 117.426C77.0633 109.541 79.7883 99.3413 81.3659 91.4562C83.0295 83.1426 84.4924 74.4575 86.7871 66.3153C91.9789 47.9453 104.915 31.6609 122.068 23.0044C156.116 5.80573 194.696 19.9189 211.992 52.545C223.036 73.3719 227.482 98.1985 227.826 121.625C227.826 122.597 227.855 123.539 227.826 124.511C227.826 124.511 228.428 144.681 224.843 160.679C224.843 160.679 268.901 156.537 268.901 190.934C268.901 225.332 240.303 241.93 240.303 241.93C240.303 241.93 264.111 233.617 266.492 254.386C268.873 275.156 253.986 364.721 152.76 364.721C152.76 364.721 134.087 362.949 120.204 357.407C120.233 357.407 86.6724 359.378 84.0908 345.151Z" fill="#E1F7FE"/>
<path d="M88.6322 195.974C88.6322 195.974 85.5287 229.827 113.395 245.226C113.395 245.226 42.21 400.911 42.21 732.293" stroke="#37CAFC" stroke-opacity="0.5" stroke-width="1.30615" stroke-miterlimit="10" stroke-linecap="round" stroke-linejoin="round"/>
<path d="M83.7478 342.299C83.7478 342.299 -9.85254 302.127 -9.85254 212.367C-9.85254 122.606 61.3519 189.919 49.3304 195.439C37.3377 200.958 22.1374 161.583 22.1374 131.653C22.1374 119.05 27.3969 105.507 36.0084 96.147C47.0474 84.141 63.8082 84.3686 74.5005 96.6591C78.1416 100.87 81.9272 105.592 83.4588 111.027C84.3258 114.071 84.3258 117.456 82.9387 120.301C80.8002 124.597 76.8701 124.654 74.2404 120.956C67.1315 110.97 67.0737 98.4799 67.2471 86.7299C67.5072 65.6198 73.3445 45.3916 86.6665 28.7197C106.519 3.79722 145.3 -9.34683 174.574 7.69491C191.566 17.5672 201.738 36.0314 208.211 53.7845C215.147 72.7893 218.528 93.7287 218.528 113.928C218.528 149.776 203.327 177.714 187.318 178.511C174.776 179.137 194.513 160.217 196.796 158.425C209.714 148.268 229.971 138.68 245.403 149.321C260.979 160.018 261.123 182.977 253.696 198.312C245.663 214.842 230.723 227.701 215.696 238C224.278 232.111 237.774 221.841 249.073 226.535C252.569 227.986 254.852 231.428 255.922 235.013C265.458 266.451 246.963 301.359 223.007 321.502C205.003 336.638 183.966 343.949 160.819 347.563C157.12 348.132 153.392 348.587 149.664 348.843C135.677 349.81 121.199 348.075 108.831 341.56" stroke="#37CAFC" stroke-opacity="0.5" stroke-width="1.30615" stroke-miterlimit="10" stroke-linecap="round" stroke-linejoin="round"/>
<path d="M132.895 233.596C132.895 233.596 165.465 228.203 175.625 201.887" stroke="#37CAFC" stroke-opacity="0.5" stroke-width="1.30615" stroke-miterlimit="10" stroke-linecap="round" stroke-linejoin="round"/>
</g>
</g>
<path d="M808 285.317H707.674C629.466 285.317 631.85 359.163 631.85 359.163V425.147H574.974V662.41H526.004V346.59L434.368 401.593V534.373H366.417C366.417 534.373 366.417 496.167 366.417 496.102C366.417 496.427 312.677 495.907 308.169 496.134C294.938 496.849 280.923 499.838 269.619 506.953C246.882 521.28 246.392 546.751 246.392 570.858C246.392 591.001 246.392 611.143 246.392 631.319C246.392 647.271 246.392 663.19 246.392 679.142C231.691 679.142 214.573 676.088 205.295 690.318C200.362 697.888 198.892 707.569 198.892 716.471" stroke="#37CAFC" stroke-opacity="0.5" stroke-width="1.30615" stroke-miterlimit="10" stroke-linecap="round" stroke-linejoin="round"/>
<defs>
<clipPath id="clip0_10377_121483">
<rect width="475.439" height="735.363" fill="white" transform="translate(-19)"/>
</clipPath>
<clipPath id="clip1_10377_121483">
<rect width="466.371" height="735.363" fill="white" transform="translate(-9.93262)"/>
</clipPath>
</defs>
</svg>
