<svg width="476" height="312" viewBox="0 0 476 312" fill="none" xmlns="http://www.w3.org/2000/svg">
<path d="M475.229 311.188H364.877" stroke="#37CAFC" stroke-miterlimit="10" stroke-linecap="round" stroke-linejoin="round"/>
<path d="M399 56.6703C399 56.6703 401.459 54.3738 404.24 54.3738C407.01 54.3738 408.245 56.6703 408.245 56.6703C408.245 56.6703 412.405 31 428.57 31C444.734 31 437.659 48.7319 437.659 48.7319C437.659 48.7319 442.743 44.7571 443.199 52.552C443.199 52.552 447.048 40.0205 458.14 40.0205C469.231 40.0205 470.299 49.6483 467.529 55.1467C467.529 55.1467 477.386 54.683 472.769 66" stroke="#37CAFC" stroke-miterlimit="10" stroke-linecap="round" stroke-linejoin="round"/>
<path d="M5.80109 283.303C4.79789 280.086 3.83231 275.147 7.29335 273.077C9.28721 271.88 12.1212 272.379 14.1276 273.302C13.927 272.03 13.7389 270.733 13.8267 269.448C13.9145 268.164 14.3157 266.854 15.181 265.894C16.5479 264.385 18.8176 263.961 20.7864 264.023C21.4385 264.048 24.7866 264.323 25.0625 265.183C25.0625 265.183 22.9809 258.973 22.9809 253.273C22.9809 249.819 24.3979 245.816 27.5956 244.02C31.0441 242.087 36.3234 243.322 39.6967 244.881C47.5844 248.51 52.8762 256.129 56.6508 263.624C56.6382 263.599 59.5977 262.714 59.9613 262.639C62.3941 262.14 64.6889 262.602 66.7455 264.011C68.6641 265.32 70.1438 267.178 71.5859 268.999C72.0875 269.623 72.5891 270.271 72.8274 271.044C73.6926 268.7 76.1003 267.44 78.5205 267.44C83.0349 267.44 93.2676 276.245 93.2676 283.316H5.80109V283.303Z" fill="#37CAFC"/>
<path d="M26.6289 273.637C26.6289 273.637 30.1903 265.132 34.7924 274.161C37.8271 280.122 24.7228 262.938 36.523 262.938C48.3231 262.938 49.715 275.533 48.9376 275.533C48.1601 275.533 47.1193 259.745 58.5683 277.005" stroke="white" stroke-miterlimit="10" stroke-linecap="round" stroke-linejoin="round"/>
<path d="M37.0599 133.488C36.9608 132.94 33.5916 131.328 33.1182 130.999C29.8371 128.762 26.7431 126.261 23.8474 123.552C15.6887 115.898 9.07141 106.193 6.97943 95.0728C5.73525 88.46 4.73331 78.5684 10.1945 73.4251C13.5967 70.2339 20.1589 69.6088 22.2729 74.5218C22.2729 74.5218 18.8487 66.5492 18.8487 54.9358C18.8487 49.8035 20.8526 43.8488 25.3448 40.8988C30.4206 37.565 33.8008 41.5349 35.4964 46.075C34.3623 43.0482 35.4083 39.1332 36.0139 36.1065C36.6525 32.9153 37.214 29.5815 38.0949 26.4561C40.0878 19.4047 45.0535 13.1539 51.6377 9.83106C64.707 3.22929 79.5161 8.64669 86.1553 21.1703C90.3944 29.1648 92.101 38.6946 92.2331 47.687C92.2331 48.0599 92.2441 48.4218 92.2331 48.7946C92.2331 48.7946 92.4643 56.5369 91.088 62.6781C91.088 62.6781 108 61.0879 108 74.2915C108 87.495 97.0226 93.8665 97.0226 93.8665C97.0226 93.8665 106.161 90.6753 107.075 98.6478C107.989 106.62 102.275 141 63.4188 141C63.4188 141 56.251 140.32 50.922 138.193C50.933 138.193 38.0508 138.949 37.0599 133.488Z" fill="#E1F7FE"/>
<path d="M270.169 78.6318H231.658C201.638 78.6318 202.553 106.978 202.553 106.978V132.306H180.721V223.38H161.923V102.152L126.749 123.265V174.233H100.665C100.665 174.233 100.665 159.567 100.665 159.542C100.665 159.667 80.0372 159.468 78.3067 159.555C73.228 159.829 67.8483 160.977 63.5095 163.708C54.7816 169.207 54.5935 178.984 54.5935 188.238C54.5935 195.97 54.5935 203.701 54.5935 211.446C54.5935 217.569 54.5935 223.68 54.5935 229.803C48.9505 229.803 42.3796 228.631 38.8182 234.093C36.9247 236.999 36.3604 240.715 36.3604 244.132" stroke="#37CAFC" stroke-miterlimit="10" stroke-linecap="round" stroke-linejoin="round"/>
<path d="M38.8057 76.2256C38.8057 76.2256 37.6144 89.2202 48.311 95.1313C48.311 95.1313 20.9863 154.891 20.9863 282.094" stroke="#37CAFC" stroke-miterlimit="10" stroke-linecap="round" stroke-linejoin="round"/>
<path d="M36.9288 132.393C36.9288 132.393 1 116.973 1 82.5176C1 48.0626 28.3321 73.9012 23.7176 76.0198C19.1141 78.1384 13.2795 63.0241 13.2795 51.5354C13.2795 46.6975 15.2983 41.4993 18.6039 37.9063C22.8412 33.2978 29.2749 33.3852 33.3792 38.1029C34.7768 39.7192 36.23 41.532 36.8179 43.6179C37.1507 44.7864 37.1507 46.086 36.6182 47.1781C35.7974 48.8271 34.2888 48.8489 33.2793 47.4292C30.5506 43.5961 30.5284 38.8018 30.5949 34.2916C30.6948 26.1884 32.9355 18.4237 38.0491 12.0242C45.6697 2.45757 60.556 -2.58781 71.7927 3.95372C78.3151 7.74322 82.2197 14.8308 84.7045 21.6453C87.3667 28.9404 88.6645 36.9781 88.6645 44.7318C88.6645 58.492 82.8298 69.2161 76.6845 69.5219C71.8704 69.7622 79.4466 62.4999 80.3229 61.8119C85.2813 57.9132 93.0571 54.2329 98.9806 58.3172C104.959 62.4234 105.015 71.2365 102.164 77.1228C99.0804 83.4677 93.3456 88.4039 87.5774 92.3572C90.8719 90.0966 96.0521 86.1542 100.389 87.9562C101.732 88.5131 102.608 89.8345 103.018 91.2105C106.679 103.278 99.5796 116.678 90.3838 124.41C83.4732 130.219 75.3978 133.026 66.5127 134.413C65.0928 134.631 63.6619 134.806 62.2309 134.904C56.8621 135.276 51.3048 134.61 46.5571 132.109" stroke="#37CAFC" stroke-miterlimit="10" stroke-linecap="round" stroke-linejoin="round"/>
<path d="M55.7969 90.6666C55.7969 90.6666 68.2993 88.5965 72.1992 78.4951" stroke="#37CAFC" stroke-miterlimit="10" stroke-linecap="round" stroke-linejoin="round"/>
<path d="M342.499 273.974V39.2363L393.11 62.9558C399.092 65.7617 402.904 71.7352 402.904 78.3073V163.52H428.937V199.773C428.937 199.773 446.606 199.773 446.644 199.773C453.955 199.773 461.729 201.793 467.134 206.919C475.749 215.087 474.42 225.999 474.42 236.711" stroke="#37CAFC" stroke-miterlimit="10" stroke-linecap="round" stroke-linejoin="round"/>
<path d="M346.788 172.139H328.391C328.391 172.139 316.942 172.825 316.942 182.839V254.982" stroke="#37CAFC" stroke-miterlimit="10"/>
<path d="M468.139 311.686C468.139 311.686 471.261 308.718 471.261 302.944C471.261 297.17 464.703 293.604 460.088 296.572C460.088 296.572 459.047 290.05 452.188 290.947C452.188 290.947 456.802 284.575 456.802 276.282C456.802 270.371 454.558 264.223 449.767 260.494C442.256 254.645 431.86 256.578 424.775 262.078C416.674 268.363 412.862 278.776 410.768 288.428C410.768 288.428 403.771 282.205 399.745 296.135C399.871 295.686 396.535 294.065 396.172 293.953C392.711 292.868 390.265 295.424 388.56 298.043C387.03 296.148 385.688 294.439 383.155 293.803C373.562 291.384 368.057 305.127 365.474 311.699H468.139V311.686Z" fill="#37CAFC"/>
<path d="M433.922 299.016C433.922 299.016 433.722 294.614 437.948 295.512C437.948 295.512 439.766 283.091 447.516 283.091C455.266 283.091 451.24 296.11 451.24 296.11C451.24 296.11 451.641 290.099 457.284 290.099C462.927 290.099 462.326 296.609 461.912 299.315" stroke="white" stroke-miterlimit="10" stroke-linecap="round" stroke-linejoin="round"/>
<path d="M112.24 283.403H1.8877" stroke="#37CAFC" stroke-miterlimit="10" stroke-linecap="round" stroke-linejoin="round"/>
</svg>
