<svg width="55" height="55" viewBox="0 0 55 55" fill="none" xmlns="http://www.w3.org/2000/svg">
<g clip-path="url(#clip0_4967_144390)">
<path d="M4091.33 1620.5H-2876.32V-3102.57H4091.33V1620.5ZM-2875.59 1619.73H4090.62V-3101.86H-2875.59V1619.73Z" fill="#333333"/>
<path d="M4091.33 1620.5H-2876.32V-3102.57H4091.33V1620.5ZM-2875.59 1619.73H4090.62V-3101.86H-2875.59V1619.73Z" fill="#333333"/>
<path d="M4091.33 1620.5H-2876.32V-3102.57H4091.33V1620.5ZM-2875.59 1619.73H4090.62V-3101.86H-2875.59V1619.73Z" fill="#333333"/>
<path d="M33.2309 23.283V23.176C33.2309 23.176 33.2309 23.176 33.2309 23.1149L33.2767 23.0385L33.3608 22.9469L33.483 22.8552C33.6205 22.7559 33.7656 22.649 33.9031 22.5344C34.1009 22.3659 34.271 22.1674 34.4073 21.9462C34.5233 21.7504 34.5766 21.5238 34.5601 21.2969H34.6059V23.9247C34.6062 24.3692 34.4551 24.8007 34.1774 25.1478C33.8997 25.495 33.5119 25.7371 33.0781 25.8344C33.2557 24.9963 33.3072 24.1363 33.2309 23.283Z" fill="#009DD4"/>
<path d="M19.6944 23.2833C19.698 23.2477 19.698 23.2119 19.6944 23.1763C19.6944 23.1763 19.6944 23.1763 19.6944 23.1152L19.6486 23.0388L19.5264 22.9166L19.4118 22.8249C19.2654 22.7266 19.1251 22.6195 18.9917 22.5041C18.7897 22.3399 18.6189 22.1406 18.4875 21.9159C18.366 21.7222 18.3098 21.4946 18.3271 21.2666H18.2812V23.8944C18.2823 24.3386 18.4339 24.7693 18.7114 25.1162C18.9889 25.4631 19.3759 25.7056 19.809 25.8041C19.6509 24.9736 19.6123 24.1247 19.6944 23.2833Z" fill="#009DD4"/>
<path d="M42.2355 30.2421C42.4952 30.2879 42.7702 30.2421 43.0376 30.2421C43.3049 30.2421 43.5036 30.3032 43.7404 30.3108C43.847 30.2978 43.9552 30.3074 44.0578 30.339C44.1605 30.3705 44.2554 30.4234 44.3362 30.4942L44.4202 30.5858V29.0581C44.4189 27.9475 43.9865 26.8809 43.2141 26.0829C42.4418 25.2849 41.3898 24.8179 40.2799 24.7803H39.3786C38.2693 24.8159 37.2174 25.2813 36.4449 26.0781C35.6723 26.8748 35.2397 27.9406 35.2383 29.0504V30.5782H35.5744C35.6308 30.5409 35.6927 30.5126 35.7577 30.4942C36.3841 30.3414 37.0029 30.1657 37.614 29.99C38.2081 29.8912 38.7782 29.6813 39.2945 29.3712C39.3846 29.289 39.4817 29.2149 39.5848 29.1497C39.898 28.9893 40.2494 29.2567 40.5091 29.4018C40.6372 29.4855 40.7727 29.5571 40.914 29.6157L41.3647 29.8525C41.6246 30.0094 41.9048 30.1302 42.1973 30.2115L42.2355 30.2421Z" fill="#009DD4"/>
<path d="M33.3281 18.2798C33.649 18.0277 33.374 17.6534 33.3281 18.2798V18.2798Z" fill="#009DD4"/>
<path d="M27.1403 8.76206C25.116 8.74363 23.1566 9.47568 21.6403 10.8169L20.8229 11.5808C20.0543 11.915 19.3976 12.4624 18.9305 13.1583C18.4635 13.8541 18.2056 14.6693 18.1875 15.5072V20.6253L18.5618 20.1593C18.8903 18.8454 20.0896 18.4405 21.4264 18.4405C22.2669 17.8393 23.0752 17.1941 23.8479 16.5079C24.0236 16.2711 24.9097 18.0357 26.85 18.0357L28.3778 17.8065L30.2188 16.7294L32.6708 18.4634C33.5449 18.5722 34.3545 18.9797 34.9625 19.6169V15.7975C34.9243 11.9093 31.4333 8.76206 27.1403 8.76206Z" fill="#009DD4"/>
<path d="M47.0563 38.8057C46.5216 38.6834 44.9403 38.3626 42.366 37.8508V37.1939C42.3663 37.1612 42.3589 37.1289 42.3443 37.0997C42.3297 37.0705 42.3083 37.0452 42.282 37.0258C42.7749 36.5737 43.1696 36.025 43.4416 35.414C43.7136 34.803 43.8571 34.1425 43.8633 33.4737V32.9925C44.3216 32.9925 44.8716 32.6716 44.8716 31.6022C44.8716 30.5327 44.3292 30.2196 43.8785 30.1279V28.73C43.8785 28.6712 43.8552 28.6149 43.8137 28.5733C43.7721 28.5318 43.7158 28.5084 43.657 28.5084C43.5983 28.5084 43.5419 28.5318 43.5004 28.5733C43.4588 28.6149 43.4355 28.6712 43.4355 28.73V33.4737C43.4355 33.4737 43.382 37.4307 39.8223 37.4307C36.2626 37.4307 36.1862 33.5425 36.1862 33.5043V30.5557C37.4957 30.58 38.7636 30.0953 39.723 29.2036C40.1126 29.639 41.2126 30.548 43.4508 30.548V30.105C40.8383 30.105 39.9292 28.7605 39.9216 28.7529L39.723 28.4932L39.532 28.73C39.099 29.1771 38.5783 29.53 38.0026 29.7666C37.4268 30.0032 36.8085 30.1184 36.1862 30.105V28.73C36.1862 28.6712 36.1628 28.6149 36.1213 28.5733C36.0797 28.5318 36.0234 28.5084 35.9646 28.5084C35.9059 28.5084 35.8495 28.5318 35.808 28.5733C35.7665 28.6149 35.7431 28.6712 35.7431 28.73V30.1814C35.3459 30.3189 34.9334 30.6855 34.9334 31.6022C34.9334 32.5189 35.3383 32.855 35.7431 32.9543V33.4737C35.7565 34.2038 35.9353 34.9214 36.2661 35.5723C36.5969 36.2233 37.071 36.7908 37.6528 37.2321V37.8508C35.0709 38.3626 33.4973 38.6834 32.9626 38.8057C32.7239 38.8197 32.4906 38.8822 32.277 38.9895C32.0634 39.0968 31.8739 39.2466 31.7201 39.4297C31.5664 39.6127 31.4516 39.8252 31.3829 40.0542C31.3141 40.2832 31.2928 40.5237 31.3202 40.7612V46.7348H48.7369V40.7612C48.7656 40.5205 48.7439 40.2764 48.6733 40.0445C48.6027 39.8125 48.4846 39.5978 48.3266 39.4139C48.1686 39.23 47.974 39.081 47.7554 38.9763C47.5367 38.8716 47.2986 38.8135 47.0563 38.8057ZM43.8633 30.5557C44.123 30.6244 44.4362 30.823 44.4362 31.5793C44.4362 32.3355 44.1383 32.4883 43.8633 32.5265V30.5557ZM35.7431 32.4654C35.5445 32.3737 35.3765 32.1446 35.3765 31.5793C35.3765 31.014 35.5521 30.7619 35.7431 30.6473V32.4654ZM38.0883 37.698V37.4536C38.6953 37.7232 39.3573 37.8464 40.0207 37.8132C40.6842 37.78 41.3305 37.5914 41.9077 37.2626V37.8126C41.9099 37.8278 41.9099 37.8432 41.9077 37.8584C40.6955 38.3514 39.3387 38.3514 38.1265 37.8584H38.0577L38.0883 37.698ZM48.2709 46.2918H31.7403V40.7612C31.7052 40.5816 31.7088 40.3964 31.7511 40.2183C31.7933 40.0402 31.8732 39.8731 31.9854 39.7284C32.0975 39.5837 32.2393 39.4647 32.4013 39.3793C32.5633 39.2939 32.7416 39.2442 32.9244 39.2334C32.927 39.2672 32.9373 39.2999 32.9545 39.329C32.9717 39.3581 32.9954 39.3829 33.0237 39.4015C33.167 39.4821 33.2919 39.5916 33.3906 39.7231C33.4892 39.8546 33.5594 40.0053 33.5966 40.1654C33.6983 40.6422 33.742 41.1295 33.7265 41.6168C33.7254 41.6455 33.7302 41.6741 33.7405 41.701C33.7508 41.7278 33.7664 41.7523 33.7863 41.773C33.8063 41.7937 33.8302 41.8101 33.8567 41.8213C33.8831 41.8325 33.9116 41.8383 33.9403 41.8383C33.9971 41.8383 34.0515 41.8158 34.0916 41.7757C34.1317 41.7355 34.1542 41.6811 34.1542 41.6244C34.1751 41.1113 34.1289 40.5977 34.0167 40.0966C33.9298 39.7173 33.7104 39.3814 33.398 39.1494L37.8591 38.2557L37.9813 38.3091C38.6327 38.5691 39.3272 38.7039 40.0285 38.7064C40.7666 38.7046 41.4967 38.5539 42.1751 38.2633L46.2924 39.0883C46.1133 39.2012 45.9584 39.3484 45.8364 39.5215C45.7145 39.6945 45.628 39.89 45.582 40.0966C45.4706 40.5979 45.4218 41.1111 45.4369 41.6244C45.4369 41.6532 45.4426 41.6816 45.4538 41.7081C45.4651 41.7345 45.4815 41.7585 45.5022 41.7784C45.5229 41.7984 45.5474 41.814 45.5742 41.8243C45.601 41.8346 45.6297 41.8393 45.6584 41.8383C45.6871 41.8383 45.7156 41.8325 45.7421 41.8213C45.7685 41.8101 45.7924 41.7937 45.8124 41.773C45.8324 41.7523 45.848 41.7278 45.8583 41.701C45.8685 41.6741 45.8733 41.6455 45.8723 41.6168C45.8529 41.1294 45.8966 40.6416 46.0021 40.1654C46.0381 40.0057 46.1069 39.8554 46.2042 39.7238C46.3016 39.5923 46.4253 39.4825 46.5674 39.4015C46.6111 39.3761 46.6448 39.3364 46.6629 39.2892C46.681 39.2419 46.6823 39.1899 46.6667 39.1418L46.9417 39.2029C47.7056 39.3786 48.2556 39.5772 48.2556 40.7307L48.2709 46.2918Z" fill="#333333" stroke="#333333" stroke-width="0.25" stroke-miterlimit="10"/>
<path d="M27.4468 12.8773C29.6268 12.3996 31.0069 10.245 30.5291 8.065C30.0514 5.88496 27.8969 4.50496 25.7168 4.98267C23.5368 5.46039 22.1568 7.61493 22.6345 9.79497C23.1122 11.975 25.2668 13.355 27.4468 12.8773Z" fill="#009DD4"/>
<path d="M26.8053 36.5599L30.556 32.1752L35.9032 33.2522C35.8569 32.9942 35.8888 32.7281 35.9949 32.4884C34.681 32.221 33.0081 31.8849 30.9379 31.48V30.3418C30.9385 30.2862 30.9265 30.2311 30.9027 30.1808C30.8788 30.1305 30.8439 30.0863 30.8004 30.0516C32.947 28.2946 33.5275 25.346 33.5275 23.9404V23.0925C34.2914 23.0161 35.2692 22.5425 35.2692 20.6939C35.2692 18.8453 34.3754 18.3335 33.6115 18.1502H33.5734V18.0127C33.5734 17.9093 33.5323 17.8102 33.4592 17.7372C33.3862 17.6641 33.2871 17.6231 33.1838 17.6231C33.0971 17.6221 33.0131 17.6525 32.9471 17.7087C32.8811 17.7648 32.8376 17.843 32.8247 17.9286V18.2189C31.8912 17.8043 31.096 17.131 30.5331 16.2786L30.2963 15.9272L29.1199 16.9279C28.5107 17.4507 27.7309 17.7317 26.9283 17.7176C26.1257 17.7035 25.3562 17.3953 24.7657 16.8516L23.8949 16.0877L23.6352 16.4238C23.2272 16.9205 22.722 17.3285 22.1506 17.6228C21.5791 17.9171 20.9535 18.0913 20.3122 18.1349V18.0509C20.3122 17.9475 20.2712 17.8484 20.1981 17.7754C20.1251 17.7023 20.026 17.6613 19.9227 17.6613C19.8234 17.6613 19.7282 17.7007 19.658 17.7709C19.5878 17.8411 19.5484 17.9363 19.5484 18.0356V18.2724C18.8532 18.5168 18.1581 19.1432 18.1581 20.7321C18.1581 22.321 18.8532 22.8863 19.556 23.0696V23.9634C19.556 25.3842 20.2511 28.73 22.8407 30.4411V31.5182C18.3949 32.3967 15.6754 32.9467 14.7511 33.1529C13.2997 33.4738 11.8789 34.0009 11.8789 36.537V46.8036H31.5338V46.0397H12.6428V36.4988C12.6428 34.6272 13.4449 34.2071 14.6824 33.9168C14.689 33.974 14.7081 34.029 14.7385 34.0779C14.7689 34.1267 14.8097 34.1683 14.8581 34.1995C15.1069 34.3407 15.3232 34.5327 15.493 34.763C15.6628 34.9933 15.7822 35.2568 15.8435 35.5363C16.0111 36.3603 16.0778 37.2017 16.0421 38.0418C16.04 38.0923 16.0482 38.1426 16.0661 38.1898C16.084 38.237 16.1112 38.28 16.1462 38.3164C16.1811 38.3528 16.2231 38.3818 16.2695 38.4015C16.316 38.4213 16.3659 38.4315 16.4164 38.4314C16.5164 38.4314 16.6124 38.3922 16.6838 38.3223C16.7552 38.2523 16.7964 38.1571 16.7983 38.0571C16.8309 37.1516 16.7487 36.2455 16.5539 35.3606C16.4078 34.7059 16.0274 34.1273 15.4845 33.7335C16.7754 33.4585 19.365 32.9696 23.2227 32.2057L26.8053 36.5599ZM33.5657 18.9293C34.0164 19.0439 34.5435 19.38 34.5435 20.6939C34.5435 22.0078 34.0393 22.2599 33.5657 22.321V18.9293ZM30.2122 31.4418C30.1718 31.4631 30.1355 31.4916 30.1053 31.5259L26.8206 35.3453L23.7192 31.5259C23.6864 31.489 23.6477 31.458 23.6046 31.4342V30.8231C24.5384 31.2519 25.5564 31.4659 26.5838 31.4495C27.8602 31.4801 29.1189 31.1463 30.2122 30.487V31.4418ZM23.9713 17.1571L24.2539 17.4168C24.981 18.081 25.9255 18.4569 26.9102 18.4738C27.8948 18.4907 28.8517 18.1474 29.6011 17.5085L30.1435 17.0502C30.6171 17.6536 31.6713 18.8071 32.7865 18.9904V20.8391H31.549C31.513 20.3026 31.2895 19.7959 30.9176 19.4076C30.5457 19.0193 30.0491 18.7741 29.5148 18.7149C28.9804 18.6557 28.4422 18.7863 27.9943 19.0839C27.5465 19.3814 27.2175 19.8269 27.065 20.3425H25.8352C25.6826 19.8269 25.3537 19.3814 24.9058 19.0839C24.458 18.7863 23.9198 18.6557 23.3854 18.7149C22.851 18.7741 22.3544 19.0193 21.9826 19.4076C21.6107 19.7959 21.3872 20.3026 21.3511 20.8391H20.3199V18.8606C21.0106 18.8304 21.6885 18.6644 22.315 18.3721C22.9415 18.0798 23.5043 17.6669 23.9713 17.1571ZM30.8463 21.1293C30.8387 21.4281 30.7437 21.7181 30.5729 21.9634C30.4022 22.2087 30.1633 22.3985 29.8857 22.5094C29.6082 22.6203 29.3042 22.6473 29.0114 22.5872C28.7187 22.527 28.45 22.3823 28.2387 22.1709C28.0273 21.9596 27.8826 21.6909 27.8225 21.3982C27.7623 21.1054 27.7893 20.8015 27.9002 20.5239C28.0111 20.2464 28.2009 20.0074 28.4462 19.8367C28.6915 19.666 28.9815 19.5709 29.2803 19.5634C29.6903 19.5714 30.0808 19.7399 30.3679 20.0327C30.655 20.3255 30.8158 20.7192 30.8157 21.1293H30.8463ZM25.247 21.1293C25.2394 21.4298 25.1435 21.7213 24.9711 21.9675C24.7987 22.2136 24.5576 22.4035 24.2779 22.5133C23.9981 22.6231 23.6922 22.6479 23.3984 22.5848C23.1046 22.5216 22.836 22.3731 22.6261 22.158C22.4162 21.9429 22.2745 21.6707 22.2186 21.3754C22.1626 21.0802 22.195 20.7749 22.3117 20.498C22.4284 20.2211 22.6242 19.9847 22.8745 19.8184C23.1248 19.6522 23.4187 19.5635 23.7192 19.5634C24.1211 19.583 24.5001 19.7566 24.7774 20.0482C25.0548 20.3398 25.2092 20.7269 25.2088 21.1293H25.247ZM19.556 22.2217C19.2122 22.0613 18.922 21.6717 18.922 20.6939C18.922 19.7161 19.2199 19.2807 19.556 19.0745V22.2217ZM20.3199 23.9252V21.6335H21.3893C21.5287 22.1736 21.8571 22.6458 22.3151 22.9642C22.773 23.2827 23.33 23.4263 23.8848 23.369C24.4396 23.3117 24.9555 23.0572 25.3386 22.6518C25.7217 22.2464 25.9467 21.7171 25.9727 21.1599H26.9122C26.9382 21.7171 27.1632 22.2464 27.5463 22.6518C27.9294 23.0572 28.4453 23.3117 29.0001 23.369C29.5549 23.4263 30.1119 23.2827 30.5698 22.9642C31.0278 22.6458 31.3562 22.1736 31.4956 21.6335H32.7636V23.9252C32.7636 23.9939 32.6949 30.6932 26.5456 30.6932C20.3963 30.6932 20.3199 23.9939 20.3199 23.9252Z" fill="#333333"/>
</g>
<defs>
<clipPath id="clip0_4967_144390">
<rect width="55" height="55" fill="white"/>
</clipPath>
</defs>
</svg>
