<svg width="684" height="399" viewBox="0 0 684 399" fill="none" xmlns="http://www.w3.org/2000/svg">
<g opacity="0.4" clip-path="url(#clip0_6720_13919)">
<path d="M508.131 245.184C572.113 245.184 623.98 193.385 623.98 129.488C623.98 65.5905 572.113 13.7915 508.131 13.7915C444.149 13.7915 392.281 65.5905 392.281 129.488C392.281 193.385 444.149 245.184 508.131 245.184Z" fill="#E1F7FE"/>
<path d="M552.586 408.957H573.765C573.765 408.957 569.529 383.576 586.472 383.576C586.472 383.576 594.944 383.576 597.062 392.036C597.062 392.036 597.062 377.23 603.416 377.23C609.769 377.23 614.005 379.345 618.241 387.806C618.241 387.806 609.769 358.194 635.184 358.194C660.599 358.194 662.717 396.266 662.717 396.266C662.717 396.266 666.953 387.806 675.425 389.921C683.896 392.036 681.778 400.496 681.778 400.496" stroke="#57CBFC" stroke-miterlimit="10" stroke-linecap="round" stroke-linejoin="round"/>
<path d="M13.5352 237.993H70.7187C70.7187 237.993 66.4829 233.763 66.4829 225.302C66.4829 216.842 83.4262 210.496 89.7799 221.072C89.7799 221.072 77.0724 189.345 104.605 178.77C132.138 168.194 155.435 206.266 155.435 212.612C155.435 212.612 151.199 185.115 174.496 185.115C197.793 185.115 208.383 212.612 208.383 229.532C208.383 229.532 212.619 221.072 221.09 223.187C229.562 225.302 231.68 235.878 231.68 235.878" stroke="#57CBFC" stroke-miterlimit="10" stroke-linecap="round" stroke-linejoin="round"/>
<path d="M503.365 231.392C567.347 231.392 619.215 179.593 619.215 115.696C619.215 51.799 567.347 0 503.365 0C439.383 0 387.516 51.799 387.516 115.696C387.516 179.593 439.383 231.392 503.365 231.392Z" stroke="#37CAFC" stroke-miterlimit="10"/>
</g>
<defs>
<clipPath id="clip0_6720_13919">
<rect width="684" height="1312" fill="white"/>
</clipPath>
</defs>
</svg>
