<svg width="275" height="51" viewBox="0 0 275 51" fill="none" xmlns="http://www.w3.org/2000/svg">
<g filter="url(#filter0_dd_7190_10669)">
<rect x="2" width="271" height="45" rx="22" fill="white"/>
<circle cx="30.1602" cy="22.5" r="4.5" fill="#85D9A3"/>
<path d="M54.597 28.316C54.525 28.388 54.405 28.478 54.237 28.586C54.081 28.694 53.865 28.802 53.589 28.91C53.313 29.018 52.977 29.108 52.581 29.18C52.197 29.264 51.753 29.306 51.249 29.306C50.277 29.306 49.437 29.15 48.729 28.838C48.021 28.526 47.433 28.094 46.965 27.542C46.509 26.978 46.173 26.318 45.957 25.562C45.741 24.794 45.633 23.954 45.633 23.042C45.633 22.13 45.747 21.29 45.975 20.522C46.215 19.742 46.569 19.07 47.037 18.506C47.505 17.942 48.087 17.504 48.783 17.192C49.491 16.868 50.319 16.706 51.267 16.706C51.735 16.706 52.155 16.748 52.527 16.832C52.911 16.916 53.241 17.018 53.517 17.138C53.805 17.246 54.039 17.366 54.219 17.498C54.411 17.618 54.555 17.72 54.651 17.804C54.759 17.9 54.849 18.014 54.921 18.146C55.005 18.278 55.047 18.422 55.047 18.578C55.047 18.818 54.957 19.058 54.777 19.298C54.597 19.538 54.399 19.76 54.183 19.964C54.039 19.82 53.877 19.676 53.697 19.532C53.517 19.376 53.313 19.244 53.085 19.136C52.869 19.016 52.617 18.92 52.329 18.848C52.053 18.764 51.741 18.722 51.393 18.722C50.781 18.722 50.265 18.848 49.845 19.1C49.437 19.34 49.107 19.658 48.855 20.054C48.603 20.45 48.423 20.906 48.315 21.422C48.207 21.926 48.153 22.442 48.153 22.97C48.153 23.534 48.207 24.074 48.315 24.59C48.423 25.106 48.609 25.562 48.873 25.958C49.137 26.354 49.479 26.672 49.899 26.912C50.331 27.152 50.865 27.272 51.501 27.272C51.837 27.272 52.143 27.23 52.419 27.146C52.707 27.062 52.959 26.96 53.175 26.84C53.391 26.72 53.577 26.594 53.733 26.462C53.901 26.33 54.039 26.216 54.147 26.12C54.219 26.204 54.303 26.306 54.399 26.426C54.495 26.546 54.585 26.672 54.669 26.804C54.753 26.936 54.825 27.068 54.885 27.2C54.945 27.332 54.975 27.452 54.975 27.56C54.975 27.716 54.945 27.848 54.885 27.956C54.825 28.064 54.729 28.184 54.597 28.316ZM62.1826 24.032C62.1826 23.768 62.1706 23.522 62.1466 23.294C62.1346 23.066 62.0866 22.874 62.0026 22.718C61.9306 22.55 61.8046 22.424 61.6246 22.34C61.4566 22.244 61.2166 22.196 60.9046 22.196C60.4606 22.196 60.0766 22.292 59.7526 22.484C59.4406 22.664 59.2846 22.892 59.2846 23.168V29H56.8366V16.31C56.8606 16.298 56.9566 16.286 57.1246 16.274C57.2926 16.25 57.4726 16.238 57.6646 16.238C57.8566 16.238 58.0486 16.256 58.2406 16.292C58.4326 16.328 58.6066 16.4 58.7626 16.508C58.9186 16.604 59.0446 16.748 59.1406 16.94C59.2366 17.12 59.2846 17.36 59.2846 17.66V21.242C59.3806 21.134 59.5006 21.02 59.6446 20.9C59.7886 20.78 59.9626 20.672 60.1666 20.576C60.3706 20.468 60.6046 20.384 60.8686 20.324C61.1446 20.264 61.4566 20.234 61.8046 20.234C62.6566 20.234 63.2866 20.402 63.6946 20.738C64.1026 21.074 64.3666 21.518 64.4866 22.07C64.5466 22.346 64.5826 22.646 64.5946 22.97C64.6186 23.294 64.6306 23.612 64.6306 23.924V29H62.1826V24.032ZM73.9284 26.912C73.9284 27.848 74.0664 28.538 74.3424 28.982C74.1264 29.066 73.9224 29.126 73.7304 29.162C73.5504 29.198 73.3584 29.216 73.1544 29.216C72.7224 29.216 72.3924 29.132 72.1644 28.964C71.9484 28.796 71.8104 28.556 71.7504 28.244C71.4864 28.52 71.1384 28.754 70.7064 28.946C70.2744 29.138 69.7464 29.234 69.1224 29.234C68.7984 29.234 68.4744 29.186 68.1504 29.09C67.8264 29.006 67.5324 28.862 67.2684 28.658C67.0044 28.454 66.7884 28.184 66.6204 27.848C66.4524 27.5 66.3684 27.08 66.3684 26.588C66.3684 25.976 66.5124 25.478 66.8004 25.094C67.1004 24.71 67.4724 24.41 67.9164 24.194C68.3604 23.966 68.8404 23.81 69.3564 23.726C69.8724 23.642 70.3464 23.588 70.7784 23.564C70.9224 23.552 71.0604 23.546 71.1924 23.546C71.3364 23.546 71.4684 23.546 71.5884 23.546V23.222C71.5884 22.766 71.4624 22.442 71.2104 22.25C70.9704 22.058 70.5744 21.962 70.0224 21.962C69.5064 21.962 69.0444 22.046 68.6364 22.214C68.2404 22.382 67.8504 22.574 67.4664 22.79C67.2984 22.586 67.1604 22.364 67.0524 22.124C66.9564 21.872 66.9084 21.686 66.9084 21.566C66.9084 21.41 66.9984 21.254 67.1784 21.098C67.3704 20.93 67.6284 20.786 67.9524 20.666C68.2764 20.534 68.6484 20.432 69.0684 20.36C69.4884 20.276 69.9324 20.234 70.4004 20.234C71.0484 20.234 71.5944 20.3 72.0384 20.432C72.4944 20.564 72.8604 20.768 73.1364 21.044C73.4244 21.32 73.6284 21.668 73.7484 22.088C73.8684 22.496 73.9284 22.976 73.9284 23.528V26.912ZM71.6244 24.824C71.5404 24.824 71.4564 24.824 71.3724 24.824C71.2884 24.824 71.2044 24.83 71.1204 24.842C70.8204 24.866 70.5204 24.908 70.2204 24.968C69.9324 25.016 69.6744 25.1 69.4464 25.22C69.2184 25.328 69.0324 25.478 68.8884 25.67C68.7444 25.862 68.6724 26.108 68.6724 26.408C68.6724 26.744 68.7684 27.032 68.9604 27.272C69.1524 27.5 69.4764 27.614 69.9324 27.614C70.1604 27.614 70.3764 27.584 70.5804 27.524C70.7844 27.464 70.9644 27.386 71.1204 27.29C71.2764 27.194 71.3964 27.092 71.4804 26.984C71.5764 26.864 71.6244 26.756 71.6244 26.66V24.824ZM76.3512 27.704C76.2672 27.464 76.2132 27.212 76.1892 26.948C76.1652 26.684 76.1532 26.42 76.1532 26.156V17.804L76.4232 17.768C76.5072 17.756 76.5972 17.75 76.6932 17.75C76.7892 17.738 76.8852 17.732 76.9812 17.732C77.1732 17.732 77.3652 17.75 77.5572 17.786C77.7492 17.822 77.9232 17.894 78.0792 18.002C78.2352 18.11 78.3612 18.26 78.4572 18.452C78.5532 18.632 78.6012 18.872 78.6012 19.172V20.432H81.1212V22.268H78.6012V26.12C78.6012 26.96 78.9432 27.38 79.6272 27.38C79.7952 27.38 79.9512 27.356 80.0952 27.308C80.2512 27.248 80.3892 27.188 80.5092 27.128C80.6412 27.056 80.7492 26.984 80.8332 26.912C80.9172 26.84 80.9772 26.786 81.0132 26.75C81.1932 27.014 81.3312 27.242 81.4272 27.434C81.5232 27.626 81.5712 27.806 81.5712 27.974C81.5712 28.13 81.5052 28.286 81.3732 28.442C81.2532 28.586 81.0792 28.724 80.8512 28.856C80.6232 28.976 80.3472 29.072 80.0232 29.144C79.6992 29.228 79.3452 29.27 78.9612 29.27C78.2052 29.27 77.6232 29.126 77.2152 28.838C76.8072 28.55 76.5192 28.172 76.3512 27.704ZM87.1571 27.47C87.4571 27.47 87.7211 27.44 87.9491 27.38C88.1771 27.308 88.3811 27.224 88.5611 27.128C88.7411 27.032 88.8971 26.93 89.0291 26.822C89.1611 26.702 89.2811 26.594 89.3891 26.498C89.5331 26.678 89.6831 26.912 89.8391 27.2C89.9951 27.476 90.0731 27.704 90.0731 27.884C90.0731 28.148 89.9231 28.388 89.6231 28.604C89.3711 28.796 89.0111 28.958 88.5431 29.09C88.0871 29.234 87.5471 29.306 86.9231 29.306C86.3591 29.306 85.8011 29.234 85.2491 29.09C84.7091 28.946 84.2231 28.694 83.7911 28.334C83.3711 27.974 83.0291 27.494 82.7651 26.894C82.5011 26.282 82.3691 25.514 82.3691 24.59C82.3691 23.834 82.4831 23.186 82.7111 22.646C82.9511 22.094 83.2631 21.638 83.6471 21.278C84.0431 20.918 84.4871 20.654 84.9791 20.486C85.4711 20.318 85.9751 20.234 86.4911 20.234C87.1631 20.234 87.7331 20.342 88.2011 20.558C88.6691 20.762 89.0471 21.044 89.3351 21.404C89.6351 21.752 89.8511 22.154 89.9831 22.61C90.1151 23.066 90.1811 23.546 90.1811 24.05C90.1811 24.122 90.1811 24.206 90.1811 24.302C90.1811 24.398 90.1751 24.5 90.1631 24.608C90.1631 24.716 90.1571 24.824 90.1451 24.932C90.1451 25.028 90.1391 25.106 90.1271 25.166H84.8351C84.8831 25.826 85.0871 26.378 85.4471 26.822C85.8071 27.254 86.3771 27.47 87.1571 27.47ZM87.9671 23.816C87.9671 23.24 87.8531 22.772 87.6251 22.412C87.4091 22.052 87.0131 21.872 86.4371 21.872C85.9331 21.872 85.5371 22.046 85.2491 22.394C84.9611 22.73 84.8171 23.204 84.8171 23.816H87.9671ZM98.9772 26.912C98.9772 27.848 99.1152 28.538 99.3912 28.982C99.1752 29.066 98.9712 29.126 98.7792 29.162C98.5992 29.198 98.4072 29.216 98.2032 29.216C97.7712 29.216 97.4412 29.132 97.2132 28.964C96.9972 28.796 96.8592 28.556 96.7992 28.244C96.5352 28.52 96.1872 28.754 95.7552 28.946C95.3232 29.138 94.7952 29.234 94.1712 29.234C93.8472 29.234 93.5232 29.186 93.1992 29.09C92.8752 29.006 92.5812 28.862 92.3172 28.658C92.0532 28.454 91.8372 28.184 91.6692 27.848C91.5012 27.5 91.4172 27.08 91.4172 26.588C91.4172 25.976 91.5612 25.478 91.8492 25.094C92.1492 24.71 92.5212 24.41 92.9652 24.194C93.4092 23.966 93.8892 23.81 94.4052 23.726C94.9212 23.642 95.3952 23.588 95.8272 23.564C95.9712 23.552 96.1092 23.546 96.2412 23.546C96.3852 23.546 96.5172 23.546 96.6372 23.546V23.222C96.6372 22.766 96.5112 22.442 96.2592 22.25C96.0192 22.058 95.6232 21.962 95.0712 21.962C94.5552 21.962 94.0932 22.046 93.6852 22.214C93.2892 22.382 92.8992 22.574 92.5152 22.79C92.3472 22.586 92.2092 22.364 92.1012 22.124C92.0052 21.872 91.9572 21.686 91.9572 21.566C91.9572 21.41 92.0472 21.254 92.2272 21.098C92.4192 20.93 92.6772 20.786 93.0012 20.666C93.3252 20.534 93.6972 20.432 94.1172 20.36C94.5372 20.276 94.9812 20.234 95.4492 20.234C96.0972 20.234 96.6432 20.3 97.0872 20.432C97.5432 20.564 97.9092 20.768 98.1852 21.044C98.4732 21.32 98.6772 21.668 98.7972 22.088C98.9172 22.496 98.9772 22.976 98.9772 23.528V26.912ZM96.6732 24.824C96.5892 24.824 96.5052 24.824 96.4212 24.824C96.3372 24.824 96.2532 24.83 96.1692 24.842C95.8692 24.866 95.5692 24.908 95.2692 24.968C94.9812 25.016 94.7232 25.1 94.4952 25.22C94.2672 25.328 94.0812 25.478 93.9372 25.67C93.7932 25.862 93.7212 26.108 93.7212 26.408C93.7212 26.744 93.8172 27.032 94.0092 27.272C94.2012 27.5 94.5252 27.614 94.9812 27.614C95.2092 27.614 95.4252 27.584 95.6292 27.524C95.8332 27.464 96.0132 27.386 96.1692 27.29C96.3252 27.194 96.4452 27.092 96.5292 26.984C96.6252 26.864 96.6732 26.756 96.6732 26.66V24.824ZM109.725 27.452C109.989 27.452 110.229 27.422 110.445 27.362C110.661 27.302 110.853 27.23 111.021 27.146C111.189 27.05 111.333 26.954 111.453 26.858C111.573 26.75 111.663 26.66 111.723 26.588C111.795 26.66 111.867 26.756 111.939 26.876C112.011 26.984 112.077 27.104 112.137 27.236C112.197 27.356 112.245 27.476 112.281 27.596C112.317 27.716 112.335 27.824 112.335 27.92C112.335 28.04 112.311 28.16 112.263 28.28C112.215 28.388 112.113 28.502 111.957 28.622C111.729 28.79 111.405 28.946 110.985 29.09C110.565 29.234 110.031 29.306 109.383 29.306C108.951 29.306 108.483 29.246 107.979 29.126C107.475 29.006 107.007 28.778 106.575 28.442C106.143 28.106 105.783 27.644 105.495 27.056C105.207 26.456 105.063 25.676 105.063 24.716C105.063 23.804 105.213 23.06 105.513 22.484C105.813 21.908 106.185 21.452 106.629 21.116C107.073 20.78 107.541 20.552 108.033 20.432C108.537 20.3 108.987 20.234 109.383 20.234C109.887 20.234 110.343 20.288 110.751 20.396C111.171 20.504 111.519 20.648 111.795 20.828C112.023 20.972 112.179 21.11 112.263 21.242C112.359 21.374 112.407 21.53 112.407 21.71C112.407 21.878 112.353 22.088 112.245 22.34C112.137 22.58 111.999 22.802 111.831 23.006C111.639 22.802 111.357 22.598 110.985 22.394C110.613 22.19 110.199 22.088 109.743 22.088C108.951 22.088 108.387 22.334 108.051 22.826C107.715 23.306 107.547 23.924 107.547 24.68C107.547 25.064 107.583 25.424 107.655 25.76C107.727 26.096 107.847 26.39 108.015 26.642C108.195 26.894 108.423 27.092 108.699 27.236C108.975 27.38 109.317 27.452 109.725 27.452ZM121.767 24.698C121.767 25.298 121.689 25.874 121.533 26.426C121.389 26.978 121.143 27.464 120.795 27.884C120.459 28.304 120.021 28.64 119.481 28.892C118.941 29.144 118.287 29.27 117.519 29.27C116.751 29.27 116.097 29.15 115.557 28.91C115.029 28.658 114.597 28.328 114.261 27.92C113.925 27.5 113.679 27.02 113.523 26.48C113.367 25.928 113.289 25.352 113.289 24.752C113.289 24.14 113.379 23.564 113.559 23.024C113.739 22.472 114.003 21.992 114.351 21.584C114.711 21.164 115.161 20.834 115.701 20.594C116.241 20.354 116.871 20.234 117.591 20.234C118.347 20.234 118.989 20.354 119.517 20.594C120.057 20.834 120.489 21.158 120.813 21.566C121.149 21.974 121.389 22.448 121.533 22.988C121.689 23.528 121.767 24.098 121.767 24.698ZM119.301 24.716C119.301 24.392 119.277 24.074 119.229 23.762C119.181 23.438 119.091 23.156 118.959 22.916C118.827 22.676 118.647 22.484 118.419 22.34C118.191 22.184 117.903 22.106 117.555 22.106C117.207 22.106 116.913 22.184 116.673 22.34C116.445 22.496 116.259 22.7 116.115 22.952C115.983 23.192 115.887 23.468 115.827 23.78C115.767 24.092 115.737 24.41 115.737 24.734C115.737 25.058 115.761 25.382 115.809 25.706C115.869 26.03 115.965 26.324 116.097 26.588C116.229 26.84 116.409 27.044 116.637 27.2C116.877 27.356 117.171 27.434 117.519 27.434C117.879 27.434 118.173 27.356 118.401 27.2C118.641 27.044 118.827 26.84 118.959 26.588C119.091 26.324 119.181 26.03 119.229 25.706C119.277 25.382 119.301 25.052 119.301 24.716ZM126.17 29H123.704V20.486L123.92 20.45C123.992 20.438 124.076 20.432 124.172 20.432C124.268 20.42 124.382 20.414 124.514 20.414C124.898 20.414 125.228 20.486 125.504 20.63C125.792 20.762 125.972 21.002 126.044 21.35C126.248 21.074 126.56 20.822 126.98 20.594C127.4 20.354 127.97 20.234 128.69 20.234C129.542 20.234 130.172 20.402 130.58 20.738C130.988 21.074 131.252 21.518 131.372 22.07C131.432 22.346 131.468 22.646 131.48 22.97C131.504 23.294 131.516 23.612 131.516 23.924V29H129.068V24.032C129.068 23.768 129.056 23.522 129.032 23.294C129.02 23.066 128.972 22.874 128.888 22.718C128.816 22.55 128.69 22.424 128.51 22.34C128.342 22.244 128.102 22.196 127.79 22.196C127.346 22.196 126.962 22.292 126.638 22.484C126.326 22.664 126.17 22.892 126.17 23.168V29ZM145.754 29H144.116C143.816 29 143.624 28.922 143.54 28.766C143.468 28.598 143.432 28.358 143.432 28.046C143.228 28.322 142.916 28.58 142.496 28.82C142.076 29.048 141.506 29.162 140.786 29.162C139.934 29.162 139.304 28.994 138.896 28.658C138.488 28.322 138.224 27.878 138.104 27.326C138.044 27.05 138.002 26.75 137.978 26.426C137.966 26.102 137.96 25.784 137.96 25.472V20.486C137.984 20.474 138.08 20.462 138.248 20.45C138.416 20.426 138.596 20.414 138.788 20.414C138.98 20.414 139.172 20.432 139.364 20.468C139.556 20.504 139.73 20.576 139.886 20.684C140.042 20.78 140.168 20.924 140.264 21.116C140.36 21.296 140.408 21.536 140.408 21.836V25.364C140.408 25.64 140.414 25.892 140.426 26.12C140.45 26.336 140.498 26.528 140.57 26.696C140.654 26.852 140.78 26.978 140.948 27.074C141.128 27.158 141.374 27.2 141.686 27.2C142.13 27.2 142.508 27.11 142.82 26.93C143.144 26.738 143.306 26.504 143.306 26.228V20.486C143.33 20.474 143.426 20.462 143.594 20.45C143.762 20.426 143.942 20.414 144.134 20.414C144.326 20.414 144.518 20.438 144.71 20.486C144.902 20.522 145.076 20.6 145.232 20.72C145.388 20.828 145.514 20.984 145.61 21.188C145.706 21.38 145.754 21.626 145.754 21.926V29ZM150.515 29H148.049V20.486L148.265 20.45C148.337 20.438 148.421 20.432 148.517 20.432C148.613 20.42 148.727 20.414 148.859 20.414C149.243 20.414 149.573 20.486 149.849 20.63C150.137 20.762 150.317 21.002 150.389 21.35C150.593 21.074 150.905 20.822 151.325 20.594C151.745 20.354 152.315 20.234 153.035 20.234C153.887 20.234 154.517 20.402 154.925 20.738C155.333 21.074 155.597 21.518 155.717 22.07C155.777 22.346 155.813 22.646 155.825 22.97C155.849 23.294 155.861 23.612 155.861 23.924V29H153.413V24.032C153.413 23.768 153.401 23.522 153.377 23.294C153.365 23.066 153.317 22.874 153.233 22.718C153.161 22.55 153.035 22.424 152.855 22.34C152.687 22.244 152.447 22.196 152.135 22.196C151.691 22.196 151.307 22.292 150.983 22.484C150.671 22.664 150.515 22.892 150.515 23.168V29ZM166.733 27.47C167.033 27.47 167.297 27.44 167.525 27.38C167.753 27.308 167.957 27.224 168.137 27.128C168.317 27.032 168.473 26.93 168.605 26.822C168.737 26.702 168.857 26.594 168.965 26.498C169.109 26.678 169.259 26.912 169.415 27.2C169.571 27.476 169.649 27.704 169.649 27.884C169.649 28.148 169.499 28.388 169.199 28.604C168.947 28.796 168.587 28.958 168.119 29.09C167.663 29.234 167.123 29.306 166.499 29.306C165.935 29.306 165.377 29.234 164.825 29.09C164.285 28.946 163.799 28.694 163.367 28.334C162.947 27.974 162.605 27.494 162.341 26.894C162.077 26.282 161.945 25.514 161.945 24.59C161.945 23.834 162.059 23.186 162.287 22.646C162.527 22.094 162.839 21.638 163.223 21.278C163.619 20.918 164.063 20.654 164.555 20.486C165.047 20.318 165.551 20.234 166.067 20.234C166.739 20.234 167.309 20.342 167.777 20.558C168.245 20.762 168.623 21.044 168.911 21.404C169.211 21.752 169.427 22.154 169.559 22.61C169.691 23.066 169.757 23.546 169.757 24.05C169.757 24.122 169.757 24.206 169.757 24.302C169.757 24.398 169.751 24.5 169.739 24.608C169.739 24.716 169.733 24.824 169.721 24.932C169.721 25.028 169.715 25.106 169.703 25.166H164.411C164.459 25.826 164.663 26.378 165.023 26.822C165.383 27.254 165.953 27.47 166.733 27.47ZM167.543 23.816C167.543 23.24 167.429 22.772 167.201 22.412C166.985 22.052 166.589 21.872 166.013 21.872C165.509 21.872 165.113 22.046 164.825 22.394C164.537 22.73 164.393 23.204 164.393 23.816H167.543ZM174.701 23.114L175.673 21.53C175.901 21.158 176.141 20.882 176.393 20.702C176.645 20.51 176.999 20.414 177.455 20.414C177.695 20.414 177.917 20.444 178.121 20.504C178.337 20.564 178.541 20.636 178.733 20.72L175.997 24.824L178.625 28.964C178.265 29.108 177.887 29.18 177.491 29.18C177.071 29.18 176.717 29.12 176.429 29C176.141 28.868 175.877 28.61 175.637 28.226L174.557 26.534L173.081 29H170.507L173.243 24.734L170.723 20.666C170.915 20.606 171.143 20.546 171.407 20.486C171.683 20.426 171.947 20.396 172.199 20.396C172.607 20.396 172.925 20.486 173.153 20.666C173.393 20.846 173.597 21.092 173.765 21.404L174.701 23.114ZM182.329 21.278C182.521 21.05 182.821 20.822 183.229 20.594C183.637 20.354 184.153 20.234 184.777 20.234C185.221 20.234 185.641 20.312 186.037 20.468C186.445 20.612 186.805 20.852 187.117 21.188C187.429 21.524 187.675 21.968 187.855 22.52C188.047 23.072 188.143 23.75 188.143 24.554C188.143 25.49 188.035 26.264 187.819 26.876C187.603 27.476 187.321 27.956 186.973 28.316C186.637 28.664 186.253 28.91 185.821 29.054C185.401 29.198 184.987 29.27 184.579 29.27C184.231 29.27 183.925 29.228 183.661 29.144C183.409 29.072 183.193 28.988 183.013 28.892C182.833 28.796 182.695 28.7 182.599 28.604C182.503 28.508 182.443 28.442 182.419 28.406V32.924H179.989V20.486L180.205 20.45C180.277 20.438 180.361 20.432 180.457 20.432C180.553 20.42 180.667 20.414 180.799 20.414C181.195 20.414 181.531 20.48 181.807 20.612C182.083 20.744 182.257 20.966 182.329 21.278ZM185.587 24.608C185.587 24.248 185.557 23.912 185.497 23.6C185.437 23.288 185.335 23.018 185.191 22.79C185.059 22.562 184.873 22.388 184.633 22.268C184.405 22.136 184.123 22.07 183.787 22.07C183.283 22.07 182.929 22.166 182.725 22.358C182.533 22.55 182.437 22.76 182.437 22.988V26.804C182.533 26.9 182.701 27.014 182.941 27.146C183.193 27.278 183.481 27.344 183.805 27.344C184.417 27.344 184.867 27.104 185.155 26.624C185.443 26.144 185.587 25.472 185.587 24.608ZM194.507 27.47C194.807 27.47 195.071 27.44 195.299 27.38C195.527 27.308 195.731 27.224 195.911 27.128C196.091 27.032 196.247 26.93 196.379 26.822C196.511 26.702 196.631 26.594 196.739 26.498C196.883 26.678 197.033 26.912 197.189 27.2C197.345 27.476 197.423 27.704 197.423 27.884C197.423 28.148 197.273 28.388 196.973 28.604C196.721 28.796 196.361 28.958 195.893 29.09C195.437 29.234 194.897 29.306 194.273 29.306C193.709 29.306 193.151 29.234 192.599 29.09C192.059 28.946 191.573 28.694 191.141 28.334C190.721 27.974 190.379 27.494 190.115 26.894C189.851 26.282 189.719 25.514 189.719 24.59C189.719 23.834 189.833 23.186 190.061 22.646C190.301 22.094 190.613 21.638 190.997 21.278C191.393 20.918 191.837 20.654 192.329 20.486C192.821 20.318 193.325 20.234 193.841 20.234C194.513 20.234 195.083 20.342 195.551 20.558C196.019 20.762 196.397 21.044 196.685 21.404C196.985 21.752 197.201 22.154 197.333 22.61C197.465 23.066 197.531 23.546 197.531 24.05C197.531 24.122 197.531 24.206 197.531 24.302C197.531 24.398 197.525 24.5 197.513 24.608C197.513 24.716 197.507 24.824 197.495 24.932C197.495 25.028 197.489 25.106 197.477 25.166H192.185C192.233 25.826 192.437 26.378 192.797 26.822C193.157 27.254 193.727 27.47 194.507 27.47ZM195.317 23.816C195.317 23.24 195.203 22.772 194.975 22.412C194.759 22.052 194.363 21.872 193.787 21.872C193.283 21.872 192.887 22.046 192.599 22.394C192.311 22.73 192.167 23.204 192.167 23.816H195.317ZM201.665 21.332C201.737 21.224 201.833 21.104 201.953 20.972C202.085 20.84 202.235 20.72 202.403 20.612C202.571 20.504 202.757 20.414 202.961 20.342C203.177 20.27 203.405 20.234 203.645 20.234C203.789 20.234 203.939 20.246 204.095 20.27C204.263 20.294 204.413 20.342 204.545 20.414C204.689 20.474 204.803 20.564 204.887 20.684C204.971 20.792 205.013 20.93 205.013 21.098C205.013 21.35 204.947 21.65 204.815 21.998C204.683 22.346 204.551 22.64 204.419 22.88C204.215 22.712 204.011 22.586 203.807 22.502C203.603 22.406 203.363 22.358 203.087 22.358C202.715 22.358 202.403 22.466 202.151 22.682C201.899 22.898 201.773 23.156 201.773 23.456V29H199.325V20.486L199.541 20.45C199.613 20.438 199.697 20.432 199.793 20.432C199.889 20.42 200.003 20.414 200.135 20.414C200.519 20.414 200.849 20.492 201.125 20.648C201.413 20.792 201.593 21.02 201.665 21.332ZM206.289 27.704C206.205 27.464 206.151 27.212 206.127 26.948C206.103 26.684 206.091 26.42 206.091 26.156V17.804L206.361 17.768C206.445 17.756 206.535 17.75 206.631 17.75C206.727 17.738 206.823 17.732 206.919 17.732C207.111 17.732 207.303 17.75 207.495 17.786C207.687 17.822 207.861 17.894 208.017 18.002C208.173 18.11 208.299 18.26 208.395 18.452C208.491 18.632 208.539 18.872 208.539 19.172V20.432H211.059V22.268H208.539V26.12C208.539 26.96 208.881 27.38 209.565 27.38C209.733 27.38 209.889 27.356 210.033 27.308C210.189 27.248 210.327 27.188 210.447 27.128C210.579 27.056 210.687 26.984 210.771 26.912C210.855 26.84 210.915 26.786 210.951 26.75C211.131 27.014 211.269 27.242 211.365 27.434C211.461 27.626 211.509 27.806 211.509 27.974C211.509 28.13 211.443 28.286 211.311 28.442C211.191 28.586 211.017 28.724 210.789 28.856C210.561 28.976 210.285 29.072 209.961 29.144C209.637 29.228 209.283 29.27 208.899 29.27C208.143 29.27 207.561 29.126 207.153 28.838C206.745 28.55 206.457 28.172 206.289 27.704ZM220.785 24.698C220.785 25.298 220.707 25.874 220.551 26.426C220.407 26.978 220.161 27.464 219.813 27.884C219.477 28.304 219.039 28.64 218.499 28.892C217.959 29.144 217.305 29.27 216.537 29.27C215.769 29.27 215.115 29.15 214.575 28.91C214.047 28.658 213.615 28.328 213.279 27.92C212.943 27.5 212.697 27.02 212.541 26.48C212.385 25.928 212.307 25.352 212.307 24.752C212.307 24.14 212.397 23.564 212.577 23.024C212.757 22.472 213.021 21.992 213.369 21.584C213.729 21.164 214.179 20.834 214.719 20.594C215.259 20.354 215.889 20.234 216.609 20.234C217.365 20.234 218.007 20.354 218.535 20.594C219.075 20.834 219.507 21.158 219.831 21.566C220.167 21.974 220.407 22.448 220.551 22.988C220.707 23.528 220.785 24.098 220.785 24.698ZM218.319 24.716C218.319 24.392 218.295 24.074 218.247 23.762C218.199 23.438 218.109 23.156 217.977 22.916C217.845 22.676 217.665 22.484 217.437 22.34C217.209 22.184 216.921 22.106 216.573 22.106C216.225 22.106 215.931 22.184 215.691 22.34C215.463 22.496 215.277 22.7 215.133 22.952C215.001 23.192 214.905 23.468 214.845 23.78C214.785 24.092 214.755 24.41 214.755 24.734C214.755 25.058 214.779 25.382 214.827 25.706C214.887 26.03 214.983 26.324 215.115 26.588C215.247 26.84 215.427 27.044 215.655 27.2C215.895 27.356 216.189 27.434 216.537 27.434C216.897 27.434 217.191 27.356 217.419 27.2C217.659 27.044 217.845 26.84 217.977 26.588C218.109 26.324 218.199 26.03 218.247 25.706C218.295 25.382 218.319 25.052 218.319 24.716Z" fill="#0099CC"/>
<path d="M239.14 14C235.009 14 231.66 17.0444 231.66 20.8C231.66 22.7289 232.55 24.4637 233.97 25.6995C233.766 26.3665 233.341 27.03 232.561 27.6213C232.56 27.6217 232.56 27.6221 232.559 27.6226C232.495 27.6471 232.439 27.6905 232.4 27.7472C232.361 27.8039 232.34 27.8711 232.34 27.94C232.34 28.0302 232.376 28.1167 232.44 28.1804C232.504 28.2442 232.59 28.28 232.68 28.28C232.703 28.2797 232.727 28.277 232.749 28.272C234.068 28.2682 235.194 27.7047 236.089 26.9984C236.514 27.1712 236.958 27.3137 237.42 27.4127C237.214 26.8279 237.1 26.2053 237.1 25.56C237.1 22.1852 240.151 19.44 243.9 19.44C244.84 19.44 245.736 19.6126 246.551 19.9248C246.078 16.5832 242.944 14 239.14 14ZM243.9 20.8C242.457 20.8 241.074 21.3015 240.053 22.1942C239.033 23.0868 238.46 24.2976 238.46 25.56C238.46 26.8224 239.033 28.0332 240.053 28.9258C241.074 29.8185 242.457 30.32 243.9 30.32C244.596 30.319 245.285 30.2014 245.93 29.9734C246.763 30.5559 247.773 30.988 248.928 30.992C248.952 30.9972 248.976 30.9999 249 31C249.09 31 249.177 30.9642 249.241 30.9004C249.304 30.8367 249.34 30.7502 249.34 30.66C249.34 30.5904 249.319 30.5226 249.279 30.4656C249.239 30.4086 249.182 30.3652 249.117 30.3412C248.495 29.8688 248.096 29.3487 247.857 28.8192C248.807 27.9377 249.338 26.772 249.34 25.56C249.34 24.2976 248.767 23.0868 247.747 22.1942C246.727 21.3015 245.343 20.8 243.9 20.8Z" fill="#0099CC"/>
<rect x="3" y="1" width="269" height="43" rx="21" stroke="#0099CC" stroke-width="2" stroke-miterlimit="0" stroke-linejoin="bevel"/>
</g>
<defs>
<filter id="filter0_dd_7190_10669" x="0" y="0" width="275" height="51" filterUnits="userSpaceOnUse" color-interpolation-filters="sRGB">
<feFlood flood-opacity="0" result="BackgroundImageFix"/>
<feColorMatrix in="SourceAlpha" type="matrix" values="0 0 0 0 0 0 0 0 0 0 0 0 0 0 0 0 0 0 127 0" result="hardAlpha"/>
<feMorphology radius="2" operator="erode" in="SourceAlpha" result="effect1_dropShadow_7190_10669"/>
<feOffset dy="4"/>
<feGaussianBlur stdDeviation="2"/>
<feColorMatrix type="matrix" values="0 0 0 0 0.0941176 0 0 0 0 0.152941 0 0 0 0 0.294118 0 0 0 0.08 0"/>
<feBlend mode="normal" in2="BackgroundImageFix" result="effect1_dropShadow_7190_10669"/>
<feColorMatrix in="SourceAlpha" type="matrix" values="0 0 0 0 0 0 0 0 0 0 0 0 0 0 0 0 0 0 127 0" result="hardAlpha"/>
<feMorphology radius="2" operator="erode" in="SourceAlpha" result="effect2_dropShadow_7190_10669"/>
<feOffset dy="2"/>
<feGaussianBlur stdDeviation="2"/>
<feColorMatrix type="matrix" values="0 0 0 0 0.0941176 0 0 0 0 0.152941 0 0 0 0 0.294118 0 0 0 0.12 0"/>
<feBlend mode="normal" in2="effect1_dropShadow_7190_10669" result="effect2_dropShadow_7190_10669"/>
<feBlend mode="normal" in="SourceGraphic" in2="effect2_dropShadow_7190_10669" result="shape"/>
</filter>
</defs>
</svg>
