<svg width="204" height="124" viewBox="0 0 204 124" fill="none" xmlns="http://www.w3.org/2000/svg">
<g clip-path="url(#clip0_1932_19314)">
<path d="M28.1465 78.7011L29.6996 78.3389L28.661 77.5477C28.661 77.5381 28.3275 77.7479 28.1465 78.7011Z" fill="#9EB3C1"/>
<path d="M110.509 101.446L68.8609 98.1285L56.8267 95.2878C61.162 94.3726 64.7066 93.6005 64.7066 93.6005L79.9041 72.8671C79.9041 72.8671 74.5778 67.0236 58.9324 70.3314C51.5576 71.8948 41.5719 75.9747 21.7151 80.1214C1.84864 84.2681 0.124023 98.0808 0.124023 98.0808C0.124023 98.0808 0.63855 102.399 7.71804 106.889C14.7975 111.379 60.9048 109.997 60.9048 109.997C60.9048 109.997 65.4879 113.8 69.8137 115.039C74.1395 116.279 80.6283 116.708 80.6283 116.708C80.6283 116.708 90.4138 124.524 92.4814 123.905C94.5395 123.285 95.0541 121.016 95.0541 121.016L87.3266 113.905C87.3266 113.905 102.162 120.911 103.706 121.016C105.249 121.121 107.002 121.226 107.002 119.472C107.002 117.718 107.002 117.308 107.002 117.308L93.4057 109.997L110.509 108.3V101.446Z" fill="white"/>
<path d="M110.509 101.617L110.337 101.608L68.8417 98.3382H68.8226H68.8036L56.7694 95.4879L55.8928 95.2782L56.7694 95.0875L64.6492 93.4003L64.5349 93.4765L79.7515 72.7527L79.761 72.9815C79.1227 72.3618 78.3223 71.8566 77.4933 71.4467C76.6644 71.0368 75.7973 70.6936 74.9016 70.4363C73.1199 69.912 71.2618 69.6164 69.4038 69.5402C65.6687 69.3209 61.9337 69.8643 58.2844 70.646C54.635 71.4848 51.0619 72.6288 47.4603 73.6869C43.8681 74.7641 40.2569 75.7936 36.6171 76.7468C32.9868 77.7001 29.3375 78.5866 25.6691 79.4064C22.0007 80.2072 18.3133 80.9221 14.8355 82.3329C11.3672 83.7152 8.13713 85.7456 5.53592 88.4338C4.21149 89.7493 3.09668 91.2745 2.18197 92.895C1.28631 94.5156 0.543111 96.2791 0.228678 98.0998V98.0712C0.495469 99.3677 1.19103 100.588 1.98188 101.665C2.79178 102.752 3.74461 103.724 4.77366 104.601C5.80271 105.478 6.91751 106.288 8.07996 106.965C9.27099 107.575 10.6145 107.899 11.9294 108.185C17.2747 109.215 22.744 109.51 28.1751 109.777C33.6252 110.016 39.0754 110.101 44.5255 110.12C49.9757 110.13 55.4354 110.073 60.8856 109.93H60.9142L60.9332 109.949C62.3053 111.055 63.7726 112.065 65.2971 112.952C66.8217 113.838 68.4319 114.61 70.1375 115.068C71.8431 115.525 73.5867 115.83 75.3399 116.088C77.0931 116.336 78.8559 116.526 80.6186 116.66H80.6376L80.6567 116.669C83.0197 118.528 85.4399 120.33 87.9744 121.941C88.6128 122.341 89.2512 122.732 89.9182 123.075C90.5852 123.409 91.2712 123.762 91.9953 123.876C92.3574 123.933 92.71 123.781 93.0434 123.609C93.3674 123.437 93.6723 123.209 93.9296 122.942C94.4346 122.398 94.8062 121.722 94.9967 121.007L95.0158 121.054L87.2979 113.933L87.0978 113.743L87.3455 113.857C91.0044 115.583 94.6728 117.279 98.3697 118.9C99.294 119.3 100.218 119.71 101.162 120.082C101.628 120.282 102.105 120.454 102.572 120.635C103.048 120.797 103.515 120.997 104.03 120.988C104.535 121.016 105.04 121.045 105.535 120.969C106.021 120.911 106.545 120.711 106.793 120.273C107.04 119.834 106.974 119.3 106.983 118.805V117.289L106.993 117.308L93.396 109.987L93.3483 109.958L93.4055 109.949L110.509 108.262V101.617ZM110.509 101.265V101.436V108.3L93.4055 110.006L93.415 109.977L107.021 117.279L107.031 117.289V117.308V118.824C107.021 119.319 107.088 119.853 106.831 120.32C106.574 120.787 106.03 120.988 105.535 121.045C105.03 121.121 104.525 121.092 104.02 121.064C103.505 121.064 103.02 120.864 102.543 120.711C102.067 120.53 101.6 120.358 101.133 120.158C100.199 119.777 99.2654 119.377 98.3411 118.976C94.6347 117.356 90.9663 115.659 87.3074 113.943L87.3551 113.876L95.0825 120.988L95.1015 121.007L95.092 121.035C94.8919 121.769 94.5203 122.456 93.9963 123.018C93.7295 123.294 93.4246 123.523 93.0911 123.704C92.7576 123.876 92.3765 124.048 91.9858 123.981C91.2235 123.857 90.5375 123.504 89.8705 123.171C89.2036 122.818 88.5556 122.437 87.9172 122.036C85.3732 120.416 82.953 118.624 80.5805 116.765L80.6186 116.774C78.8463 116.641 77.0836 116.46 75.3304 116.212C73.5772 115.954 71.824 115.659 70.1089 115.201C68.3843 114.744 66.774 113.962 65.2305 113.076C63.6964 112.179 62.2291 111.179 60.8475 110.063L60.8951 110.082C55.4449 110.235 49.9852 110.292 44.5351 110.292C39.0849 110.282 33.6252 110.206 28.1751 109.977C22.7344 109.711 17.2652 109.425 11.8913 108.405C10.5573 108.119 9.21383 107.794 7.97515 107.165C6.78412 106.469 5.67884 105.669 4.63073 104.782C3.59215 103.896 2.62027 102.914 1.80084 101.808C0.990939 100.702 0.276319 99.4916 0 98.1094V98.0998V98.0808C0.323961 96.1933 1.06716 94.4393 1.97235 92.7902C2.89659 91.1506 4.02092 89.6063 5.35488 88.2717C7.97515 85.5549 11.2433 83.4959 14.7402 82.0946C18.2371 80.6743 21.9531 79.9402 25.612 79.1395C29.2708 78.3197 32.9201 77.4332 36.5409 76.4704C40.1711 75.5076 43.7728 74.4685 47.365 73.3914C50.9667 72.3237 54.5397 71.1703 58.2081 70.3314C61.886 69.5402 65.6497 68.9873 69.4229 69.2065C71.3095 69.2733 73.1865 69.5783 75.0064 70.1121C75.9116 70.3791 76.8073 70.7222 77.6553 71.1417C78.5128 71.5706 79.3132 72.0663 80.0278 72.7527L80.1326 72.8575L80.0374 72.9815L64.8588 93.7053L64.8112 93.7625L64.735 93.7816L56.8551 95.4784L56.8646 95.0875L68.8988 97.9187L68.8702 97.9092L110.509 101.265Z" fill="#263238"/>
<path d="M171.823 76.5277L170.66 76.3561L171.661 75.3647C171.661 75.3647 171.851 75.8032 171.823 76.5277Z" fill="#9EB3C1"/>
<path d="M142.009 71.9997C137.15 71.5803 116.474 69.3115 116.474 69.3115L86.2213 67.0142C86.1832 67.0142 86.1451 67.0237 86.0975 67.0237C84.4205 67.2239 82.7435 67.4145 81.057 67.6147C79.8755 67.7482 78.7035 67.8626 77.522 68.0055C76.1881 68.1676 74.9589 68.4059 73.6155 68.3011C72.1957 68.1867 70.7856 68.0723 69.3659 68.0055C66.6027 67.8816 63.7823 67.9198 61.0763 68.587C59.8566 68.8921 58.618 69.1685 57.3984 69.464C54.3779 70.2076 51.3765 71.0083 48.3846 71.8377C45.2498 72.6956 42.1246 73.5916 39.0088 74.4877C36.5505 75.2027 34.0922 75.9176 31.6435 76.6516C30.6525 76.9471 29.6521 77.2426 28.6611 77.5477C28.6611 77.5477 35.3214 82.4379 41.1241 87.1851C43.63 89.2346 45.4595 91.6082 47.3746 92.9714C48.1845 93.5529 50.4046 93.3146 50.6428 93.9247L58.0749 95.5643C61.2764 94.9733 61.0096 94.9828 64.2111 94.3822C64.3254 94.3632 64.4493 94.3441 64.5541 94.3918C64.6398 94.4299 64.7065 94.5157 64.7637 94.6015C66.3073 96.813 65.5069 95.3641 66.7742 97.7377C66.7742 97.7377 72.7674 99.4822 75.4449 99.4822C86.936 99.4822 116.102 101.589 127.707 101.589L127.212 98.9579C127.212 98.9579 132.471 98.3383 138.57 97.2992C138.732 96.794 138.855 96.4222 138.913 96.3078C138.96 96.203 139.017 96.0981 139.113 96.0314C139.551 95.7168 141.123 96.0314 141.628 96.0504C142.343 96.079 143.467 96.3269 144.267 96.2316C144.382 96.2125 144.496 96.1839 144.611 96.1553C144.782 96.1076 144.934 96.06 145.096 96.0123C153.453 93.5148 154.701 92.3899 154.701 92.3899L170.689 76.3466L171.652 75.3742C170.127 74.9834 146.869 72.4287 142.009 71.9997Z" fill="#0099CC"/>
<path d="M144.601 96.1555C144.611 96.1555 144.611 96.1555 144.62 96.146C144.506 96.1746 144.392 96.1937 144.277 96.2223C144.392 96.2032 144.496 96.1841 144.601 96.1555Z" fill="#0099CC"/>
<path d="M79.3512 27.13L87.5932 74.9741C88.9938 83.1149 95.6826 94.2204 104.63 92.1232C114.167 89.7973 119.627 84.7927 118.312 77.1952C117.683 73.5919 114.901 63.4397 114.863 63.0679C114.863 63.0679 126.84 59.8268 125.639 47.6156C125.058 41.7149 122.876 29.6657 120.78 18.7795C118.531 7.09249 107.669 -0.895824 95.8446 0.410141L94.6727 0.543598C82.0763 2.68843 76.8548 14.5851 79.3512 27.13Z" fill="white"/>
<path d="M79.5801 27.0821L84.3252 54.8029L86.7072 68.6633C87.1169 70.9702 87.479 73.2961 87.9173 75.5839C88.3842 77.8622 89.156 80.0738 90.1755 82.171C91.195 84.2586 92.4623 86.2414 94.0344 87.9477C95.5971 89.6445 97.5123 91.0839 99.7133 91.7894C100.256 91.9609 100.838 92.0277 101.4 92.1611C101.971 92.1707 102.553 92.2183 103.124 92.1802C103.696 92.0849 104.268 92.0372 104.83 91.9037C105.392 91.7512 105.964 91.6082 106.516 91.4462C108.746 90.7789 110.919 89.8828 112.872 88.615C114.835 87.3758 116.512 85.6599 117.483 83.5532C118.427 81.437 118.57 79.0252 118.084 76.7469C117.14 72.1617 115.873 67.6623 114.739 63.0772L114.72 62.9818L114.835 62.9437C117.179 62.2097 119.389 60.9514 121.219 59.2927C122.152 58.4825 122.924 57.5006 123.61 56.4806C123.896 55.9373 124.249 55.4225 124.477 54.841L124.82 53.9831C124.944 53.6971 125.039 53.4111 125.106 53.1061C125.783 50.7134 125.706 48.1968 125.344 45.7374C125.039 43.2684 124.658 40.809 124.258 38.3496C123.458 33.4403 122.562 28.531 121.647 23.6408C121.161 21.2005 120.799 18.722 120.104 16.3484C119.399 13.9652 118.227 11.7346 116.778 9.72324C113.853 5.71955 109.623 2.64052 104.839 1.26782C100.085 -0.114402 94.8444 -0.00954309 90.2231 1.85885C87.9268 2.81211 85.8497 4.27059 84.1536 6.09132C82.4576 7.91204 81.1618 10.0855 80.2852 12.4114C78.4939 17.0824 78.4557 22.2586 79.3609 27.1298L79.5801 27.0821ZM79.3514 27.1298C78.4367 22.2586 78.4653 17.0824 80.2471 12.4019C81.1237 10.0759 82.41 7.89298 84.106 6.06272C85.802 4.23246 87.8887 2.77397 90.185 1.81118C94.8158 -0.0762713 100.066 -0.18113 104.849 1.19156C109.661 2.55472 113.92 5.64329 116.864 9.66604C118.332 11.6774 119.513 13.9271 120.218 16.3198C120.923 18.722 121.295 21.191 121.781 23.6313C122.705 28.5215 123.61 33.4213 124.42 38.3401C124.82 40.7995 125.211 43.2589 125.525 45.7279C125.897 48.1777 125.983 50.7515 125.297 53.1823C125.239 53.4874 125.135 53.7924 125.011 54.0784L124.668 54.9554C124.439 55.5369 124.077 56.0612 123.791 56.6236C123.086 57.6627 122.305 58.654 121.361 59.4834C119.503 61.1707 117.283 62.4385 114.882 63.2011L114.968 63.0676C116.102 67.5766 117.388 72.1141 118.341 76.7088C118.836 79.0157 118.703 81.4941 117.731 83.6866C116.731 85.8505 115.006 87.6141 113.015 88.8819C111.033 90.1783 108.832 91.0839 106.583 91.7703C106.021 91.9419 105.449 92.0849 104.878 92.2374C104.306 92.3804 103.706 92.428 103.115 92.5234C102.524 92.5615 101.924 92.5138 101.333 92.5043C100.752 92.3708 100.152 92.3041 99.5894 92.123C97.3026 91.408 95.3493 89.9305 93.7486 88.2051C92.1479 86.4702 90.852 84.4588 89.8134 82.3521C88.7844 80.2358 87.984 77.9957 87.5076 75.6793C87.0598 73.3724 86.6977 71.0655 86.2784 68.7491L83.8773 54.8982L79.1132 27.1679L79.3514 27.1298Z" fill="#263238"/>
<path d="M114.844 62.9628C114.844 62.9628 107.241 64.3641 98.4844 60.1221C98.4844 60.1221 103.734 69.0255 115.769 66.5852L114.844 62.9628Z" fill="#263238"/>
<path d="M116.569 29.0933C116.702 30.0084 116.035 30.8759 115.082 31.038C114.13 31.1905 113.253 30.5804 113.12 29.6653C112.986 28.7501 113.653 27.8827 114.596 27.7206C115.549 27.5681 116.435 28.1782 116.569 29.0933Z" fill="#263238"/>
<path d="M118.827 25.0515C118.636 25.2994 117.207 24.47 115.339 24.6893C113.462 24.8704 112.195 25.9857 111.966 25.7855C111.852 25.6997 112.033 25.2612 112.576 24.756C113.119 24.2603 114.072 23.7265 115.244 23.6026C116.406 23.4786 117.436 23.8027 118.055 24.1745C118.684 24.5463 118.922 24.9371 118.827 25.0515Z" fill="#263238"/>
<path d="M98.3793 31.5626C98.5127 32.4777 97.8457 33.3452 96.8929 33.5072C95.9401 33.6693 95.0635 33.0496 94.9301 32.1345C94.7967 31.2194 95.4637 30.3519 96.4165 30.1899C97.3598 30.0373 98.2459 30.6474 98.3793 31.5626Z" fill="#263238"/>
<path d="M100.466 27.4348C100.276 27.6827 98.8464 26.8533 96.9788 27.0726C95.1018 27.2537 93.8345 28.3785 93.6058 28.1688C93.4915 28.0735 93.663 27.6445 94.2156 27.1393C94.7588 26.6436 95.7116 26.1098 96.8836 25.9859C98.0555 25.8619 99.0751 26.186 99.6944 26.5578C100.314 26.9391 100.552 27.3204 100.466 27.4348Z" fill="#263238"/>
<path d="M108.794 40.5802C108.775 40.4753 109.918 40.1417 111.776 39.6937C112.253 39.5888 112.691 39.4458 112.739 39.1122C112.815 38.7499 112.558 38.2638 112.262 37.7299C111.681 36.6242 111.081 35.4612 110.442 34.241C107.908 29.2745 106.012 25.166 106.212 25.0611C106.412 24.9563 108.632 28.9028 111.166 33.8788C111.776 35.1085 112.367 36.2715 112.929 37.3963C113.167 37.9206 113.549 38.5021 113.387 39.2456C113.301 39.6174 112.977 39.9129 112.681 40.0368C112.386 40.1608 112.119 40.1989 111.881 40.237C109.994 40.5421 108.813 40.685 108.794 40.5802Z" fill="#263238"/>
<path d="M100.133 20.0373C100.009 20.5711 98.1033 20.533 95.9404 21.0382C93.7584 21.5053 92.0624 22.3442 91.7194 21.9152C91.5669 21.715 91.8242 21.2003 92.4816 20.6283C93.1391 20.0564 94.2158 19.4653 95.5211 19.1698C96.8265 18.8838 98.0557 18.9506 98.8942 19.1889C99.7326 19.4367 100.19 19.7894 100.133 20.0373Z" fill="#263238"/>
<path d="M117.54 19.7039C117.254 20.1615 115.92 19.866 114.367 20.0185C112.805 20.1139 111.537 20.6191 111.185 20.2092C111.032 20.009 111.185 19.561 111.719 19.0939C112.243 18.6268 113.148 18.1978 114.215 18.112C115.282 18.0262 116.254 18.3122 116.835 18.684C117.435 19.0653 117.664 19.4752 117.54 19.7039Z" fill="#263238"/>
<path d="M81.3427 36.0429C81.1236 35.9762 72.7006 34.4891 73.8821 42.8015C75.0731 51.1044 83.3056 48.073 83.2865 47.8347" fill="white"/>
<path d="M81.3427 36.0429C81.1236 35.9762 72.7006 34.4891 73.8821 42.8015C75.0731 51.1044 83.3056 48.073 83.2865 47.8347" stroke="#263238" stroke-width="0.5" stroke-miterlimit="10"/>
<path d="M80.1616 45.1751C80.1235 45.1561 80.0282 45.2991 79.7996 45.442C79.5804 45.585 79.1802 45.7185 78.7229 45.6232C77.7986 45.423 76.8649 44.1361 76.6076 42.649C76.4742 41.8959 76.5314 41.1524 76.7124 40.5232C76.8744 39.875 77.2079 39.3984 77.6462 39.2554C78.0749 39.0933 78.418 39.3126 78.5609 39.5318C78.7038 39.7511 78.6752 39.9227 78.7229 39.9322C78.7515 39.9513 78.8849 39.7701 78.761 39.4365C78.7038 39.2745 78.5799 39.0933 78.3608 38.9599C78.1416 38.8264 77.8367 38.7883 77.5318 38.8646C76.8934 38.998 76.4075 39.6748 76.2074 40.3707C75.9692 41.0761 75.893 41.915 76.0359 42.7539C76.3313 44.4221 77.408 45.8615 78.6562 46.0426C79.266 46.1093 79.7233 45.8615 79.952 45.6327C80.1712 45.3753 80.1902 45.1847 80.1616 45.1751Z" fill="#263238"/>
<path d="M79.2748 31.2191C77.9503 27.0248 76.3877 22.7542 76.5306 18.3597C76.5306 18.3597 77.7407 13.7268 80.0847 10.0187C83.6578 4.38489 89.9845 -0.0477705 99.6843 -0.000107497C111.795 0.0666207 117.369 5.84337 118.16 11.3532C118.522 13.8794 112.195 1.36305 105.182 11.868C100.227 7.42578 96.6924 7.09214 90.8992 9.30371C89.7844 9.73267 88.7554 10.3809 87.9359 11.2579C85.8111 13.5552 86.621 15.3283 86.7735 16.2911C88.984 25.0992 83.8007 29.7797 83.8007 29.7797L84.582 36.0045C85.0203 37.8062 84.2866 39.6078 83.4958 39.8557L80.5706 35.6613C80.5706 35.6613 79.9608 33.383 79.2748 31.2191Z" fill="#263238"/>
<path d="M96.7785 37.8731C96.6737 37.9017 96.5689 37.8349 96.5308 37.7205C96.5022 37.6061 96.5594 37.4917 96.6642 37.4631C96.769 37.4346 96.8738 37.5013 96.9119 37.6157C96.9405 37.7301 96.8833 37.8445 96.7785 37.8731Z" fill="#C4497E"/>
<path d="M100.094 36.8339C99.9895 36.8625 99.8752 36.7862 99.837 36.6528C99.7989 36.5193 99.8561 36.3954 99.9609 36.3668C100.066 36.3382 100.18 36.4145 100.218 36.5479C100.247 36.6719 100.199 36.8053 100.094 36.8339Z" fill="#C4497E"/>
<path d="M102.362 36.5956C102.257 36.6146 102.143 36.5002 102.105 36.3191C102.067 36.1475 102.124 35.9855 102.228 35.9664C102.333 35.9474 102.448 36.0617 102.486 36.2429C102.524 36.4145 102.467 36.567 102.362 36.5956Z" fill="#C4497E"/>
<path d="M98.6078 39.8653C98.503 39.8748 98.4077 39.8271 98.3982 39.7604C98.3887 39.6937 98.4744 39.627 98.5792 39.6174C98.684 39.6079 98.7793 39.6556 98.7889 39.7223C98.7984 39.789 98.7222 39.8557 98.6078 39.8653Z" fill="#C4497E"/>
<path d="M101.648 38.8928C101.543 38.9119 101.438 38.8261 101.419 38.7022C101.4 38.5782 101.467 38.4638 101.572 38.4543C101.677 38.4352 101.781 38.521 101.8 38.645C101.829 38.7594 101.753 38.8737 101.648 38.8928Z" fill="#C4497E"/>
<path d="M117.607 35.6426C117.502 35.6712 117.388 35.6044 117.36 35.4805C117.321 35.3661 117.379 35.2422 117.483 35.2136C117.588 35.185 117.703 35.2517 117.731 35.3757C117.76 35.49 117.703 35.614 117.607 35.6426Z" fill="#C4497E"/>
<path d="M119.884 35.242C119.78 35.2611 119.675 35.1658 119.646 35.0323C119.618 34.8988 119.684 34.7749 119.799 34.7558C119.904 34.7368 120.008 34.8321 120.037 34.9656C120.056 35.099 119.989 35.223 119.884 35.242Z" fill="#C4497E"/>
<path d="M115.578 35.8614C115.473 35.89 115.368 35.8424 115.34 35.747C115.311 35.6517 115.378 35.5564 115.483 35.5278C115.587 35.4992 115.692 35.5468 115.721 35.6422C115.74 35.7375 115.683 35.8328 115.578 35.8614Z" fill="#C4497E"/>
<path d="M117.474 38.0253C117.378 38.073 117.254 38.0253 117.197 37.9205C117.14 37.8061 117.169 37.6822 117.264 37.625C117.359 37.5773 117.483 37.625 117.54 37.7298C117.597 37.8442 117.569 37.9777 117.474 38.0253Z" fill="#C4497E"/>
<path d="M119.398 37.4728C119.293 37.4537 119.217 37.3679 119.236 37.2726C119.255 37.1868 119.351 37.1296 119.455 37.1487C119.56 37.1678 119.637 37.2536 119.617 37.3489C119.608 37.4347 119.513 37.4919 119.398 37.4728Z" fill="#C4497E"/>
<path d="M114.835 7.40674C114.835 7.40674 119.085 11.0863 120.704 18.3406" stroke="#263238" stroke-width="0.5" stroke-miterlimit="10"/>
<path d="M140.418 85.8602C140.418 85.8602 140.351 85.8411 140.218 85.7839C140.075 85.7267 139.884 85.6505 139.627 85.5552C139.103 85.3645 138.331 85.0881 137.312 84.8497C135.282 84.3636 132.176 83.9918 128.431 84.8783C126.564 85.3168 124.563 86.108 122.562 87.2996C120.551 88.4721 118.541 90.0259 116.483 91.7132C114.415 93.4005 112.281 95.2498 109.908 96.9085C107.536 98.5481 104.877 99.9494 102 100.636C100.561 100.979 99.1032 101.112 97.7025 100.969C96.2923 100.836 94.9489 100.397 93.7483 99.7206C92.5477 99.0342 91.5282 98.1 90.5754 97.1468C89.6321 96.184 88.7555 95.1926 87.8598 94.2775C86.0971 92.4091 84.0485 91.1222 81.9714 90.3786C79.8942 89.6256 77.8171 89.3873 75.9305 89.4635C74.0439 89.5398 72.3383 89.9401 70.8805 90.4454C70.5184 90.5884 70.1754 90.7218 69.8419 90.8553C69.5084 90.9887 69.2035 91.1603 68.8986 91.3033C68.2888 91.5798 67.7743 91.9325 67.2978 92.2184C67.0596 92.3519 66.8405 92.5139 66.6499 92.6665C66.4498 92.819 66.2688 92.9524 66.0878 93.0859C65.7352 93.3338 65.4684 93.5911 65.2397 93.7913C65.0206 93.982 64.8491 94.1345 64.7348 94.2393C64.6204 94.3442 64.5537 94.3919 64.5537 94.3919C64.5537 94.3919 64.6109 94.3347 64.7157 94.2298C64.83 94.1154 65.0015 93.9629 65.2112 93.7627C65.4303 93.5625 65.6971 93.2861 66.0496 93.0382C66.2212 92.9048 66.4117 92.7618 66.6023 92.6093C66.8024 92.4568 67.012 92.2947 67.2502 92.1517C67.7266 91.8657 68.2411 91.494 68.851 91.2175C69.1559 91.0745 69.4608 90.8934 69.7943 90.7504C70.1277 90.617 70.4803 90.474 70.8424 90.331C72.3002 89.8067 74.0153 89.3968 75.9209 89.311C77.8266 89.2252 79.9133 89.454 82.019 90.2071C84.1152 90.9411 86.2114 92.247 87.9837 94.125C88.8889 95.0401 89.7655 96.0315 90.7088 96.9847C91.6521 97.9285 92.6621 98.8531 93.8436 99.5204C95.0251 100.188 96.34 100.617 97.7311 100.741C99.1127 100.884 100.551 100.75 101.971 100.416C104.82 99.7396 107.45 98.3479 109.813 96.7274C112.176 95.0782 114.301 93.2384 116.378 91.5512C118.446 89.8639 120.466 88.3101 122.495 87.1376C124.506 85.9365 126.535 85.1548 128.412 84.7258C132.185 83.8584 135.311 84.2587 137.34 84.7735C138.369 85.0309 139.131 85.3168 139.655 85.5266C139.903 85.6314 140.094 85.7172 140.237 85.7839C140.351 85.8316 140.418 85.8602 140.418 85.8602Z" fill="#FAFAFA"/>
<path d="M154.71 92.3803C154.71 92.3803 153.462 93.5051 145.106 96.0026L145.211 96.0217C145.011 96.0598 144.82 96.1075 144.62 96.1456C144.61 96.1456 144.61 96.1456 144.601 96.1552C144.496 96.1838 144.391 96.2028 144.277 96.2219C142.381 96.6127 140.437 96.9654 138.579 97.2895C136.931 98.0807 129.565 98.7385 127.193 98.9482L109.175 98.9577L82.0765 96.3839C82.0765 96.3839 79.399 97.3944 80.733 98.9577H75.5782C75.5782 98.9577 73.3105 101.141 75.5782 102.275C77.8459 103.409 93.0911 105.364 92.7862 105.469C92.4813 105.573 76.0927 107.528 76.0927 107.528C76.0927 107.528 74.3395 110.826 77.4362 111.55C80.5234 112.275 98.0458 110.931 97.7314 110.931C97.417 110.931 83.4104 117.527 83.4104 117.527C83.4104 117.527 83.2008 120.616 87.1169 120.206C91.033 119.796 101.848 115.468 101.848 115.468C101.848 115.468 108.26 117.222 116.302 117.222C124.344 117.222 126.411 117.394 128.374 115.02C130.328 112.647 129.804 112.608 129.804 112.608C129.804 112.608 177.464 111.922 188.174 111.741C190.184 111.712 192.156 111.207 194.043 110.416C203.009 106.67 206.23 96.0789 202.113 87.4042C201.999 87.0325 201.818 86.6798 201.599 86.3652C201.589 86.3556 201.589 86.3461 201.58 86.3366C201.561 86.308 201.532 86.2794 201.513 86.2508C201.485 86.2127 201.456 86.1745 201.427 86.1459C201.294 85.9648 201.123 85.7932 200.913 85.6312C200.875 85.593 200.827 85.5549 200.789 85.5263C200.78 85.5263 200.78 85.5168 200.77 85.5168C200.656 85.431 200.532 85.3452 200.408 85.2689C197.997 83.8295 193.347 81.2748 188.202 79.6638C184.715 78.5771 178.169 77.4236 170.689 76.356" fill="white"/>
<path d="M154.72 92.4003C154.005 92.896 153.205 93.2105 152.414 93.5442C151.623 93.8683 150.813 94.1638 150.004 94.4498C148.384 95.0217 146.745 95.5365 145.106 96.0322V95.9655L145.211 95.9845L145.373 96.0227L145.211 96.0608L144.62 96.1847C144.506 96.2133 144.382 96.2324 144.268 96.261L138.57 97.3382H138.579C137.674 97.7099 136.721 97.8529 135.768 98.0245C134.815 98.177 133.863 98.3105 132.91 98.4249C131.004 98.6536 129.089 98.8443 127.174 99.0064L109.156 99.035L82.0575 96.4898L82.1052 96.4802C81.5906 96.6995 81.0666 96.995 80.7236 97.4335C80.5521 97.6527 80.4472 97.9101 80.4758 98.1675C80.4854 98.4344 80.6569 98.6632 80.8188 98.892L80.9522 99.0731H80.7331L75.5783 99.0826L75.6545 99.054C75.14 99.5974 74.6255 100.322 74.7017 101.065C74.7875 101.828 75.5878 102.247 76.3215 102.438C77.846 102.877 79.4277 103.163 80.9904 103.449C84.1347 104.011 87.2981 104.478 90.4614 104.955L91.6525 105.136L92.2432 105.231L92.5386 105.279L92.691 105.307L92.7768 105.326C92.7959 105.336 92.8054 105.326 92.853 105.355C92.8721 105.393 92.853 105.298 92.9102 105.45C92.8244 105.689 92.7959 105.565 92.8149 105.603H92.7959C91.9574 105.736 91.1951 105.822 90.3947 105.927L85.6306 106.518L76.1024 107.681L76.2167 107.605C75.8641 108.339 75.6355 109.206 75.807 109.988C75.969 110.789 76.7503 111.275 77.5507 111.427C79.2086 111.675 80.9427 111.608 82.6483 111.599C86.0689 111.523 89.4991 111.332 92.9197 111.122L95.4828 110.951L96.7691 110.855L97.4075 110.808L97.5695 110.798L97.6457 110.789H97.6839H97.6934C97.6648 110.722 97.7601 111.427 97.722 111.132H97.7124C97.6457 111.17 97.579 111.179 97.4742 111.237C95.9116 111.913 94.349 112.647 92.7959 113.362L83.4772 117.728L83.582 117.576C83.563 118.367 83.9251 119.215 84.6016 119.644C85.2876 120.064 86.1642 120.15 86.9932 120.064C88.6797 119.864 90.3471 119.349 91.9955 118.844C95.2923 117.795 98.5414 116.594 101.762 115.326L101.819 115.307L101.886 115.326C104.306 115.936 106.793 116.346 109.28 116.651C111.776 116.937 114.273 117.08 116.788 117.071C119.303 117.052 121.828 117.147 124.306 116.89C125.535 116.756 126.745 116.394 127.622 115.545C128.06 115.136 128.441 114.64 128.822 114.144C129.003 113.896 129.194 113.648 129.346 113.391C129.422 113.258 129.499 113.134 129.556 113C129.584 112.933 129.613 112.876 129.623 112.819L129.632 112.771C129.642 112.771 129.613 112.838 129.765 112.867L129.785 112.438L175.625 111.751L187.087 111.608C190.88 111.751 194.672 110.445 197.645 108.129C199.122 106.966 200.427 105.536 201.38 103.906C202.342 102.276 203.019 100.484 203.39 98.625C204.172 94.8978 203.571 90.9608 201.999 87.5196V87.51V87.5005C201.885 87.1383 201.713 86.7951 201.504 86.4901L201.494 86.4805C201.332 86.2041 201.056 85.9944 200.827 85.7465C200.57 85.5273 200.284 85.3557 199.989 85.1841C199.398 84.8314 198.807 84.4977 198.207 84.1641C197.006 83.5064 195.787 82.8772 194.548 82.2957C192.071 81.1327 189.508 80.1128 186.868 79.3978C184.219 78.7019 181.513 78.1967 178.817 77.7105C176.111 77.2339 173.405 76.8145 170.689 76.4236L170.699 76.376C173.414 76.7573 176.13 77.1672 178.836 77.6247C181.542 78.0918 184.248 78.578 186.906 79.2644C189.565 79.9793 192.128 80.9802 194.624 82.1337C195.873 82.7152 197.102 83.3348 198.302 83.9925C198.903 84.3166 199.503 84.6598 200.094 85.003C200.389 85.1746 200.694 85.3557 200.961 85.5845C201.199 85.8418 201.485 86.0611 201.675 86.3757L201.666 86.3661C201.894 86.6902 202.075 87.0525 202.199 87.4338L202.19 87.4147C203.8 90.8941 204.429 94.8787 203.657 98.6727C203.286 100.56 202.609 102.39 201.637 104.059C200.675 105.736 199.35 107.195 197.845 108.396C194.824 110.779 190.946 112.123 187.087 112.009L175.625 112.209L129.785 112.876L129.804 112.447C130.032 112.495 130.042 112.657 130.061 112.724C130.07 112.8 130.061 112.857 130.051 112.914C130.023 113.019 129.994 113.096 129.956 113.181C129.88 113.334 129.804 113.477 129.718 113.62C129.546 113.896 129.356 114.154 129.165 114.411C128.775 114.916 128.393 115.421 127.907 115.87C126.955 116.794 125.611 117.185 124.353 117.318C121.819 117.585 119.303 117.471 116.788 117.5C114.263 117.519 111.738 117.366 109.232 117.071C106.726 116.766 104.239 116.356 101.781 115.727L101.905 115.717C98.6748 116.985 95.4161 118.195 92.1098 119.235C90.4424 119.74 88.7845 120.255 87.0217 120.464C86.1451 120.55 85.1923 120.474 84.3919 119.978C83.5916 119.454 83.1819 118.51 83.2104 117.576V117.471L83.3152 117.423L92.6434 113.076C94.206 112.362 95.7496 111.637 97.3408 110.951C97.4266 110.913 97.5695 110.855 97.7029 110.827H97.7124C97.6743 110.522 97.7887 111.237 97.7506 111.17H97.722H97.6839L97.5981 111.179L97.4361 111.189L96.7977 111.237L95.5114 111.332L92.9483 111.504C89.5277 111.713 86.0975 111.894 82.6673 111.971C80.9522 111.98 79.2371 112.047 77.503 111.79C76.655 111.647 75.7117 111.075 75.5211 110.121C75.3306 109.216 75.5878 108.32 75.9594 107.528L75.988 107.462L76.0738 107.452L85.602 106.308L90.3662 105.727C91.1475 105.632 91.9764 105.527 92.7196 105.412H92.7387C92.7577 105.441 92.7387 105.317 92.6529 105.555C92.7196 105.698 92.6911 105.612 92.7006 105.641C92.7292 105.66 92.7196 105.651 92.7101 105.651L92.6434 105.632L92.5005 105.603L92.2051 105.555L91.6144 105.46L90.4329 105.279C87.2695 104.802 84.1061 104.326 80.9522 103.754C79.3801 103.458 77.7984 103.182 76.2548 102.724C75.8641 102.619 75.483 102.448 75.1305 102.209C74.797 101.961 74.5111 101.58 74.4635 101.142C74.3968 100.246 74.9494 99.5306 75.4926 98.9396L75.5211 98.911H75.5688L80.7236 98.9206L80.6378 99.1017C80.4568 98.8538 80.2662 98.5869 80.2471 98.2533C80.2186 97.9292 80.352 97.6051 80.5425 97.3667C80.9332 96.8806 81.4668 96.5851 82.0194 96.3468L82.0385 96.3372H82.067L109.165 98.9492H109.156L127.174 98.9587C129.089 98.7966 131.004 98.6155 132.91 98.3867C133.863 98.2723 134.815 98.1484 135.759 97.9959C136.702 97.8338 137.664 97.6813 138.541 97.3286H138.551L144.248 96.2705C144.363 96.2514 144.477 96.2228 144.591 96.2038L145.182 96.0798V96.1466L145.077 96.1275L144.944 96.0989L145.068 96.0608C146.707 95.5651 148.346 95.0599 149.965 94.4879C150.775 94.2019 151.576 93.9064 152.376 93.5823C153.157 93.2487 153.967 92.9246 154.672 92.4479L154.72 92.4003Z" fill="#263238"/>
<path d="M104.153 104.744C104.163 104.878 101.962 105.078 99.2364 105.183C96.5114 105.288 94.3103 105.259 94.3008 105.126C94.2913 104.992 96.4923 104.792 99.2174 104.687C101.933 104.582 104.143 104.601 104.153 104.744Z" fill="#263238"/>
<path d="M106.317 109.73C106.288 109.882 104.125 109.263 101.467 109.701C98.7989 110.102 96.9313 111.341 96.8551 111.207C96.7598 111.131 98.5893 109.634 101.391 109.206C104.182 108.748 106.383 109.625 106.317 109.73Z" fill="#263238"/>
<path d="M129.803 112.599C129.822 112.59 129.87 112.79 129.736 113.133C129.613 113.467 129.336 113.934 128.917 114.477C128.469 115.001 127.955 115.697 127.126 116.307C126.297 116.937 125.087 117.194 123.791 117.289C122.476 117.385 121.028 117.366 119.436 117.366C117.845 117.356 116.13 117.385 114.272 117.337C110.566 117.213 106.345 116.784 101.809 115.65L101.923 115.64C99.0364 116.784 95.9397 117.957 92.6334 119.024C90.9755 119.548 89.2699 120.092 87.4405 120.378C86.5353 120.492 85.5158 120.54 84.6106 120.063C83.6864 119.596 83.1623 118.548 83.2004 117.518V117.394L83.3243 117.337C85.5348 116.288 87.8216 115.192 90.1656 114.077C91.3375 113.524 92.5286 112.961 93.7387 112.399C94.3389 112.123 94.9488 111.837 95.5586 111.551L96.4828 111.131L96.9497 110.921L97.1879 110.817C97.2737 110.779 97.407 110.74 97.5214 110.712L97.5404 111.188C93.6148 111.484 89.5272 111.751 85.3157 111.913C83.2099 111.98 81.0756 112.065 78.9032 111.961C78.3601 111.932 77.8074 111.894 77.2452 111.751C76.6926 111.617 76.1209 111.312 75.7588 110.807C75.3872 110.292 75.3205 109.644 75.3777 109.072C75.4444 108.491 75.6159 107.947 75.8732 107.413L75.9304 107.299L76.0637 107.28C76.159 107.271 76.2543 107.261 76.3591 107.242C79.7417 106.832 83.0765 106.432 86.3638 106.031C88.0027 105.831 89.632 105.621 91.2423 105.431L92.4428 105.269L92.7001 105.231H92.7096C92.5286 105.145 92.5667 105.812 92.6239 105.64C92.6429 105.66 92.662 105.669 92.6906 105.679L92.6715 105.669L92.6048 105.659L92.4619 105.631L91.8711 105.536C91.0803 105.412 90.2894 105.288 89.4986 105.173C86.3447 104.697 83.2576 104.22 80.2562 103.667C78.7507 103.372 77.2738 103.114 75.8255 102.628C75.4539 102.495 75.1014 102.294 74.7965 101.999C74.5011 101.703 74.3201 101.255 74.3487 100.836C74.4154 99.9876 74.9013 99.3489 75.4158 98.796L75.473 98.7293H75.5683C77.3215 98.7293 79.0366 98.7293 80.7231 98.7388L80.5611 99.1011C80.361 98.8342 80.1609 98.5482 80.1418 98.1764C80.1133 97.8046 80.2752 97.4615 80.4753 97.2136C80.8946 96.7084 81.4282 96.4129 81.9903 96.1841L82.0284 96.165L82.0856 96.1746C92.7668 97.2136 101.962 98.1192 109.174 98.8151H109.165C114.863 98.8437 119.37 98.8723 122.466 98.8818C123.991 98.9009 125.172 98.9104 125.992 98.92C126.373 98.9295 126.678 98.939 126.897 98.939C127.097 98.9486 127.202 98.9486 127.202 98.9581C127.202 98.9676 127.097 98.9676 126.897 98.9772C126.678 98.9867 126.373 98.9867 125.992 98.9962C125.172 99.0058 123.991 99.0153 122.466 99.0344C119.36 99.0534 114.853 99.0725 109.165 99.1011H109.155H109.146C101.933 98.4338 92.7287 97.5759 82.038 96.594L82.1332 96.5845C81.6473 96.7847 81.1328 97.0802 80.8088 97.4901C80.6468 97.6903 80.5516 97.919 80.5706 98.1478C80.5801 98.3861 80.7326 98.6054 80.8946 98.8246L81.1614 99.1869H80.7231C79.0366 99.1869 77.3215 99.1869 75.5683 99.1964L75.7207 99.1297C75.2634 99.6063 74.8251 100.235 74.7965 100.865C74.7774 101.179 74.9013 101.465 75.1204 101.694C75.3491 101.913 75.654 102.094 75.978 102.209C77.3501 102.666 78.846 102.933 80.3324 103.219C83.3243 103.772 86.4114 104.239 89.5653 104.706C90.3561 104.83 91.147 104.945 91.9474 105.068L92.5476 105.173L92.7001 105.202L92.7858 105.221L92.843 105.24C92.8811 105.25 92.9097 105.269 92.9383 105.297C93.0145 105.126 93.0336 105.802 92.8525 105.717H92.843L92.5 105.774L91.2899 105.936C89.6796 106.136 88.0503 106.336 86.4114 106.546C83.1242 106.946 79.7893 107.347 76.4068 107.757C76.302 107.766 76.2067 107.785 76.1114 107.795L76.302 107.661C75.8637 108.567 75.5969 109.749 76.1495 110.531C76.7212 111.322 77.8741 111.427 78.9127 111.474C81.047 111.579 83.1814 111.503 85.2776 111.436C89.4795 111.274 93.5576 111.017 97.4833 110.721L97.5023 110.988V111.207L97.4928 111.217L97.4737 111.227L97.4356 111.246L97.3499 111.274L97.1212 111.37L96.6638 111.57L95.7491 111.989C95.1393 112.275 94.5295 112.552 93.9292 112.828C92.7287 113.39 91.5281 113.953 90.3561 114.496C88.0027 115.602 85.7159 116.689 83.5053 117.737L83.6292 117.556C83.6006 118.414 84.0389 119.31 84.8107 119.691C85.5729 120.101 86.5067 120.082 87.3738 119.968C89.146 119.701 90.8516 119.158 92.5 118.652C95.7968 117.594 98.8935 116.441 101.781 115.316L101.838 115.297L101.895 115.316C110.899 117.623 118.588 117.08 123.762 117.108C125.049 117.032 126.211 116.803 127.021 116.203C127.831 115.631 128.374 114.944 128.822 114.439C129.26 113.905 129.546 113.467 129.679 113.143C129.832 112.78 129.803 112.599 129.803 112.599Z" fill="#263238"/>
<path d="M74.8254 99.568C74.8254 99.5871 74.6349 99.5585 74.2728 99.4917C73.8631 99.4059 73.3486 99.3011 72.7197 99.1676C71.3095 98.853 69.3943 98.4146 67.0409 97.8807C62.2005 96.7368 55.626 95.183 48.3559 93.4671C44.7257 92.5901 41.2669 91.7513 38.1131 90.9791L38.075 90.9696L38.0464 90.9505C33.9302 88.31 30.5095 85.965 27.8797 84.6876C26.5744 84.0299 25.5072 83.5818 24.7735 83.2863C24.0398 83.0004 23.6396 82.8478 23.6396 82.8192C23.6396 82.8097 23.7445 82.8288 23.9446 82.886C24.1446 82.9432 24.44 83.0194 24.8212 83.1529C25.5739 83.4103 26.6696 83.8202 28.0036 84.4493C30.6906 85.6695 34.1779 87.9668 38.2941 90.5692L38.2274 90.5406C41.3908 91.2937 44.8496 92.123 48.4798 92.9905C55.7308 94.7636 62.2958 96.365 67.1266 97.5471C69.461 98.1381 71.3667 98.6243 72.7673 98.9865C73.3867 99.1581 73.8917 99.2915 74.2919 99.4059C74.6539 99.4917 74.8254 99.5489 74.8254 99.568Z" fill="#263238"/>
<path d="M109.594 100.731C109.594 100.769 109.184 100.807 108.45 100.845C107.717 100.893 106.649 100.922 105.334 100.95C102.705 100.998 99.0649 100.96 95.044 100.75C91.0326 100.531 87.4023 100.178 84.7916 99.854C83.4862 99.6919 82.4286 99.5394 81.7044 99.4155C80.9803 99.2915 80.5801 99.2153 80.5801 99.1771C80.5801 99.139 80.9898 99.1581 81.7235 99.2248C82.562 99.3011 83.6005 99.3964 84.8297 99.5013C87.45 99.7396 91.0707 100.035 95.0726 100.245C99.0744 100.455 102.705 100.55 105.334 100.588C106.564 100.607 107.612 100.626 108.45 100.645C109.184 100.664 109.584 100.693 109.594 100.731Z" fill="#263238"/>
<path d="M178.388 82.8194C178.388 82.8671 177.626 82.7908 176.254 82.8766C174.891 82.9815 172.919 83.296 170.632 84.173C168.345 85.0405 165.782 86.4513 163.114 88.3007C160.418 90.15 157.235 91.8658 153.758 93.3148C146.783 96.2222 139.999 97.4519 135.13 98.1097C132.691 98.4338 130.699 98.6149 129.337 98.7484C128.698 98.8151 128.174 98.8628 127.765 98.9009C127.402 98.939 127.212 98.9486 127.212 98.9295C127.212 98.9104 127.393 98.8723 127.755 98.8056C128.108 98.7388 128.641 98.653 129.318 98.5577C130.68 98.3671 132.662 98.1288 135.092 97.757C139.932 97.0134 146.659 95.7265 153.577 92.8477C157.026 91.4083 160.18 89.721 162.867 87.9098C165.563 86.07 168.183 84.6687 170.518 83.8299C172.852 82.9815 174.863 82.705 176.244 82.6669C176.94 82.6574 177.473 82.6669 177.836 82.7146C178.198 82.7813 178.388 82.8099 178.388 82.8194Z" fill="#263238"/>
<path d="M102.981 45.7276C102.952 45.0413 103.105 44.355 103.257 43.6877C103.315 43.4303 103.391 43.1538 103.61 43.0109C103.829 42.8679 104.115 42.9155 104.372 42.9632C105.916 43.2778 107.936 43.945 109.479 44.2596C109.822 45.2319 109.622 46.414 109.079 47.3005C108.669 47.9773 107.431 48.3777 106.649 48.454C105.516 48.5684 104.553 48.3872 103.715 47.596C103.229 47.1289 103.01 46.414 102.981 45.7276Z" fill="#EA3F76"/>
<path d="M108.479 47.5488C108.422 47.4534 107.746 48.197 106.335 48.2351C105.659 48.2446 104.811 48.0444 104.163 47.4344C103.525 46.8338 103.115 45.8329 103.21 44.8224C103.258 44.3267 103.429 43.812 103.706 43.4879C103.963 43.1542 104.354 43.1828 104.82 43.3068C105.687 43.5546 106.507 43.7834 107.269 44.0026C108.67 44.3839 109.556 44.5746 109.585 44.5079C109.613 44.4316 108.775 44.098 107.393 43.6213C106.631 43.3639 105.811 43.097 104.954 42.8111C104.716 42.7443 104.449 42.6776 104.134 42.6967C103.82 42.7062 103.486 42.8968 103.286 43.1352C102.886 43.6118 102.715 44.1837 102.638 44.7843C102.524 45.9949 103.02 47.1484 103.801 47.8443C104.592 48.5497 105.592 48.7308 106.345 48.6641C107.117 48.5973 107.688 48.3114 108.022 48.054C108.384 47.7775 108.508 47.5774 108.479 47.5488Z" fill="#16292E"/>
</g>
<defs>
<clipPath id="clip0_1932_19314">
<rect width="204" height="124" fill="white"/>
</clipPath>
</defs>
</svg>
