<svg width="43" height="43" viewBox="0 0 43 43" fill="none" xmlns="http://www.w3.org/2000/svg">
<path d="M21.3979 0C21.0495 0.0240306 20.7251 0.168205 20.4607 0.396482L17.5091 3.07106C17.0315 3.50387 16.3746 3.67995 15.7445 3.54406L11.8463 2.70327C11.0774 2.54708 10.2965 2.99162 10.0562 3.73652L8.83261 7.54099C8.63531 8.15448 8.15448 8.63531 7.54098 8.83262L3.73652 10.0562C2.99162 10.2965 2.54708 11.0654 2.70327 11.8343L3.5447 15.745C3.6802 16.3748 3.50405 17.0313 3.07149 17.5087L0.396479 20.4607C-0.13216 21.0495 -0.13216 21.9505 0.396479 22.5272L3.07407 25.4917C3.50511 25.9689 3.68039 26.6243 3.54512 27.253L2.70327 31.1657C2.54708 31.9346 2.99162 32.7035 3.73652 32.9438L7.54187 34.1677C8.15487 34.3648 8.63545 34.845 8.83305 35.4579L10.0562 39.2515C10.2965 40.0084 11.0654 40.4529 11.8343 40.2967L15.745 39.4553C16.3748 39.3198 17.0313 39.4959 17.5087 39.9285L20.4607 42.6035C21.0495 43.1322 21.9505 43.1322 22.5272 42.6035L25.4917 39.9259C25.9689 39.4949 26.6243 39.3196 27.253 39.4549L31.1657 40.2967C31.9346 40.4529 32.7035 40.0084 32.9438 39.2515L34.1672 35.457C34.3647 34.8447 34.8447 34.3647 35.457 34.1672L39.2515 32.9438C40.0084 32.7035 40.4529 31.9346 40.2967 31.1657L39.4549 27.253C39.3196 26.6243 39.4949 25.9689 39.9259 25.4917L42.6035 22.5272C43.1322 21.9505 43.1322 21.0495 42.6035 20.4607L39.9285 17.5087C39.4959 17.0313 39.3198 16.3748 39.4553 15.745L40.2967 11.8343C40.4529 11.0654 40.0084 10.2965 39.2515 10.0562L35.4579 8.83305C34.845 8.63545 34.3648 8.15487 34.1677 7.54187L32.9438 3.73652C32.7035 2.99162 31.9346 2.54708 31.1657 2.70327L27.253 3.54512C26.6243 3.68039 25.9689 3.50511 25.4917 3.07408L22.5272 0.396482C22.2629 0.156191 21.9145 0.0120168 21.5541 0C21.506 0 21.4459 0 21.3979 0Z" fill="#5CCC85"/>
<path d="M10.4617 24.481L10.9591 26.7941L9.35772 27.1385L8.86327 24.839L6.67333 25.3099L6.34076 23.7633L8.5307 23.2924L8.02742 20.9519L9.62882 20.6075L10.1321 22.948L12.322 22.4771L12.6517 24.0101L10.4617 24.481ZM14.6527 19.6848L14.8378 21.4779C14.9597 21.4231 15.1135 21.3614 15.2992 21.2928C15.483 21.2151 15.6707 21.1556 15.8623 21.1144C16.3094 21.0183 16.7282 20.9903 17.1187 21.0304C17.5164 21.0595 17.874 21.1687 18.1916 21.3582C18.5163 21.5366 18.7919 21.7971 19.0184 22.1399C19.2429 22.4735 19.41 22.8958 19.5199 23.4067C19.6141 23.8447 19.6339 24.2701 19.5795 24.6827C19.525 25.0954 19.3877 25.4781 19.1677 25.831C18.9567 26.1818 18.6554 26.49 18.2639 26.7556C17.8794 27.0101 17.3998 27.1992 16.8249 27.3228C16.4417 27.4052 16.0992 27.455 15.7974 27.4722C15.4956 27.4893 15.2283 27.4895 14.9956 27.4727C14.77 27.4449 14.5809 27.4091 14.4284 27.3656C14.283 27.3109 14.1724 27.2631 14.0968 27.2221C13.9918 27.1778 13.893 27.1179 13.8004 27.0424C13.7058 26.9577 13.6458 26.856 13.6203 26.7374C13.5948 26.6188 13.6086 26.4392 13.6619 26.1986C13.7224 25.947 13.8154 25.6692 13.941 25.3653C14.0629 25.4441 14.2132 25.5216 14.3919 25.5977C14.5706 25.6739 14.7665 25.7415 14.9797 25.8007C15.2001 25.8488 15.4312 25.8802 15.673 25.895C15.924 25.9079 16.1818 25.8859 16.4464 25.829C16.6381 25.7878 16.8192 25.7202 16.99 25.6262C17.1678 25.5211 17.316 25.389 17.4346 25.2299C17.5531 25.0707 17.6318 24.882 17.6708 24.6636C17.7189 24.4432 17.7125 24.1916 17.6517 23.9087C17.5771 23.562 17.458 23.2964 17.2942 23.112C17.1396 22.9257 16.9638 22.7965 16.7669 22.7242C16.568 22.6429 16.3643 22.6056 16.1557 22.6122C15.9471 22.6189 15.7607 22.6399 15.5964 22.6752C15.2953 22.7399 15.0229 22.8272 14.7792 22.9369C14.5446 23.0446 14.3286 23.1722 14.1312 23.3196L13.429 23.1842L12.9133 18.455L17.827 17.3984C17.8668 17.4948 17.8946 17.5795 17.9103 17.6525C17.9331 17.7144 17.9553 17.7956 17.9769 17.896C18.0456 18.2153 18.0174 18.4839 17.8924 18.7017C17.7674 18.9195 17.4814 19.0765 17.0343 19.1727L14.6527 19.6848ZM26.2847 20.3912C26.6065 21.8877 26.581 23.1008 26.2081 24.0307C25.8353 24.9605 25.074 25.549 23.9243 25.7962C22.7654 26.0454 21.8243 25.8421 21.1009 25.1861C20.3847 24.5191 19.8588 23.4055 19.5233 21.8451C19.3683 21.1243 19.2974 20.4617 19.3107 19.8574C19.3311 19.242 19.4386 18.6986 19.6332 18.2272C19.8369 17.7538 20.1296 17.3615 20.5114 17.0503C20.9023 16.7371 21.3851 16.5187 21.96 16.3951C22.5531 16.2675 23.0831 16.2681 23.5499 16.3969C24.0148 16.5165 24.4227 16.7486 24.7736 17.0932C25.1246 17.4378 25.4222 17.8893 25.6664 18.4478C25.9197 19.0043 26.1258 19.6521 26.2847 20.3912ZM24.437 20.7885C24.3075 20.1863 24.1621 19.6877 24.0008 19.2928C23.8467 18.8868 23.6792 18.5744 23.4985 18.3555C23.3158 18.1274 23.1169 17.9793 22.9017 17.911C22.6937 17.8316 22.4711 17.8174 22.2339 17.8684C21.9966 17.9195 21.7949 18.0249 21.6288 18.1847C21.4608 18.3354 21.3358 18.5532 21.2538 18.8381C21.179 19.112 21.1503 19.4666 21.1675 19.902C21.192 20.3264 21.2689 20.8397 21.3984 21.4419C21.526 22.035 21.6658 22.53 21.818 22.9269C21.9793 23.3218 22.1513 23.6333 22.334 23.8613C22.5238 24.0783 22.7273 24.2254 22.9444 24.3029C23.1596 24.3711 23.3858 24.3798 23.623 24.3288C23.8603 24.2778 24.0584 24.1779 24.2173 24.0291C24.3854 23.8784 24.5068 23.6662 24.5816 23.3923C24.6544 23.1094 24.6786 22.7557 24.6542 22.3314C24.6389 21.9051 24.5665 21.3908 24.437 20.7885ZM30.3026 16.921C30.4694 17.6966 30.3972 18.3375 30.0859 18.8435C29.7747 19.3496 29.2906 19.6733 28.6336 19.8145C27.9401 19.9637 27.3521 19.8705 26.8694 19.5352C26.3959 19.1978 26.0758 18.6414 25.909 17.8658C25.7422 17.0902 25.82 16.4529 26.1423 15.954C26.4647 15.4551 26.9452 15.137 27.5839 14.9996C28.2683 14.8525 28.8508 14.942 29.3314 15.2682C29.8121 15.5945 30.1358 16.1454 30.3026 16.921ZM28.9309 17.2016C28.8426 16.791 28.7137 16.4799 28.544 16.2681C28.3724 16.0473 28.127 15.9712 27.8076 16.0398C27.4974 16.1065 27.3094 16.2758 27.2438 16.5477C27.1872 16.8176 27.2031 17.1579 27.2914 17.5685C27.3817 17.9883 27.5136 18.3131 27.6872 18.5431C27.8588 18.764 28.0951 18.842 28.3962 18.7773C28.7156 18.7086 28.9081 18.5383 28.9737 18.2664C29.0394 17.9946 29.0251 17.6396 28.9309 17.2016ZM37.2015 20.4352C37.3683 21.2108 37.2961 21.8517 36.9849 22.3577C36.6736 22.8638 36.1895 23.1875 35.5325 23.3288C34.8482 23.4759 34.2647 23.3818 33.7821 23.0464C33.2994 22.7111 32.9747 22.1556 32.808 21.38C32.7256 20.9967 32.7067 20.6428 32.7515 20.3181C32.7962 19.9935 32.8928 19.7102 33.0413 19.4682C33.1989 19.2243 33.3992 19.0237 33.6422 18.8664C33.8833 18.7 34.1635 18.5825 34.4829 18.5138C35.1672 18.3667 35.7497 18.4562 36.2304 18.7825C36.711 19.1087 37.0348 19.6596 37.2015 20.4352ZM35.8299 20.7159C35.7416 20.3052 35.6126 19.9941 35.443 19.7823C35.2714 19.5615 35.0259 19.4854 34.7065 19.554C34.4054 19.6188 34.222 19.7871 34.1564 20.059C34.0908 20.3309 34.1021 20.6721 34.1904 21.0827C34.2806 21.5025 34.4125 21.8273 34.5861 22.0573C34.7577 22.2782 34.9941 22.3562 35.2952 22.2915C35.6237 22.2208 35.8162 22.0506 35.8727 21.7807C35.9383 21.5088 35.9241 21.1538 35.8299 20.7159ZM30.5278 24.1615L29.0085 24.4882L32.3369 14.7938C32.4247 14.5363 32.5223 14.3244 32.6298 14.1581C32.7352 13.9826 32.934 13.8635 33.226 13.8007C33.3172 13.7811 33.414 13.7651 33.5163 13.7526C33.6278 13.7382 33.722 13.7323 33.7989 13.7348L34.0707 13.7336L30.5278 24.1615Z" fill="white"/>
</svg>
