<svg width="220" height="465" viewBox="0 0 220 465" fill="none" xmlns="http://www.w3.org/2000/svg">
<path d="M210.363 151.12L210.365 151.121C211.187 151.247 213.214 151.527 215.1 151.716C216.043 151.81 216.946 151.882 217.643 151.9C217.992 151.91 218.283 151.906 218.499 151.886C218.607 151.876 218.69 151.863 218.749 151.848C218.792 151.837 218.81 151.828 218.813 151.827C219.011 151.643 219.222 151.227 219.162 150.72C219.103 150.224 218.778 149.603 217.83 149.035C217.363 148.754 216.448 148.423 215.31 148.083C214.181 147.746 212.86 147.407 211.597 147.105C210.335 146.803 209.135 146.539 208.251 146.35C207.808 146.255 207.445 146.179 207.192 146.127C207.066 146.101 206.967 146.081 206.9 146.068L206.845 146.056L202.213 146.9L176.482 153.215L177.363 164.157C177.486 164.17 177.662 164.188 177.883 164.211C178.346 164.259 179.01 164.328 179.811 164.413C181.413 164.584 183.563 164.818 185.755 165.074C187.947 165.33 190.184 165.606 191.958 165.862C192.845 165.99 193.619 166.112 194.215 166.224C194.513 166.281 194.769 166.335 194.974 166.386C195.173 166.436 195.341 166.487 195.453 166.542C195.741 166.686 196.148 166.748 196.621 166.747C197.088 166.747 197.595 166.685 198.068 166.601C198.539 166.518 198.969 166.413 199.282 166.33C199.439 166.288 199.565 166.251 199.652 166.225C199.696 166.212 199.73 166.202 199.752 166.195L199.778 166.187L199.784 166.185L199.785 166.185L199.786 166.184L199.786 166.184L199.854 166.162L199.923 166.18L199.923 166.18L199.924 166.18L199.927 166.181L199.937 166.183L199.981 166.194C200.019 166.203 200.076 166.217 200.149 166.234C200.295 166.267 200.506 166.314 200.764 166.365C201.281 166.469 201.984 166.593 202.731 166.675C203.481 166.758 204.266 166.798 204.951 166.738C205.647 166.676 206.191 166.514 206.503 166.236C207.154 165.654 207.163 164.941 206.991 164.333C206.904 164.028 206.773 163.758 206.663 163.564C206.608 163.467 206.558 163.39 206.523 163.338C206.506 163.312 206.492 163.292 206.483 163.279L206.472 163.265L206.47 163.262L206.47 163.262L206.47 163.262L206.47 163.262L206.47 163.262L206.214 162.925L206.633 162.863C207.048 162.803 207.445 162.657 207.801 162.434C208.156 162.211 208.462 161.917 208.698 161.569L208.702 161.563L208.707 161.557C208.927 161.272 209.028 160.898 209.042 160.474C209.055 160.051 208.982 159.596 208.873 159.172C208.765 158.749 208.625 158.366 208.511 158.088C208.454 157.949 208.404 157.838 208.368 157.761C208.351 157.722 208.336 157.693 208.327 157.673L208.316 157.651L208.314 157.646L208.313 157.645L208.313 157.645L210.363 151.12ZM210.363 151.12C209.821 151.041 208.573 151.013 207.481 151.003C206.931 150.998 206.413 150.998 206.033 150.999C205.843 151 205.687 151.001 205.579 151.002L205.454 151.003L205.421 151.003L205.412 151.003L205.41 151.003L205.41 151.003L205.41 151.003L205.412 151.253L205.41 151.003L205.34 151.492L205.34 151.492L205.34 151.492L205.34 151.492L205.34 151.493L205.342 151.493L205.352 151.496L205.391 151.508C205.425 151.519 205.476 151.535 205.541 151.557C205.671 151.599 205.859 151.663 206.085 151.745C206.538 151.909 207.146 152.146 207.768 152.442C208.392 152.738 209.022 153.089 209.524 153.477C210.032 153.869 210.374 154.274 210.479 154.667C210.694 155.471 210.245 156.111 209.661 156.585C209.374 156.819 209.069 156.998 208.834 157.119C208.717 157.18 208.619 157.225 208.55 157.255C208.516 157.27 208.489 157.282 208.472 157.289L208.452 157.297L208.447 157.298L208.447 157.299M210.363 151.12L208.447 157.299M208.447 157.299L208.447 157.299L208.446 157.299L208.188 157.398L208.313 157.645L208.447 157.299Z" fill="white" stroke="#2D3940" stroke-width="0.5"/>
<path d="M202.339 155.328C202.567 155.252 202.453 154.322 202.478 153.214C202.504 152.106 202.682 151.189 202.478 151.1C202.275 151.011 201.691 151.902 201.653 153.189C201.615 154.475 202.136 155.418 202.339 155.328Z" fill="#BABABA"/>
<path d="M208.536 157.57C208.536 157.442 208.015 157.34 207.266 157.124C206.81 157.022 206.379 156.832 205.996 156.564C205.789 156.415 205.615 156.225 205.484 156.006C205.353 155.787 205.268 155.543 205.234 155.29C205.22 155.045 205.267 154.8 205.372 154.577C205.476 154.355 205.634 154.162 205.831 154.016C206.175 153.73 206.579 153.526 207.012 153.418C207.787 153.214 208.282 153.125 208.282 152.997C208.282 152.87 207.761 152.755 206.86 152.832C206.298 152.872 205.758 153.066 205.298 153.392C204.988 153.607 204.737 153.897 204.571 154.236C204.404 154.575 204.326 154.951 204.345 155.328C204.398 155.691 204.529 156.039 204.729 156.346C204.928 156.654 205.192 156.915 205.501 157.111C205.972 157.41 206.508 157.589 207.063 157.633C208.015 157.748 208.536 157.633 208.536 157.57Z" fill="#BABABA"/>
<path d="M208.536 157.57C207.881 157.249 207.157 157.091 206.428 157.112C205.119 156.987 203.808 157.335 202.732 158.092C202.296 158.428 201.947 158.865 201.716 159.366C201.438 159.879 201.344 160.473 201.45 161.047C201.601 161.574 201.94 162.028 202.402 162.321C203.096 162.763 203.875 163.054 204.688 163.174C206.034 163.404 206.872 163.174 206.86 163.072C206.847 162.971 206.034 162.945 204.815 162.588C204.121 162.4 203.464 162.094 202.872 161.684C202.575 161.486 202.358 161.188 202.262 160.844C202.222 160.447 202.302 160.048 202.491 159.697C202.662 159.317 202.913 158.978 203.228 158.704C204.163 158.035 205.279 157.666 206.428 157.647C207.698 157.634 208.536 157.659 208.536 157.57Z" fill="#BABABA"/>
<path d="M203.85 166.995C203.85 166.893 203.24 166.83 202.339 166.32L201.577 165.925C201.309 165.821 201.056 165.68 200.827 165.505C200.522 165.225 200.713 164.83 201.462 164.448C202.641 163.891 203.895 163.509 205.183 163.314C206.186 163.187 206.834 163.225 206.86 163.098C206.885 162.971 206.237 162.729 205.145 162.716C203.721 162.736 202.32 163.076 201.043 163.709C200.854 163.812 200.671 163.927 200.497 164.053C200.287 164.205 200.117 164.406 200.002 164.639C199.879 164.882 199.843 165.159 199.898 165.425C199.953 165.691 200.098 165.931 200.307 166.104C200.611 166.311 200.945 166.47 201.297 166.575L202.097 166.881C203.113 167.276 203.888 167.135 203.85 166.995Z" fill="#BABABA"/>
<path d="M201.945 156.921C201.945 157.163 202.694 157.315 203.583 157.481C204.472 157.647 205.221 157.774 205.323 157.481C205.424 157.188 204.739 156.768 203.748 156.577C202.757 156.386 201.932 156.691 201.945 156.921Z" fill="#BABABA"/>
<path d="M196.916 164.474C197.157 164.474 196.218 161.34 197.627 157.902C197.914 157.202 198.276 156.536 198.707 155.915L198.821 155.762V155.583C198.6 154.591 198.648 153.558 198.961 152.59C199.189 151.864 199.443 151.47 199.354 151.406C199.266 151.342 198.897 151.661 198.504 152.399C197.988 153.44 197.823 154.62 198.034 155.762L198.11 155.431C197.594 156.084 197.167 156.804 196.84 157.57C196.202 159.138 195.991 160.848 196.23 162.525C196.421 163.799 196.815 164.512 196.916 164.474Z" fill="#BABABA"/>
<path d="M186.731 160.117C186.731 160.219 187.417 160.334 188.522 160.117C189.969 159.837 191.328 159.212 192.484 158.296C193.645 157.389 194.569 156.214 195.176 154.87C195.621 153.825 195.684 153.125 195.583 153.099C195.481 153.074 194.516 155.647 191.963 157.621C189.411 159.595 186.693 159.85 186.731 160.117Z" fill="#BABABA"/>
<path d="M181.524 158.322C181.911 158.348 182.3 158.296 182.667 158.169C183.695 157.909 184.697 157.559 185.664 157.124C188.922 155.681 191.772 153.449 193.957 150.629L193.601 150.794H194.719C198.526 150.854 202.3 150.066 205.767 148.489C206.846 147.993 207.736 147.163 208.307 146.12C208.688 145.356 208.625 144.846 208.574 144.846C208.413 145.217 208.23 145.579 208.028 145.929C207.384 146.82 206.504 147.513 205.488 147.928C202.06 149.281 198.403 149.955 194.719 149.915H193.639H193.411L193.271 150.094C191.154 152.812 188.465 155.03 185.397 156.589C183.073 157.787 181.486 158.194 181.524 158.322Z" fill="#BABABA"/>
<path d="M57.0306 423.944L56.0146 449.596C56.0146 449.596 81.6803 459.237 81.9597 464.001L32.33 463.835L32.2157 423.766L57.0306 423.944Z" fill="#444444"/>
<path d="M40.6737 447.392C40.1934 447.535 39.7826 447.851 39.52 448.278C39.2575 448.706 39.1618 449.216 39.2513 449.711C39.3831 450.193 39.6923 450.607 40.1165 450.869C40.5408 451.132 41.0485 451.223 41.5372 451.124C42.0427 450.97 42.4731 450.634 42.7452 450.179C43.0174 449.725 43.1118 449.186 43.0104 448.666C42.8296 448.171 42.4621 447.767 41.9871 447.54C41.5121 447.314 40.9675 447.284 40.4705 447.456" fill="#EE2C70"/>
<path d="M32.3306 463.835L32.4703 459.798L80.0426 461.466C80.0426 461.466 82.2524 462.434 81.9984 464.014L32.3306 463.835Z" fill="#263238"/>
<path d="M56.8276 449.353C56.8276 449.595 55.5577 449.697 54.402 450.474C53.2464 451.251 52.5733 452.27 52.3447 452.181C52.1161 452.092 52.4971 450.678 53.9575 449.761C55.418 448.844 56.8784 449.124 56.8276 449.353Z" fill="#EE2C70"/>
<path d="M62.0345 451.532C62.0345 451.761 61.0312 452.169 60.2057 453.2C59.3803 454.232 59.139 455.315 58.9358 455.302C58.7326 455.289 58.5421 453.914 59.5962 452.653C60.6502 451.392 62.0218 451.303 62.0345 451.532Z" fill="#EE2C70"/>
<path d="M64.9678 457.798C64.7519 457.798 64.409 456.627 65.044 455.251C65.679 453.876 66.8092 453.392 66.9108 453.595C67.0124 453.799 66.3012 454.5 65.806 455.608C65.3107 456.716 65.2091 457.773 64.9678 457.798Z" fill="#EE2C70"/>
<path d="M105.987 423.409L104.984 449.074C104.984 449.074 130.65 458.715 130.917 463.479L81.1853 463.25L81.1091 423.218L105.987 423.409Z" fill="#444444"/>
<path d="M89.5668 446.858C89.0852 447.014 88.679 447.344 88.4277 447.785C88.1764 448.225 88.098 448.744 88.2079 449.239C88.3315 449.725 88.6366 450.143 89.0598 450.409C89.4831 450.675 89.9921 450.767 90.4811 450.666C90.9873 450.512 91.4189 450.176 91.6932 449.722C91.9674 449.268 92.0649 448.729 91.967 448.208C91.7933 447.705 91.4303 447.29 90.9557 447.052C90.4811 446.814 89.9324 446.772 89.4271 446.934" fill="#EE2C70"/>
<path d="M81.1852 463.249L81.3376 459.225L128.846 460.944C128.846 460.944 131.056 461.912 130.802 463.491L81.1852 463.249Z" fill="#263238"/>
<path d="M105.721 448.819C105.721 449.061 104.451 449.175 103.308 449.952C102.165 450.729 101.466 451.748 101.25 451.646C101.035 451.544 101.39 450.143 102.851 449.239C104.311 448.335 105.772 448.602 105.721 448.819Z" fill="#EE2C70"/>
<path d="M110.927 450.997C110.927 451.239 109.924 451.646 109.099 452.678C108.273 453.709 108.032 454.792 107.829 454.779C107.626 454.767 107.435 453.391 108.489 452.13C109.543 450.869 110.915 450.767 110.927 450.997Z" fill="#EE2C70"/>
<path d="M113.861 457.263C113.645 457.263 113.315 456.104 113.937 454.716C114.56 453.327 115.703 452.856 115.804 453.06C115.906 453.264 115.195 453.977 114.699 455.072C114.204 456.168 114.103 457.238 113.861 457.263Z" fill="#EE2C70"/>
<path d="M70.0226 266.609C77.6423 268.392 78.9122 362.732 78.9122 362.732L79.1027 448.45L108.528 448.704C108.528 448.704 112.833 411.118 114.471 374.093C115.538 350.174 117.011 329.655 117.011 329.655C117.011 329.655 119.944 298.692 120.148 272.837C120.351 246.981 117.608 210.593 117.608 210.593L73.8578 220.859L70.0226 266.609Z" fill="#BABABA"/>
<path d="M29.092 230.564C29.092 230.564 27.5808 257.565 27.0474 264.316C26.514 271.066 30.2477 446.806 30.2477 446.806H58.9994C58.9994 446.806 69.4892 345.677 70.0226 329.629C70.5559 313.581 75.9405 268.379 75.9405 268.379V229.277L30.5652 230.806" fill="#BABABA"/>
<path d="M77.5785 242.167C77.7783 243.37 77.8634 244.59 77.8325 245.81C77.8325 248.051 77.8325 251.172 77.5912 254.598C77.3499 258.024 76.9054 261.106 76.5117 263.323C76.3648 264.531 76.0968 265.722 75.7117 266.876C75.7445 265.663 75.8676 264.454 76.0799 263.259C76.3593 261.03 76.7149 257.96 76.9689 254.547C77.2229 251.134 77.3372 248.051 77.4007 245.81C77.3666 244.593 77.426 243.375 77.5785 242.167Z" fill="#455A64"/>
<path d="M43.9501 240.206C43.7227 241.065 43.3348 241.873 42.8071 242.587C41.6509 244.379 40.1842 245.949 38.4766 247.223C36.7656 248.496 34.8376 249.446 32.7872 250.026C31.9709 250.309 31.1112 250.447 30.2473 250.433C33.0502 249.632 35.7049 248.38 38.1083 246.727C40.3999 244.89 42.3737 242.687 43.9501 240.206Z" fill="#455A64"/>
<path d="M115.944 255.974C114.912 255.924 113.895 255.704 112.934 255.324C108.143 253.684 104.135 250.309 101.695 245.861C101.162 244.973 100.772 244.005 100.539 242.995C100.641 242.995 101.098 244.04 102.076 245.644C103.368 247.723 104.975 249.588 106.838 251.172C108.709 252.739 110.813 254.003 113.074 254.917C114.877 255.643 115.969 255.859 115.944 255.974Z" fill="#455A64"/>
<path d="M69.9078 241.263C69.9078 241.263 70.0094 241.084 70.3396 240.97C70.8114 240.799 71.3282 240.799 71.8 240.97C72.1555 241.102 72.4769 241.313 72.7406 241.586C73.0043 241.859 73.2036 242.188 73.324 242.549C73.412 243.017 73.3624 243.501 73.1812 243.942C73.0001 244.382 72.6952 244.76 72.3037 245.03C71.9121 245.3 71.4508 245.45 70.9758 245.462C70.5009 245.474 70.0328 245.347 69.6284 245.096C69.3286 244.859 69.0884 244.555 68.9274 244.207C68.7664 243.86 68.6889 243.48 68.7014 243.097C68.6952 242.598 68.8612 242.112 69.1712 241.721C69.4125 241.454 69.5903 241.39 69.6157 241.416C69.2881 241.909 69.1197 242.491 69.1332 243.084C69.1547 243.385 69.2394 243.677 69.3817 243.943C69.5239 244.209 69.7205 244.441 69.9586 244.625C70.2642 244.808 70.6176 244.896 70.9731 244.875C71.3286 244.855 71.6698 244.728 71.9524 244.511C72.2584 244.325 72.5002 244.049 72.6455 243.721C72.7908 243.393 72.8326 243.029 72.7652 242.676C72.6797 242.395 72.5344 242.135 72.3393 241.915C72.1442 241.695 71.9039 241.521 71.6349 241.403C71.0878 241.177 70.484 241.128 69.9078 241.263Z" fill="#455A64"/>
<path d="M61.7045 350.874C60.9492 351.868 60.0985 352.785 59.1646 353.612C57.0295 355.702 54.769 357.659 52.3957 359.471C50.042 361.285 47.5824 362.957 45.03 364.477C43.994 365.16 42.8869 365.728 41.7281 366.171C42.7065 365.416 43.7331 364.727 44.8014 364.107C46.7064 362.834 49.3098 361.089 52.0656 359.013C54.8213 356.937 57.2089 354.848 58.8979 353.332C59.7791 352.453 60.7167 351.631 61.7045 350.874Z" fill="#455A64"/>
<path d="M105.988 341.742C105.321 342.758 104.56 343.709 103.714 344.582C102.241 346.276 100.12 348.543 97.6567 350.95C95.193 353.357 92.869 355.383 91.1418 356.809C90.2433 357.631 89.2648 358.361 88.2209 358.987C89.0364 358.077 89.9149 357.226 90.8497 356.44C92.5007 354.937 94.7739 352.848 97.1995 350.466C99.6251 348.085 101.809 345.881 103.371 344.276C104.173 343.361 105.048 342.513 105.988 341.742Z" fill="#455A64"/>
<path d="M28.0377 240.894L29.4855 245.453C31.5543 246.366 33.5535 247.431 35.467 248.637C36.2162 249.414 39.3657 256.865 39.3657 256.865C39.3657 256.865 38.8958 263.348 38.4132 263.628C37.9307 263.909 36.5083 264.495 36.1527 262.444C35.7971 260.393 35.5559 256.891 35.5559 256.891L32.1524 253.783L31.3269 258.381L33.5239 265.259C33.5239 265.259 38.5148 266.532 38.6037 267.666C38.6456 267.915 38.6336 268.171 38.5687 268.415C38.5038 268.66 38.3874 268.888 38.2273 269.083C38.0673 269.279 37.8673 269.437 37.6409 269.549C37.4144 269.66 37.1668 269.722 36.9147 269.729C35.6427 269.776 34.3691 269.725 33.1049 269.576C33.1049 269.576 32.7874 272.595 30.184 271.971L27.5679 271.36C27.5679 271.36 26.6408 274.009 25.028 274.047C24.5282 274.027 24.0396 273.892 23.5995 273.654C23.1594 273.415 22.7793 273.079 22.4881 272.671L17.3194 265.029C15.9965 263.051 15.0136 260.864 14.4112 258.559L11.3633 246.676L28.0377 240.894Z" fill="white"/>
<path d="M27.8771 241.214L29.2472 245.529L29.2813 245.636L29.3845 245.682C31.4319 246.586 33.4108 247.638 35.3053 248.831C35.3756 248.912 35.4862 249.08 35.6322 249.337C35.7867 249.61 35.9689 249.96 36.1683 250.362C36.5668 251.165 37.0292 252.166 37.4693 253.145C37.9091 254.124 38.3257 255.078 38.6324 255.788C38.7857 256.143 38.9115 256.437 38.999 256.642L39.1 256.879L39.1119 256.907L39.111 256.92C39.1075 256.967 39.1022 257.036 39.0953 257.125C39.0816 257.302 39.0614 257.556 39.0356 257.862C38.9841 258.473 38.9105 259.29 38.8219 260.115C38.7331 260.941 38.6298 261.772 38.5193 262.411C38.4639 262.731 38.4078 262.997 38.3526 263.188C38.3248 263.284 38.2994 263.353 38.2778 263.399C38.2718 263.411 38.267 263.42 38.2635 263.426C38.0296 263.558 37.6336 263.722 37.2755 263.663C37.1012 263.635 36.9302 263.554 36.7801 263.373C36.6261 263.189 36.4832 262.887 36.3991 262.401C36.2231 261.386 36.0746 260.007 35.9699 258.875C35.9176 258.311 35.8765 257.81 35.8484 257.451C35.8343 257.271 35.8235 257.126 35.8163 257.027L35.808 256.913L35.806 256.883L35.8054 256.876L35.8053 256.874L35.8053 256.874L35.8053 256.874L35.5559 256.891L35.8053 256.874L35.7984 256.774L35.7244 256.706L32.321 253.598L31.9864 253.293L31.9063 253.739L31.0809 258.337L31.0699 258.398L31.0888 258.457L33.2858 265.335L33.3279 265.467L33.4621 265.501L33.4622 265.501L33.4628 265.501L33.4653 265.502L33.4756 265.504L33.5165 265.515C33.5525 265.525 33.6055 265.539 33.6732 265.557C33.8085 265.594 34.0022 265.647 34.235 265.715C34.7012 265.852 35.3222 266.045 35.9447 266.272C36.5695 266.5 37.1856 266.76 37.647 267.028C37.8783 267.162 38.0604 267.293 38.1842 267.415C38.3119 267.541 38.3503 267.632 38.3545 267.686L38.3554 267.696L38.3572 267.707C38.3931 267.922 38.3829 268.141 38.3271 268.351C38.2713 268.561 38.1713 268.757 38.0339 268.925C37.8964 269.093 37.7247 269.229 37.5304 269.325C37.3361 269.42 37.1237 269.473 36.9074 269.479L36.9056 269.479C35.6464 269.525 34.3855 269.475 33.134 269.328L32.8827 269.299L32.8563 269.55L32.8563 269.55L32.8562 269.55L32.8562 269.55L32.8562 269.551L32.8556 269.555L32.8529 269.577C32.8503 269.596 32.846 269.626 32.8396 269.663C32.8269 269.739 32.8057 269.847 32.7725 269.976C32.7057 270.235 32.5922 270.568 32.4061 270.879C32.2203 271.19 31.9684 271.468 31.6281 271.636C31.2917 271.802 30.8446 271.872 30.2422 271.728L30.2409 271.728L27.6248 271.116L27.4061 271.065L27.3319 271.277L27.3319 271.277L27.3319 271.277L27.3319 271.277L27.3316 271.278L27.3299 271.283L27.3226 271.303C27.316 271.321 27.3058 271.347 27.2922 271.382C27.265 271.451 27.224 271.551 27.1699 271.671C27.0612 271.913 26.9008 272.233 26.6931 272.553C26.2657 273.211 25.6965 273.777 25.0296 273.797C24.5709 273.777 24.1227 273.653 23.7186 273.434C23.3128 273.214 22.9622 272.905 22.6933 272.529L17.5272 264.891C17.5271 264.89 17.527 264.89 17.5268 264.89C16.2198 262.935 15.2485 260.774 14.6532 258.497C14.6531 258.496 14.6531 258.496 14.653 258.496L11.6626 246.837L27.8771 241.214Z" stroke="#2D3940" stroke-opacity="0.4" stroke-width="0.5"/>
<path d="M24.317 260.737C25.1073 262.884 26.0892 264.956 27.2506 266.927C27.5861 267.815 28.1787 268.582 28.9523 269.13C29.6671 269.426 30.4491 269.518 31.2128 269.398C31.6855 269.346 32.1625 269.346 32.6352 269.398C32.9527 269.398 33.1432 269.512 33.1559 269.474C33.1686 269.436 33.0289 269.296 32.686 269.168C32.2045 269.024 31.7025 268.959 31.2002 268.977C30.5187 269.029 29.8349 268.915 29.2063 268.646C28.5841 268.315 28.2285 267.475 27.784 266.647C26.7998 264.58 25.6399 262.603 24.317 260.737Z" fill="#2D3940"/>
<path d="M21.4852 264.647C21.8074 266.311 22.596 267.848 23.7584 269.079C24.4754 270.062 25.4582 270.818 26.5904 271.257C27.5429 271.512 28.1271 271.181 28.0763 271.13C27.6196 271.087 27.1686 270.997 26.7301 270.862C25.7257 270.345 24.8559 269.599 24.1902 268.684C22.4758 266.646 21.6503 264.558 21.4852 264.647Z" fill="#2D3940"/>
<path d="M34.0954 83.9395C34.0954 83.9395 21.3959 89.7219 16.0113 107.209C10.6267 124.697 -2.96174 191.207 0.581429 212.618C0.581429 212.618 9.43842 246.738 10.7465 247.872L28.9517 240.87L38.68 119.831L34.0954 83.9395Z" fill="#3BA7DC"/>
<path d="M42.3757 104.076C42.3757 104.076 42.3757 104.178 42.4646 104.407C42.5535 104.637 42.5916 104.98 42.6805 105.388L42.998 107.006C43.0742 107.655 43.1758 108.394 43.2774 109.222C43.7385 113.967 43.602 118.751 42.871 123.461C41.737 130.428 40.1633 137.315 38.1595 144.082C35.7656 152.356 33.9494 160.786 32.7241 169.313C31.4541 178.394 30.7811 187.145 30.4128 195.054C30.0445 202.963 29.9175 210.109 29.7905 216.159C29.6635 222.209 29.6508 226.998 29.6 230.411C29.6 232.054 29.5365 233.353 29.5238 234.232C29.5238 234.652 29.5238 234.983 29.5238 235.238C29.5403 235.352 29.5403 235.468 29.5238 235.582C29.5238 235.582 29.5238 235.467 29.5238 235.238C29.5238 235.009 29.5238 234.652 29.5238 234.232C29.5238 233.302 29.5238 232.003 29.5238 230.411V216.159C29.5238 210.147 29.6381 202.976 29.981 195.016C30.3239 187.055 30.9588 178.331 32.2542 169.224C33.4796 160.668 35.313 152.21 37.7404 143.916C39.7353 137.166 41.3214 130.302 42.49 123.359C43.2425 118.669 43.4301 113.906 43.0488 109.171C42.9557 108.322 42.8795 107.583 42.8202 106.955C42.7186 106.318 42.6297 105.783 42.5535 105.337C42.4773 104.891 42.4519 104.598 42.4138 104.344C42.391 104.256 42.3782 104.166 42.3757 104.076Z" fill="#263238"/>
<path d="M100.743 187.832C100.661 187.997 100.559 188.151 100.438 188.29L99.473 189.564C98.6348 190.647 97.3395 192.111 95.6632 193.971C93.9868 195.831 91.9295 197.792 89.5293 200.021C86.9131 202.376 84.1747 204.591 81.3254 206.657C78.4628 208.712 75.4955 210.616 72.4358 212.363C69.6165 213.955 67.0004 215.267 64.816 216.273C62.6317 217.279 60.7395 218.018 59.4568 218.476L57.971 218.998C57.8027 219.076 57.6222 219.123 57.4376 219.139C57.5865 219.033 57.7488 218.947 57.9202 218.884L59.3679 218.26C60.6379 217.738 62.4412 216.986 64.6382 215.891C66.8353 214.795 69.426 213.496 72.258 211.891C75.09 210.287 78.0362 208.351 81.0587 206.173C84.0812 203.995 86.8243 201.74 89.2499 199.613C91.6755 197.486 93.7455 195.448 95.4346 193.678C97.1236 191.908 98.3682 190.43 99.2952 189.411L100.349 188.24C100.591 187.947 100.73 187.819 100.743 187.832Z" fill="#263238"/>
<path d="M101.631 145.254C101.627 145.454 101.589 145.653 101.517 145.84L101.047 147.496C100.641 148.935 99.955 150.985 99.0406 153.495C98.1262 156.004 96.9071 158.946 95.4339 162.168C93.9608 165.391 92.1448 168.829 90.0874 172.357C88.0301 175.886 85.8458 179.108 83.7377 181.974C81.6296 184.839 79.6738 187.323 77.9213 189.335C76.1688 191.348 74.7083 192.953 73.6543 193.997L72.3843 195.271C72.2481 195.42 72.0946 195.553 71.9271 195.666C71.9271 195.666 72.0414 195.487 72.2954 195.182L73.4384 193.908C74.4416 192.813 75.8513 191.182 77.5403 189.132C79.2293 187.081 81.1851 184.572 83.2424 181.719C85.2997 178.866 87.4078 175.618 89.4779 172.115C91.5479 168.613 93.2877 165.174 94.8371 162.003C96.3864 158.831 97.5801 155.902 98.5453 153.418C99.5105 150.934 100.247 148.909 100.717 147.496C100.946 146.846 101.136 146.311 101.301 145.878C101.375 145.653 101.487 145.442 101.631 145.254Z" fill="#263238"/>
<g opacity="0.3">
<path opacity="0.3" d="M43.0107 127.804C31.3907 160.308 28.2793 195.308 29.8794 229.697C34.1846 225.52 35.6196 219.126 35.5688 213.14C35.518 207.153 34.2227 201.18 33.9687 195.168C33.0289 172.382 47.2905 150.221 43.0107 127.804Z" fill="black"/>
</g>
<g opacity="0.3">
<path opacity="0.3" d="M99.8407 150.705C100.209 149.661 97.3008 167.428 93.2624 174.09C89.198 180.788 83.5715 186.396 76.8673 190.431C76.8673 190.431 92.1067 172.854 99.8407 150.705Z" fill="black"/>
</g>
<path d="M120.122 119.233C120.063 119.462 120.033 119.697 120.033 119.933C120.033 120.456 120.033 121.118 119.931 121.92C119.931 123.653 119.817 126.162 119.766 129.257C119.664 135.447 119.588 144.006 119.537 153.456C119.487 162.907 119.537 171.466 119.537 177.656C119.537 180.687 119.537 183.171 119.614 184.992C119.614 185.795 119.614 186.457 119.614 186.992C119.579 187.22 119.579 187.452 119.614 187.68C119.64 187.451 119.64 187.22 119.614 186.992C119.614 186.457 119.614 185.795 119.69 184.992C119.69 183.171 119.766 180.687 119.817 177.656C119.817 171.389 119.944 162.869 120.02 153.456C120.096 144.044 120.02 135.536 120.02 129.257C120.02 126.238 120.02 123.754 120.02 121.933C120.02 121.118 120.02 120.468 120.02 119.933C120.086 119.706 120.12 119.47 120.122 119.233Z" fill="#263238"/>
<path d="M105.438 56.3347C105.698 49.8925 105.184 36.5947 104.575 24.5569C103.921 11.6145 93.6218 1.34713 80.8982 0.972363L79.6354 0.933594C65.979 1.34067 58.694 13.372 59.4682 27.2578L59.6458 36.9824C57.6342 36.4719 51.3327 35.5479 51.3581 43.3147C51.3771 51.1525 58.0086 50.8553 59.8933 50.4482L60.382 77.2183L51.8594 80.4813L57.2725 93.7404L63.0028 100.887L78.3916 106.431L92.5556 103.374L103.64 84.4911L91.6545 76.8758L91.737 71.3577C91.7307 71.3512 104.898 69.6712 105.438 56.3347Z" fill="white" stroke="#2D3940" stroke-width="0.5" stroke-miterlimit="10"/>
<path d="M92.4261 71.307C92.4261 71.307 83.9595 71.9023 75.1899 66.0078C75.1899 66.0078 79.0109 75.7392 92.3166 74.9304L92.4261 71.307Z" fill="#2D3940"/>
<path d="M89.2363 46.2862C89.2299 46.1697 90.5057 45.9885 92.574 45.7815C93.0959 45.7427 93.5921 45.6521 93.6952 45.2962C93.8305 44.9209 93.6243 44.3516 93.3923 43.7304C92.9413 42.4493 92.4645 41.1035 91.9619 39.6929C89.9838 33.9473 88.5662 29.2305 88.7982 29.1528C89.0301 29.0752 90.8214 33.6691 92.7995 39.4147C93.2763 40.8317 93.7274 42.184 94.1591 43.4716C94.3395 44.0733 94.6617 44.7592 94.3717 45.5356C94.2171 45.9238 93.8305 46.1956 93.489 46.2797C93.1539 46.3703 92.8575 46.3703 92.5998 46.3768C90.525 46.435 89.2363 46.4091 89.2363 46.2862Z" fill="#263238"/>
<path d="M82.1742 22.4173C82.0002 22.9866 79.9512 22.8314 77.5671 23.2584C75.1766 23.6337 73.2822 24.4425 72.9407 23.9572C72.7861 23.7243 73.0954 23.1808 73.8493 22.5984C74.5967 22.0161 75.8016 21.4338 77.2321 21.1944C78.6625 20.955 79.9898 21.1167 80.8855 21.4208C81.7811 21.7379 82.2515 22.152 82.1742 22.4173Z" fill="#263238"/>
<path d="M101.782 25.0895C101.408 25.5424 100.016 25.0183 98.3214 24.9471C96.6333 24.8177 95.1835 25.1671 94.8678 24.6689C94.7325 24.4295 94.9709 23.9701 95.6088 23.5431C96.2402 23.1225 97.2841 22.7925 98.4439 22.8637C99.6037 22.9349 100.602 23.3878 101.176 23.8795C101.769 24.3842 101.949 24.8695 101.782 25.0895Z" fill="#263238"/>
<path d="M57.7547 46.9075C57.716 46.8751 57.5936 47.0175 57.3294 47.1404C57.0717 47.2633 56.6206 47.3474 56.1438 47.1663C55.1838 46.8169 54.3654 45.2834 54.3203 43.6335C54.2946 42.7988 54.4685 42.0094 54.7585 41.3495C55.0356 40.6766 55.4673 40.2107 55.9505 40.1266C56.4338 40.0166 56.7753 40.3013 56.8848 40.5601C57.0072 40.8124 56.9493 41.0001 57.0008 41.013C57.0266 41.0324 57.1941 40.8577 57.1232 40.4825C57.0846 40.3013 56.975 40.0878 56.7624 39.9131C56.5433 39.7319 56.2212 39.6478 55.8861 39.6801C55.1838 39.7319 54.5523 40.3789 54.2301 41.1036C53.8693 41.8283 53.6567 42.7212 53.6889 43.6529C53.7533 45.4969 54.6941 47.218 56.015 47.5933C56.6529 47.7615 57.1877 47.561 57.4647 47.3474C57.7418 47.1275 57.7869 46.9204 57.7547 46.9075Z" fill="#2D3940"/>
<path d="M59.8849 32.2421C59.2069 27.2124 58.2987 22.0381 59.2133 17.1136C59.2133 17.1136 61.2727 11.3738 64.2531 7.61308C68.2312 2.60312 76.3729 -1.17078 86.3502 0.334833C99.2886 2.28096 104.693 12.1825 104.571 18.5798C104.514 21.5055 99.9922 5.95624 90.7248 16.2391C86.2415 10.1115 82.5512 8.94117 76.034 10.1312C74.774 10.3613 73.5716 10.861 72.5547 11.6697C69.9005 13.7802 70.4569 15.9696 70.4505 17.0939C71.2564 27.5346 64.9503 31.6438 64.9503 31.6438L64.6944 38.8497C64.8415 40.9799 63.7543 42.8537 62.8717 42.9458L60.1983 37.5084C60.1983 37.5084 60.2302 34.8391 59.8849 32.2421Z" fill="#2D3940"/>
<path d="M73.8107 39.9386C73.6756 39.945 73.5597 39.8352 73.5533 39.6865C73.5468 39.5379 73.6434 39.4151 73.7786 39.4021C73.9137 39.3957 74.0296 39.5055 74.036 39.6542C74.0489 39.8028 73.9459 39.9321 73.8107 39.9386Z" fill="#E24780"/>
<path d="M78.1345 39.563C77.9993 39.5694 77.8835 39.4402 77.8706 39.2721C77.8577 39.1041 77.9607 38.9619 78.0959 38.949C78.231 38.9425 78.3469 39.0718 78.3598 39.2398C78.3726 39.4078 78.2697 39.5565 78.1345 39.563Z" fill="#E24780"/>
<path d="M80.9691 39.8873C80.8338 39.8873 80.7243 39.7061 80.7307 39.4861C80.7307 39.2661 80.8467 39.085 80.982 39.085C81.1174 39.085 81.2269 39.2661 81.2204 39.4861C81.214 39.7061 81.1045 39.8873 80.9691 39.8873Z" fill="#E24780"/>
<path d="M75.512 42.8633C75.3768 42.8439 75.2803 42.7599 75.2931 42.6759C75.306 42.5918 75.4219 42.5337 75.557 42.5531C75.6922 42.5724 75.7887 42.6565 75.7759 42.7405C75.763 42.831 75.6407 42.8827 75.512 42.8633Z" fill="#E24780"/>
<path d="M79.4809 42.5009C79.3457 42.4944 79.2428 42.3652 79.2492 42.2101C79.2556 42.055 79.3715 41.9386 79.5067 41.9451C79.6418 41.9515 79.7448 42.0808 79.7384 42.2359C79.7255 42.391 79.6161 42.5074 79.4809 42.5009Z" fill="#E24780"/>
<path d="M99.8231 42.8758C99.6879 42.8823 99.572 42.7659 99.5656 42.6173C99.5592 42.4622 99.6557 42.3329 99.7909 42.3264C99.926 42.32 100.042 42.4363 100.048 42.585C100.061 42.7336 99.9582 42.8693 99.8231 42.8758Z" fill="#E24780"/>
<path d="M102.716 43.0053C102.581 42.9989 102.478 42.8567 102.484 42.6886C102.491 42.5206 102.607 42.3849 102.742 42.3913C102.877 42.3978 102.98 42.54 102.974 42.708C102.967 42.8825 102.851 43.0118 102.716 43.0053Z" fill="#E24780"/>
<path d="M97.2902 42.5979C97.155 42.6044 97.0392 42.5139 97.0328 42.3976C97.0263 42.2812 97.1293 42.1778 97.2645 42.1649C97.3996 42.1584 97.5155 42.2489 97.5219 42.3652C97.5283 42.488 97.4254 42.5914 97.2902 42.5979Z" fill="#E24780"/>
<path d="M99.0108 45.7615C98.882 45.8002 98.7404 45.7097 98.7018 45.5546C98.6568 45.406 98.7276 45.2509 98.8563 45.2121C98.985 45.1733 99.1266 45.2638 99.1652 45.4189C99.2103 45.5676 99.1395 45.7227 99.0108 45.7615Z" fill="#E24780"/>
<path d="M101.524 45.6066C101.402 45.5549 101.338 45.4256 101.383 45.3222C101.428 45.2188 101.563 45.1735 101.685 45.2317C101.807 45.2834 101.872 45.4127 101.827 45.5161C101.782 45.6195 101.646 45.6647 101.524 45.6066Z" fill="#E24780"/>
<path d="M82.7806 48.0072C83.2896 47.9425 83.7536 50.1554 87.0204 51.4689C90.2808 52.7888 93.8891 52.2259 93.9793 52.5365C94.0566 52.6723 93.2512 53.0347 91.7112 53.1964C90.2034 53.3582 87.9225 53.2352 85.925 52.4329C83.934 51.6241 82.8966 50.4077 82.5873 49.5084C82.278 48.596 82.5422 48.0202 82.7806 48.0072Z" fill="#263238"/>
<circle cx="80.7665" cy="33.1431" r="1.40041" fill="#2D3940"/>
<circle cx="99.4386" cy="33.1431" r="1.40041" fill="#2D3940"/>
<path fill-rule="evenodd" clip-rule="evenodd" d="M102.178 83.1223C98.2017 91.9371 89.6906 98.0285 79.833 98.0285C68.3877 98.0285 58.7577 89.8169 55.9322 78.6655C46.6272 80.1565 35.4156 82.2645 34.0954 83.9398C32.6778 85.7386 31.6369 128.752 30.812 162.844C30.2993 184.032 29.87 201.773 29.4854 204.034C28.2155 211.421 29.4854 235.595 29.4854 235.595L119.258 238.499L120.122 222.514L118.687 91.1487L102.178 83.1223Z" fill="#3BA7DC"/>
<path d="M118.549 107.365C118.555 107.372 118.509 107.433 118.424 107.542C118.316 107.671 118.185 107.828 118.02 108.026C117.65 108.434 117.15 109.095 116.41 109.83C114.988 111.37 112.781 113.447 109.812 115.626C108.333 116.723 106.632 117.799 104.766 118.868C102.872 119.883 100.824 120.912 98.5719 121.749C94.0896 123.473 88.8848 124.63 83.3274 124.807C77.7586 124.93 72.4117 124.058 67.7018 122.58C65.3412 121.865 63.1455 120.953 61.1205 120.047C59.1069 119.086 57.2639 118.106 55.6314 117.091C52.3663 115.075 49.8749 113.12 48.2424 111.669C47.4005 110.975 46.8089 110.348 46.3823 109.96C46.1889 109.769 46.0353 109.619 45.9102 109.497C45.8078 109.388 45.7566 109.333 45.7566 109.326C45.7623 109.32 45.8192 109.367 45.9329 109.463C46.0638 109.578 46.2287 109.715 46.4278 109.892C46.8715 110.259 47.4744 110.859 48.3277 111.533C49.9886 112.943 52.4858 114.843 55.7565 116.812C57.389 117.806 59.2263 118.759 61.2343 119.699C63.2536 120.585 65.4322 121.484 67.7815 122.178C72.4629 123.622 77.77 124.474 83.2933 124.358C88.8109 124.181 93.9758 123.043 98.4354 121.354C100.677 120.537 102.719 119.522 104.607 118.535C106.467 117.493 108.168 116.437 109.653 115.361C112.628 113.222 114.846 111.193 116.302 109.701C117.053 108.986 117.576 108.352 117.963 107.964C118.139 107.78 118.282 107.631 118.395 107.515C118.486 107.406 118.543 107.358 118.549 107.365Z" fill="#FAFAFA"/>
<path d="M116.694 142.648C116.694 142.648 116.621 142.628 116.486 142.573C116.341 142.519 116.144 142.437 115.881 142.328C115.348 142.124 114.558 141.838 113.515 141.593C111.447 141.095 108.313 140.741 104.602 141.776C102.758 142.287 100.796 143.186 98.8618 144.535C96.9166 145.856 94.9994 147.593 93.0261 149.486C91.0529 151.373 89.0292 153.437 86.7477 155.296C84.4661 157.135 81.8875 158.715 79.0397 159.525C77.6159 159.921 76.164 160.098 74.7457 159.968C73.3218 159.846 71.9428 159.389 70.6983 158.667C69.4539 157.939 68.3663 156.931 67.3573 155.902C66.3483 154.867 65.4121 153.791 64.4591 152.803C62.5812 150.78 60.4398 149.411 58.3096 148.635C56.1794 147.852 54.0828 147.62 52.1937 147.743C50.2989 147.859 48.6172 148.328 47.1877 148.907C46.8345 149.071 46.4926 149.221 46.1675 149.371C45.8423 149.527 45.5452 149.718 45.2537 149.881C44.6595 150.195 44.1662 150.59 43.7065 150.91C43.4711 151.066 43.2693 151.244 43.0787 151.414C42.8881 151.577 42.7087 151.734 42.5405 151.877C42.1986 152.149 41.9519 152.442 41.7389 152.667C41.5315 152.885 41.3689 153.048 41.2568 153.171C41.1447 153.28 41.0886 153.334 41.0886 153.334C41.0886 153.334 41.1391 153.266 41.2456 153.151C41.3577 153.028 41.5147 152.851 41.7165 152.626C41.9239 152.401 42.1705 152.102 42.5125 151.816C42.6751 151.666 42.8544 151.509 43.045 151.339C43.2356 151.169 43.4374 150.985 43.6673 150.828C44.127 150.501 44.6203 150.092 45.2145 149.772C45.506 149.609 45.8031 149.405 46.1338 149.248C46.4646 149.091 46.8065 148.935 47.1597 148.771C48.5892 148.179 50.2877 147.695 52.1937 147.566C54.094 147.436 56.213 147.654 58.3656 148.437C60.5182 149.207 62.6933 150.603 64.5936 152.633C65.5578 153.621 66.494 154.697 67.4974 155.725C68.5009 156.747 69.5716 157.741 70.7992 158.449C72.0213 159.158 73.3723 159.6 74.7737 159.723C76.1696 159.852 77.6046 159.682 79.0061 159.287C81.8202 158.49 84.382 156.924 86.6524 155.098C88.9171 153.253 90.9464 151.196 92.9252 149.309C94.9041 147.423 96.8325 145.686 98.7945 144.365C100.745 143.016 102.724 142.117 104.585 141.613C108.324 140.591 111.475 140.98 113.543 141.504C114.586 141.763 115.376 142.069 115.909 142.287C116.167 142.403 116.363 142.492 116.509 142.553C116.626 142.614 116.694 142.648 116.694 142.648Z" fill="#FAFAFA"/>
<path d="M34.5533 213.705C34.5533 213.705 34.6292 213.726 34.7808 213.78C34.9388 213.835 35.1536 213.917 35.4379 214.012C36.0192 214.209 36.8785 214.482 38.0095 214.72C40.2526 215.197 43.6646 215.538 47.6894 214.543C49.6987 214.053 51.8217 213.181 53.9257 211.88C56.0424 210.607 58.1212 208.931 60.2631 207.113C62.4051 205.294 64.6102 203.305 67.0807 201.507C69.5576 199.736 72.363 198.211 75.459 197.434C77.0007 197.053 78.5803 196.883 80.1284 197.012C81.6701 197.135 83.1739 197.571 84.526 198.265C85.8782 198.967 87.0597 199.941 88.1528 200.928C89.2459 201.93 90.2632 202.965 91.3057 203.911C93.3466 205.859 95.6781 207.181 97.9906 207.93C100.303 208.686 102.584 208.904 104.631 208.788C106.685 208.672 108.517 208.223 110.065 207.664C110.451 207.508 110.817 207.358 111.171 207.215C111.525 207.065 111.847 206.874 112.163 206.718C112.807 206.418 113.344 206.03 113.844 205.723C114.096 205.573 114.318 205.403 114.526 205.24C114.735 205.076 114.93 204.926 115.107 204.79C115.48 204.524 115.752 204.245 115.979 204.034C116.207 203.823 116.377 203.666 116.504 203.551C116.624 203.442 116.687 203.394 116.687 203.394C116.687 203.394 116.63 203.455 116.516 203.571C116.396 203.694 116.226 203.857 116.005 204.075C115.777 204.293 115.512 204.579 115.139 204.851C114.962 204.994 114.766 205.151 114.558 205.315C114.355 205.485 114.134 205.655 113.882 205.812C113.382 206.125 112.845 206.52 112.201 206.827C111.879 206.99 111.556 207.181 111.203 207.331C110.842 207.48 110.476 207.63 110.09 207.794C108.536 208.366 106.691 208.829 104.619 208.958C102.553 209.088 100.253 208.877 97.9148 208.121C95.577 207.378 93.2076 206.036 91.1541 204.075C90.1115 203.121 89.0879 202.086 88.0012 201.099C86.9081 200.118 85.7455 199.157 84.4123 198.47C83.0854 197.789 81.6132 197.359 80.0968 197.244C78.5803 197.121 77.0197 197.285 75.4969 197.666C72.4388 198.436 69.6587 199.941 67.1945 201.705C64.7303 203.482 62.5315 205.471 60.3832 207.283C58.2349 209.101 56.1372 210.777 54.0079 212.05C51.8912 213.351 49.7366 214.216 47.7147 214.707C43.6519 215.694 40.2273 215.32 37.978 214.809C36.8469 214.557 35.9876 214.264 35.4063 214.053C35.1283 213.944 34.9135 213.855 34.7555 213.794C34.6292 213.74 34.5533 213.705 34.5533 213.705Z" fill="#FAFAFA"/>
<path d="M118.891 175.565C118.897 175.571 118.844 175.626 118.737 175.735C118.618 175.857 118.458 176.014 118.257 176.218C118.044 176.423 117.789 176.702 117.463 176.988C117.131 177.267 116.746 177.587 116.313 177.948C114.559 179.345 111.749 180.979 108.027 181.994C104.305 183.002 99.6944 183.315 94.6804 182.607C89.6546 181.905 84.2968 180.128 78.7494 178.146C73.202 176.157 67.9035 174.25 62.9369 173.303C57.9763 172.343 53.4008 172.309 49.6433 172.976C45.8858 173.651 42.9757 174.952 41.1088 176.109C40.6466 176.409 40.2376 176.675 39.8761 176.906C39.5264 177.145 39.2419 177.383 39.0108 177.553C38.7856 177.724 38.6078 177.853 38.4774 177.955C38.3588 178.044 38.2936 178.085 38.2877 178.085C38.2877 178.078 38.3411 178.03 38.4596 177.928C38.59 177.826 38.7619 177.683 38.9811 177.499C39.2123 177.315 39.4908 177.07 39.8346 176.825C40.1902 176.586 40.5991 176.307 41.0555 175.994C42.9165 174.795 45.8265 173.453 49.6077 172.745C53.3831 172.043 57.9881 172.057 62.9725 173.004C67.9687 173.937 73.2791 175.844 78.8265 177.833C84.3739 179.815 89.7079 181.592 94.7041 182.307C99.6885 183.029 104.276 182.743 107.974 181.769C111.684 180.788 114.482 179.195 116.248 177.839C116.68 177.492 117.066 177.179 117.403 176.906C117.735 176.627 117.99 176.361 118.21 176.164C118.417 175.966 118.583 175.817 118.707 175.701C118.826 175.605 118.885 175.558 118.891 175.565Z" fill="#FAFAFA"/>
<path d="M42.6443 104.563C42.6443 104.563 42.6443 104.669 42.739 104.907C42.8337 105.144 42.8743 105.501 42.969 105.923L43.3073 107.6C43.3885 108.273 43.4967 109.039 43.605 109.897C44.0962 114.815 43.9508 119.774 43.172 124.656C41.9638 131.877 40.2872 139.016 38.1523 146.03C35.6018 154.605 33.6668 163.344 32.3614 172.182C31.0084 181.595 30.2913 190.664 29.8989 198.862C29.5065 207.06 29.3712 214.466 29.2359 220.737C29.1006 227.008 29.0871 231.972 29.033 235.51C29.033 237.213 28.9653 238.559 28.9518 239.47C28.9518 239.906 28.9518 240.249 28.9518 240.513C28.9694 240.631 28.9694 240.751 28.9518 240.87C28.9518 240.87 28.9518 240.751 28.9518 240.513C28.9518 240.276 28.9518 239.906 28.9518 239.47C28.9518 238.507 28.9518 237.16 28.9518 235.51V220.737C28.9518 214.506 29.0736 207.074 29.4389 198.823C29.8042 190.572 30.4807 181.529 31.8608 172.089C33.1663 163.221 35.1196 154.455 37.7058 145.858C39.8312 138.862 41.521 131.746 42.7661 124.551C43.5678 119.689 43.7676 114.752 43.3614 109.844C43.2622 108.964 43.181 108.198 43.1179 107.547C43.0096 106.887 42.9149 106.332 42.8337 105.87C42.7526 105.408 42.7255 105.105 42.6849 104.841C42.6606 104.75 42.647 104.657 42.6443 104.563Z" fill="#263238"/>
<g opacity="0.3">
<path opacity="0.3" d="M43.0517 129.047C30.935 162.841 27.6906 199.231 29.3592 234.985C33.8483 230.642 35.3447 223.994 35.2917 217.77C35.2387 211.546 33.888 205.336 33.6232 199.085C32.6432 175.395 47.5143 152.353 43.0517 129.047Z" fill="black"/>
</g>
<path d="M175.796 151.069L175.629 151.155L175.666 151.34L177.101 158.473L177.14 158.666L177.336 158.673C182.25 158.861 187.089 157.432 191.116 154.603L191.116 154.603L191.123 154.598C192.642 153.451 193.615 152.597 194.218 151.959C194.519 151.639 194.732 151.369 194.876 151.139C195.017 150.911 195.099 150.708 195.118 150.526C195.129 150.425 195.12 150.332 195.094 150.248C195.188 150.244 195.289 150.239 195.396 150.234C196.12 150.198 197.125 150.138 198.254 150.037C200.505 149.836 203.27 149.475 205.26 148.829C207.277 148.174 208.168 147.176 208.536 146.3C208.718 145.866 208.768 145.475 208.771 145.191C208.773 145.048 208.763 144.932 208.752 144.85C208.747 144.808 208.741 144.776 208.737 144.752C208.735 144.74 208.733 144.731 208.731 144.724L208.729 144.715L208.728 144.712L208.728 144.711L208.728 144.711C208.728 144.711 208.728 144.71 208.485 144.77L208.728 144.71L208.682 144.523L208.49 144.52L189.288 144.15L189.225 144.149L189.169 144.178L175.796 151.069Z" fill="white" stroke="#2D3940" stroke-width="0.5"/>
<path d="M127.462 100.255C129.672 105.719 139.742 155.239 139.742 155.239L176.457 145.648C176.457 145.648 185.511 170.688 186.731 170.243C187.95 169.797 139.12 190.405 129.481 189.704C120.122 189.029 116.896 175.095 116.896 175.095L102.279 84.3086C102.279 84.3086 122.725 88.6008 127.462 100.255Z" fill="#3BA7DC"/>
</svg>
