<svg width="20" height="21" viewBox="0 0 20 21" fill="none" xmlns="http://www.w3.org/2000/svg">
<path d="M10 0.846191C4.47 0.846191 0 5.31619 0 10.8462C0 16.3762 4.47 20.8462 10 20.8462C15.53 20.8462 20 16.3762 20 10.8462C20 5.31619 15.53 0.846191 10 0.846191ZM14.3 15.1462C13.91 15.5362 13.28 15.5362 12.89 15.1462L10 12.2562L7.11 15.1462C6.72 15.5362 6.09 15.5362 5.7 15.1462C5.31 14.7562 5.31 14.1262 5.7 13.7362L8.59 10.8462L5.7 7.95619C5.31 7.56619 5.31 6.93619 5.7 6.54619C6.09 6.15619 6.72 6.15619 7.11 6.54619L10 9.43619L12.89 6.54619C13.28 6.15619 13.91 6.15619 14.3 6.54619C14.69 6.93619 14.69 7.56619 14.3 7.95619L11.41 10.8462L14.3 13.7362C14.68 14.1162 14.68 14.7562 14.3 15.1462Z" fill="#BABABA"/>
</svg>
