<svg width="14" height="15" viewBox="0 0 14 15" fill="none" xmlns="http://www.w3.org/2000/svg">
<path d="M5.86667 0.833008C2.62667 0.833008 0 3.22074 0 6.16634C0 7.6792 0.697668 9.03982 1.81146 10.009C1.6517 10.5322 1.31845 11.0526 0.70625 11.5163C0.705904 11.5167 0.705556 11.517 0.705208 11.5174C0.654714 11.5366 0.611243 11.5707 0.58055 11.6151C0.549858 11.6596 0.533392 11.7123 0.533333 11.7663C0.533333 11.8371 0.561428 11.9049 0.611438 11.9549C0.661448 12.0049 0.729275 12.033 0.8 12.033C0.818222 12.0328 0.836372 12.0307 0.854167 12.0268C1.88887 12.0237 2.7717 11.5818 3.47396 11.0278C3.80721 11.1634 4.15508 11.2751 4.51771 11.3528C4.35557 10.8941 4.26667 10.4058 4.26667 9.89967C4.26667 7.25274 6.6592 5.09967 9.6 5.09967C10.3371 5.09967 11.0397 5.23508 11.6792 5.47988C11.308 2.85908 8.85013 0.833008 5.86667 0.833008ZM9.6 6.16634C8.46841 6.16634 7.38316 6.55967 6.58301 7.25981C5.78285 7.95994 5.33333 8.90953 5.33333 9.89967C5.33333 10.8898 5.78285 11.8394 6.58301 12.5395C7.38316 13.2397 8.46841 13.633 9.6 13.633C10.1455 13.6323 10.6859 13.54 11.1917 13.3611C11.8457 13.818 12.6373 14.1569 13.5437 14.1601C13.5622 14.1642 13.5811 14.1663 13.6 14.1663C13.6707 14.1663 13.7386 14.1382 13.7886 14.0882C13.8386 14.0382 13.8667 13.9704 13.8667 13.8997C13.8666 13.8451 13.8498 13.7919 13.8185 13.7472C13.7872 13.7025 13.7429 13.6684 13.6917 13.6497C13.2036 13.2791 12.8907 12.8712 12.7031 12.4559C13.4488 11.7645 13.8649 10.8503 13.8667 9.89967C13.8667 8.90953 13.4171 7.95994 12.617 7.25981C11.8168 6.55967 10.7316 6.16634 9.6 6.16634Z" fill="#0099CC"/>
</svg>
