<svg width="19" height="17" viewBox="0 0 19 17" fill="none" xmlns="http://www.w3.org/2000/svg">
<path d="M8.14016 0C4.00916 0 0.660156 3.04436 0.660156 6.8C0.660156 8.72889 1.54968 10.4637 2.96977 11.6995C2.76607 12.3665 2.34119 13.03 1.56063 13.6213C1.56018 13.6217 1.55974 13.6221 1.5593 13.6226C1.49492 13.6471 1.43949 13.6905 1.40036 13.7472C1.36123 13.8039 1.34023 13.8711 1.34016 13.94C1.34016 14.0302 1.37598 14.1167 1.43974 14.1804C1.5035 14.2442 1.58998 14.28 1.68016 14.28C1.70339 14.2797 1.72653 14.277 1.74922 14.272C3.06847 14.2682 4.19408 13.7047 5.08945 12.9984C5.51435 13.1712 5.95788 13.3137 6.42023 13.4127C6.21351 12.8279 6.10016 12.2053 6.10016 11.56C6.10016 8.18516 9.15064 5.44 12.9002 5.44C13.8399 5.44 14.7358 5.61265 15.5511 5.92477C15.0778 2.58325 11.9441 0 8.14016 0ZM12.9002 6.8C11.4574 6.8 10.0737 7.3015 9.0535 8.19417C8.0333 9.08685 7.46016 10.2976 7.46016 11.56C7.46016 12.8224 8.0333 14.0332 9.0535 14.9258C10.0737 15.8185 11.4574 16.32 12.9002 16.32C13.5957 16.319 14.2846 16.2014 14.9295 15.9734C15.7635 16.5559 16.7727 16.988 17.9284 16.992C17.952 16.9972 17.976 16.9999 18.0002 17C18.0903 17 18.1768 16.9642 18.2406 16.9004C18.3043 16.8367 18.3402 16.7502 18.3402 16.66C18.34 16.5904 18.3186 16.5226 18.2787 16.4656C18.2388 16.4086 18.1824 16.3652 18.117 16.3412C17.4947 15.8688 17.0958 15.3487 16.8566 14.8192C17.8073 13.9377 18.3379 12.772 18.3402 11.56C18.3402 10.2976 17.767 9.08685 16.7468 8.19417C15.7266 7.3015 14.3429 6.8 12.9002 6.8Z" fill="#0099CC"/>
</svg>
