<svg width="1375" height="593" viewBox="0 0 1375 593" fill="none" xmlns="http://www.w3.org/2000/svg">
<g opacity="0.5">
<path d="M1041 566C1041 566 1052.84 532.604 1067.64 532.604C1067.64 532.604 1076.52 529.568 1076.52 544.748C1076.52 544.748 1082.44 529.568 1088.36 529.568C1094.28 529.568 1094.28 538.676 1094.28 538.676C1094.28 538.676 1106.12 490.101 1141.64 493.137C1141.64 493.137 1171.24 490.101 1153.48 541.712C1153.48 541.712 1159.4 526.532 1174.2 532.604C1174.2 532.604 1183.08 535.64 1183.08 553.856C1183.08 553.856 1186.04 544.748 1197.88 544.748C1197.88 544.748 1203.8 544.748 1203.8 550.82C1203.8 550.82 1218.6 523.496 1239.32 523.496C1260.04 523.496 1251.16 553.856 1251.16 553.856C1251.16 553.856 1263 553.856 1263 566H1041Z" fill="#E1F7FE"/>
<path d="M1033 563C1033 563 1044.79 530.977 1059.52 530.977C1059.52 530.977 1068.36 528.065 1068.36 542.622C1068.36 542.622 1074.25 528.065 1080.15 528.065C1086.04 528.065 1086.04 536.799 1086.04 536.799C1086.04 536.799 1097.83 490.22 1133.19 493.131C1133.19 493.131 1162.65 490.22 1144.97 539.71C1144.97 539.71 1150.87 525.154 1165.6 530.977C1165.6 530.977 1174.44 533.888 1174.44 551.355C1174.44 551.355 1177.39 542.622 1189.17 542.622C1189.17 542.622 1195.07 542.622 1195.07 548.444C1195.07 548.444 1209.8 522.243 1230.43 522.243C1251.05 522.243 1242.21 551.355 1242.21 551.355C1242.21 551.355 1254 551.355 1254 563" stroke="#37CAFC" stroke-miterlimit="10" stroke-linecap="round" stroke-linejoin="round"/>
<path d="M1334 588C1334 588 1357.06 452.244 1362 161" stroke="#37CAFC" stroke-miterlimit="10" stroke-linecap="round" stroke-linejoin="round"/>
<path d="M1094.02 41.663C1094.02 41.663 1074.94 40.827 1055 69.7333C1055 69.7333 1081.28 64.2088 1102.5 82.4843C1114.34 92.6971 1124.17 105.15 1135.77 115.661C1151.52 129.905 1169.08 140.566 1189.46 146.538C1201.19 149.942 1213.63 150.57 1225.71 148.987C1231.66 148.181 1237.56 146.867 1243.27 145.015C1247.82 143.552 1251.99 141.551 1256.31 139.461C1261.31 137.042 1260.41 141.91 1257.5 144.089C1251.9 148.27 1245.53 150.779 1239.04 153.138C1239.04 153.138 1283.6 205.068 1361.63 216.117L1361.36 224C1361.36 224 1371.78 223.343 1372.23 219.939C1373.6 208.92 1374.22 197.811 1374.61 186.702C1374.94 177.744 1376.24 167.233 1371.13 159.289C1368.42 155.079 1364.13 155.288 1359.64 154.87C1354.55 154.392 1349.46 153.914 1344.43 153.018C1323.48 149.226 1305.09 138.207 1289.97 123.395C1291.45 124.858 1309.22 102.372 1310.23 100.79C1318.63 87.7997 1324.67 72.9882 1325.86 57.46C1327.17 40.4088 1322.41 19.5055 1308.27 8.63571C1283.72 -10.2669 1253.69 4.72382 1237.11 26.105C1222.02 45.6048 1215.83 70.7187 1213.63 94.877C1213.63 94.877 1181.81 99.9834 1161.04 53.6078C1150.18 29.3599 1129.7 9.29273 1102.05 7.2024C1086.58 6.03778 1073.54 14.0109 1066.49 27.628C1066.46 27.628 1092.74 31.0322 1094.02 41.663Z" fill="#37CAFC"/>
<path d="M1219 95C1219 95 1267.94 91.0432 1279 60" stroke="white" stroke-miterlimit="10" stroke-linecap="round" stroke-linejoin="round"/>
<path d="M1272.26 296.499C1271.98 295.923 1271.75 295.364 1271.5 294.919C1269.04 290.429 1265.7 286.711 1261.68 283.52C1259.35 281.661 1256.81 280 1254.15 278.667C1253.83 278.503 1253.51 278.355 1253.18 278.19C1246.35 274.917 1239.13 272.794 1231.66 271.627C1224.52 270.524 1217.51 269.225 1210.75 266.576C1201.6 262.99 1186.35 254.716 1194.15 242.889C1196.91 238.694 1199.69 234.499 1202.46 230.288C1205.68 225.403 1208.94 220.533 1212.08 215.582C1214.47 211.848 1218.04 206.535 1223.22 208.377C1226.62 209.578 1227.64 212.769 1229.29 215.631C1233.14 222.343 1239.24 227.13 1246.58 229.515C1258.21 233.298 1266.09 233.282 1276.09 237.987C1286.1 242.675 1292.48 247.396 1299.54 254.009C1302.17 256.822 1305.28 261.148 1303.45 265.178C1302.96 266.28 1302.19 267.234 1301.43 268.189C1293.71 277.877 1285.96 287.534 1278.25 297.222C1277.48 298.193 1276.23 299.032 1274.94 298.999C1273.63 298.983 1272.85 297.732 1272.26 296.499Z" fill="#E1F7FE"/>
<path d="M1270.77 301.072C1271.69 304.05 1274.74 303.152 1276.25 301.239C1283.96 291.44 1291.71 281.657 1299.43 271.874C1300.19 270.909 1300.94 269.944 1301.45 268.83C1303.28 264.753 1300.17 260.378 1297.54 257.533C1290.48 250.845 1284.1 246.087 1274.09 241.328C1264.09 236.587 1256.21 236.587 1244.58 232.76C1237.24 230.348 1231.14 225.506 1227.29 218.718C1225.64 215.823 1224.62 212.596 1221.22 211.381C1216.04 209.518 1212.45 214.892 1210.08 218.668C1206.94 223.66 1203.68 228.584 1200.46 233.542C1197.69 237.785 1194.91 242.027 1192.15 246.286C1184.35 258.248 1199.6 266.633 1208.75 270.244C1215.51 272.922 1222.52 274.237 1229.66 275.351C1237.11 276.516 1244.33 278.679 1251.18 281.99C1251.51 282.139 1251.82 282.306 1252.15 282.472C1259.22 286.066 1265.41 291.489 1268.43 299.009" stroke="#37CAFC" stroke-miterlimit="10" stroke-linecap="round" stroke-linejoin="round"/>
<path d="M1204.24 255.455C1204.41 253.659 1202.65 252.019 1200.31 251.793C1197.97 251.567 1195.92 252.839 1195.75 254.636C1195.58 256.432 1197.34 258.072 1199.68 258.298C1202.02 258.525 1204.07 257.252 1204.24 255.455Z" stroke="#37CAFC" stroke-miterlimit="10" stroke-linecap="round" stroke-linejoin="round"/>
<path d="M1252.14 267.135C1252.14 267.135 1260.37 264.954 1261.83 256.874C1262.41 253.651 1261.5 250.231 1259.09 247.934C1252.19 241.291 1237.86 246.976 1234.03 254.577C1231.99 258.642 1233.05 263.682 1236.68 266.458C1240.42 269.317 1245.75 269.581 1250.09 268.16" stroke="#37CAFC" stroke-miterlimit="10" stroke-linecap="round" stroke-linejoin="round"/>
<path d="M1193 348C1199.08 348 1204 343.075 1204 337C1204 330.925 1199.08 326 1193 326C1186.92 326 1182 330.925 1182 337C1182 343.075 1186.92 348 1193 348Z" fill="#37CAFC"/>
<path d="M1191.5 348C1197.85 348 1203 343.075 1203 337C1203 330.925 1197.85 326 1191.5 326C1185.15 326 1180 330.925 1180 337C1180 343.075 1185.15 348 1191.5 348Z" fill="#37CAFC"/>
<path d="M1190.5 346C1196.85 346 1202 341.075 1202 335C1202 328.925 1196.85 324 1190.5 324C1184.15 324 1179 328.925 1179 335C1179 341.075 1184.15 346 1190.5 346Z" fill="#37CAFC"/>
<path d="M1192.5 348C1189.6 348 1186.91 346.844 1184.9 344.749C1182.96 342.721 1181.94 340.056 1182 337.257C1182.07 334.458 1183.23 331.844 1185.25 329.899C1187.21 328.022 1189.79 327 1192.5 327C1195.4 327 1198.09 328.156 1200.1 330.251C1204.1 334.441 1203.94 341.112 1199.75 345.101C1197.78 346.961 1195.2 348 1192.5 348Z" fill="white"/>
<path d="M1193 327.625C1195.58 327.625 1198 328.648 1199.79 330.533C1201.51 332.353 1202.44 334.725 1202.37 337.227C1202.31 339.73 1201.29 342.053 1199.47 343.792C1197.71 345.465 1195.42 346.375 1193 346.375C1190.42 346.375 1188 345.352 1186.21 343.467C1184.49 341.647 1183.56 339.275 1183.63 336.773C1183.69 334.27 1184.71 331.947 1186.53 330.208C1188.29 328.551 1190.6 327.625 1193 327.625ZM1193 326C1190.27 326 1187.54 327.007 1185.41 329.038C1181.01 333.23 1180.85 340.185 1185.04 344.588C1187.2 346.846 1190.09 348 1193 348C1195.73 348 1198.46 346.993 1200.59 344.962C1204.99 340.77 1205.15 333.815 1200.96 329.412C1198.8 327.154 1195.91 326 1193 326Z" fill="#37CAFC"/>
<path d="M1167.5 369C1173.85 369 1179 363.851 1179 357.5C1179 351.149 1173.85 346 1167.5 346C1161.15 346 1156 351.149 1156 357.5C1156 363.851 1161.15 369 1167.5 369Z" fill="#37CAFC"/>
<path d="M1164.5 368C1170.85 368 1176 362.851 1176 356.5C1176 350.149 1170.85 345 1164.5 345C1158.15 345 1153 350.149 1153 356.5C1153 362.851 1158.15 368 1164.5 368Z" fill="#37CAFC"/>
<path d="M1163 368C1169.08 368 1174 362.851 1174 356.5C1174 350.149 1169.08 345 1163 345C1156.92 345 1152 350.149 1152 356.5C1152 362.851 1156.92 368 1163 368Z" fill="#37CAFC"/>
<path d="M1166.98 368C1164.7 368 1162.49 367.298 1160.63 365.965C1155.68 362.456 1154.52 355.579 1158.03 350.632C1160.08 347.737 1163.45 346 1167.01 346C1169.3 346 1171.51 346.702 1173.37 348.035C1175.77 349.737 1177.35 352.263 1177.84 355.158C1178.33 358.053 1177.67 360.965 1175.96 363.368C1173.89 366.263 1170.54 368 1166.98 368Z" fill="white"/>
<path d="M1167.01 347.699C1168.96 347.699 1170.83 348.327 1172.42 349.516C1176.64 352.642 1177.63 358.774 1174.64 363.174C1172.88 365.756 1170.02 367.301 1166.98 367.301C1165.02 367.301 1163.15 366.673 1161.56 365.484C1157.35 362.358 1156.36 356.226 1159.35 351.826C1161.1 349.244 1163.97 347.699 1167.01 347.699ZM1167.01 346C1163.56 346 1160.18 347.682 1158.03 350.841C1154.52 356.022 1155.67 363.191 1160.63 366.877C1162.57 368.304 1164.8 369 1166.99 369C1170.44 369 1173.82 367.318 1175.97 364.159C1179.48 358.978 1178.33 351.809 1173.37 348.123C1171.45 346.679 1169.22 346 1167.01 346Z" fill="#37CAFC"/>
<path d="M1166.5 319C1172.85 319 1178 314.075 1178 308C1178 301.925 1172.85 297 1166.5 297C1160.15 297 1155 301.925 1155 308C1155 314.075 1160.15 319 1166.5 319Z" fill="#37CAFC"/>
<path d="M1164.5 322C1170.85 322 1176 316.851 1176 310.5C1176 304.149 1170.85 299 1164.5 299C1158.15 299 1153 304.149 1153 310.5C1153 316.851 1158.15 322 1164.5 322Z" fill="#37CAFC"/>
<path d="M1164.5 324C1170.85 324 1176 318.851 1176 312.5C1176 306.149 1170.85 301 1164.5 301C1158.15 301 1153 306.149 1153 312.5C1153 318.851 1158.15 324 1164.5 324Z" fill="#37CAFC"/>
<path d="M1165.48 319C1163.66 319 1161.87 318.537 1160.28 317.675C1155.25 314.93 1153.51 308.816 1156.39 304.028C1158.25 300.915 1161.75 299 1165.52 299C1167.34 299 1169.13 299.463 1170.72 300.325C1175.75 303.07 1177.49 309.184 1174.61 313.972C1172.73 317.085 1169.25 319 1165.48 319Z" fill="white"/>
<path d="M1166.51 298.624C1168.21 298.624 1169.89 299.046 1171.37 299.858C1176.05 302.423 1177.68 308.154 1175 312.635C1173.25 315.542 1169.99 317.344 1166.49 317.344C1164.79 317.344 1163.11 316.922 1161.63 316.11C1156.95 313.545 1155.32 307.813 1158 303.332C1159.75 300.426 1163.01 298.624 1166.51 298.624ZM1166.51 297C1162.52 297 1158.65 298.981 1156.52 302.537C1153.36 307.797 1155.28 314.519 1160.79 317.539C1162.59 318.529 1164.56 319 1166.49 319C1170.48 319 1174.35 317.019 1176.48 313.463C1179.64 308.203 1177.72 301.481 1172.21 298.461C1170.41 297.471 1168.44 297 1166.51 297Z" fill="#37CAFC"/>
<path d="M93.5 146C119.181 146 140 125.629 140 100.5C140 75.371 119.181 55 93.5 55C67.8188 55 47 75.371 47 100.5C47 125.629 67.8188 146 93.5 146Z" fill="#E1F7FE"/>
<path d="M280.933 306.655C280.522 307.102 280.157 307.561 279.804 307.908C276.302 311.399 272.207 313.961 267.61 315.852C264.929 316.96 262.123 317.821 259.272 318.369C258.929 318.437 258.587 318.493 258.245 318.56C250.99 319.802 243.656 319.891 236.367 319.03C229.386 318.202 222.485 317.586 215.459 318.269C205.945 319.197 189.474 322.867 193.672 335.757C195.155 340.333 196.649 344.898 198.132 349.475C199.866 354.8 201.634 360.115 203.276 365.475C204.519 369.525 206.47 375.332 211.808 374.985C215.31 374.761 217.112 372.098 219.405 369.883C224.778 364.703 231.759 361.894 239.264 361.592C251.15 361.122 258.53 363.17 269.138 361.435C279.735 359.701 286.967 357.027 295.317 352.775C298.534 350.873 302.571 347.695 301.933 343.533C301.762 342.392 301.294 341.307 300.838 340.244C296.161 329.346 291.45 318.47 286.785 307.572C286.317 306.476 285.359 305.39 284.15 305.077C282.861 304.719 281.823 305.67 280.933 306.655Z" fill="#E1F7FE"/>
<path d="M52.9179 514.535C52.9179 514.535 45.8231 271.579 8.21094 181.514" stroke="#37CAFC" stroke-miterlimit="10" stroke-linecap="round" stroke-linejoin="round"/>
<path d="M1.84092 184.818C1.41232 182.89 11.8861 182.071 13.1987 181.649C26.5923 177.528 33.2623 163.555 38.1108 151.695C49.1739 124.594 63.2907 111.044 77.8093 102.776C92.328 94.5083 119.785 86.5841 150.697 88.0897C181.61 89.5953 243.836 104.651 270.168 51.9551C270.168 51.9551 275.901 80.1919 251.471 101.64C251.471 101.64 266.364 108.032 280.106 90.3613C280.106 90.3613 265.614 161.864 193.851 161.864C193.851 161.864 177.431 161.125 157.582 156.608C144.858 153.702 130.339 152.566 117.615 156.106C104.784 159.672 93.3459 167.464 84.0775 176.762C73.9252 186.931 66.6927 199.267 60.7995 212.21C54.7992 225.39 49.6828 238.967 40.5752 250.457C37.1464 254.763 24.2886 269.898 18.8776 260.732C18.1007 259.412 17.7525 257.88 17.4311 256.401C12.2343 232.549 7.0912 208.67 1.84092 184.818Z" fill="#37CAFC"/>
<path d="M10.1837 593.001C10.1837 593.001 0 583.022 0 569.051C0 555.08 10.1837 547.096 18.3306 547.096C26.4775 547.096 32.5877 557.076 32.5877 557.076C32.5877 557.076 36.6612 543.105 50.9184 549.092C50.9184 549.092 44.8081 541.109 44.8081 525.142C44.8081 509.175 54.9918 497.2 69.249 497.2C83.5061 497.2 105.883 507.179 118.104 543.078C118.104 543.078 122.177 537.091 130.324 539.087C138.471 541.083 142.545 549.066 144.581 557.049C144.581 557.049 146.618 549.066 156.802 549.066C166.985 549.066 169.022 557.049 169.022 557.049C169.022 557.049 169.022 543.078 187.353 543.078C187.353 543.078 195.5 541.083 207.72 551.062C207.72 551.062 203.647 527.112 226.051 527.112C248.455 527.112 256.602 547.07 258.612 563.011C258.612 563.011 270.832 559.019 272.869 572.99C272.869 572.99 281.016 568.998 285.089 576.982C289.163 584.965 283.052 592.948 283.052 592.948H10.1837V593.001Z" fill="#37CAFC"/>
<path d="M78.4766 531.111C78.4766 531.111 92.6145 575.518 104.733 587.636" stroke="white" stroke-miterlimit="10" stroke-linecap="round" stroke-linejoin="round"/>
<path d="M93.331 568.769C93.331 568.769 92.6135 563.401 96.6263 557.342" stroke="white" stroke-miterlimit="10" stroke-linecap="round" stroke-linejoin="round"/>
<path d="M86.5288 555.319H78.4766" stroke="white" stroke-miterlimit="10" stroke-linecap="round" stroke-linejoin="round"/>
<path d="M281.617 301.281C283.26 298.747 285.872 300.394 286.785 302.583C291.461 313.802 296.161 324.999 300.838 336.218C301.294 337.312 301.762 338.43 301.933 339.605C302.571 343.89 298.534 347.161 295.317 349.12C286.967 353.497 279.735 356.25 269.138 358.035C258.542 359.821 251.15 357.713 239.264 358.196C231.759 358.508 224.778 361.399 219.405 366.732C217.112 369.013 215.31 371.743 211.808 371.985C206.47 372.342 204.519 366.363 203.276 362.194C201.634 356.687 199.866 351.216 198.132 345.721C196.649 341.01 195.155 336.31 193.672 331.599C189.474 318.329 205.945 314.551 215.459 313.595C222.485 312.892 229.386 313.526 236.367 314.378C243.656 315.265 250.99 315.173 258.245 313.894C258.587 313.837 258.929 313.768 259.272 313.699C266.823 312.213 274.043 308.803 278.834 302.56" stroke="#37CAFC" stroke-miterlimit="10" stroke-linecap="round" stroke-linejoin="round"/>
<path d="M206.663 326.638C206.972 324.918 205.406 323.197 203.164 322.794C200.922 322.391 198.853 323.459 198.544 325.179C198.235 326.899 199.802 328.621 202.044 329.024C204.286 329.427 206.354 328.359 206.663 326.638Z" stroke="#37CAFC" stroke-miterlimit="10" stroke-linecap="round" stroke-linejoin="round"/>
<path d="M399.535 342.831C401.099 340.923 401.326 338.523 400.042 337.471C398.759 336.419 396.451 337.113 394.887 339.021C393.323 340.93 393.095 343.329 394.379 344.381C395.662 345.433 397.971 344.739 399.535 342.831Z" stroke="#37CAFC" stroke-miterlimit="10" stroke-linecap="round" stroke-linejoin="round"/>
<path d="M255.538 330.024C255.538 330.024 262.696 334.02 261.945 341.607C261.644 344.631 259.863 347.448 256.995 348.9C248.726 353.103 236.756 344.446 235.171 336.706C234.327 332.568 236.663 328.332 240.827 326.76C245.106 325.155 250.183 326.247 253.907 328.583" stroke="#37CAFC" stroke-miterlimit="10" stroke-linecap="round" stroke-linejoin="round"/>
<path d="M57.084 117.322C58.7174 116.607 59.1773 114.052 58.1112 111.615C57.0451 109.178 54.8567 107.782 53.2233 108.496C51.5898 109.211 51.1299 111.766 52.196 114.203C53.2621 116.64 55.4506 118.036 57.084 117.322Z" stroke="#37CAFC" stroke-miterlimit="10" stroke-linecap="round" stroke-linejoin="round"/>
<path d="M176 456C180.418 456 184 452.418 184 448C184 443.582 180.418 440 176 440C171.582 440 168 443.582 168 448C168 452.418 171.582 456 176 456Z" fill="#37CAFC"/>
<path d="M174.5 456C178.642 456 182 452.642 182 448.5C182 444.358 178.642 441 174.5 441C170.358 441 167 444.358 167 448.5C167 452.642 170.358 456 174.5 456Z" fill="#37CAFC"/>
<path d="M173.5 456C178.194 456 182 452.642 182 448.5C182 444.358 178.194 441 173.5 441C168.806 441 165 444.358 165 448.5C165 452.642 168.806 456 173.5 456Z" fill="#37CAFC"/>
<path d="M176.5 455C180.09 455 183 451.866 183 448C183 444.134 180.09 441 176.5 441C172.91 441 170 444.134 170 448C170 451.866 172.91 455 176.5 455Z" fill="white"/>
<path d="M176 441.182C179.758 441.182 182.818 444.242 182.818 448C182.818 451.758 179.758 454.818 176 454.818C172.242 454.818 169.182 451.758 169.182 448C169.182 444.242 172.242 441.182 176 441.182ZM176 440C171.581 440 168 443.58 168 448C168 452.42 171.581 456 176 456C180.42 456 184 452.42 184 448C184 443.58 180.42 440 176 440Z" fill="#37CAFC"/>
<path d="M70 36C76.6274 36 82 30.8513 82 24.5C82 18.1487 76.6274 13 70 13C63.3726 13 58 18.1487 58 24.5C58 30.8513 63.3726 36 70 36Z" fill="#37CAFC"/>
<path d="M69 36C75.6274 36 81 30.8513 81 24.5C81 18.1488 75.6274 13 69 13C62.3726 13 57 18.1488 57 24.5C57 30.8513 62.3726 36 69 36Z" fill="#37CAFC"/>
<path d="M67 36C73.0751 36 78 30.8513 78 24.5C78 18.1488 73.0751 13 67 13C60.9248 13 56 18.1488 56 24.5C56 30.8513 60.9248 36 67 36Z" fill="#37CAFC"/>
<path d="M70.5 35C76.299 35 81 30.0751 81 24C81 17.9249 76.299 13 70.5 13C64.701 13 60 17.9249 60 24C60 30.0751 64.701 35 70.5 35Z" fill="white"/>
<path d="M70 14.6987C75.6366 14.6987 80.2275 19.0982 80.2275 24.5C80.2275 29.9018 75.6366 34.3013 70 34.3013C64.3633 34.3013 59.7725 29.9018 59.7725 24.5C59.7725 19.0982 64.3456 14.6987 70 14.6987ZM70 13C63.3707 13 58 18.147 58 24.5C58 30.853 63.3707 36 70 36C76.6292 36 82 30.853 82 24.5C82 18.147 76.6115 13 70 13Z" fill="#37CAFC"/>
<path d="M171 488C175.418 488 179 484.642 179 480.5C179 476.358 175.418 473 171 473C166.582 473 163 476.358 163 480.5C163 484.642 166.582 488 171 488Z" fill="#37CAFC"/>
<path d="M170.5 489C174.642 489 178 485.642 178 481.5C178 477.358 174.642 474 170.5 474C166.358 474 163 477.358 163 481.5C163 485.642 166.358 489 170.5 489Z" fill="#37CAFC"/>
<path d="M170 491C174.418 491 178 487.418 178 483C178 478.582 174.418 475 170 475C165.582 475 162 478.582 162 483C162 487.418 165.582 491 170 491Z" fill="#37CAFC"/>
<path d="M170.989 487C169.772 487 168.577 486.676 167.517 486.073C164.167 484.151 163.006 479.872 164.927 476.52C166.166 474.341 168.499 473 171.011 473C172.228 473 173.423 473.324 174.483 473.927C177.833 475.849 178.994 480.128 177.073 483.48C175.823 485.648 173.501 487 170.989 487Z" fill="white"/>
<path d="M171.006 474.107C172.187 474.107 173.357 474.395 174.385 474.948C177.646 476.697 178.78 480.605 176.913 483.661C175.696 485.642 173.428 486.871 170.994 486.871C169.813 486.871 168.643 486.583 167.615 486.03C164.354 484.28 163.22 480.373 165.087 477.317C166.304 475.347 168.572 474.107 171.006 474.107ZM171.006 473C168.229 473 165.536 474.351 164.059 476.775C161.861 480.362 163.196 484.945 167.024 487.004C168.277 487.679 169.647 488 170.994 488C173.771 488 176.464 486.649 177.941 484.225C180.139 480.638 178.804 476.055 174.976 473.996C173.723 473.321 172.353 473 171.006 473Z" fill="#37CAFC"/>
<path d="M366 416C369.866 416 373 412.642 373 408.5C373 404.358 369.866 401 366 401C362.134 401 359 404.358 359 408.5C359 412.642 362.134 416 366 416Z" fill="#37CAFC"/>
<path d="M367 416C371.418 416 375 412.418 375 408C375 403.582 371.418 400 367 400C362.582 400 359 403.582 359 408C359 412.418 362.582 416 367 416Z" fill="#37CAFC"/>
<path d="M368.5 415C372.642 415 376 411.642 376 407.5C376 403.358 372.642 400 368.5 400C364.358 400 361 403.358 361 407.5C361 411.642 364.358 415 368.5 415Z" fill="#37CAFC"/>
<path d="M365.998 416C363.531 416 361.221 414.587 359.97 412.313C358.006 408.745 359.122 404.136 362.437 402.041C363.52 401.359 364.737 401 365.987 401C368.454 401 370.765 402.413 372.026 404.687C372.975 406.411 373.243 408.434 372.774 410.373C372.306 412.313 371.167 413.941 369.559 414.959C368.465 415.641 367.238 416 365.998 416Z" fill="white"/>
<path d="M365.99 402.108C368.099 402.108 370.063 403.315 371.128 405.254C371.935 406.727 372.162 408.445 371.769 410.095C371.376 411.746 370.394 413.131 369.029 414.006C368.109 414.582 367.065 414.892 366.01 414.892C363.901 414.892 361.937 413.685 360.872 411.746C360.065 410.273 359.838 408.555 360.231 406.905C360.624 405.254 361.606 403.869 362.971 402.994C363.88 402.407 364.925 402.108 365.99 402.108ZM365.99 401C364.78 401 363.56 401.332 362.443 402.041C359.114 404.146 358.008 408.744 359.972 412.311C361.275 414.682 363.612 416 366.01 416C367.22 416 368.44 415.668 369.557 414.959C372.886 412.854 373.992 408.256 372.028 404.689C370.715 402.318 368.378 401 365.99 401Z" fill="#37CAFC"/>
<path d="M374 448C378.418 448 382 444.418 382 440C382 435.582 378.418 432 374 432C369.582 432 366 435.582 366 440C366 444.418 369.582 448 374 448Z" fill="#37CAFC"/>
<path d="M375.5 448C379.642 448 383 444.418 383 440C383 435.582 379.642 432 375.5 432C371.358 432 368 435.582 368 440C368 444.418 371.358 448 375.5 448Z" fill="#37CAFC"/>
<path d="M377.5 448C381.642 448 385 444.418 385 440C385 435.582 381.642 432 377.5 432C373.358 432 370 435.582 370 440C370 444.418 373.358 448 377.5 448Z" fill="#37CAFC"/>
<path d="M374 447C371.043 447 368.399 445.123 367.406 442.341C366.781 440.575 366.881 438.676 367.685 436.989C368.488 435.302 369.894 434.028 371.657 433.402C372.416 433.134 373.197 433 374 433C376.957 433 379.601 434.877 380.595 437.659C381.889 441.302 379.981 445.313 376.343 446.598C375.585 446.866 374.792 447 374 447Z" fill="white"/>
<path d="M373.994 433.182C376.879 433.182 379.456 435.001 380.425 437.719C381.679 441.264 379.823 445.164 376.276 446.428C375.543 446.688 374.774 446.818 373.994 446.818C371.109 446.818 368.532 444.999 367.563 442.281C366.948 440.567 367.054 438.712 367.835 437.069C368.615 435.427 369.998 434.186 371.712 433.572C372.457 433.312 373.226 433.182 373.994 433.182ZM373.994 432C373.107 432 372.197 432.154 371.322 432.461C367.161 433.938 364.985 438.511 366.463 442.671C367.622 445.944 370.707 448 374.006 448C374.893 448 375.803 447.846 376.678 447.539C380.839 446.062 383.015 441.489 381.537 437.329C380.366 434.044 377.293 432 373.994 432Z" fill="#37CAFC"/>
<path d="M389.5 402C393.642 402 397 398.418 397 394C397 389.582 393.642 386 389.5 386C385.358 386 382 389.582 382 394C382 398.418 385.358 402 389.5 402Z" fill="#37CAFC"/>
<path d="M389.5 403C393.642 403 397 399.866 397 396C397 392.134 393.642 389 389.5 389C385.358 389 382 392.134 382 396C382 399.866 385.358 403 389.5 403Z" fill="#37CAFC"/>
<path d="M389.5 405C393.642 405 397 401.642 397 397.5C397 393.358 393.642 390 389.5 390C385.358 390 382 393.358 382 397.5C382 401.642 385.358 405 389.5 405Z" fill="#37CAFC"/>
<path d="M389.493 401C386.048 401 383.058 398.812 382.221 395.686C381.228 391.946 383.68 388.139 387.687 387.212C388.285 387.078 388.895 387 389.505 387C392.95 387 395.94 389.188 396.778 392.314C397.256 394.134 396.957 396.01 395.928 397.617C394.9 399.214 393.261 400.352 391.311 400.799C390.713 400.933 390.103 401 389.493 401Z" fill="white"/>
<path d="M389.506 387.182C392.441 387.182 394.99 389.309 395.699 392.357C396.552 396.009 394.458 399.708 391.034 400.617C390.525 400.747 390.004 400.818 389.483 400.818C386.547 400.818 383.999 398.691 383.29 395.643C382.88 393.87 383.135 392.038 384.022 390.479C384.897 388.919 386.304 387.82 387.955 387.383C388.464 387.241 388.985 387.182 389.506 387.182ZM389.506 386C388.907 386 388.298 386.083 387.689 386.236C383.667 387.3 381.219 391.637 382.227 395.926C383.08 399.566 386.138 402 389.494 402C390.093 402 390.702 401.917 391.311 401.764C395.333 400.7 397.781 396.363 396.773 392.074C395.931 388.422 392.873 386 389.506 386Z" fill="#37CAFC"/>
<path d="M110 247H140.932C140.932 247 138.641 244.714 138.641 240.142C138.641 235.57 147.806 232.141 151.243 237.856C151.243 237.856 144.369 220.712 159.262 214.997C174.155 209.282 186.757 229.855 186.757 233.284C186.757 233.284 184.466 218.426 197.068 218.426C209.67 218.426 215.398 233.284 215.398 242.428C215.398 242.428 217.689 237.856 222.272 238.999C226.854 240.142 228 245.857 228 245.857" stroke="#57CBFC" stroke-miterlimit="10" stroke-linecap="round" stroke-linejoin="round"/>
<path d="M91.5 141C116.629 141 137 120.181 137 94.5C137 68.8188 116.629 48 91.5 48C66.371 48 46 68.8188 46 94.5C46 120.181 66.371 141 91.5 141Z" stroke="#37CAFC" stroke-miterlimit="10"/>
</g>
</svg>
