<svg width="357" height="708" viewBox="0 0 357 708" fill="none" xmlns="http://www.w3.org/2000/svg">
<g opacity="0.5" clip-path="url(#clip0_4820_138636)">
<g clip-path="url(#clip1_4820_138636)">
<path d="M256.942 182.6C287.152 182.6 311.642 158.11 311.642 127.9C311.642 97.6902 287.152 73.2002 256.942 73.2002C226.732 73.2002 202.242 97.6902 202.242 127.9C202.242 158.11 226.732 182.6 256.942 182.6Z" fill="#E1F7FE"/>
<path d="M219.367 674.811C219.367 674.811 223.367 663.811 228.367 663.811C228.367 663.811 231.367 662.811 231.367 667.811C231.367 667.811 233.367 662.811 235.367 662.811C237.367 662.811 237.367 665.811 237.367 665.811C237.367 665.811 241.367 649.811 253.367 650.811C253.367 650.811 263.367 649.811 257.367 666.811C257.367 666.811 259.367 661.811 264.367 663.811C264.367 663.811 267.367 664.811 267.367 670.811C267.367 670.811 268.367 667.811 272.367 667.811C272.367 667.811 274.367 667.811 274.367 669.811C274.367 669.811 279.367 660.811 286.367 660.811C293.367 660.811 290.367 670.811 290.367 670.811C290.367 670.811 294.367 670.811 294.367 674.811H219.367Z" fill="#E1F7FE"/>
<path d="M216.367 674.311C216.367 674.311 220.367 663.311 225.367 663.311C225.367 663.311 228.367 662.311 228.367 667.311C228.367 667.311 230.367 662.311 232.367 662.311C234.367 662.311 234.367 665.311 234.367 665.311C234.367 665.311 238.367 649.311 250.367 650.311C250.367 650.311 260.367 649.311 254.367 666.311C254.367 666.311 256.367 661.311 261.367 663.311C261.367 663.311 264.367 664.311 264.367 670.311C264.367 670.311 265.367 667.311 269.367 667.311C269.367 667.311 271.367 667.311 271.367 669.311C271.367 669.311 276.367 660.311 283.367 660.311C290.367 660.311 287.367 670.311 287.367 670.311C287.367 670.311 291.367 670.311 291.367 674.311" stroke="#37CAFC" stroke-miterlimit="10" stroke-linecap="round" stroke-linejoin="round"/>
<path d="M39.7622 656.63C39.7622 656.63 36.9422 566.1 21.9922 532.54" stroke="#37CAFC" stroke-miterlimit="10" stroke-linecap="round" stroke-linejoin="round"/>
<path d="M20.8173 533.159C20.6573 532.429 24.5673 532.119 25.0573 531.959C30.0573 530.399 32.5473 525.109 34.3573 520.619C38.4873 510.359 43.7573 505.229 49.1773 502.099C54.5973 498.969 64.8473 495.969 76.3873 496.539C87.9273 497.109 111.157 502.809 120.987 482.859C120.987 482.859 123.127 493.549 114.007 501.669C114.007 501.669 119.567 504.089 124.697 497.399C124.697 497.399 119.287 524.469 92.4973 524.469C92.4973 524.469 86.3673 524.189 78.9573 522.479C74.2073 521.379 68.7873 520.949 64.0373 522.289C59.2473 523.639 54.9773 526.589 51.5173 530.109C47.7273 533.959 45.0273 538.629 42.8273 543.529C40.5873 548.519 38.6773 553.659 35.2773 558.009C33.9973 559.639 29.1973 565.369 27.1773 561.899C26.8873 561.399 26.7573 560.819 26.6373 560.259C24.6973 551.229 22.7773 542.189 20.8173 533.159Z" fill="#37CAFC"/>
<path d="M318.883 682.28C318.883 682.28 326.873 636.32 328.583 537.72" stroke="#37CAFC" stroke-miterlimit="10" stroke-linecap="round" stroke-linejoin="round"/>
<path d="M238.11 498.11C238.11 498.11 231.7 497.83 225 507.51C225 507.51 233.83 505.66 240.96 511.78C244.94 515.2 248.24 519.37 252.14 522.89C257.43 527.66 263.33 531.23 270.18 533.23C274.12 534.37 278.3 534.58 282.36 534.05C284.36 533.78 286.34 533.34 288.26 532.72C289.79 532.23 291.19 531.56 292.64 530.86C294.32 530.05 294.02 531.68 293.04 532.41C291.16 533.81 289.02 534.65 286.84 535.44C286.84 535.44 301.81 552.83 328.03 556.53L327.94 559.17C327.94 559.17 331.44 558.95 331.59 557.81C332.05 554.12 332.26 550.4 332.39 546.68C332.5 543.68 332.94 540.16 331.22 537.5C330.31 536.09 328.87 536.16 327.36 536.02C325.65 535.86 323.94 535.7 322.25 535.4C315.21 534.13 309.03 530.44 303.95 525.48C304.45 525.97 310.42 518.44 310.76 517.91C313.58 513.56 315.61 508.6 316.01 503.4C316.45 497.69 314.85 490.69 310.1 487.05C301.85 480.72 291.76 485.74 286.19 492.9C281.12 499.43 279.04 507.84 278.3 515.93C278.3 515.93 267.61 517.64 260.63 502.11C256.98 493.99 250.1 487.27 240.81 486.57C235.61 486.18 231.23 488.85 228.86 493.41C228.85 493.41 237.68 494.55 238.11 498.11Z" fill="#37CAFC"/>
<path d="M280.242 516.139C280.242 516.139 296.432 514.779 300.092 504.109" stroke="white" stroke-miterlimit="10" stroke-linecap="round" stroke-linejoin="round"/>
<path d="M17.0195 674.73H339.98" stroke="#37CAFC" stroke-miterlimit="10" stroke-linecap="round" stroke-linejoin="round"/>
<path d="M23.8625 686.98C23.8625 686.98 20.0625 683.18 20.0625 677.86C20.0625 672.54 23.8625 669.5 26.9025 669.5C29.9425 669.5 32.2225 673.3 32.2225 673.3C32.2225 673.3 33.7425 667.98 39.0625 670.26C39.0625 670.26 36.7825 667.22 36.7825 661.14C36.7825 655.06 40.5825 650.5 45.9025 650.5C51.2225 650.5 59.5725 654.3 64.1325 667.97C64.1325 667.97 65.6525 665.69 68.6925 666.45C71.7325 667.21 73.2525 670.25 74.0125 673.29C74.0125 673.29 74.7725 670.25 78.5725 670.25C82.3725 670.25 83.1325 673.29 83.1325 673.29C83.1325 673.29 83.1325 667.97 89.9725 667.97C89.9725 667.97 93.0125 667.21 97.5725 671.01C97.5725 671.01 96.0525 661.89 104.413 661.89C112.773 661.89 115.812 669.49 116.562 675.56C116.562 675.56 121.122 674.04 121.882 679.36C121.882 679.36 124.923 677.84 126.443 680.88C127.963 683.92 125.683 686.96 125.683 686.96H23.8625V686.98Z" fill="#37CAFC"/>
<path d="M36.0117 683.18L39.0517 685.46C39.0517 685.46 37.5317 683.94 37.5317 681.66" stroke="white" stroke-miterlimit="10" stroke-linecap="round" stroke-linejoin="round"/>
<path d="M58.043 683.18C58.043 683.18 58.043 681.66 58.803 680.9L58.043 683.18Z" fill="#37CAFC"/>
<path d="M48.9297 663.43C48.9297 663.43 54.2497 680.14 58.8097 684.7" stroke="white" stroke-miterlimit="10" stroke-linecap="round" stroke-linejoin="round"/>
<path d="M54.5187 677.6C54.5187 677.6 54.2487 675.58 55.7587 673.3" stroke="white" stroke-miterlimit="10" stroke-linecap="round" stroke-linejoin="round"/>
<path d="M51.9597 672.539H48.9297" stroke="white" stroke-miterlimit="10" stroke-linecap="round" stroke-linejoin="round"/>
<path d="M164.64 224.81C164.28 225.21 163.96 225.62 163.65 225.93C160.58 229.05 156.99 231.34 152.96 233.03C150.61 234.02 148.15 234.79 145.65 235.28C145.35 235.34 145.05 235.39 144.75 235.45C138.39 236.56 131.96 236.64 125.57 235.87C119.45 235.13 113.4 234.58 107.24 235.19C98.8997 236.02 84.4597 239.3 88.1397 250.82C89.4397 254.91 90.7497 258.99 92.0497 263.08C93.5697 267.84 95.1197 272.59 96.5597 277.38C97.6497 281 99.3597 286.19 104.04 285.88C107.11 285.68 108.69 283.3 110.7 281.32C115.41 276.69 121.53 274.18 128.11 273.91C138.53 273.49 145 275.32 154.3 273.77C163.59 272.22 169.93 269.83 177.25 266.03C180.07 264.33 183.61 261.49 183.05 257.77C182.9 256.75 182.49 255.78 182.09 254.83C177.99 245.09 173.86 235.37 169.77 225.63C169.36 224.65 168.52 223.68 167.46 223.4C166.33 223.08 165.42 223.93 164.64 224.81Z" fill="#E1F7FE"/>
<path d="M165.24 221.48C166.68 219.28 168.97 220.71 169.77 222.61C173.87 232.35 177.99 242.07 182.09 251.81C182.49 252.76 182.9 253.73 183.05 254.75C183.61 258.47 180.07 261.31 177.25 263.01C169.93 266.81 163.59 269.2 154.3 270.75C145.01 272.3 138.53 270.47 128.11 270.89C121.53 271.16 115.41 273.67 110.7 278.3C108.69 280.28 107.11 282.65 104.04 282.86C99.3597 283.17 97.6497 277.98 96.5597 274.36C95.1197 269.58 93.5697 264.83 92.0497 260.06C90.7497 255.97 89.4397 251.89 88.1397 247.8C84.4597 236.28 98.8997 233 107.24 232.17C113.4 231.56 119.45 232.11 125.57 232.85C131.96 233.62 138.39 233.54 144.75 232.43C145.05 232.38 145.35 232.32 145.65 232.26C152.27 230.97 158.6 228.01 162.8 222.59" stroke="#37CAFC" stroke-miterlimit="10" stroke-linecap="round" stroke-linejoin="round"/>
<path d="M99.6584 243.081C99.9291 241.576 98.5577 240.069 96.5955 239.716C94.6332 239.364 92.8231 240.298 92.5525 241.804C92.2819 243.31 93.6532 244.816 95.6154 245.169C97.5777 245.522 99.3878 244.587 99.6584 243.081Z" stroke="#37CAFC" stroke-miterlimit="10" stroke-linecap="round" stroke-linejoin="round"/>
<path d="M177.453 257.254C178.822 255.584 179.021 253.483 177.897 252.563C176.774 251.642 174.754 252.249 173.385 253.919C172.016 255.589 171.817 257.69 172.94 258.611C174.064 259.531 176.084 258.924 177.453 257.254Z" stroke="#37CAFC" stroke-miterlimit="10" stroke-linecap="round" stroke-linejoin="round"/>
<path d="M142.34 245.23C142.34 245.23 148.53 248.89 147.88 255.84C147.62 258.61 146.08 261.19 143.6 262.52C136.45 266.37 126.1 258.44 124.73 251.35C124 247.56 126.02 243.68 129.62 242.24C133.32 240.77 137.71 241.77 140.93 243.91" stroke="#37CAFC" stroke-miterlimit="10" stroke-linecap="round" stroke-linejoin="round"/>
<path d="M248.9 462.9C248.73 462.55 248.59 462.21 248.44 461.94C246.94 459.21 244.91 456.95 242.47 455.01C241.05 453.88 239.51 452.87 237.89 452.06C237.7 451.96 237.5 451.87 237.3 451.77C233.15 449.78 228.76 448.49 224.22 447.78C219.88 447.11 215.62 446.32 211.51 444.71C205.95 442.53 196.68 437.5 201.42 430.31C203.1 427.76 204.79 425.21 206.47 422.65C208.43 419.68 210.41 416.72 212.32 413.71C213.77 411.44 215.94 408.21 219.09 409.33C221.16 410.06 221.78 412 222.78 413.74C225.12 417.82 228.83 420.73 233.29 422.18C240.36 424.48 245.15 424.47 251.23 427.33C257.31 430.18 261.19 433.05 265.48 437.07C267.08 438.78 268.97 441.41 267.86 443.86C267.56 444.53 267.09 445.11 266.63 445.69C261.94 451.58 257.23 457.45 252.54 463.34C252.07 463.93 251.31 464.44 250.53 464.42C249.73 464.41 249.26 463.65 248.9 462.9Z" fill="#E1F7FE"/>
<path d="M248.67 465.299C249.23 467.089 251.08 466.549 252 465.399C256.69 459.509 261.4 453.629 266.09 447.749C266.55 447.169 267.011 446.589 267.321 445.919C268.431 443.469 266.54 440.839 264.94 439.129C260.65 435.109 256.77 432.249 250.69 429.389C244.61 426.539 239.82 426.539 232.75 424.239C228.29 422.789 224.58 419.879 222.24 415.799C221.24 414.059 220.62 412.119 218.55 411.389C215.4 410.269 213.22 413.499 211.78 415.769C209.87 418.769 207.89 421.729 205.93 424.709C204.25 427.259 202.56 429.809 200.88 432.369C196.14 439.559 205.41 444.599 210.97 446.769C215.08 448.379 219.34 449.169 223.68 449.839C228.21 450.539 232.6 451.839 236.76 453.829C236.96 453.919 237.15 454.019 237.35 454.119C241.65 456.279 245.41 459.539 247.25 464.059" stroke="#37CAFC" stroke-miterlimit="10" stroke-linecap="round" stroke-linejoin="round"/>
<path d="M207.86 437.797C207.965 436.714 206.904 435.725 205.492 435.589C204.079 435.452 202.849 436.22 202.744 437.303C202.639 438.386 203.7 439.374 205.113 439.511C206.526 439.647 207.756 438.88 207.86 437.797Z" stroke="#37CAFC" stroke-miterlimit="10" stroke-linecap="round" stroke-linejoin="round"/>
<path d="M263.348 446.451C264.294 446.037 264.561 444.557 263.943 443.145C263.326 441.733 262.058 440.924 261.112 441.338C260.166 441.752 259.899 443.232 260.517 444.644C261.134 446.056 262.402 446.865 263.348 446.451Z" stroke="#37CAFC" stroke-miterlimit="10" stroke-linecap="round" stroke-linejoin="round"/>
<path d="M237.54 444.59C237.54 444.59 242.5 443.27 243.38 438.38C243.73 436.43 243.18 434.36 241.73 432.97C237.57 428.95 228.94 432.39 226.63 436.99C225.4 439.45 226.04 442.5 228.23 444.18C230.48 445.91 233.69 446.07 236.31 445.21" stroke="#37CAFC" stroke-miterlimit="10" stroke-linecap="round" stroke-linejoin="round"/>
<path d="M81.0005 406.11C84.7394 406.11 87.7705 403.079 87.7705 399.34C87.7705 395.601 84.7394 392.57 81.0005 392.57C77.2615 392.57 74.2305 395.601 74.2305 399.34C74.2305 403.079 77.2615 406.11 81.0005 406.11Z" fill="#37CAFC"/>
<path d="M79.7934 406.44C83.5324 406.44 86.5634 403.409 86.5634 399.67C86.5634 395.931 83.5324 392.9 79.7934 392.9C76.0545 392.9 73.0234 395.931 73.0234 399.67C73.0234 403.409 76.0545 406.44 79.7934 406.44Z" fill="#37CAFC"/>
<path d="M78.5708 406.77C82.3097 406.77 85.3408 403.739 85.3408 400C85.3408 396.261 82.3097 393.23 78.5708 393.23C74.8318 393.23 71.8008 396.261 71.8008 400C71.8008 403.739 74.8318 406.77 78.5708 406.77Z" fill="#37CAFC"/>
<path d="M81.0122 405.61C84.475 405.61 87.2822 402.803 87.2822 399.34C87.2822 395.877 84.475 393.07 81.0122 393.07C77.5494 393.07 74.7422 395.877 74.7422 399.34C74.7422 402.803 77.5494 405.61 81.0122 405.61Z" fill="white"/>
<path d="M81.0005 393.57C84.1805 393.57 86.7705 396.16 86.7705 399.34C86.7705 402.52 84.1805 405.11 81.0005 405.11C77.8205 405.11 75.2305 402.52 75.2305 399.34C75.2305 396.16 77.8205 393.57 81.0005 393.57ZM81.0005 392.57C77.2605 392.57 74.2305 395.6 74.2305 399.34C74.2305 403.08 77.2605 406.11 81.0005 406.11C84.7405 406.11 87.7705 403.08 87.7705 399.34C87.7705 395.6 84.7405 392.57 81.0005 392.57Z" fill="#37CAFC"/>
<path d="M201.18 493.96C204.919 493.96 207.95 490.929 207.95 487.19C207.95 483.451 204.919 480.42 201.18 480.42C197.441 480.42 194.41 483.451 194.41 487.19C194.41 490.929 197.441 493.96 201.18 493.96Z" fill="#37CAFC"/>
<path d="M200.098 493.311C203.837 493.311 206.868 490.279 206.868 486.541C206.868 482.802 203.837 479.771 200.098 479.771C196.359 479.771 193.328 482.802 193.328 486.541C193.328 490.279 196.359 493.311 200.098 493.311Z" fill="#37CAFC"/>
<path d="M199.02 492.66C202.759 492.66 205.79 489.629 205.79 485.89C205.79 482.151 202.759 479.12 199.02 479.12C195.281 479.12 192.25 482.151 192.25 485.89C192.25 489.629 195.281 492.66 199.02 492.66Z" fill="#37CAFC"/>
<path d="M201.194 493.46C199.464 493.46 197.854 492.77 196.654 491.52C195.494 490.31 194.884 488.72 194.924 487.05C194.964 485.38 195.654 483.82 196.864 482.66C198.034 481.54 199.574 480.93 201.194 480.93C202.924 480.93 204.534 481.62 205.734 482.87C208.124 485.37 208.024 489.35 205.524 491.73C204.344 492.84 202.804 493.46 201.194 493.46Z" fill="white"/>
<path d="M201.181 481.42C202.771 481.42 204.261 482.05 205.361 483.21C206.421 484.33 206.991 485.79 206.951 487.33C206.911 488.87 206.281 490.3 205.161 491.37C204.081 492.4 202.671 492.96 201.181 492.96C199.591 492.96 198.101 492.33 197.001 491.17C195.941 490.05 195.371 488.59 195.411 487.05C195.451 485.51 196.081 484.08 197.201 483.01C198.281 481.99 199.701 481.42 201.181 481.42ZM201.181 480.42C199.501 480.42 197.821 481.04 196.511 482.29C193.801 484.87 193.701 489.15 196.281 491.86C197.611 493.25 199.391 493.96 201.181 493.96C202.861 493.96 204.541 493.34 205.851 492.09C208.561 489.51 208.661 485.23 206.081 482.52C204.751 481.13 202.971 480.42 201.181 480.42Z" fill="#37CAFC"/>
<path d="M185.34 506.01C189.079 506.01 192.11 502.979 192.11 499.24C192.11 495.501 189.079 492.47 185.34 492.47C181.601 492.47 178.57 495.501 178.57 499.24C178.57 502.979 181.601 506.01 185.34 506.01Z" fill="#37CAFC"/>
<path d="M184.149 505.579C187.888 505.579 190.919 502.548 190.919 498.809C190.919 495.07 187.888 492.039 184.149 492.039C180.41 492.039 177.379 495.07 177.379 498.809C177.379 502.548 180.41 505.579 184.149 505.579Z" fill="#37CAFC"/>
<path d="M182.969 505.14C186.708 505.14 189.739 502.109 189.739 498.37C189.739 494.631 186.708 491.6 182.969 491.6C179.23 491.6 176.199 494.631 176.199 498.37C176.199 502.109 179.23 505.14 182.969 505.14Z" fill="#37CAFC"/>
<path d="M185.33 505.511C184.03 505.511 182.77 505.111 181.71 504.351C178.89 502.351 178.23 498.431 180.23 495.611C181.4 493.961 183.32 492.971 185.35 492.971C186.65 492.971 187.91 493.371 188.97 494.131C190.34 495.101 191.24 496.541 191.52 498.191C191.8 499.841 191.42 501.501 190.45 502.871C189.27 504.521 187.36 505.511 185.33 505.511Z" fill="white"/>
<path d="M185.339 493.471C186.539 493.471 187.689 493.841 188.669 494.541C191.259 496.381 191.869 499.991 190.029 502.581C188.949 504.101 187.189 505.011 185.319 505.011C184.119 505.011 182.969 504.641 181.989 503.941C179.399 502.101 178.789 498.491 180.629 495.901C181.709 494.381 183.469 493.471 185.339 493.471ZM185.339 492.471C183.219 492.471 181.139 493.461 179.819 495.321C177.659 498.371 178.369 502.591 181.419 504.761C182.609 505.601 183.979 506.011 185.329 506.011C187.449 506.011 189.529 505.021 190.849 503.161C193.009 500.111 192.299 495.891 189.249 493.721C188.069 492.871 186.699 492.471 185.339 492.471Z" fill="#37CAFC"/>
<path d="M271.176 399.11C274.915 399.11 277.946 396.079 277.946 392.34C277.946 388.601 274.915 385.57 271.176 385.57C267.437 385.57 264.406 388.601 264.406 392.34C264.406 396.079 267.437 399.11 271.176 399.11Z" fill="#37CAFC"/>
<path d="M269.957 399.44C273.696 399.44 276.728 396.409 276.728 392.67C276.728 388.931 273.696 385.9 269.957 385.9C266.219 385.9 263.188 388.931 263.188 392.67C263.188 396.409 266.219 399.44 269.957 399.44Z" fill="#37CAFC"/>
<path d="M268.739 399.78C272.478 399.78 275.509 396.749 275.509 393.01C275.509 389.271 272.478 386.24 268.739 386.24C265 386.24 261.969 389.271 261.969 393.01C261.969 396.749 265 399.78 268.739 399.78Z" fill="#37CAFC"/>
<path d="M271.18 398.61C274.643 398.61 277.45 395.803 277.45 392.34C277.45 388.877 274.643 386.07 271.18 386.07C267.717 386.07 264.91 388.877 264.91 392.34C264.91 395.803 267.717 398.61 271.18 398.61Z" fill="white"/>
<path d="M271.18 386.57C274.36 386.57 276.95 389.16 276.95 392.34C276.95 395.52 274.36 398.11 271.18 398.11C268 398.11 265.41 395.52 265.41 392.34C265.41 389.16 267.99 386.57 271.18 386.57ZM271.18 385.57C267.44 385.57 264.41 388.6 264.41 392.34C264.41 396.08 267.44 399.11 271.18 399.11C274.92 399.11 277.95 396.08 277.95 392.34C277.95 388.6 274.91 385.57 271.18 385.57Z" fill="#37CAFC"/>
<path d="M76.4887 434.319C80.2277 434.319 83.2588 431.288 83.2588 427.549C83.2588 423.81 80.2277 420.779 76.4887 420.779C72.7498 420.779 69.7188 423.81 69.7188 427.549C69.7188 431.288 72.7498 434.319 76.4887 434.319Z" fill="#37CAFC"/>
<path d="M76.1684 435.55C79.9074 435.55 82.9384 432.519 82.9384 428.78C82.9384 425.041 79.9074 422.01 76.1684 422.01C72.4295 422.01 69.3984 425.041 69.3984 428.78C69.3984 432.519 72.4295 435.55 76.1684 435.55Z" fill="#37CAFC"/>
<path d="M75.8598 436.769C79.5988 436.769 82.6298 433.738 82.6298 429.999C82.6298 426.261 79.5988 423.229 75.8598 423.229C72.1209 423.229 69.0898 426.261 69.0898 429.999C69.0898 433.738 72.1209 436.769 75.8598 436.769Z" fill="#37CAFC"/>
<path d="M76.4787 433.819C75.3887 433.819 74.3187 433.529 73.3687 432.989C70.3687 431.269 69.3287 427.439 71.0487 424.439C72.1587 422.489 74.2487 421.289 76.4987 421.289C77.5887 421.289 78.6587 421.579 79.6087 422.119C82.6087 423.839 83.6487 427.669 81.9287 430.669C80.8087 432.609 78.7287 433.819 76.4787 433.819Z" fill="white"/>
<path d="M76.4872 421.779C77.4872 421.779 78.4772 422.039 79.3472 422.539C82.1072 424.119 83.0672 427.649 81.4872 430.409C80.4572 432.199 78.5372 433.309 76.4772 433.309C75.4772 433.309 74.4872 433.049 73.6172 432.549C70.8572 430.969 69.8972 427.439 71.4772 424.679C72.5072 422.899 74.4272 421.779 76.4872 421.779ZM76.4872 420.779C74.1372 420.779 71.8572 421.999 70.6072 424.189C68.7472 427.429 69.8772 431.569 73.1172 433.429C74.1772 434.039 75.3372 434.329 76.4772 434.329C78.8272 434.329 81.1072 433.109 82.3572 430.919C84.2172 427.679 83.0872 423.539 79.8472 421.679C78.7872 421.069 77.6272 420.779 76.4872 420.779Z" fill="#37CAFC"/>
<path d="M184.536 476.3C188.275 476.3 191.306 473.269 191.306 469.53C191.306 465.791 188.275 462.76 184.536 462.76C180.797 462.76 177.766 465.791 177.766 469.53C177.766 473.269 180.797 476.3 184.536 476.3Z" fill="#37CAFC"/>
<path d="M184.215 477.52C187.954 477.52 190.985 474.489 190.985 470.75C190.985 467.011 187.954 463.98 184.215 463.98C180.476 463.98 177.445 467.011 177.445 470.75C177.445 474.489 180.476 477.52 184.215 477.52Z" fill="#37CAFC"/>
<path d="M183.903 478.74C187.642 478.74 190.673 475.709 190.673 471.97C190.673 468.231 187.642 465.2 183.903 465.2C180.164 465.2 177.133 468.231 177.133 471.97C177.133 475.709 180.164 478.74 183.903 478.74Z" fill="#37CAFC"/>
<path d="M184.518 475.79C183.428 475.79 182.358 475.5 181.408 474.96C178.408 473.24 177.368 469.41 179.088 466.41C180.198 464.46 182.288 463.26 184.538 463.26C185.628 463.26 186.698 463.55 187.648 464.09C190.648 465.81 191.688 469.64 189.968 472.64C188.848 474.59 186.768 475.79 184.518 475.79Z" fill="white"/>
<path d="M184.53 463.76C185.53 463.76 186.52 464.02 187.39 464.52C190.15 466.1 191.11 469.63 189.53 472.39C188.5 474.18 186.58 475.29 184.52 475.29C183.52 475.29 182.53 475.03 181.66 474.53C178.9 472.95 177.94 469.42 179.52 466.66C180.55 464.87 182.47 463.76 184.53 463.76ZM184.53 462.76C182.18 462.76 179.9 463.98 178.65 466.17C176.79 469.41 177.92 473.55 181.16 475.41C182.22 476.02 183.38 476.31 184.52 476.31C186.87 476.31 189.15 475.09 190.4 472.9C192.26 469.66 191.13 465.52 187.89 463.66C186.83 463.05 185.67 462.76 184.53 462.76Z" fill="#37CAFC"/>
<path d="M155.821 371.52C159.56 371.52 162.591 368.489 162.591 364.75C162.591 361.011 159.56 357.98 155.821 357.98C152.082 357.98 149.051 361.011 149.051 364.75C149.051 368.489 152.082 371.52 155.821 371.52Z" fill="#37CAFC"/>
<path d="M157.043 371.181C160.782 371.181 163.813 368.15 163.813 364.411C163.813 360.672 160.782 357.641 157.043 357.641C153.304 357.641 150.273 360.672 150.273 364.411C150.273 368.15 153.304 371.181 157.043 371.181Z" fill="#37CAFC"/>
<path d="M158.262 370.851C162.001 370.851 165.032 367.82 165.032 364.081C165.032 360.342 162.001 357.311 158.262 357.311C154.523 357.311 151.492 360.342 151.492 364.081C151.492 367.82 154.523 370.851 158.262 370.851Z" fill="#37CAFC"/>
<path d="M155.832 371.01C153.622 371.01 151.552 369.83 150.432 367.93C148.672 364.95 149.672 361.1 152.642 359.35C153.612 358.78 154.702 358.48 155.822 358.48C158.032 358.48 160.102 359.66 161.232 361.56C162.082 363 162.322 364.69 161.902 366.31C161.482 367.93 160.462 369.29 159.022 370.14C158.042 370.71 156.942 371.01 155.832 371.01Z" fill="white"/>
<path d="M155.823 358.98C157.863 358.98 159.763 360.07 160.793 361.82C161.573 363.15 161.793 364.7 161.413 366.19C161.033 367.68 160.083 368.93 158.763 369.72C157.873 370.24 156.863 370.52 155.843 370.52C153.803 370.52 151.903 369.43 150.873 367.68C150.093 366.35 149.873 364.8 150.253 363.31C150.633 361.82 151.583 360.57 152.903 359.78C153.783 359.25 154.793 358.98 155.823 358.98ZM155.823 357.98C154.653 357.98 153.473 358.28 152.393 358.92C149.173 360.82 148.103 364.97 150.003 368.19C151.263 370.33 153.523 371.52 155.843 371.52C157.013 371.52 158.193 371.22 159.273 370.58C162.493 368.68 163.563 364.53 161.663 361.31C160.393 359.17 158.133 357.98 155.823 357.98Z" fill="#37CAFC"/>
<path d="M163.161 399.36C166.9 399.36 169.931 396.329 169.931 392.59C169.931 388.851 166.9 385.82 163.161 385.82C159.422 385.82 156.391 388.851 156.391 392.59C156.391 396.329 159.422 399.36 163.161 399.36Z" fill="#37CAFC"/>
<path d="M164.418 399.27C168.157 399.27 171.188 396.239 171.188 392.5C171.188 388.761 168.157 385.73 164.418 385.73C160.679 385.73 157.648 388.761 157.648 392.5C157.648 396.239 160.679 399.27 164.418 399.27Z" fill="#37CAFC"/>
<path d="M165.68 399.17C169.419 399.17 172.45 396.139 172.45 392.4C172.45 388.661 169.419 385.63 165.68 385.63C161.941 385.63 158.91 388.661 158.91 392.4C158.91 396.139 161.941 399.17 165.68 399.17Z" fill="#37CAFC"/>
<path d="M163.16 398.86C160.51 398.86 158.14 397.18 157.25 394.69C156.69 393.11 156.78 391.41 157.5 389.9C158.22 388.39 159.48 387.25 161.06 386.69C161.74 386.45 162.44 386.33 163.16 386.33C165.81 386.33 168.18 388.01 169.07 390.5C170.23 393.76 168.52 397.35 165.26 398.5C164.58 398.74 163.87 398.86 163.16 398.86Z" fill="white"/>
<path d="M163.16 386.82C165.6 386.82 167.78 388.36 168.6 390.66C169.66 393.66 168.09 396.96 165.09 398.03C164.47 398.25 163.82 398.36 163.16 398.36C160.72 398.36 158.54 396.82 157.72 394.52C157.2 393.07 157.29 391.5 157.95 390.11C158.61 388.72 159.78 387.67 161.23 387.15C161.86 386.93 162.51 386.82 163.16 386.82ZM163.16 385.82C162.41 385.82 161.64 385.95 160.9 386.21C157.38 387.46 155.54 391.33 156.79 394.85C157.77 397.62 160.38 399.36 163.17 399.36C163.92 399.36 164.69 399.23 165.43 398.97C168.95 397.72 170.79 393.85 169.54 390.33C168.55 387.55 165.95 385.82 163.16 385.82Z" fill="#37CAFC"/>
<path d="M176.668 359.06C180.407 359.06 183.438 356.029 183.438 352.29C183.438 348.551 180.407 345.52 176.668 345.52C172.929 345.52 169.898 348.551 169.898 352.29C169.898 356.029 172.929 359.06 176.668 359.06Z" fill="#37CAFC"/>
<path d="M176.637 360.329C180.376 360.329 183.407 357.298 183.407 353.559C183.407 349.82 180.376 346.789 176.637 346.789C172.898 346.789 169.867 349.82 169.867 353.559C169.867 357.298 172.898 360.329 176.637 360.329Z" fill="#37CAFC"/>
<path d="M176.61 361.589C180.349 361.589 183.38 358.558 183.38 354.819C183.38 351.08 180.349 348.049 176.61 348.049C172.871 348.049 169.84 351.08 169.84 354.819C169.84 358.558 172.871 361.589 176.61 361.589Z" fill="#37CAFC"/>
<path d="M176.659 358.561C173.779 358.561 171.279 356.601 170.579 353.801C169.749 350.451 171.799 347.041 175.149 346.211C175.649 346.091 176.159 346.021 176.669 346.021C179.549 346.021 182.049 347.981 182.749 350.781C183.149 352.411 182.899 354.091 182.039 355.531C181.179 356.961 179.809 357.981 178.179 358.381C177.679 358.501 177.169 358.561 176.659 358.561Z" fill="white"/>
<path d="M176.669 346.53C179.319 346.53 181.619 348.33 182.259 350.91C183.029 354 181.139 357.13 178.049 357.9C177.589 358.01 177.119 358.07 176.649 358.07C173.999 358.07 171.699 356.27 171.059 353.69C170.689 352.19 170.919 350.64 171.719 349.32C172.509 348 173.779 347.07 175.269 346.7C175.729 346.58 176.199 346.53 176.669 346.53ZM176.669 345.53C176.129 345.53 175.579 345.6 175.029 345.73C171.399 346.63 169.189 350.3 170.099 353.93C170.869 357.01 173.629 359.07 176.659 359.07C177.199 359.07 177.749 359 178.299 358.87C181.929 357.97 184.139 354.3 183.229 350.67C182.469 347.58 179.709 345.53 176.669 345.53Z" fill="#37CAFC"/>
<path d="M277.93 260.03H287.93C287.93 260.03 285.93 248.03 293.93 248.03C293.93 248.03 297.93 248.03 298.93 252.03C298.93 252.03 298.93 245.03 301.93 245.03C304.93 245.03 306.93 246.03 308.93 250.03C308.93 250.03 304.93 236.03 316.93 236.03C328.93 236.03 329.93 254.03 329.93 254.03C329.93 254.03 331.93 250.03 335.93 251.03C339.93 252.03 338.93 256.03 338.93 256.03" stroke="#57CBFC" stroke-miterlimit="10" stroke-linecap="round" stroke-linejoin="round"/>
<path d="M23.4102 179.2H50.4102C50.4102 179.2 48.4102 177.2 48.4102 173.2C48.4102 169.2 56.4102 166.2 59.4102 171.2C59.4102 171.2 53.4102 156.2 66.4102 151.2C79.4102 146.2 90.4102 164.2 90.4102 167.2C90.4102 167.2 88.4102 154.2 99.4102 154.2C110.41 154.2 115.41 167.2 115.41 175.2C115.41 175.2 117.41 171.2 121.41 172.2C125.41 173.2 126.41 178.2 126.41 178.2" stroke="#57CBFC" stroke-miterlimit="10" stroke-linecap="round" stroke-linejoin="round"/>
<path d="M254.692 176.08C284.902 176.08 309.392 151.59 309.392 121.38C309.392 91.1697 284.902 66.6797 254.692 66.6797C224.482 66.6797 199.992 91.1697 199.992 121.38C199.992 151.59 224.482 176.08 254.692 176.08Z" stroke="#37CAFC" stroke-miterlimit="10"/>
</g>
</g>
<defs>
<clipPath id="clip0_4820_138636">
<rect width="357" height="708" fill="white"/>
</clipPath>
<clipPath id="clip1_4820_138636">
<rect width="322.96" height="620.3" fill="white" transform="translate(17.0195 66.6797)"/>
</clipPath>
</defs>
</svg>
