<svg width="72" height="72" viewBox="0 0 72 72" fill="none" xmlns="http://www.w3.org/2000/svg">
<g clip-path="url(#clip0_4899_139358)">
<path d="M24.1159 59.31L19.5859 16.17L50.1959 13L54.7259 56.14L24.1159 59.31ZM20.7659 17.13L25.0759 58.13L53.5459 55.13L49.2359 14.13L20.7659 17.13Z" fill="#333333"/>
<path d="M24.1159 59.31L19.5859 16.17L50.1959 13L54.7259 56.14L24.1159 59.31ZM20.7659 17.13L25.0759 58.13L53.5459 55.13L49.2359 14.13L20.7659 17.13Z" fill="#333333"/>
<path fill-rule="evenodd" clip-rule="evenodd" d="M35.9067 28.5699L39.3767 24.4099C39.6964 23.9955 39.8409 23.4723 39.7792 22.9526C39.7175 22.4328 39.4546 21.958 39.0467 21.6299C38.6195 21.2923 38.0774 21.1348 37.5358 21.1908C36.9942 21.2468 36.4958 21.512 36.1467 21.9299L35.2667 22.9799L34.1967 22.1399C33.7695 21.8023 33.2274 21.6448 32.6858 21.7008C32.1442 21.7568 31.6458 22.022 31.2967 22.4399C30.9648 22.8451 30.805 23.3643 30.8517 23.886C30.8985 24.4077 31.148 24.8903 31.5467 25.2299L35.9067 28.5699Z" fill="#009DD4"/>
<path d="M27.3365 33.6318C27.1932 33.6397 27.0527 33.5905 26.9458 33.4948C26.8389 33.3992 26.7744 33.265 26.7665 33.1218C26.7585 32.9786 26.8078 32.838 26.9034 32.7311C26.9991 32.6242 27.1332 32.5597 27.2765 32.5518L46.0765 30.5518C46.1471 30.542 46.219 30.5469 46.2878 30.5661C46.3565 30.5853 46.4205 30.6185 46.4758 30.6635C46.5311 30.7085 46.5766 30.7645 46.6094 30.8278C46.6422 30.8912 46.6616 30.9606 46.6665 31.0318C46.6805 31.1735 46.6379 31.3151 46.548 31.4256C46.458 31.5361 46.3281 31.6066 46.1865 31.6218L27.3965 33.6218L27.3365 33.6318Z" fill="#333333"/>
<path d="M27.7062 37.2099C27.563 37.2165 27.423 37.166 27.317 37.0694C27.2111 36.9728 27.1478 36.8381 27.1412 36.6949C27.1346 36.5517 27.1851 36.4117 27.2817 36.3057C27.3783 36.1998 27.513 36.1365 27.6562 36.1299L46.4462 34.1299C46.5174 34.1202 46.5899 34.125 46.6591 34.1441C46.7284 34.1632 46.7931 34.1962 46.8492 34.2411C46.9053 34.286 46.9517 34.3419 46.9856 34.4053C47.0195 34.4687 47.0401 34.5383 47.0462 34.6099C47.0602 34.7517 47.0176 34.8932 46.9277 35.0037C46.8378 35.1143 46.7079 35.1848 46.5662 35.1999L27.7662 37.1999L27.7062 37.2099Z" fill="#333333"/>
<path d="M29.3374 52.64C29.2353 52.6401 29.1353 52.6113 29.049 52.5569C28.9626 52.5025 28.8935 52.4247 28.8495 52.3326C28.8056 52.2405 28.7886 52.1379 28.8006 52.0365C28.8126 51.9352 28.8531 51.8393 28.9174 51.76L31.6374 48.46L34.2274 49.56L37.5273 45.7L41.5874 47.7L46.9274 42C47.0297 41.9022 47.1658 41.8477 47.3074 41.8477C47.4489 41.8477 47.585 41.9022 47.6873 42C47.7382 42.0494 47.7785 42.1085 47.8061 42.1738C47.8337 42.239 47.8479 42.3092 47.8479 42.38C47.8479 42.4509 47.8337 42.521 47.8061 42.5863C47.7785 42.6516 47.7382 42.7106 47.6873 42.76L41.8274 49L37.8274 47L34.5574 50.82L31.9974 49.76L29.7874 52.44C29.7341 52.5073 29.6654 52.5606 29.587 52.5955C29.5086 52.6303 29.4229 52.6456 29.3374 52.64Z" fill="#009DD4"/>
<path d="M28.0869 40.7902C27.9437 40.8022 27.8016 40.7567 27.6919 40.6639C27.5821 40.5711 27.5138 40.4385 27.5019 40.2952C27.4899 40.152 27.5354 40.0099 27.6282 39.9002C27.721 39.7905 27.8537 39.7222 27.9969 39.7102L36.0569 38.8702C36.1268 38.8605 36.1979 38.865 36.266 38.8837C36.3341 38.9023 36.3976 38.9345 36.4528 38.9785C36.508 39.0225 36.5537 39.0772 36.5871 39.1394C36.6204 39.2016 36.6408 39.2699 36.6469 39.3402C36.6552 39.4112 36.6494 39.4832 36.6297 39.5519C36.61 39.6206 36.5769 39.6847 36.5322 39.7405C36.4876 39.7963 36.4323 39.8427 36.3696 39.877C36.3069 39.9113 36.238 39.9328 36.1669 39.9402L28.1169 40.7802L28.0869 40.7902Z" fill="#333333"/>
<path d="M21.25 65.8614L11.5 23.6114L18.72 21.6914C18.7889 21.6734 18.8608 21.6692 18.9314 21.679C19.0019 21.6889 19.0699 21.7127 19.1312 21.7489C19.1926 21.7852 19.2461 21.8332 19.2888 21.8903C19.3315 21.9473 19.3625 22.0123 19.38 22.0814C19.4116 22.219 19.3899 22.3635 19.3195 22.4859C19.249 22.6083 19.1349 22.6995 19 22.7414L12.78 24.3814L22.06 64.5614L50.47 58.0014C50.6104 57.9713 50.757 57.9974 50.8785 58.074C50.9999 58.1506 51.0866 58.2717 51.12 58.4114C51.1498 58.5505 51.1234 58.6959 51.0467 58.8157C50.9699 58.9356 50.8489 59.0203 50.71 59.0514L21.25 65.8614Z" fill="#333333"/>
<path d="M51.6186 12.1011C51.5166 12.1012 51.4166 12.0723 51.3302 12.0179C51.2439 11.9635 51.1747 11.8858 51.1308 11.7937C51.0868 11.7016 51.0699 11.5989 51.0819 11.4976C51.0939 11.3962 51.1343 11.3004 51.1986 11.2211L53.8686 7.92108C53.9588 7.80968 54.0895 7.73868 54.232 7.72367C54.3746 7.70867 54.5172 7.7509 54.6286 7.84108C54.74 7.93125 54.811 8.06198 54.826 8.20451C54.841 8.34703 54.7988 8.48968 54.7086 8.60108L51.9986 11.9011C51.9519 11.9582 51.8942 12.0053 51.8289 12.0397C51.7636 12.0741 51.6921 12.0949 51.6186 12.1011Z" fill="#333333"/>
<path d="M46.7172 11.4308C46.5855 11.4292 46.4589 11.3795 46.3613 11.2911C46.2637 11.2027 46.2018 11.0817 46.1872 10.9508L45.7372 6.72084C45.7299 6.64993 45.7368 6.57829 45.7572 6.51001C45.7777 6.44173 45.8114 6.37815 45.8564 6.3229C45.9474 6.21131 46.0789 6.14043 46.2222 6.12584C46.3654 6.11126 46.5085 6.15416 46.6201 6.24511C46.6754 6.29015 46.7212 6.34563 46.755 6.40838C46.7888 6.47113 46.8099 6.53993 46.8172 6.61084L47.2572 10.8308C47.2655 10.9013 47.2595 10.9727 47.2398 11.0408C47.22 11.1089 47.1867 11.1723 47.1419 11.2273C47.0972 11.2824 47.0418 11.3278 46.9792 11.3611C46.9165 11.3943 46.8478 11.4146 46.7772 11.4208L46.7172 11.4308Z" fill="#333333"/>
<path d="M52.403 16.8405C52.2696 16.8413 52.1406 16.7927 52.0409 16.7041C51.9412 16.6155 51.8778 16.4931 51.863 16.3605C51.8547 16.2901 51.8606 16.2187 51.8804 16.1506C51.9002 16.0825 51.9335 16.019 51.9782 15.964C52.023 15.909 52.0784 15.8635 52.141 15.8303C52.2037 15.797 52.2724 15.7767 52.343 15.7705L56.573 15.3205C56.6466 15.3062 56.7224 15.3073 56.7956 15.3239C56.8687 15.3405 56.9376 15.3721 56.9979 15.4168C57.0581 15.4614 57.1084 15.5182 57.1455 15.5833C57.1826 15.6485 57.2057 15.7207 57.2134 15.7953C57.2211 15.8699 57.2131 15.9453 57.19 16.0167C57.167 16.088 57.1293 16.1538 57.0794 16.2098C57.0295 16.2658 56.9685 16.3108 56.9002 16.3419C56.832 16.373 56.758 16.3896 56.683 16.3905L52.453 16.8405H52.403Z" fill="#333333"/>
<path d="M5171.92 2673.38H-3949.38V-3509.54H5171.92V2673.38ZM-3948.41 2672.38H5171V-3508.62H-3948.41V2672.38Z" fill="#333333"/>
<path d="M5171.92 2673.38H-3949.38V-3509.54H5171.92V2673.38ZM-3948.41 2672.38H5171V-3508.62H-3948.41V2672.38Z" fill="#333333"/>
<path d="M5171.92 2673.38H-3949.38V-3509.54H5171.92V2673.38ZM-3948.41 2672.38H5171V-3508.62H-3948.41V2672.38Z" fill="#333333"/>
</g>
<defs>
<clipPath id="clip0_4899_139358">
<rect width="72" height="72" fill="white"/>
</clipPath>
</defs>
</svg>
