<svg width="36" height="46" viewBox="0 0 36 46" fill="none" xmlns="http://www.w3.org/2000/svg">
<path d="M22.5188 11.1805C23.0505 11.2743 23.6134 11.1805 24.1607 11.1805C24.708 11.1805 25.1145 11.3055 25.5993 11.3212C25.8175 11.2945 26.039 11.3141 26.2492 11.3787C26.4593 11.4434 26.6535 11.5517 26.819 11.6965L26.991 11.8841V8.75672C26.9882 6.48342 26.1031 4.29997 24.5221 2.66647C22.9411 1.03297 20.7877 0.0769905 18.5157 0H16.6706C14.4 0.0730193 12.2466 1.0256 10.6652 2.6566C9.08384 4.28759 8.1982 6.46931 8.19531 8.74108V11.8685H8.88334C8.99884 11.7922 9.12543 11.7341 9.25863 11.6965C10.5409 11.3837 11.8075 11.0241 13.0584 10.6644C14.2746 10.4623 15.4417 10.0326 16.4986 9.39784C16.6829 9.22953 16.8818 9.07779 17.0928 8.94436C17.7339 8.61598 18.4532 9.16328 18.9848 9.46039C19.247 9.63163 19.5244 9.7782 19.8136 9.89822L20.7362 10.383C21.2683 10.7042 21.8418 10.9514 22.4406 11.1179L22.5188 11.1805Z" fill="#009DD4"/>
<path d="M32.3844 28.7115C31.2898 28.4613 28.053 27.8046 22.7833 26.7569V25.4121C22.7839 25.3452 22.7686 25.2792 22.7387 25.2194C22.7088 25.1596 22.6651 25.1077 22.6113 25.0681C23.6202 24.1425 24.4281 23.0195 24.9849 21.7687C25.5417 20.5179 25.8356 19.166 25.8481 17.7969V16.8118C26.7864 16.8118 27.9122 16.155 27.9122 13.9658C27.9122 11.7766 26.802 11.1355 25.8794 10.9479V8.08631C25.8794 7.96604 25.8316 7.8507 25.7466 7.76565C25.6616 7.68061 25.5462 7.63284 25.4259 7.63284C25.3057 7.63284 25.1903 7.68061 25.1053 7.76565C25.0202 7.8507 24.9725 7.96604 24.9725 8.08631V17.7969C24.9725 17.7969 24.863 25.8968 17.5762 25.8968C10.2893 25.8968 10.133 17.9376 10.133 17.8594V11.8236C12.8136 11.8734 15.4091 10.8812 17.3729 9.0558C18.1704 9.94711 20.4221 11.8079 25.0037 11.8079V10.901C19.6559 10.901 17.7951 8.14886 17.7794 8.13322L17.3729 7.60156L16.982 8.08631C16.0955 9.00156 15.0297 9.72396 13.8512 10.2083C12.6726 10.6926 11.4068 10.9284 10.133 10.901V8.08631C10.133 7.96604 10.0852 7.8507 10.0001 7.76565C9.9151 7.68061 9.79976 7.63284 9.67949 7.63284C9.55923 7.63284 9.44388 7.68061 9.35884 7.76565C9.27379 7.8507 9.22602 7.96604 9.22602 8.08631V11.0573C8.4129 11.3388 7.5685 12.0894 7.5685 13.9658C7.5685 15.8423 8.39726 16.5303 9.22602 16.7336V17.7969C9.25338 19.2914 9.6194 20.7602 10.2965 22.0928C10.9737 23.4254 11.9443 24.5871 13.1353 25.4903V26.7569C7.84996 27.8046 4.62874 28.4613 3.53416 28.7115C3.04563 28.7402 2.5681 28.8683 2.13079 29.0879C1.69348 29.3075 1.30559 29.6141 0.990871 29.9888C0.67615 30.3636 0.441216 30.7986 0.300448 31.2673C0.15968 31.736 0.116039 32.2284 0.1722 32.7146V44.9427H35.8245V32.7146C35.8833 32.2218 35.839 31.7221 35.6944 31.2473C35.5498 30.7726 35.3081 30.333 34.9847 29.9566C34.6612 29.5802 34.263 29.2752 33.8154 29.0608C33.3677 28.8465 32.8804 28.7275 32.3844 28.7115ZM25.8481 11.8236C26.3798 11.9643 27.0209 12.3708 27.0209 13.9189C27.0209 15.467 26.4111 15.7797 25.8481 15.8579V11.8236ZM9.22602 15.7328C8.81946 15.5452 8.47544 15.076 8.47544 13.9189C8.47544 12.7618 8.83509 12.2457 9.22602 12.0112V15.7328ZM14.0266 26.4441V25.9438C15.2693 26.4957 16.6243 26.7478 17.9824 26.6799C19.3405 26.612 20.6636 26.2259 21.8451 25.5528V26.6787C21.8496 26.7098 21.8496 26.7414 21.8451 26.7725C19.3636 27.7816 16.5862 27.7816 14.1048 26.7725H13.964L14.0266 26.4441ZM34.8707 44.0358H1.03223V32.7146C0.960201 32.3468 0.967698 31.9679 1.05421 31.6032C1.14073 31.2386 1.30427 30.8966 1.53384 30.6004C1.76341 30.3042 2.05371 30.0605 2.38524 29.8858C2.71676 29.711 3.08184 29.6092 3.45597 29.5872C3.46133 29.6562 3.48244 29.7231 3.51767 29.7828C3.55291 29.8424 3.60134 29.8932 3.65925 29.9312C3.95258 30.0961 4.20834 30.3204 4.41025 30.5896C4.61217 30.8588 4.75581 31.1671 4.83202 31.4949C5.04031 32.4709 5.12958 33.4685 5.09785 34.4659C5.09575 34.5247 5.10552 34.5833 5.12658 34.6383C5.14764 34.6932 5.17956 34.7433 5.22043 34.7857C5.2613 34.828 5.31028 34.8617 5.36444 34.8846C5.41861 34.9076 5.47685 34.9194 5.53569 34.9194C5.65181 34.9194 5.76318 34.8733 5.84529 34.7911C5.9274 34.709 5.97352 34.5977 5.97352 34.4816C6.01626 33.4313 5.92164 32.3799 5.69206 31.3542C5.51411 30.5777 5.065 29.8901 4.42546 29.4152L13.5575 27.5856L13.8077 27.6951C15.141 28.2273 16.5628 28.5031 17.9984 28.5082C19.5091 28.5046 21.0036 28.1961 22.3924 27.6013L30.8207 29.2901C30.4541 29.5211 30.1369 29.8225 29.8873 30.1768C29.6377 30.531 29.4607 30.9312 29.3665 31.3542C29.1384 32.3803 29.0386 33.4308 29.0694 34.4816C29.0693 34.5404 29.0811 34.5986 29.1041 34.6528C29.1271 34.707 29.1608 34.7559 29.2031 34.7968C29.2454 34.8377 29.2955 34.8696 29.3505 34.8907C29.4054 34.9117 29.464 34.9215 29.5228 34.9194C29.5817 34.9194 29.6399 34.9076 29.6941 34.8846C29.7482 34.8617 29.7972 34.828 29.8381 34.7857C29.879 34.7433 29.9109 34.6932 29.9319 34.6383C29.953 34.5833 29.9628 34.5247 29.9607 34.4659C29.9211 33.4683 30.0104 32.4697 30.2265 31.4949C30.3 31.1681 30.4409 30.8602 30.6401 30.591C30.8394 30.3217 31.0926 30.097 31.3836 29.9312C31.4731 29.8791 31.5421 29.7979 31.5791 29.7012C31.6161 29.6045 31.6188 29.498 31.5869 29.3995L32.1498 29.5246C33.7136 29.8843 34.8394 30.2908 34.8394 32.652L34.8707 44.0358Z" fill="#333333" stroke="#333333" stroke-width="0.25" stroke-miterlimit="10"/>
</svg>
