<svg width="20" height="20" viewBox="0 0 20 20" fill="none" xmlns="http://www.w3.org/2000/svg">
<g clip-path="url(#clip0_6353_72567)">
<path fill-rule="evenodd" clip-rule="evenodd" d="M18.8882 17.0305H1.90869C1.0745 17.0305 0.398438 16.3407 0.398438 15.4896V7.90226V4.29436V3.54089C0.398438 2.68978 1.0745 2 1.90869 2H18.8882C19.7224 2 20.3984 2.68978 20.3984 3.54089V4.29436V7.90226V15.4896C20.3984 16.3407 19.7224 17.0305 18.8882 17.0305ZM19.4965 7.90226V15.4901C19.4965 15.8329 19.2243 16.1107 18.8882 16.1107H1.90869C1.57262 16.1107 1.30037 15.8329 1.30037 15.4901V7.90226H19.4965ZM19.4965 6.98252V5.21508H1.30037V6.98252H19.4965ZM1.30037 4.29436H19.4965V3.54138C19.4965 3.1985 19.2243 2.92072 18.8882 2.92072H1.90869C1.57262 2.92072 1.30037 3.1985 1.30037 3.54138V4.29436Z" fill="#0099CC"/>
</g>
<defs>
<clipPath id="clip0_6353_72567">
<rect width="20" height="20" fill="white" transform="translate(0.398438)"/>
</clipPath>
</defs>
</svg>
