<svg width="19" height="18" viewBox="0 0 19 18" fill="none" xmlns="http://www.w3.org/2000/svg">
<rect width="19" height="18" rx="9" fill="#3390BF"/>
<path d="M8.69922 4.51069V13.4903C8.69922 13.7721 9.03501 14.0005 9.44922 14.0005C9.86343 14.0005 10.1992 13.7721 10.1992 13.4903L10.1992 4.51069C10.1992 4.22891 9.86343 4.00049 9.44922 4.00049C9.03501 4.00049 8.69922 4.22891 8.69922 4.51069Z" fill="white"/>
<path d="M7.12598 11.1913C6.88412 10.9518 6.47412 10.9356 6.21023 11.1551C5.94633 11.3746 5.92847 11.7467 6.17033 11.9862L9.02165 14.8097C9.27851 15.0641 9.72031 15.0641 9.97722 14.8098L12.8296 11.9863C13.0715 11.7468 13.0537 11.3747 12.7899 11.1551C12.526 10.9356 12.116 10.9517 11.8741 11.1912L9.49957 13.5417L7.12598 11.1913Z" fill="white"/>
</svg>
