<svg width="20" height="20" viewBox="0 0 20 20" fill="none" xmlns="http://www.w3.org/2000/svg">
<path d="M16.7451 0C15.9123 0 15.0731 0.311508 14.4437 0.947236H14.4374L2.19962 13.3948L0 20L6.59886 17.794L6.73872 17.6605L19.0464 5.54991C20.3115 4.28481 20.3115 2.21233 19.0464 0.947236C18.417 0.317865 17.5779 0 16.7451 0ZM16.7451 1.62111C17.1583 1.62111 17.5715 1.77368 17.8957 2.0979C18.5378 2.73999 18.5378 3.75715 17.8957 4.39924L16.6116 5.66434C16.4336 5.22568 16.1475 4.75524 15.6961 4.30388C15.2384 3.84615 14.768 3.56643 14.3293 3.38843L15.6008 2.09155C15.9186 1.78004 16.3319 1.61475 16.7451 1.62111ZM13.2549 4.7616C13.5537 4.78703 13.9924 4.90146 14.5391 5.44819C15.0922 6.00127 15.2066 6.43993 15.2384 6.73872C15.2575 6.96758 15.2257 6.99937 15.213 7.03751L6.80229 15.3083C6.62428 14.9078 6.34456 14.4819 5.92498 14.0623C5.51176 13.6491 5.08582 13.3694 4.67896 13.1914L12.9561 4.78703C12.9943 4.76796 13.0261 4.74253 13.2549 4.7616ZM3.56008 14.5391C3.81437 14.5582 4.22123 14.6599 4.78067 15.2193C5.33376 15.7724 5.43547 16.1793 5.45454 16.4272C5.45454 16.459 5.44819 16.4399 5.45454 16.4654L3.90337 16.9803C3.77622 16.8214 3.64272 16.6624 3.48379 16.5035C3.33121 16.3509 3.17228 16.2174 3.01335 16.0966L3.53465 14.5391C3.55372 14.5455 3.53465 14.5391 3.56008 14.5391Z" fill="white"/>
</svg>
