<svg width="22" height="18" viewBox="0 0 22 18" fill="none" xmlns="http://www.w3.org/2000/svg">
<path d="M18.5208 0.188965H3.47911C2.81445 0.189727 2.17721 0.473052 1.70722 0.976772C1.23723 1.48049 0.972879 2.16347 0.972168 2.87583V14.391C0.972879 15.1034 1.23723 15.7863 1.70722 16.29C2.17721 16.7938 2.81445 17.0771 3.47911 17.0779H18.5208C19.1854 17.0771 19.8227 16.7938 20.2927 16.29C20.7627 15.7863 21.027 15.1034 21.0277 14.391V2.87583C21.027 2.16347 20.7627 1.48049 20.2927 0.976772C19.8227 0.473052 19.1854 0.189727 18.5208 0.188965ZM17.886 4.63333L11.4396 10.0071C11.3139 10.1118 11.1592 10.1687 10.9999 10.1687C10.8407 10.1687 10.686 10.1118 10.5603 10.0071L4.11391 4.63333C4.03817 4.57203 3.97455 4.49521 3.92675 4.40733C3.87895 4.31945 3.84793 4.22226 3.83548 4.12142C3.82303 4.02058 3.8294 3.91809 3.85423 3.81991C3.87906 3.72173 3.92184 3.62981 3.9801 3.54951C4.03836 3.4692 4.11092 3.40211 4.19358 3.35212C4.27624 3.30214 4.36735 3.27026 4.4616 3.25833C4.55586 3.24641 4.65139 3.25468 4.74263 3.28267C4.83388 3.31066 4.91903 3.3578 4.99313 3.42136L10.9999 8.42854L17.0068 3.42136C17.157 3.29979 17.3458 3.24647 17.5324 3.27294C17.719 3.2994 17.8883 3.40352 18.0039 3.56277C18.1194 3.72203 18.1718 3.92362 18.1497 4.12396C18.1277 4.3243 18.0329 4.50728 17.886 4.63333Z" fill="white"/>
</svg>
