<svg width="30" height="20" viewBox="0 0 30 20" fill="none" xmlns="http://www.w3.org/2000/svg">
<path d="M27.118 0.29541H9.83131C9.06744 0.296286 8.33509 0.621898 7.79496 1.2008C7.25482 1.7797 6.95101 2.56461 6.9502 3.3833V16.6171C6.95101 17.4358 7.25482 18.2207 7.79496 18.7996C8.33509 19.3785 9.06744 19.7042 9.83131 19.705H27.118C27.8819 19.7042 28.6142 19.3785 29.1544 18.7996C29.6945 18.2207 29.9983 17.4358 29.9991 16.6171V3.3833C29.9983 2.56461 29.6945 1.7797 29.1544 1.2008C28.6142 0.621898 27.8819 0.296286 27.118 0.29541ZM26.3885 5.40312L18.9799 11.5789C18.8354 11.6993 18.6576 11.7646 18.4747 11.7646C18.2917 11.7646 18.1139 11.6993 17.9694 11.5789L10.5609 5.40312C10.4738 5.33267 10.4007 5.24438 10.3458 5.14338C10.2908 5.04238 10.2552 4.93069 10.2409 4.8148C10.2266 4.6989 10.2339 4.58112 10.2624 4.46828C10.2909 4.35545 10.3401 4.24982 10.4071 4.15753C10.474 4.06524 10.5574 3.98813 10.6524 3.93068C10.7474 3.87323 10.8521 3.8366 10.9604 3.82289C11.0688 3.80919 11.1786 3.8187 11.2834 3.85086C11.3883 3.88303 11.4861 3.93721 11.5713 4.01026L18.4747 9.76477L25.378 4.01026C25.5506 3.87054 25.7676 3.80926 25.9821 3.83968C26.1965 3.87009 26.3912 3.98974 26.524 4.17277C26.6567 4.3558 26.7169 4.58748 26.6916 4.81772C26.6662 5.04796 26.5573 5.25825 26.3885 5.40312Z" fill="#009DD4"/>
<path d="M2.35352 6.90344C2.35352 6.42741 2.73942 6.0415 3.21546 6.0415H7.23784C7.71388 6.0415 8.09978 6.42741 8.09978 6.90344C8.09978 7.37948 7.71388 7.76538 7.23784 7.76538H3.21546C2.73942 7.76538 2.35352 7.37948 2.35352 6.90344Z" fill="#009DD4"/>
<path d="M0.0546875 10.3512C0.0546875 9.87516 0.440591 9.48926 0.916628 9.48926H4.93902C5.41505 9.48926 5.80096 9.87516 5.80096 10.3512C5.80096 10.8272 5.41505 11.2131 4.93902 11.2131H0.916628C0.440591 11.2131 0.0546875 10.8272 0.0546875 10.3512Z" fill="#009DD4"/>
<path d="M2.35352 13.799C2.35352 13.3229 2.73942 12.937 3.21546 12.937H7.23784C7.71388 12.937 8.09978 13.3229 8.09978 13.799C8.09978 14.275 7.71388 14.6609 7.23784 14.6609H3.21546C2.73942 14.6609 2.35352 14.275 2.35352 13.799Z" fill="#009DD4"/>
</svg>
