<svg width="21" height="17" viewBox="0 0 21 17" fill="none" xmlns="http://www.w3.org/2000/svg">
<path d="M18.5 0.153931H2.5C1.4 0.153931 0.51 1.05393 0.51 2.15393L0.5 14.1539C0.5 15.2539 1.4 16.1539 2.5 16.1539H18.5C19.6 16.1539 20.5 15.2539 20.5 14.1539V2.15393C20.5 1.05393 19.6 0.153931 18.5 0.153931ZM17.5 14.1539H3.5C2.95 14.1539 2.5 13.7039 2.5 13.1539V4.15393L9.44 8.49393C10.09 8.90393 10.91 8.90393 11.56 8.49393L18.5 4.15393V13.1539C18.5 13.7039 18.05 14.1539 17.5 14.1539ZM10.5 7.15393L2.5 2.15393H18.5L10.5 7.15393Z" fill="black" fill-opacity="0.54"/>
</svg>
