<svg width="22" height="18" viewBox="0 0 22 18" fill="none" xmlns="http://www.w3.org/2000/svg">
<path d="M18.5213 0.188965H3.4796C2.81494 0.189727 2.1777 0.473052 1.70771 0.976772C1.23772 1.48049 0.973367 2.16347 0.972656 2.87583V14.391C0.973367 15.1034 1.23772 15.7863 1.70771 16.29C2.1777 16.7938 2.81494 17.0771 3.4796 17.0779H18.5213C19.1859 17.0771 19.8232 16.7938 20.2932 16.29C20.7631 15.7863 21.0275 15.1034 21.0282 14.391V2.87583C21.0275 2.16347 20.7631 1.48049 20.2932 0.976772C19.8232 0.473052 19.1859 0.189727 18.5213 0.188965ZM17.8865 4.63333L11.44 10.0071C11.3143 10.1118 11.1597 10.1687 11.0004 10.1687C10.8412 10.1687 10.6865 10.1118 10.5608 10.0071L4.11439 4.63333C4.03866 4.57203 3.97504 4.49521 3.92724 4.40733C3.87944 4.31945 3.84842 4.22226 3.83597 4.12142C3.82352 4.02058 3.82989 3.91809 3.85472 3.81991C3.87954 3.72173 3.92233 3.62981 3.98059 3.54951C4.03884 3.4692 4.11141 3.40211 4.19407 3.35212C4.27673 3.30214 4.36784 3.27026 4.46209 3.25833C4.55635 3.24641 4.65187 3.25468 4.74312 3.28267C4.83437 3.31066 4.91952 3.3578 4.99362 3.42136L11.0004 8.42854L17.0073 3.42136C17.1575 3.29979 17.3463 3.24647 17.5329 3.27294C17.7195 3.2994 17.8888 3.40352 18.0044 3.56277C18.1199 3.72203 18.1723 3.92362 18.1502 4.12396C18.1282 4.3243 18.0334 4.50728 17.8865 4.63333Z" fill="#0099CC"/>
</svg>
