<svg width="81" height="80" viewBox="0 0 81 80" fill="none" xmlns="http://www.w3.org/2000/svg">
<circle cx="40.5" cy="40" r="40" fill="#009DD4"/>
<path d="M61.269 33.3845V44.4614V57.846C61.269 60.7999 60.0382 61.5383 59.4229 61.5383H46.9613H34.4998L23.8844 61.9999L22.4998 61.0768L22.0382 60.1537L21.5767 55.5383V40.3076V32.923L19.7305 34.3076L19.269 34.7691L17.8844 34.3076L17.4229 32.923L18.3459 31.5383L22.0382 28.7691L21.5767 21.846L22.0382 20.4614L22.9613 19.5383L24.3459 19.9999L25.269 20.923V25.9999L39.1152 15.3845L40.9613 14.4614L42.8075 14.923L54.3459 24.1537L64.0382 31.5383L64.4998 32.4614L64.0382 33.846L62.1921 34.3076L61.269 33.3845Z" fill="white"/>
<g clip-path="url(#clip0_3770_76409)">
<path d="M23.8843 38.9113H32.192V34.2959H23.8843V38.9113Z" fill="#0089C3"/>
<path d="M34.9614 51.8341H43.2691V47.2188H34.9614V51.8341Z" fill="#0089C3"/>
<path d="M34.9614 38.9113H43.2691V34.2959H34.9614V38.9113Z" fill="#0089C3"/>
<path d="M29.4229 46.2956H39.5767V41.6802H29.4229V46.2956Z" fill="#0089C3"/>
<path d="M23.8843 46.2956H27.5766V41.6802H23.8843V46.2956Z" fill="#0089C3"/>
<path d="M23.8843 51.8341H32.192V47.2188H23.8843V51.8341Z" fill="#0089C3"/>
<path d="M23.8843 57.3727H27.5766V52.7573H23.8843V57.3727Z" fill="#0089C3"/>
<path d="M29.4229 57.3727H39.5767V52.7573H29.4229V57.3727Z" fill="#0089C3"/>
<path d="M59.1165 61.9881H59.0242H23.0103H22.9365C22.4158 61.9775 21.9184 61.7699 21.5448 61.407C21.1712 61.0442 20.9491 60.5532 20.9232 60.033V35.4441C20.914 35.2741 20.9334 35.1037 20.9805 34.9401V33.6976L19.8229 34.5921C19.4769 34.8733 19.0448 35.0271 18.5989 35.0278H18.4974H18.4439C18.1687 35.0276 17.8968 34.9677 17.647 34.8522C17.3973 34.7366 17.1756 34.5682 16.9974 34.3585C16.8145 34.1495 16.6768 33.9049 16.5931 33.6401C16.5093 33.3752 16.4814 33.0959 16.5109 32.8198C16.5409 32.5623 16.6216 32.3133 16.7483 32.0872C16.8751 31.8611 17.0454 31.6624 17.2494 31.5025L20.9795 28.6087V21.3496C20.9795 20.793 21.2006 20.2592 21.5942 19.8657C21.9878 19.4721 22.5216 19.251 23.0782 19.251C23.6347 19.251 24.1685 19.4721 24.5621 19.8657C24.9557 20.2592 25.1768 20.793 25.1768 21.3496V25.4001L39.3746 14.4293L39.3977 14.4164C39.7417 14.2121 40.1235 14.0795 40.52 14.0263C40.9165 13.9732 41.3197 14.0007 41.7054 14.1072L41.7377 14.1155L41.7682 14.1293C42.3364 14.3849 42.8586 14.7326 43.3134 15.1585C43.9595 15.669 44.6749 16.2256 45.6266 16.9641L52.9392 22.701C55.0974 24.4004 57.6645 26.4164 60.3497 28.4785L63.8186 31.1693C64.2059 31.5162 64.4413 32.0015 64.474 32.5205C64.5066 33.0394 64.3339 33.5504 63.9931 33.9432L63.9728 33.9644C63.6083 34.3283 63.1283 34.5538 62.6155 34.6022C62.1027 34.6505 61.5891 34.5187 61.1629 34.2293L61.1472 60.1992V60.2305C61.0807 60.7205 60.8378 61.1694 60.4639 61.4929C60.09 61.8165 59.6109 61.9926 59.1165 61.9881ZM21.8648 31.8985V35.0813L21.8408 35.1515C21.8132 35.2328 21.8016 35.3187 21.8066 35.4044V59.9961C21.824 60.2906 21.9519 60.5678 22.1648 60.7721C22.3777 60.9765 22.6599 61.0929 22.9549 61.0982H23.0288H59.0537H59.1155C59.3903 61.0985 59.6563 61.0014 59.8662 60.8241C60.0761 60.6469 60.2164 60.4009 60.262 60.1299L60.2786 32.4478L61.6632 33.4992C61.917 33.6692 62.2216 33.7468 62.5258 33.7189C62.83 33.691 63.1154 33.5593 63.334 33.3459C63.5153 33.1304 63.6068 32.8535 63.5896 32.5724C63.5725 32.2913 63.4479 32.0276 63.2417 31.8358L59.8088 29.1736C57.1457 27.1281 54.5657 25.1038 52.3928 23.3924L45.082 17.661C44.1239 16.9225 43.4048 16.3576 42.7512 15.8425L42.7217 15.8167C42.3441 15.4596 41.9103 15.1671 41.4377 14.9508C40.9085 14.814 40.3467 14.8902 39.8731 15.1632L24.2934 27.2001V21.3496C24.2934 21.0277 24.1655 20.7189 23.9379 20.4913C23.7102 20.2637 23.4015 20.1358 23.0795 20.1358C22.7576 20.1358 22.4489 20.2637 22.2212 20.4913C21.9936 20.7189 21.8657 21.0277 21.8657 21.3496V29.0407L17.7922 32.1995C17.6808 32.2864 17.5879 32.3946 17.5186 32.5177C17.4494 32.6408 17.4052 32.7764 17.3888 32.9167C17.3731 33.0712 17.3896 33.2272 17.4373 33.3749C17.485 33.5227 17.5627 33.659 17.6657 33.7752L17.6703 33.7807C17.7664 33.8937 17.886 33.9844 18.0207 34.0466C18.1554 34.1087 18.302 34.1408 18.4503 34.1407H18.5306H18.5971C18.8418 34.1416 19.0792 34.0578 19.2691 33.9035L19.2792 33.8952L21.8639 31.8995L21.8648 31.8985Z" fill="#272727"/>
<path d="M42.5049 45.4798H52.4741V41.1025H42.5049V45.4798Z" fill="#0089C3"/>
<path d="M42.563 57.7519H52.5322V53.3774H42.563V57.7519Z" fill="#0089C3"/>
</g>
<defs>
<clipPath id="clip0_3770_76409">
<rect width="47.9778" height="47.988" fill="white" transform="translate(16.5 14)"/>
</clipPath>
</defs>
</svg>
