<svg id="evhVZUl7JDc1" xmlns="http://www.w3.org/2000/svg" xmlns:xlink="http://www.w3.org/1999/xlink" viewBox="0 0 60 60" shape-rendering="geometricPrecision" text-rendering="geometricPrecision"><style><![CDATA[#evhVZUl7JDc4_tr {animation: evhVZUl7JDc4_tr__tr 3000ms linear infinite normal forwards}@keyframes evhVZUl7JDc4_tr__tr { 0% {transform: translate(520.61499px,-500.675049px) rotate(0deg)} 13.333333% {transform: translate(520.61499px,-500.675049px) rotate(0deg)} 26.666667% {transform: translate(520.61499px,-500.675049px) rotate(0deg)} 100% {transform: translate(520.61499px,-500.675049px) rotate(0deg)}} #evhVZUl7JDc5_tr {animation: evhVZUl7JDc5_tr__tr 3000ms linear infinite normal forwards}@keyframes evhVZUl7JDc5_tr__tr { 0% {transform: translate(31.864901px,29.604px) rotate(0deg)} 13.333333% {transform: translate(31.864901px,29.604px) rotate(14.883401deg)} 26.666667% {transform: translate(31.864901px,29.604px) rotate(0deg)} 100% {transform: translate(31.864901px,29.604px) rotate(0deg)}} #evhVZUl7JDc9_to {animation: evhVZUl7JDc9_to__to 3000ms linear infinite normal forwards}@keyframes evhVZUl7JDc9_to__to { 0% {transform: translate(28.909723px,18.653132px)} 13.333333% {transform: translate(31.481557px,18.641714px)} 26.666667% {transform: translate(28.909723px,18.653132px)} 100% {transform: translate(28.909723px,18.653132px)}} #evhVZUl7JDc9_tr {animation: evhVZUl7JDc9_tr__tr 3000ms linear infinite normal forwards}@keyframes evhVZUl7JDc9_tr__tr { 0% {transform: rotate(0deg)} 13.333333% {transform: rotate(11.483416deg)} 26.666667% {transform: rotate(0deg)} 100% {transform: rotate(0deg)}} #evhVZUl7JDc10_to {animation: evhVZUl7JDc10_to__to 3000ms linear infinite normal forwards}@keyframes evhVZUl7JDc10_to__to { 0% {transform: translate(28.945424px,18.742326px)} 13.333333% {transform: translate(31.864897px,18.653135px)} 26.666667% {transform: translate(28.945424px,18.742326px)} 100% {transform: translate(28.945424px,18.742326px)}} #evhVZUl7JDc10_tr {animation: evhVZUl7JDc10_tr__tr 3000ms linear infinite normal forwards}@keyframes evhVZUl7JDc10_tr__tr { 0% {transform: rotate(0deg)} 13.333333% {transform: rotate(16.785066deg)} 26.666667% {transform: rotate(0deg)} 100% {transform: rotate(0deg)}} #evhVZUl7JDc11_to {animation: evhVZUl7JDc11_to__to 3000ms linear infinite normal forwards}@keyframes evhVZUl7JDc11_to__to { 0% {transform: translate(31.8325px,32.817284px)} 13.333333% {transform: translate(30.8325px,32.817284px)} 26.666667% {transform: translate(31.8325px,32.817284px)} 100% {transform: translate(31.8325px,32.817284px)}} #evhVZUl7JDc11_tr {animation: evhVZUl7JDc11_tr__tr 3000ms linear infinite normal forwards}@keyframes evhVZUl7JDc11_tr__tr { 0% {transform: rotate(0deg)} 13.333333% {transform: rotate(18.1447deg)} 26.666667% {transform: rotate(0deg)} 100% {transform: rotate(0deg)}} #evhVZUl7JDc12_to {animation: evhVZUl7JDc12_to__to 3000ms linear infinite normal forwards}@keyframes evhVZUl7JDc12_to__to { 0% {transform: translate(27.928215px,15.4801px)} 13.333333% {transform: translate(31.864904px,14.898662px)} 26.666667% {transform: translate(27.928215px,15.4801px)} 100% {transform: translate(27.928215px,15.4801px)}} #evhVZUl7JDc12_tr {animation: evhVZUl7JDc12_tr__tr 3000ms linear infinite normal forwards}@keyframes evhVZUl7JDc12_tr__tr { 0% {transform: rotate(0deg)} 13.333333% {transform: rotate(17.331085deg)} 26.666667% {transform: rotate(0deg)} 100% {transform: rotate(0deg)}} #evhVZUl7JDc13_to {animation: evhVZUl7JDc13_to__to 3000ms linear infinite normal forwards}@keyframes evhVZUl7JDc13_to__to { 0% {transform: translate(28.909739px,33.307095px)} 13.333333% {transform: translate(28.087313px,32.208287px)} 26.666667% {transform: translate(28.909739px,33.307095px)} 100% {transform: translate(28.909739px,33.307095px)}} #evhVZUl7JDc13_tr {animation: evhVZUl7JDc13_tr__tr 3000ms linear infinite normal forwards}@keyframes evhVZUl7JDc13_tr__tr { 0% {transform: rotate(-4.391428deg)} 13.333333% {transform: rotate(13.087653deg)} 26.666667% {transform: rotate(-4.391428deg)} 100% {transform: rotate(-4.391428deg)}} #evhVZUl7JDc14_to {animation: evhVZUl7JDc14_to__to 3000ms linear infinite normal forwards}@keyframes evhVZUl7JDc14_to__to { 0% {transform: translate(35.479097px,33.307098px)} 13.333333% {transform: translate(34.539928px,33.727756px)} 26.666667% {transform: translate(35.479097px,33.307098px)} 100% {transform: translate(35.479097px,33.307098px)}} #evhVZUl7JDc14_tr {animation: evhVZUl7JDc14_tr__tr 3000ms linear infinite normal forwards}@keyframes evhVZUl7JDc14_tr__tr { 0% {transform: rotate(0deg)} 13.333333% {transform: rotate(9.430362deg)} 26.666667% {transform: rotate(0deg)} 100% {transform: rotate(0deg)}} #evhVZUl7JDc15_to {animation: evhVZUl7JDc15_to__to 3000ms linear infinite normal forwards}@keyframes evhVZUl7JDc15_to__to { 0% {transform: translate(19.570009px,23.783367px)} 13.333333% {transform: translate(19.417718px,22.822056px)} 26.666667% {transform: translate(19.570009px,23.783367px)} 100% {transform: translate(19.570009px,23.783367px)}} #evhVZUl7JDc15_tr {animation: evhVZUl7JDc15_tr__tr 3000ms linear infinite normal forwards}@keyframes evhVZUl7JDc15_tr__tr { 0% {transform: rotate(0deg)} 13.333333% {transform: rotate(9.033478deg)} 26.666667% {transform: rotate(0deg)} 100% {transform: rotate(0deg)}} #evhVZUl7JDc16_to {animation: evhVZUl7JDc16_to__to 3000ms linear infinite normal forwards}@keyframes evhVZUl7JDc16_to__to { 0% {transform: translate(17.791945px,23.125889px)} 13.333333% {transform: translate(17.50905px,21.65657px)} 26.666667% {transform: translate(17.791945px,23.125889px)} 100% {transform: translate(17.791945px,23.125889px)}} #evhVZUl7JDc16_tr {animation: evhVZUl7JDc16_tr__tr 3000ms linear infinite normal forwards}@keyframes evhVZUl7JDc16_tr__tr { 0% {transform: rotate(0deg)} 13.333333% {transform: rotate(9.033478deg)} 26.666667% {transform: rotate(0deg)} 100% {transform: rotate(0deg)}}]]></style><circle id="evhVZUl7JDc2" r="30" transform="matrix(1 0 0 1 30 30)" fill="rgb(0,153,204)" stroke="none" stroke-width="1"/><g id="evhVZUl7JDc3" clip-path="url(#evhVZUl7JDc17)"><g id="evhVZUl7JDc4_tr" transform="translate(520.61499,-500.675049) rotate(0)"><g id="evhVZUl7JDc4" transform="translate(-520.61499,500.675049)"><g id="evhVZUl7JDc5_tr" transform="translate(31.864901,29.604) rotate(0)"><path id="evhVZUl7JDc5" d="M21.8545,16.3644L24.4378,18.6248L24.1149,20.2394L23.4691,20.8853L21.5316,22.4998L20.2399,24.1144L19.2712,26.0519L17.9795,32.5103L17.0107,39.2915L17.0107,42.5207L18.3024,44.7811L19.917,46.0728L21.5316,46.7186L23.792,47.0415L29.6045,46.0728L38.0003,44.7811L42.8441,43.8123L44.4587,42.8436L46.0732,41.229L46.7191,39.6144L46.7191,37.354L46.3962,35.4165L44.7816,32.1873L42.5212,27.6665L40.2607,23.4686L39.6149,22.4998L37.3545,20.5623L36.0628,19.9165L33.8024,18.9478L33.4795,17.979L32.8337,17.3332L34.1253,14.7498L34.4482,13.7811L34.1253,12.8123L33.1566,12.1665L32.5107,12.1665L30.2503,12.8123L27.0212,13.4582L24.4378,13.7811L22.8232,13.7811L21.8545,14.4269L21.5316,15.3957L21.8545,16.3644Z" transform="translate(-31.864901,-29.604)" fill="rgb(255,255,255)" stroke="none" stroke-width="1"/></g><path id="evhVZUl7JDc6" d="M3466.03,1495.89L-2424.8,1495.89L-2424.8,-2497.24L3466.03,-2497.24L3466.03,1495.89ZM-2424.18,1495.25L3465.44,1495.25L3465.44,-2496.65L-2424.18,-2496.65L-2424.18,1495.25Z" fill="rgb(51,51,51)" stroke="none" stroke-width="1"/><path id="evhVZUl7JDc7" d="M3466.03,1495.89L-2424.8,1495.89L-2424.8,-2497.24L3466.03,-2497.24L3466.03,1495.89ZM-2424.18,1495.25L3465.44,1495.25L3465.44,-2496.65L-2424.18,-2496.65L-2424.18,1495.25Z" fill="rgb(51,51,51)" stroke="none" stroke-width="1"/><path id="evhVZUl7JDc8" d="M3466.03,1495.89L-2424.8,1495.89L-2424.8,-2497.24L3466.03,-2497.24L3466.03,1495.89ZM-2424.18,1495.25L3465.44,1495.25L3465.44,-2496.65L-2424.18,-2496.65L-2424.18,1495.25Z" fill="rgb(51,51,51)" stroke="none" stroke-width="1"/><g id="evhVZUl7JDc9_to" transform="translate(28.909723,18.653132)"><g id="evhVZUl7JDc9_tr" transform="rotate(0)"><path id="evhVZUl7JDc9" d="M24.1404,20.3297C24.0512,19.7586,24.1922,19.1753,24.5324,18.708C24.8726,18.2407,25.3843,17.9273,25.9552,17.8368L31.2123,17.0037C31.4952,16.9586,31.7842,16.9698,32.0628,17.0367C32.3414,17.1036,32.604,17.2248,32.8356,17.3934C33.0672,17.562,33.2632,17.7747,33.4125,18.0192C33.5617,18.2638,33.6612,18.5354,33.7052,18.8184L33.7052,18.8637C33.7052,18.8637,28.3771,18.0757,24.1404,20.3297Z" transform="translate(-28.909723,-18.653132)" fill="rgb(0,157,212)" stroke="none" stroke-width="1"/></g></g><g id="evhVZUl7JDc10_to" transform="translate(28.945424,18.742326)"><g id="evhVZUl7JDc10_tr" transform="rotate(0)"><path id="evhVZUl7JDc10" d="M23.8955,20.8272L23.8244,20.3816C23.7706,20.0565,23.7824,19.7239,23.8589,19.4034C23.9354,19.0829,24.0752,18.7809,24.2701,18.5151C24.6625,17.9802,25.2492,17.6208,25.904,17.5141L31.1611,16.6874C31.8178,16.5851,32.4883,16.7472,33.0257,17.1382C33.5631,17.5292,33.9238,18.1172,34.0286,18.7735L34.0996,19.2062L33.6669,19.2062C33.6153,19.2062,28.384,18.4635,24.2894,20.6335L23.8955,20.8272ZM31.5421,17.2945C31.4432,17.2878,31.344,17.2878,31.2451,17.2945L25.988,18.1276C25.7465,18.165,25.5149,18.2498,25.3065,18.3773C25.0981,18.5048,24.917,18.6724,24.7738,18.8703C24.5779,19.1505,24.4618,19.4787,24.438,19.8197C27.9255,18.1535,31.9167,18.3601,33.2794,18.4893C33.1531,18.1528,32.9279,17.8624,32.6336,17.6562C32.3188,17.4201,31.9356,17.2931,31.5421,17.2945Z" transform="translate(-28.945424,-18.742326)" fill="rgb(51,51,51)" stroke="none" stroke-width="1"/></g></g><g id="evhVZUl7JDc11_to" transform="translate(31.8325,32.817284)"><g id="evhVZUl7JDc11_tr" transform="rotate(0)"><path id="evhVZUl7JDc11" d="M23.1465,47.3256C22.1903,47.3362,21.2437,47.1357,20.374,46.7382C19.5044,46.3408,18.7332,45.7563,18.1154,45.0265C18.0185,44.9102,17.9281,44.794,17.8377,44.6713C17.2677,43.8492,16.8718,42.9193,16.6741,41.9386C16.4764,40.958,16.4812,39.9473,16.6881,38.9686L18.1606,28.9581C18.9421,23.7915,22.83,19.5031,27.409,18.7798L29.7146,18.4181C34.2935,17.7013,39.2923,20.5623,41.6496,25.2511L46.1704,34.2927C46.6662,35.1602,46.9793,36.1199,47.0903,37.1128C47.2014,38.1058,47.1081,39.1109,46.8162,40.0665C46.771,40.2086,46.7194,40.3506,46.6677,40.4927C46.2254,41.5482,45.5168,42.4708,44.6112,43.1704C43.7056,43.87,42.634,44.3226,41.501,44.484L24.225,47.2352C23.8684,47.2933,23.5078,47.3235,23.1465,47.3256ZM29.8179,19.064L27.5058,19.4321C23.1981,20.1167,19.5362,24.1661,18.8,29.0679L17.2952,39.0784C17.1062,39.974,17.102,40.8988,17.2831,41.7962C17.4641,42.6935,17.8264,43.5444,18.3479,44.2967C18.4254,44.4065,18.5094,44.5098,18.5998,44.6196C19.2706,45.3985,20.132,45.9901,21.0999,46.3365C22.0678,46.6829,23.1089,46.7723,24.1217,46.5959L41.43,43.8575C42.4482,43.7111,43.4112,43.3034,44.225,42.674C45.0388,42.0447,45.6756,41.2153,46.0735,40.2667C46.1252,40.1375,46.1704,40.0084,46.2092,39.8792C46.4728,39.0061,46.5555,38.0884,46.4522,37.1823C46.349,36.2761,46.0619,35.4006,45.6085,34.6092L41.0877,25.5675C38.8725,21.1371,34.1385,18.4181,29.8308,19.1092L29.8179,19.064Z" transform="translate(-31.8325,-32.817284)" fill="rgb(51,51,51)" stroke="none" stroke-width="1"/></g></g><g id="evhVZUl7JDc12_to" transform="translate(27.928215,15.4801)"><g id="evhVZUl7JDc12_tr" transform="rotate(0)"><path id="evhVZUl7JDc12" d="M24.4378,19.051L21.8545,16.881C21.5614,16.6425,21.3443,16.3235,21.2302,15.9633C21.116,15.6031,21.1097,15.2174,21.212,14.8536C21.3142,14.4898,21.5206,14.1639,21.8058,13.9159C22.0909,13.668,22.4423,13.5088,22.8168,13.458L22.9201,13.458C26.1139,13.4435,29.2869,12.9427,32.3299,11.9726L32.4332,11.9403C32.7907,11.8755,33.1591,11.9124,33.4966,12.0469C33.834,12.1813,34.1268,12.408,34.3417,12.7009C34.5565,12.9938,34.6846,13.3413,34.7115,13.7035C34.7383,14.0658,34.6627,14.4283,34.4934,14.7497L33.0339,17.6689L32.4591,17.3782L33.9122,14.4591C34.0271,14.2445,34.079,14.0017,34.0619,13.7589C34.0449,13.5161,33.9595,13.283,33.8157,13.0866C33.6719,12.8901,33.4756,12.7383,33.2492,12.6486C33.0229,12.559,32.7759,12.5351,32.5366,12.5797C29.4283,13.5782,26.1848,14.0922,22.9201,14.1039C22.6676,14.1351,22.4299,14.2401,22.2369,14.4059C22.0439,14.5716,21.9042,14.7907,21.8352,15.0356C21.7662,15.2805,21.7711,15.5403,21.8492,15.7824C21.9273,16.0245,22.0752,16.2382,22.2743,16.3966L24.8189,18.5666L24.4378,19.051Z" transform="translate(-27.928215,-15.4801)" fill="rgb(51,51,51)" stroke="none" stroke-width="1"/></g></g><g id="evhVZUl7JDc13_to" transform="translate(28.909739,33.307095)"><g id="evhVZUl7JDc13_tr" transform="rotate(-4.391428)"><path id="evhVZUl7JDc13" d="M26.8663,39.569C26.2252,39.4991,25.6042,39.3038,25.0386,38.9942C24.8243,38.8745,24.666,38.6749,24.5983,38.439C24.5305,38.2031,24.5588,37.95,24.6769,37.7348C24.7161,37.6558,24.7734,37.5872,24.8441,37.5345C24.9148,37.4817,24.9969,37.4464,25.0838,37.4313C25.305,37.4087,25.5282,37.4466,25.7296,37.541C26.1948,37.7779,26.6972,37.933,27.215,37.9996C27.7505,38.0762,28.2941,38.0762,28.8296,37.9996C29.4268,37.9451,29.996,37.721,30.47,37.3538C30.6486,37.2022,30.7825,37.005,30.8576,36.7831C30.9327,36.5613,30.9461,36.3232,30.8963,36.0944C30.8675,35.9086,30.7868,35.7348,30.6633,35.5931C30.5399,35.4513,30.3788,35.3475,30.1988,35.2936C29.5693,35.1056,28.9179,35.0013,28.2613,34.9836C27.4924,34.9532,26.7285,34.845,25.9815,34.6606C25.4501,34.531,24.9623,34.2637,24.5671,33.8856C24.2043,33.4889,23.978,32.9865,23.9213,32.4519C23.8157,31.8489,23.9086,31.228,24.1861,30.6823C24.4813,30.1082,24.928,29.6258,25.4777,29.2873C26.108,28.8974,26.8112,28.6403,27.5444,28.5317C28.8155,28.2743,30.1367,28.4854,31.2644,29.1258C31.3932,29.1986,31.5072,29.295,31.6002,29.41C31.6801,29.5248,31.729,29.6583,31.7423,29.7975C31.7801,29.9966,31.7458,30.2027,31.6454,30.3788C31.6064,30.4597,31.5484,30.5301,31.4765,30.5841C31.4046,30.638,31.3208,30.6739,31.2321,30.6888C31.1378,30.7017,31.0422,30.7017,30.9479,30.6888C30.8222,30.6604,30.699,30.6215,30.5798,30.5725C30.1728,30.354,29.7384,30.1911,29.2881,30.0881C28.8034,30.0008,28.3069,30.0008,27.8221,30.0881C27.242,30.1485,26.6943,30.3852,26.2527,30.7663C26.0829,30.9226,25.9558,31.1198,25.8834,31.3391C25.8111,31.5583,25.7959,31.7924,25.8394,32.0192C25.8621,32.2142,25.938,32.3993,26.0587,32.5542C26.1794,32.7091,26.3404,32.8278,26.524,32.8975C27.1365,33.1038,27.7766,33.217,28.4227,33.2333C29.1996,33.2694,29.9714,33.3775,30.7283,33.5563C31.2635,33.6816,31.7587,33.9392,32.1686,34.3054C32.531,34.6767,32.7584,35.1588,32.8144,35.6746C32.9204,36.2685,32.8297,36.8807,32.556,37.4183C32.2588,37.9809,31.8118,38.4503,31.2644,38.7746C30.6156,39.1637,29.8952,39.4185,29.1461,39.5238C28.3925,39.6507,27.6243,39.6659,26.8663,39.569L26.8663,39.569Z" transform="translate(-28.368208,-34.028332)" fill="rgb(0,157,212)" stroke="none" stroke-width="1"/></g></g><g id="evhVZUl7JDc14_to" transform="translate(35.479097,33.307098)"><g id="evhVZUl7JDc14_tr" transform="rotate(0)"><path id="evhVZUl7JDc14" d="M37.0672,27.7515C37.1601,27.2972,36.8686,26.8539,36.4161,26.7614C35.9635,26.6688,35.5214,26.962,35.4284,27.4163L32.9151,39.704C32.8222,40.1583,33.1137,40.6016,33.5662,40.6941C34.0187,40.7867,34.4609,40.4935,34.5539,40.0392L37.0672,27.7515Z" transform="translate(-34.99115,-33.727749)" fill="rgb(0,157,212)" stroke="none" stroke-width="1"/></g></g><g id="evhVZUl7JDc15_to" transform="translate(19.570009,23.783367)"><g id="evhVZUl7JDc15_tr" transform="rotate(0)"><path id="evhVZUl7JDc15" d="M17.4759,27.3763L17.3919,27.3763C17.3097,27.3535,17.2395,27.2997,17.1961,27.2262C17.1527,27.1527,17.1396,27.0653,17.1594,26.9823C18.3865,22.1386,21.3767,20.3108,21.5059,20.2333C21.5796,20.191,21.6671,20.1794,21.7493,20.2012C21.8316,20.2229,21.9019,20.2763,21.945,20.3496C21.988,20.4226,22.0005,20.5095,21.98,20.5916C21.9594,20.6738,21.9075,20.7446,21.8352,20.7888C21.8352,20.7888,18.9419,22.5713,17.7859,27.1373C17.7675,27.2056,17.7272,27.2659,17.6712,27.3091C17.6152,27.3523,17.5466,27.3759,17.4759,27.3763L17.4759,27.3763Z" transform="translate(-19.570009,-23.783367)" fill="rgb(51,51,51)" stroke="none" stroke-width="1"/></g></g><g id="evhVZUl7JDc16_to" transform="translate(17.791945,23.125889)"><g id="evhVZUl7JDc16_tr" transform="rotate(0)"><path id="evhVZUl7JDc16" d="M16.7719,25.2448C16.7356,25.2515,16.6984,25.2515,16.6621,25.2448C16.6217,25.2312,16.5845,25.2094,16.5528,25.181C16.521,25.1526,16.4953,25.1181,16.4772,25.0795C16.4591,25.0409,16.449,24.999,16.4475,24.9564C16.446,24.9138,16.4531,24.8713,16.4684,24.8315C16.9449,23.4802,17.6554,22.2232,18.5673,21.118C18.5941,21.0852,18.6272,21.0582,18.6646,21.0385C18.702,21.0187,18.743,21.0067,18.7852,21.0031C18.8273,20.9995,18.8698,21.0044,18.91,21.0174C18.9502,21.0305,18.9874,21.0515,19.0194,21.0792C19.085,21.1334,19.1265,21.2113,19.135,21.296C19.1434,21.3806,19.1182,21.4652,19.0646,21.5313C18.1991,22.578,17.5256,23.7696,17.0755,25.0511C17.0498,25.1099,17.0073,25.1597,16.9532,25.1942C16.8991,25.2287,16.836,25.2463,16.7719,25.2448L16.7719,25.2448Z" transform="translate(-17.791945,-23.125889)" fill="rgb(51,51,51)" stroke="none" stroke-width="1"/></g></g></g></g><clipPath id="evhVZUl7JDc17"><rect id="evhVZUl7JDc18" width="46.5" height="46.5" rx="0" ry="0" transform="matrix(1 0 0 1 7 7)" fill="rgb(255,255,255)" stroke="none" stroke-width="1"/></clipPath></g></svg>