<svg width="60" height="60" viewBox="0 0 60 60" fill="none" xmlns="http://www.w3.org/2000/svg">
<circle cx="30" cy="30" r="30" fill="#EA3F76"/>
<path d="M22.6095 16.3984C17.6694 16.3984 13.6655 20.0384 13.6655 24.5294C13.6655 32.3466 23.64 39.816 28.3 43.1424C28.3044 43.1456 28.3088 43.1489 28.3133 43.1521C28.3452 43.1749 28.3886 43.2073 28.4201 43.2297L28.4227 43.2273C28.8955 43.5521 29.4716 43.7284 30.0642 43.7296C30.6577 43.7289 31.2348 43.5526 31.7083 43.2273V43.2297C31.7175 43.2232 31.7311 43.2145 31.7404 43.2079C31.7474 43.2029 31.7573 43.1959 31.7644 43.1909C31.7733 43.1837 31.7822 43.1764 31.7911 43.1691C36.4366 39.8546 46.4629 32.3652 46.4629 24.5294C46.4629 20.0384 42.459 16.3984 37.5189 16.3984C32.7974 16.3984 30.0642 20.1254 30.0642 20.1254C30.0642 20.1254 27.331 16.3984 22.6095 16.3984Z" fill="white"/>
<circle cx="30" cy="30" r="30" fill="#EA3F76"/>
<path d="M22.6095 16.3984C17.6694 16.3984 13.6655 20.0384 13.6655 24.5294C13.6655 32.3466 23.64 39.816 28.3 43.1424C28.3044 43.1456 28.3088 43.1489 28.3133 43.1521C28.3452 43.1749 28.3886 43.2073 28.4201 43.2297L28.4227 43.2273C28.8955 43.5521 29.4716 43.7284 30.0642 43.7296C30.6577 43.7289 31.2348 43.5526 31.7083 43.2273V43.2297C31.7175 43.2232 31.7311 43.2145 31.7404 43.2079C31.7474 43.2029 31.7573 43.1959 31.7644 43.1909C31.7733 43.1837 31.7822 43.1764 31.7911 43.1691C36.4366 39.8546 46.4629 32.3652 46.4629 24.5294C46.4629 20.0384 42.459 16.3984 37.5189 16.3984C32.7974 16.3984 30.0642 20.1254 30.0642 20.1254C30.0642 20.1254 27.331 16.3984 22.6095 16.3984Z" fill="white"/>
</svg>
