<svg width="129" height="161" viewBox="0 0 129 161" fill="none" xmlns="http://www.w3.org/2000/svg">
<g clip-path="url(#clip0_2951_15458)">
<path d="M23.7242 95.9231L20.7776 100.717L25.8663 69.68C26.7579 69.2027 27.6342 68.5816 28.2338 67.7809C29.9812 65.4405 36.6944 49.9605 36.6944 49.9605C36.6944 49.9605 34.8393 48.6619 32.5128 51.1923C30.7858 53.0709 27.788 57.6594 27.788 57.6594C27.788 57.6594 28.9922 47.9074 29.4022 44.5661C29.7609 41.6303 30.1401 37.1649 28.7052 36.5798C27.2755 35.9946 26.4556 41.661 25.6357 43.9707C24.8157 46.2804 23.7242 49.5858 23.7242 49.5858C23.7396 49.7706 24.8926 37.9707 24.3443 34.7371C23.9446 32.3761 21.0543 33.2641 20.9724 36.0049C20.9724 36.0049 19.8655 33.2384 18.5741 35.2299C17.2827 37.2162 16.3039 48.6825 15.525 48.4823C14.7512 48.2821 15.0177 38.9151 13.798 38.0477C13.1062 37.555 12.1838 38.4378 12.0045 40.8142C11.82 43.1906 10.5952 61.1137 11.0206 63.5979C11.2819 65.112 11.7534 66.0307 12.0865 66.5235C10.011 73.2472 5.66032 88.0856 2.34989 104.525C-0.186747 117.136 5.99341 134.413 22.3047 126.046C27.3882 123.439 38.0011 109.227 38.0011 109.227L23.7242 95.9231Z" fill="white"/>
<path d="M23.7243 95.9336L20.7982 100.727L20.7367 100.825L20.7572 100.712L25.7895 69.67L25.7946 69.634L25.8253 69.6186C26.6504 69.1721 27.4395 68.6229 28.034 67.8992C28.5926 67.1499 29.023 66.2927 29.4637 65.4561C30.3298 63.7675 31.1343 62.048 31.9389 60.3235C33.5326 56.8744 35.0751 53.3996 36.5868 49.9145L36.6278 50.0531C36.2127 49.7965 35.6746 49.7092 35.1724 49.7554C34.6651 49.8119 34.1783 50.012 33.7427 50.2841C32.8613 50.8435 32.2053 51.6904 31.5443 52.5168C30.2478 54.19 29.0435 55.9454 27.87 57.711L27.6292 58.0754L27.6804 57.6442L28.7924 48.7597L29.3459 44.32C29.5201 42.8418 29.6636 41.3533 29.6482 39.87C29.6328 39.1309 29.5918 38.3815 29.392 37.6732C29.2844 37.3293 29.1358 36.9752 28.8642 36.7596C28.7258 36.657 28.5618 36.5902 28.4081 36.6262C28.2543 36.6621 28.116 36.7801 28.0032 36.9187C27.5625 37.4936 27.3319 38.2224 27.1013 38.9205C26.881 39.6288 26.6914 40.3524 26.5069 41.0761C26.3224 41.7998 26.143 42.5235 25.9381 43.2421C25.728 43.9607 25.4615 44.6587 25.2309 45.367L23.7806 49.6014L23.7858 49.5758C23.5654 49.5501 23.7243 49.5706 23.673 49.5655V49.5604V49.5552L23.6782 49.5347L23.6833 49.4936L23.6935 49.4167L23.7089 49.2575L23.7397 48.9393L23.8011 48.2977L23.919 47.0146L24.124 44.4431C24.247 42.7289 24.3546 41.0146 24.411 39.2951C24.4366 38.438 24.4571 37.5757 24.4417 36.7186C24.4366 36.2874 24.4212 35.8614 24.3853 35.4354C24.3495 35.0094 24.3034 34.5783 24.1291 34.1933C23.9651 33.8084 23.6269 33.4953 23.2118 33.4337C22.8019 33.3618 22.3714 33.5158 22.0434 33.7724C21.367 34.2908 21.0493 35.1634 21.0185 36L21.0134 36.2053L20.9314 36.0154C20.8136 35.7434 20.6752 35.4816 20.5061 35.2352C20.337 34.994 20.1371 34.763 19.8809 34.6347C19.6247 34.4961 19.3172 34.5475 19.0866 34.722C18.8662 34.9067 18.6766 35.1428 18.5383 35.3995C18.2718 35.9281 18.1181 36.5132 17.9695 37.0932C17.826 37.6732 17.703 38.2635 17.5851 38.8486C17.129 41.2045 16.8011 43.586 16.3757 45.9521C16.2681 46.5424 16.1554 47.1326 16.0016 47.7178C15.9606 47.8615 15.9197 48.0103 15.8633 48.154C15.8377 48.2259 15.8069 48.2977 15.7659 48.3696C15.7249 48.4312 15.689 48.5338 15.5404 48.5441C15.4123 48.5133 15.3713 48.4209 15.3303 48.3542C15.2996 48.2823 15.2688 48.2054 15.2483 48.1335C15.2022 47.9847 15.1715 47.8358 15.1459 47.687C14.9511 46.4911 14.8947 45.29 14.8025 44.0941C14.7154 42.8982 14.6283 41.6972 14.4745 40.5116C14.3925 39.9213 14.3003 39.3259 14.1261 38.7613C14.0287 38.4944 13.9262 38.1865 13.6905 38.0684C13.4548 37.9247 13.1627 38.0068 12.9628 38.2019C12.558 38.6022 12.3632 39.1976 12.2403 39.7673C12.1173 40.3473 12.0865 40.9427 12.0404 41.5432L11.7995 45.1361C11.6458 47.533 11.5074 49.9299 11.3793 52.3269C11.2563 54.7238 11.1385 57.1259 11.077 59.5228C11.0565 60.7187 11.0206 61.9249 11.0924 63.1105C11.2 64.2807 11.5484 65.4612 12.1839 66.4416L12.2146 66.4877L12.1993 66.5391C9.72924 74.5716 7.50008 82.6812 5.52202 90.8523C4.53299 94.9379 3.60545 99.0388 2.75991 103.155C2.2987 105.208 1.99123 107.277 1.93999 109.376C1.89387 111.47 2.05785 113.569 2.45244 115.622C2.87265 117.665 3.48759 119.692 4.4715 121.535C5.42978 123.378 6.74678 125.071 8.44812 126.273C10.1392 127.489 12.2146 128.1 14.2901 128.12C16.3757 128.115 18.4358 127.602 20.3677 126.811C21.3311 126.411 22.2894 125.975 23.1606 125.405C23.591 125.113 23.9959 124.784 24.4161 124.466L25.5998 123.434C27.1423 122.012 28.5772 120.478 29.9813 118.917C32.7793 115.787 35.4235 112.517 37.9653 109.176L37.9704 109.242L23.7243 95.9336ZM23.7243 95.9079L38.0422 109.176L38.0729 109.207L38.0473 109.242C35.5107 112.594 32.8818 115.879 30.0889 119.025C28.6899 120.591 27.2551 122.136 25.7126 123.568L24.5237 124.61C24.1035 124.928 23.6935 125.261 23.2579 125.559C22.3714 126.144 21.408 126.58 20.4395 126.991C18.4973 127.797 16.4116 128.326 14.2901 128.341C12.1736 128.331 10.0418 127.71 8.30975 126.473C6.56742 125.251 5.21967 123.532 4.24602 121.658C3.24674 119.79 2.6318 117.742 2.20646 115.679C1.80675 113.605 1.64789 111.485 1.69401 109.376C1.74526 107.266 2.05785 105.162 2.51906 103.114C3.36973 98.9926 4.29726 94.8917 5.28629 90.8061C7.2746 82.635 9.50376 74.5203 11.9789 66.4826L11.9943 66.5801C11.6509 66.0669 11.4101 65.5023 11.2256 64.9223C11.0514 64.3372 10.8976 63.7521 10.8669 63.1362C10.7951 61.9249 10.8361 60.7238 10.8618 59.5228C10.9284 57.1207 11.0514 54.7187 11.1795 52.3217C11.3127 49.9248 11.4613 47.5279 11.6202 45.1309L11.8713 41.5381C11.9174 40.9427 11.9482 40.3319 12.0814 39.7365C12.1429 39.4388 12.23 39.1463 12.3479 38.864C12.4657 38.5817 12.6195 38.3045 12.8552 38.089C13.0704 37.8631 13.4753 37.7451 13.7725 37.935C14.0851 38.1095 14.1773 38.4431 14.2798 38.7203C14.4592 39.3054 14.5514 39.9008 14.6334 40.5013C14.7871 41.6972 14.8691 42.8982 14.9562 44.0941C15.0485 45.29 15.1049 46.4962 15.2893 47.6716C15.315 47.8153 15.3457 47.9641 15.3867 48.1027C15.4174 48.231 15.4943 48.4055 15.5558 48.4209C15.5661 48.4312 15.6224 48.3747 15.6532 48.3131C15.689 48.2516 15.7147 48.1848 15.7403 48.1181C15.7915 47.9795 15.8377 47.8409 15.8735 47.6972C16.0273 47.1224 16.14 46.5321 16.2527 45.9419C16.6832 43.5809 17.0163 41.1993 17.4775 38.8435C17.5954 38.2532 17.7184 37.6681 17.867 37.083C18.0207 36.503 18.1744 35.9179 18.446 35.3687C18.5946 35.1018 18.7894 34.8605 19.0251 34.6604C19.2711 34.4705 19.64 34.4089 19.9219 34.568C20.2037 34.7117 20.4087 34.9529 20.583 35.1993C20.7572 35.4508 20.9007 35.7177 21.0185 36L20.9314 36.0154C20.9622 35.1531 21.2901 34.26 21.9973 33.7211C22.3407 33.4593 22.7916 33.2951 23.2323 33.3721C23.6782 33.4388 24.042 33.7776 24.2111 34.1779C24.3905 34.5783 24.4366 35.0197 24.4725 35.4457C24.5083 35.8768 24.5237 36.3079 24.534 36.734C24.5493 37.5962 24.534 38.4534 24.5083 39.3157C24.4571 41.0351 24.3546 42.7494 24.2316 44.4688L24.0317 47.0403L23.919 48.3234L23.8575 48.965L23.8216 49.2729L23.8063 49.4321L23.796 49.5142L23.7909 49.5552L23.7858 49.5758V49.5912V49.5963C23.7345 49.5912 23.8985 49.6168 23.673 49.5912H23.6679L23.673 49.5706L25.113 45.3311C25.3436 44.6228 25.6101 43.9248 25.8151 43.2113C26.0201 42.4979 26.1943 41.7691 26.3788 41.0454C26.5633 40.3217 26.7477 39.598 26.9681 38.8845C27.2038 38.1762 27.4191 37.4474 27.8905 36.8263C28.0135 36.6826 28.1672 36.5338 28.3773 36.4825C28.5926 36.4311 28.8027 36.5235 28.9564 36.6416C29.2741 36.8931 29.4279 37.2729 29.5406 37.6322C29.7507 38.3661 29.7917 39.1206 29.8122 39.87C29.8327 41.3687 29.6892 42.8623 29.5201 44.3456L28.9769 48.7905L27.8905 57.675L27.706 57.6083C28.8795 55.8324 30.0787 54.0771 31.3752 52.3936C32.0362 51.5672 32.6973 50.6998 33.6248 50.1044C34.0809 49.8119 34.6036 49.6014 35.1519 49.5398C35.7003 49.4885 36.2691 49.5758 36.761 49.8786L36.8379 49.9248L36.7969 50.012C35.2698 53.492 33.7171 56.9616 32.1131 60.4107C31.3086 62.1302 30.4938 63.8496 29.6175 65.5382C29.1716 66.38 28.7463 67.232 28.1621 68.0019C27.5472 68.7512 26.7375 69.3004 25.8971 69.7521L25.9381 69.7008L20.7982 100.727L20.7572 100.712L23.7243 95.9079Z" fill="#2D3940"/>
<path d="M99.0443 44.6589C99.2544 39.5417 98.8393 28.9788 98.3474 19.4167C97.8195 9.13608 89.5025 0.980343 79.2278 0.682651L78.208 0.651855C67.1801 0.97521 61.2972 10.5321 61.9224 21.5621L62.0658 29.2867C60.4414 28.8813 55.3527 28.1473 55.3732 34.3167C55.3886 40.5426 60.7437 40.3065 62.2657 39.9831L62.6603 61.2476L55.7781 63.8395L60.1493 74.3717L64.7767 80.0483L77.2036 84.4521L88.6415 82.0244L96.0362 64.3477L87.9139 60.9755L87.9805 56.5923C87.9754 56.5871 98.6087 55.2527 99.0443 44.6589Z" fill="white" stroke="#2D3940" stroke-width="0.5" stroke-miterlimit="10"/>
<path d="M88.0215 56.459C88.0215 56.459 81.2879 56.9312 74.3135 52.2554C74.3135 52.2554 77.3523 59.9748 87.9344 59.3333L88.0215 56.459Z" fill="#2D3940"/>
<path d="M96.0977 27.5675C95.9029 27.7574 94.7858 26.8797 93.1613 26.8335C91.5369 26.7668 90.3224 27.5675 90.1481 27.3673C90.0661 27.2749 90.266 26.9259 90.7938 26.5615C91.3165 26.197 92.1979 25.8583 93.2126 25.8942C94.2272 25.9302 95.0676 26.3254 95.5442 26.7257C96.0362 27.1209 96.195 27.4853 96.0977 27.5675Z" fill="#263238"/>
<path d="M79.9146 26.6384C79.7455 26.8489 78.5309 26.0944 76.9116 26.2278C75.2922 26.3356 74.1649 27.2697 73.9752 27.085C73.883 27.0028 74.0419 26.6333 74.5338 26.2124C75.0155 25.7967 75.8559 25.3604 76.8655 25.2834C77.875 25.2064 78.7564 25.5144 79.274 25.8531C79.7967 26.2022 79.9966 26.5409 79.9146 26.6384Z" fill="#263238"/>
<path d="M85.4848 36.611C85.4797 36.5186 86.4943 36.3749 88.1393 36.2106C88.5544 36.1799 88.949 36.108 89.031 35.8257C89.1386 35.528 88.9746 35.0763 88.7901 34.5836C88.4314 33.5673 88.0522 32.4998 87.6525 31.3808C86.0793 26.8231 84.9519 23.0814 85.1363 23.0198C85.3208 22.9582 86.7454 26.6024 88.3187 31.1601C88.6979 32.2842 89.0566 33.3569 89.3999 34.3783C89.5434 34.8556 89.7996 35.3997 89.569 36.0156C89.446 36.3236 89.1386 36.5391 88.867 36.6059C88.6005 36.6777 88.3648 36.6777 88.1598 36.6828C86.5097 36.729 85.4848 36.7085 85.4848 36.611Z" fill="#263238"/>
<path d="M79.8684 17.6767C79.73 18.1284 78.1004 18.0052 76.2044 18.344C74.3032 18.6417 72.7966 19.2832 72.525 18.8983C72.402 18.7135 72.6479 18.2824 73.2475 17.8205C73.842 17.3585 74.8002 16.8966 75.9379 16.7067C77.0755 16.5168 78.1312 16.6451 78.8435 16.8863C79.5558 17.1378 79.9299 17.4663 79.8684 17.6767Z" fill="#263238"/>
<path d="M95.4623 19.7968C95.1651 20.156 94.0582 19.7403 92.7104 19.6838C91.3678 19.5812 90.2148 19.8583 89.9637 19.4631C89.8561 19.2732 90.0457 18.9088 90.553 18.5701C91.0552 18.2364 91.8854 17.9747 92.8078 18.0311C93.7302 18.0876 94.5245 18.4469 94.9806 18.837C95.452 19.2373 95.5955 19.6222 95.4623 19.7968Z" fill="#263238"/>
<path d="M60.4466 37.1038C60.4158 37.0781 60.3185 37.191 60.1083 37.2885C59.9034 37.3861 59.5447 37.4528 59.1654 37.3091C58.4019 37.0319 57.7511 35.8155 57.7152 34.5067C57.6947 33.8445 57.8331 33.2184 58.0637 32.6948C58.284 32.161 58.6274 31.7915 59.0117 31.7248C59.396 31.6375 59.6676 31.8634 59.7548 32.0687C59.8521 32.2688 59.806 32.4177 59.847 32.4279C59.8675 32.4433 60.0007 32.3048 59.9444 32.0071C59.9136 31.8634 59.8265 31.694 59.6574 31.5554C59.4832 31.4117 59.2269 31.345 58.9605 31.3706C58.4019 31.4117 57.8997 31.9249 57.6435 32.4998C57.3565 33.0747 57.1874 33.783 57.213 34.5221C57.2642 35.9849 58.0124 37.3501 59.0629 37.6478C59.5703 37.7813 59.9956 37.6222 60.216 37.4528C60.4363 37.2783 60.4722 37.114 60.4466 37.1038Z" fill="#2D3940"/>
<path d="M128.5 161L126.932 135.291L122.863 93.2031L104.348 112.255C104.348 112.255 110.4 159.614 111.784 160.097" fill="white"/>
<path d="M128.5 161L127.342 144.032L126.819 135.542L126.009 127.078L122.735 93.2186L122.955 93.2956L104.44 112.348L104.476 112.24C105.511 120.252 106.582 128.259 107.715 136.261L109.452 148.256C109.749 150.252 110.062 152.249 110.4 154.24C110.569 155.236 110.749 156.232 110.943 157.217C111.041 157.71 111.143 158.208 111.266 158.695C111.328 158.942 111.389 159.183 111.461 159.424C111.548 159.655 111.594 159.927 111.784 160.097C111.594 159.927 111.543 159.66 111.451 159.429C111.374 159.188 111.307 158.947 111.246 158.701C111.118 158.213 111.01 157.72 110.902 157.222C110.692 156.237 110.498 155.241 110.313 154.251C109.944 152.264 109.606 150.273 109.278 148.276L108.325 142.292L107.459 136.292C106.326 128.29 105.25 120.283 104.22 112.271L104.21 112.209L104.251 112.163L122.766 93.1108L122.96 92.9106L122.986 93.1878L126.261 127.053L127.07 135.522L127.583 144.011L128.5 161Z" fill="#2D3940"/>
<path d="M58.3352 62.5923C58.3352 62.5923 40.6711 70.0808 38.2318 71.1894C34.4038 72.9294 28.2236 79.9303 27.4498 81.2134C26.6811 82.4966 25.3949 89.1844 25.3949 89.1844C25.3949 89.1844 22.3151 93.5523 22.3151 94.3273C22.3151 95.0972 40.4097 111.296 40.4097 111.296L42.5979 141.198L38.9595 160.954C65.5198 159.394 90.5735 159.301 111.876 160.379L109.063 110.013L124.974 94.0758L122.663 88.9329C121.09 81.0697 116.022 74.3511 108.899 70.6864L93.4023 62.7103C93.4023 62.7103 91.6036 75.3058 75.9482 75.3058C60.3031 75.3058 58.3352 62.5923 58.3352 62.5923Z" fill="#3BA7DC"/>
<path d="M30.053 78.6935C30.0633 78.6884 30.1197 78.7962 30.2273 78.9964C30.3451 79.2222 30.4937 79.5147 30.6834 79.8843C31.0984 80.6799 31.6724 81.7834 32.3744 83.1384C33.7991 85.8843 35.8694 89.6671 37.3606 94.1786C38.8877 98.6697 39.7486 102.899 40.0612 105.989C40.2252 107.534 40.2816 108.791 40.2867 109.659C40.2969 110.095 40.2816 110.429 40.2764 110.659C40.2713 110.89 40.2611 111.009 40.2559 111.009C40.2457 111.009 40.2354 110.89 40.2303 110.659C40.2201 110.408 40.2098 110.074 40.1893 109.664C40.1534 108.796 40.0715 107.549 39.887 106.009C39.5334 102.935 38.6468 98.7313 37.1249 94.2608C35.6388 89.7749 33.6043 85.987 32.2207 83.2205C31.5187 81.8398 30.9652 80.7107 30.5962 79.9254C30.4118 79.5353 30.2734 79.2273 30.1812 79.0169C30.0889 78.8116 30.0479 78.6987 30.053 78.6935Z" fill="#263238"/>
<path d="M110.6 85.3247C110.61 85.3247 110.6 85.4171 110.58 85.5916C110.549 85.7918 110.513 86.0433 110.472 86.3512C110.369 87.0082 110.231 87.9629 110.067 89.1382C109.744 91.4941 109.37 94.7585 109.15 98.377C108.935 101.995 108.909 105.285 108.95 107.662C108.97 108.853 108.991 109.812 109.017 110.475C109.022 110.782 109.027 111.039 109.032 111.239C109.032 111.414 109.032 111.506 109.022 111.506C109.011 111.506 109.001 111.414 108.981 111.239C108.965 111.039 108.945 110.782 108.919 110.475C108.868 109.812 108.817 108.847 108.776 107.657C108.694 105.275 108.689 101.985 108.904 98.3564C109.124 94.7277 109.524 91.4582 109.893 89.1074C110.077 87.9321 110.241 86.9825 110.375 86.3307C110.436 86.0279 110.487 85.7764 110.528 85.5813C110.564 85.412 110.59 85.3247 110.6 85.3247Z" fill="#263238"/>
<path d="M119.86 81.2854C119.865 81.2906 119.829 81.3624 119.752 81.501C119.66 81.6601 119.542 81.8552 119.404 82.0861C119.081 82.625 118.64 83.3487 118.108 84.2316C117.021 86.0485 115.571 88.5789 114.049 91.4275C112.532 94.2761 111.21 96.8835 110.241 98.7671C109.765 99.6807 109.375 100.43 109.083 100.99C108.955 101.231 108.848 101.426 108.755 101.59C108.678 101.724 108.632 101.795 108.627 101.79C108.617 101.785 108.648 101.708 108.709 101.564C108.786 101.395 108.878 101.195 108.996 100.943C109.268 100.374 109.637 99.614 110.083 98.685C111.015 96.7859 112.312 94.1632 113.829 91.3094C115.351 88.4557 116.826 85.9305 117.954 84.1392C118.517 83.241 118.984 82.5224 119.317 82.0348C119.471 81.809 119.599 81.6242 119.706 81.4753C119.799 81.347 119.85 81.2803 119.86 81.2854Z" fill="#263238"/>
<path d="M24.6775 76.4863C24.6877 76.4863 24.6672 76.6352 24.6211 76.9072C24.5699 77.2049 24.5033 77.6052 24.4161 78.1134C24.2265 79.1809 23.9652 80.6899 23.6372 82.5377C22.9967 86.2742 22.0742 91.4376 21.3312 97.1759C21.2492 97.8945 21.1672 98.6028 21.0852 99.3008C21.034 99.9989 20.9468 100.692 20.9315 101.369C20.9212 101.708 20.9007 102.047 20.9058 102.375C20.9366 102.704 20.9315 103.027 20.9827 103.35C21.0955 103.992 21.2441 104.613 21.408 105.219C21.7309 106.425 22.0845 107.569 22.2946 108.673C22.5098 109.776 22.5816 110.824 22.5662 111.778C22.5252 113.693 22.1409 115.207 21.8078 116.213C21.6335 116.716 21.4798 117.101 21.3619 117.352C21.2441 117.609 21.1774 117.737 21.1723 117.732C21.1621 117.727 21.2133 117.588 21.3158 117.332C21.4183 117.07 21.5567 116.685 21.7155 116.182C22.0179 115.171 22.3766 113.667 22.392 111.778C22.392 110.834 22.3202 109.802 22.0947 108.714C21.8795 107.626 21.5208 106.492 21.1877 105.275C21.0237 104.67 20.8649 104.043 20.7521 103.386C20.6957 103.058 20.6957 102.714 20.6701 102.375C20.665 102.037 20.6855 101.698 20.6957 101.354C20.7162 100.666 20.7982 99.9783 20.8495 99.27C20.9315 98.5669 21.0135 97.8586 21.0955 97.1349C21.8385 91.3863 22.7917 86.228 23.4732 82.4966C23.8217 80.6335 24.1138 79.1245 24.329 78.0826C24.4366 77.5796 24.5186 77.1792 24.5801 76.8867C24.6109 76.7635 24.6314 76.6608 24.6519 76.5787C24.6621 76.5171 24.6724 76.4812 24.6775 76.4863Z" fill="#2D3940"/>
<path d="M22.4996 63.1669C22.4586 63.1823 22.2997 62.6793 21.9256 61.9299C21.5567 61.1806 20.9264 60.2002 20.0296 59.2969C19.1277 58.3936 18.1489 57.7674 17.4007 57.3927C16.6525 57.018 16.1554 56.8589 16.1657 56.8178C16.1708 56.8024 16.2989 56.8281 16.5295 56.8897C16.7601 56.9462 17.0881 57.0642 17.4776 57.2336C18.2565 57.5723 19.2814 58.1934 20.2089 59.1224C21.1313 60.0514 21.7514 61.0779 22.0896 61.8581C22.2587 62.2481 22.3766 62.5766 22.433 62.8076C22.4893 63.0334 22.515 63.1617 22.4996 63.1669Z" fill="#2D3940"/>
<path d="M26.5736 59.338C26.6094 59.4048 25.5128 59.9488 24.4059 60.9394C23.2888 61.9198 22.6226 62.9463 22.5611 62.9052C22.5047 62.8796 23.094 61.7658 24.2419 60.7547C25.3847 59.7281 26.5582 59.2765 26.5736 59.338Z" fill="#2D3940"/>
<path d="M21.2338 35.0352C21.3004 35.0403 21.1006 38.2174 20.788 42.1233C20.4754 46.0344 20.1628 49.2012 20.0962 49.1961C20.0296 49.1909 20.2294 46.019 20.542 42.1079C20.8546 38.1917 21.1672 35.0249 21.2338 35.0352Z" fill="#2D3940"/>
<path d="M61.8147 25.1705C61.2715 21.244 60.5439 17.2047 61.2767 13.3603C61.2767 13.3603 62.9268 8.87955 65.3148 5.94369C68.5022 2.03263 75.0257 -0.913492 83.02 0.261878C93.3868 1.78113 97.7171 9.51086 97.6197 14.5049C97.5736 16.7889 93.9505 4.65027 86.5251 12.6777C82.9328 7.89408 79.976 6.98048 74.7541 7.90948C73.7446 8.08912 72.7812 8.4792 71.9664 9.11051C69.8397 10.7581 70.2856 12.4672 70.2804 13.3449C70.9261 21.4955 65.8734 24.7034 65.8734 24.7034L65.6684 30.3288C65.7862 31.9917 64.9151 33.4545 64.2079 33.5264L62.0658 29.2817C62.0658 29.2817 62.0915 27.1979 61.8147 25.1705Z" fill="#2D3940"/>
<path d="M73.2168 31.5761C73.1092 31.5813 73.017 31.494 73.0118 31.376C73.0067 31.2579 73.0836 31.1604 73.1912 31.1501C73.2988 31.145 73.3911 31.2322 73.3962 31.3503C73.4064 31.4683 73.3244 31.571 73.2168 31.5761Z" fill="#E24780"/>
<path d="M76.6554 31.2783C76.5478 31.2834 76.4556 31.1808 76.4453 31.0473C76.4351 30.9139 76.5171 30.801 76.6247 30.7907C76.7323 30.7856 76.8245 30.8882 76.8348 31.0217C76.845 31.1551 76.763 31.2732 76.6554 31.2783Z" fill="#E24780"/>
<path d="M78.9102 31.5349C78.8025 31.5349 78.7154 31.3912 78.7206 31.2167C78.7206 31.0421 78.8128 30.8984 78.9204 30.8984C79.028 30.8984 79.1151 31.0421 79.11 31.2167C79.1049 31.3912 79.0178 31.5349 78.9102 31.5349Z" fill="#E24780"/>
<path d="M74.5697 33.8958C74.4621 33.8804 74.3852 33.8137 74.3954 33.747C74.4057 33.6803 74.4979 33.6341 74.6055 33.6495C74.7132 33.6649 74.79 33.7316 74.7798 33.7983C74.7695 33.8702 74.6722 33.9112 74.5697 33.8958Z" fill="#E24780"/>
<path d="M77.7263 33.6086C77.6187 33.6035 77.5367 33.5008 77.5419 33.3776C77.547 33.2544 77.6392 33.1621 77.7468 33.1672C77.8545 33.1723 77.9365 33.275 77.9313 33.3982C77.9211 33.5213 77.834 33.6137 77.7263 33.6086Z" fill="#E24780"/>
<path d="M93.9044 33.9062C93.7968 33.9113 93.7046 33.819 93.6995 33.7009C93.6943 33.5777 93.7712 33.4751 93.8788 33.4699C93.9864 33.4648 94.0787 33.5572 94.0838 33.6752C94.094 33.7933 94.012 33.9011 93.9044 33.9062Z" fill="#E24780"/>
<path d="M96.2053 34.0088C96.0977 34.0036 96.0157 33.8907 96.0209 33.7573C96.026 33.6238 96.1182 33.516 96.2258 33.5212C96.3335 33.5263 96.4154 33.6392 96.4103 33.7727C96.4052 33.9113 96.313 34.0139 96.2053 34.0088Z" fill="#E24780"/>
<path d="M91.8905 33.6855C91.7829 33.6906 91.6907 33.6187 91.6855 33.5263C91.6804 33.434 91.7624 33.3518 91.87 33.3416C91.9776 33.3364 92.0699 33.4083 92.075 33.5007C92.0801 33.5982 91.9981 33.6803 91.8905 33.6855Z" fill="#E24780"/>
<path d="M93.2587 36.1953C93.1563 36.2261 93.0435 36.1543 93.0128 36.0311C92.9769 35.913 93.0333 35.7899 93.1358 35.7591C93.2383 35.7283 93.351 35.8001 93.3817 35.9233C93.4176 36.0414 93.3612 36.1645 93.2587 36.1953Z" fill="#E24780"/>
<path d="M95.2574 36.072C95.16 36.0309 95.1088 35.9283 95.1446 35.8461C95.1805 35.764 95.2881 35.7281 95.3855 35.7743C95.4829 35.8153 95.5341 35.918 95.4982 36.0001C95.4624 36.0822 95.3547 36.1182 95.2574 36.072Z" fill="#E24780"/>
<path d="M108.894 94.9535C108.894 94.9535 108.827 94.9381 108.704 94.897C108.571 94.856 108.391 94.7944 108.151 94.7123C107.664 94.5583 106.941 94.3427 105.988 94.1579C104.097 93.7833 101.232 93.5164 97.84 94.2965C96.154 94.6815 94.3605 95.359 92.5925 96.3752C90.8143 97.371 89.0617 98.6798 87.2579 100.107C85.4541 101.528 83.6041 103.084 81.5184 104.485C79.4328 105.871 77.0755 107.061 74.4722 107.672C73.1706 107.97 71.8434 108.103 70.5469 108.006C69.2452 107.913 67.9846 107.569 66.847 107.025C65.7093 106.476 64.7152 105.717 63.7928 104.942C62.8703 104.161 62.0145 103.35 61.1434 102.606C59.4267 101.082 57.4691 100.05 55.5218 99.4651C53.5745 98.8748 51.6579 98.7003 49.931 98.7927C48.1989 98.88 46.6615 99.2341 45.3548 99.6704C45.0319 99.7936 44.7193 99.9065 44.4221 100.019C44.1249 100.137 43.8533 100.281 43.5868 100.404C43.0436 100.64 42.5927 100.938 42.1724 101.179C41.9572 101.297 41.7727 101.431 41.5985 101.559C41.4243 101.682 41.2603 101.8 41.1065 101.908C40.7939 102.114 40.5685 102.334 40.3737 102.504C40.1841 102.668 40.0355 102.791 39.933 102.883C39.8305 102.966 39.7793 103.007 39.7793 103.007C39.7793 103.007 39.8254 102.955 39.9228 102.868C40.0253 102.776 40.1688 102.642 40.3532 102.473C40.5428 102.303 40.7683 102.078 41.0809 101.862C41.2295 101.749 41.3935 101.631 41.5677 101.503C41.742 101.374 41.9265 101.236 42.1366 101.118C42.5568 100.871 43.0077 100.563 43.5509 100.322C43.8174 100.199 44.089 100.045 44.3914 99.927C44.6937 99.809 45.0063 99.6909 45.3291 99.5677C46.6359 99.1212 48.1886 98.7568 49.931 98.6593C51.6682 98.5617 53.6052 98.726 55.573 99.3162C57.5408 99.8962 59.5292 100.948 61.2664 102.478C62.1478 103.222 63.0036 104.033 63.9209 104.808C64.8382 105.578 65.8169 106.327 66.9392 106.861C68.0563 107.395 69.2914 107.729 70.5725 107.821C71.8485 107.919 73.1604 107.79 74.4415 107.492C77.014 106.892 79.3559 105.711 81.4313 104.336C83.5016 102.945 85.3567 101.395 87.1656 99.9732C88.9746 98.5515 90.7374 97.2427 92.531 96.2469C94.3143 95.2307 96.1233 94.5532 97.8246 94.1733C101.243 93.4035 104.123 93.696 106.014 94.0912C106.967 94.2863 107.689 94.5172 108.176 94.6815C108.412 94.7687 108.591 94.8355 108.724 94.8817C108.832 94.9278 108.894 94.9535 108.894 94.9535Z" fill="#FAFAFA"/>
<path d="M42.275 148.502C42.275 148.502 42.3365 148.517 42.4595 148.558C42.5876 148.599 42.7619 148.661 42.9925 148.733C43.4639 148.882 44.1608 149.087 45.0781 149.267C46.8973 149.626 49.6646 149.883 52.9289 149.133C54.5585 148.764 56.2803 148.107 57.9868 147.126C59.7035 146.167 61.3894 144.904 63.1266 143.534C64.8639 142.163 66.6523 140.664 68.656 139.309C70.6648 137.975 72.9401 136.825 75.4511 136.24C76.7015 135.953 77.9826 135.824 79.2381 135.922C80.4885 136.014 81.7081 136.343 82.8048 136.866C83.9014 137.395 84.8597 138.129 85.7462 138.873C86.6328 139.628 87.4578 140.408 88.3034 141.121C89.9586 142.589 91.8495 143.585 93.7251 144.15C95.6007 144.719 97.4506 144.883 99.1109 144.796C100.776 144.709 102.263 144.37 103.518 143.949C103.831 143.831 104.128 143.718 104.415 143.611C104.702 143.498 104.963 143.354 105.219 143.236C105.742 143.01 106.178 142.718 106.582 142.487C106.787 142.374 106.967 142.245 107.136 142.122C107.305 141.999 107.464 141.886 107.607 141.783C107.91 141.583 108.13 141.373 108.315 141.214C108.499 141.055 108.637 140.937 108.74 140.849C108.837 140.767 108.889 140.731 108.889 140.731C108.889 140.731 108.842 140.777 108.75 140.865C108.653 140.957 108.514 141.08 108.335 141.244C108.151 141.409 107.935 141.624 107.633 141.83C107.49 141.937 107.331 142.055 107.162 142.179C106.998 142.307 106.818 142.435 106.613 142.553C106.208 142.789 105.773 143.087 105.25 143.318C104.989 143.441 104.727 143.585 104.44 143.698C104.148 143.811 103.851 143.924 103.539 144.047C102.278 144.478 100.782 144.827 99.1007 144.925C97.425 145.022 95.5597 144.863 93.6636 144.293C91.7675 143.734 89.8458 142.723 88.1804 141.244C87.3348 140.526 86.5047 139.746 85.6232 139.002C84.7367 138.262 83.7938 137.539 82.7125 137.02C81.6364 136.507 80.4424 136.184 79.2125 136.096C77.9826 136.004 76.7169 136.127 75.4818 136.415C73.0016 136.995 70.7468 138.129 68.7482 139.458C66.7497 140.798 64.9663 142.297 63.224 143.662C61.4817 145.032 59.7803 146.295 58.0534 147.255C56.3367 148.235 54.5892 148.887 52.9494 149.256C49.6543 150.001 46.8768 149.718 45.0525 149.333C44.1352 149.144 43.4383 148.923 42.9668 148.764C42.7414 148.682 42.5671 148.615 42.439 148.569C42.3365 148.528 42.275 148.502 42.275 148.502Z" fill="#FAFAFA"/>
<path d="M106.419 69.7163C106.424 69.7214 106.383 69.7676 106.306 69.8497C106.208 69.9473 106.091 70.0653 105.942 70.2142C105.609 70.5221 105.158 71.02 104.492 71.5743C103.211 72.7343 101.222 74.2997 98.5473 75.9422C97.2149 76.7685 95.6827 77.5795 94.0019 78.3853C92.2954 79.15 90.4506 79.9251 88.4213 80.5564C84.3832 81.8549 79.6942 82.7275 74.6876 82.8609C69.6707 82.9533 64.8537 82.2963 60.6106 81.1826C58.4839 80.6436 56.5058 79.9559 54.6815 79.2732C52.8674 78.5495 51.2071 77.8104 49.7364 77.0457C46.7949 75.5264 44.5504 74.0534 43.0796 72.9601C42.3212 72.4366 41.7882 71.9644 41.4039 71.6718C41.2297 71.5281 41.0913 71.4152 40.9786 71.3228C40.8863 71.2407 40.8402 71.1996 40.8402 71.1945C40.8453 71.1894 40.8966 71.2253 40.9991 71.2971C41.1169 71.3844 41.2655 71.487 41.4449 71.6205C41.8446 71.8977 42.3878 72.3493 43.1565 72.8575C44.6528 73.9199 46.9025 75.3519 49.8491 76.8352C51.3198 77.5846 52.975 78.3032 54.784 79.0115C56.6032 79.6787 58.5659 80.3562 60.6823 80.8797C64.8998 81.9678 69.681 82.6094 74.6569 82.5222C79.6276 82.3887 84.2807 81.5316 88.2983 80.2587C90.3174 79.6428 92.157 78.878 93.8584 78.1338C95.5341 77.3485 97.0663 76.5529 98.4038 75.742C101.084 74.1304 103.083 72.6008 104.394 71.4768C105.071 70.9379 105.542 70.4605 105.891 70.168C106.05 70.0294 106.178 69.9165 106.28 69.8292C106.362 69.7471 106.413 69.7112 106.419 69.7163Z" fill="#FAFAFA"/>
<path d="M110.554 119.76C110.559 119.765 110.513 119.806 110.421 119.888C110.318 119.98 110.18 120.098 110.006 120.252C109.821 120.406 109.601 120.617 109.319 120.832C109.032 121.043 108.699 121.284 108.325 121.556C106.808 122.608 104.379 123.84 101.161 124.605C97.9425 125.364 93.9557 125.6 89.6203 125.067C85.2747 124.538 80.6422 123.198 75.8456 121.705C71.0491 120.206 66.4678 118.769 62.1734 118.056C57.8842 117.332 53.9281 117.306 50.6792 117.809C47.4302 118.317 44.9141 119.298 43.2999 120.17C42.9001 120.396 42.5466 120.596 42.234 120.771C41.9316 120.95 41.6856 121.13 41.4858 121.258C41.2911 121.387 41.1373 121.484 41.0246 121.561C40.9221 121.628 40.8657 121.659 40.8606 121.659C40.8606 121.653 40.9067 121.618 41.0092 121.541C41.1219 121.464 41.2706 121.356 41.4602 121.217C41.66 121.079 41.9009 120.894 42.1981 120.709C42.5056 120.529 42.8592 120.319 43.2537 120.083C44.8628 119.18 47.379 118.168 50.6484 117.635C53.9127 117.106 57.8945 117.116 62.2042 117.83C66.5241 118.533 71.1157 119.97 75.9122 121.469C80.7088 122.962 85.3208 124.302 89.6408 124.841C93.9505 125.385 97.9169 125.169 101.115 124.435C104.323 123.696 106.741 122.495 108.268 121.474C108.643 121.212 108.976 120.976 109.268 120.771C109.555 120.56 109.775 120.36 109.965 120.211C110.144 120.062 110.287 119.949 110.395 119.862C110.498 119.79 110.549 119.754 110.554 119.76Z" fill="#FAFAFA"/>
<path d="M98.0553 140.316C98.0553 140.321 98.0041 140.316 97.9016 140.311C97.7838 140.3 97.6351 140.285 97.4507 140.27C97.0561 140.218 96.4616 140.193 95.7135 140.059C94.2068 139.849 92.0392 139.407 89.441 138.591C86.8429 137.78 83.8348 136.528 80.6781 134.793C77.5214 133.063 74.2315 130.826 71.0184 128.193C67.8156 125.539 64.9818 122.767 62.5169 120.145C60.052 117.522 57.9407 115.063 56.1932 112.974C54.4509 110.885 53.0673 109.171 52.1192 107.985C51.6529 107.4 51.2891 106.938 51.0328 106.615C50.915 106.466 50.8279 106.348 50.7561 106.256C50.6946 106.174 50.6639 106.133 50.669 106.127C50.6741 106.122 50.71 106.163 50.7766 106.24C50.8535 106.328 50.9509 106.44 51.0738 106.584C51.3403 106.902 51.7195 107.354 52.1961 107.929C53.1698 109.099 54.5739 110.793 56.3316 112.867C58.0893 114.94 60.216 117.383 62.686 119.991C65.156 122.598 67.9898 125.359 71.1824 128.003C74.3852 130.631 77.6547 132.863 80.7909 134.598C83.9271 136.333 86.9147 137.601 89.4974 138.432C92.0802 139.269 94.2325 139.736 95.7288 139.972C96.4719 140.116 97.0612 140.162 97.4558 140.229C97.6454 140.254 97.7889 140.28 97.9067 140.295C98.0041 140.3 98.0605 140.311 98.0553 140.316Z" fill="#263238"/>
<path d="M80.1041 38.4536C80.1041 38.4536 77.6239 48.9293 88.5135 41.7436C88.5135 41.7436 83.307 43.2218 80.1041 38.4536Z" fill="#E24780"/>
<path d="M80.3501 37.9762C80.755 37.9249 81.1239 39.6802 83.722 40.7221C86.3151 41.7692 89.1848 41.3227 89.2565 41.569C89.318 41.6768 88.6775 41.9642 87.4527 42.0926C86.2536 42.2209 84.4395 42.1234 82.8509 41.4869C81.2674 40.8453 80.4424 39.8804 80.1964 39.167C79.9504 38.4433 80.1605 37.9865 80.3501 37.9762Z" fill="#263238"/>
<path d="M4.55865 46.0293C3.98983 44.5254 3.7336 42.9086 3.78997 41.2919C3.86172 39.6802 4.29217 38.0583 5.12235 36.6468C5.93202 35.2302 7.09528 34.0035 8.46353 33.1259C9.83177 32.2482 11.3384 31.6015 12.9014 31.2319L12.9167 31.2781C11.4562 31.9248 10.0265 32.6229 8.7505 33.5467C7.4745 34.445 6.30098 35.5228 5.47081 36.8573C4.63039 38.1815 4.16406 39.7316 4.04107 41.3073C3.91296 42.883 4.10257 44.4998 4.59964 46.0087L4.55865 46.0293Z" fill="#2D3940"/>
<path d="M35.321 39.5674C36.5253 40.0293 37.6373 40.7325 38.5802 41.6307C39.5078 42.5392 40.2662 43.6581 40.6608 44.9207C40.7889 45.2287 40.8248 45.5571 40.9119 45.8754C40.9477 46.0345 40.9939 46.1987 41.0144 46.3578L41.0502 46.8506C41.0605 47.1791 41.122 47.5127 41.0861 47.8412L40.9836 48.8215C40.958 49.15 40.8555 49.4631 40.7735 49.7813C40.6864 50.0944 40.6095 50.4126 40.5122 50.7257C40.2662 51.3313 39.9946 51.9216 39.7127 52.4964L39.6666 52.4759C39.8152 51.8446 39.9997 51.2338 40.1688 50.623C40.2149 50.31 40.2816 49.9969 40.3431 49.6889C40.3994 49.3809 40.4814 49.073 40.4814 48.7548L40.5583 47.8206C40.5942 47.5075 40.548 47.1996 40.548 46.8865L40.5378 46.4194C40.5275 46.2655 40.4865 46.1115 40.4609 45.9575C40.3943 45.6547 40.3789 45.3364 40.2713 45.0388C39.9485 43.8275 39.2618 42.7239 38.4009 41.8052C37.5348 40.8813 36.4741 40.132 35.3057 39.6084L35.321 39.5674Z" fill="#2D3940"/>
<path d="M37.8218 38.3101C38.9594 38.6231 40.0356 39.1621 40.9733 39.896C41.8958 40.6403 42.6952 41.5949 43.1615 42.7138C43.305 42.9807 43.3665 43.2784 43.4741 43.5659C43.5202 43.7096 43.5766 43.8533 43.6125 43.997L43.6893 44.4435C43.7252 44.7412 43.8123 45.0389 43.8123 45.3417L43.8021 46.2451C43.8072 46.5479 43.7354 46.8405 43.6893 47.1382C43.6381 47.4307 43.592 47.7284 43.5305 48.021C43.3562 48.5907 43.1564 49.1553 42.9411 49.6993L42.8899 49.684C42.9668 49.0937 43.0795 48.524 43.1769 47.9491C43.1922 47.6566 43.223 47.3691 43.2486 47.0817C43.2691 46.7943 43.3204 46.5069 43.2896 46.2246L43.2794 45.3674C43.2845 45.08 43.2179 44.8028 43.1871 44.5205L43.1359 44.0945C43.1103 43.9559 43.0641 43.8225 43.0283 43.6839C42.9411 43.4119 42.9002 43.1245 42.7772 42.8678C42.3826 41.7951 41.6651 40.8507 40.7991 40.0911C39.9331 39.3263 38.903 38.7309 37.7961 38.3563L37.8218 38.3101Z" fill="#2D3940"/>
<path d="M2.17569 44.2329C1.53512 43.4373 1.04317 42.5135 0.756198 41.5177C0.484599 40.522 0.402607 39.4442 0.638334 38.4176C0.674206 38.1559 0.781821 37.9146 0.848439 37.658C0.889435 37.5348 0.920182 37.4014 0.971428 37.2833L1.14054 36.9292C1.26352 36.6982 1.35577 36.4467 1.51463 36.2311L1.98096 35.5998C2.29868 35.1841 2.70864 34.8556 3.08273 34.4963C3.49781 34.1884 3.92827 33.8958 4.36385 33.6289L4.3946 33.67C4.05126 34.0549 3.68229 34.3988 3.3287 34.753C3.17497 34.9531 3.00586 35.1379 2.847 35.3278C2.68814 35.5177 2.50878 35.6922 2.38579 35.9078C2.09882 36.3133 1.81185 36.7085 1.59662 37.1499L1.41726 37.4681C1.36089 37.5759 1.33014 37.6939 1.28402 37.8069C1.20715 38.0378 1.08929 38.2585 1.04317 38.5049C0.776696 39.4544 0.79207 40.4758 1.0073 41.451C1.22253 42.4262 1.63761 43.3706 2.21668 44.197L2.17569 44.2329Z" fill="#2D3940"/>
</g>
<defs>
<clipPath id="clip0_2951_15458">
<rect width="128" height="161" fill="white" transform="translate(0.5)"/>
</clipPath>
</defs>
</svg>
