<svg width="1514" height="1226" viewBox="0 0 1514 1226" fill="none" xmlns="http://www.w3.org/2000/svg">
<path d="M3 3C96.8087 3 244.078 122.948 263.748 301.156C287.218 513.796 552.643 500.358 641.504 482.792C696.983 471.825 858.836 408.014 983.452 374.496C1081.8 348.043 1248.35 381.042 1291.1 447.15C1360.7 554.761 1335.49 784.376 1285.05 843.322C1125.13 1030.23 582.851 768.785 512.391 743.251C414.044 707.609 311.176 715.726 244.078 765.184C154.304 831.356 166.409 1062.66 220.878 1129.83C340.83 1277.75 746.409 1205.22 746.409 1205.22M1511 1072.88C1469.98 1038.15 1362.52 979.111 1260.84 1020.78C1133.75 1072.88 746.169 1205.8 746.169 1205.05" stroke="#C3F0FE" stroke-width="5" stroke-linecap="round" stroke-dasharray="0.5 12"/>
</svg>
