<svg width="44" height="43" viewBox="0 0 44 43" fill="none" xmlns="http://www.w3.org/2000/svg">
<path d="M22.3979 0C22.0495 0.0240306 21.7251 0.168205 21.4607 0.396482L18.5091 3.07106C18.0315 3.50387 17.3746 3.67995 16.7445 3.54406L12.8463 2.70327C12.0774 2.54708 11.2965 2.99162 11.0562 3.73652L9.83261 7.54099C9.63531 8.15448 9.15448 8.63531 8.54098 8.83262L4.73652 10.0562C3.99162 10.2965 3.54708 11.0654 3.70327 11.8343L4.5447 15.745C4.6802 16.3748 4.50405 17.0313 4.07149 17.5087L1.39648 20.4607C0.86784 21.0495 0.86784 21.9505 1.39648 22.5272L4.07407 25.4917C4.50511 25.9689 4.68039 26.6243 4.54512 27.253L3.70327 31.1657C3.54708 31.9346 3.99162 32.7035 4.73652 32.9438L8.54187 34.1677C9.15487 34.3648 9.63545 34.845 9.83305 35.4579L11.0562 39.2515C11.2965 40.0084 12.0654 40.4529 12.8343 40.2967L16.745 39.4553C17.3748 39.3198 18.0313 39.4959 18.5087 39.9285L21.4607 42.6035C22.0495 43.1322 22.9505 43.1322 23.5272 42.6035L26.4917 39.9259C26.9689 39.4949 27.6243 39.3196 28.253 39.4549L32.1657 40.2967C32.9346 40.4529 33.7035 40.0084 33.9438 39.2515L35.1672 35.457C35.3647 34.8447 35.8447 34.3647 36.457 34.1672L40.2515 32.9438C41.0084 32.7035 41.4529 31.9346 41.2967 31.1657L40.4549 27.253C40.3196 26.6243 40.4949 25.9689 40.9259 25.4917L43.6035 22.5272C44.1322 21.9505 44.1322 21.0495 43.6035 20.4607L40.9285 17.5087C40.4959 17.0313 40.3198 16.3748 40.4553 15.745L41.2967 11.8343C41.4529 11.0654 41.0084 10.2965 40.2515 10.0562L36.4579 8.83305C35.845 8.63545 35.3648 8.15487 35.1677 7.54187L33.9438 3.73652C33.7035 2.99162 32.9346 2.54708 32.1657 2.70327L28.253 3.54512C27.6243 3.68039 26.9689 3.50511 26.4917 3.07408L23.5272 0.396482C23.2629 0.156191 22.9145 0.0120168 22.5541 0C22.506 0 22.4459 0 22.3979 0Z" fill="#5CCC85"/>
<path d="M8.21202 25.3224L8.69165 27.5529L7.14744 27.885L6.67065 25.6677L4.55892 26.1217L4.23823 24.6303L6.34996 24.1762L5.86465 21.9193L7.40886 21.5873L7.89416 23.8442L10.0059 23.3901L10.3238 24.8683L8.21202 25.3224ZM14.4358 27.8367L13.0026 21.1715L11.461 22.4144C11.3018 22.2737 11.1399 22.1198 10.9751 21.9527C10.819 21.7838 10.7231 21.6157 10.6871 21.4485C10.6644 21.3429 10.6725 21.2307 10.7114 21.1119C10.7591 20.9912 10.8492 20.8751 10.9818 20.7638L12.6459 19.3841C12.803 19.2583 12.9541 19.1475 13.0992 19.0519C13.2512 18.9455 13.4152 18.8734 13.5912 18.8356C13.7672 18.7978 13.9225 18.792 14.057 18.8183C14.1896 18.8358 14.2959 18.859 14.3757 18.8878L16.2176 27.4536L14.4358 27.8367ZM23.4141 21.3907C23.7243 22.8337 23.6997 24.0035 23.3402 24.9002C22.9806 25.7968 22.2465 26.3643 21.1379 26.6027C20.0204 26.843 19.1129 26.6469 18.4154 26.0144C17.7247 25.3712 17.2176 24.2973 16.8941 22.7927C16.7446 22.0976 16.6763 21.4587 16.6891 20.876C16.7088 20.2826 16.8124 19.7586 17 19.304C17.1965 18.8475 17.4787 18.4692 17.8469 18.1691C18.2238 17.8671 18.6895 17.6565 19.2438 17.5373C19.8157 17.4143 20.3268 17.4149 20.7769 17.539C21.2252 17.6544 21.6185 17.8782 21.9569 18.2105C22.2953 18.5427 22.5823 18.9782 22.8178 19.5167C23.062 20.0533 23.2608 20.678 23.4141 21.3907ZM21.6323 21.7738C21.5074 21.1931 21.3672 20.7123 21.2117 20.3315C21.0631 19.94 20.9016 19.6387 20.7273 19.4277C20.5512 19.2078 20.3594 19.0649 20.1519 18.9991C19.9513 18.9225 19.7366 18.9088 19.5079 18.958C19.2791 19.0072 19.0846 19.1089 18.9244 19.263C18.7624 19.4083 18.6418 19.6183 18.5628 19.8931C18.4907 20.1571 18.463 20.4991 18.4796 20.919C18.5032 21.3282 18.5774 21.8232 18.7023 22.4039C18.8252 22.9758 18.9601 23.4531 19.1068 23.8358C19.2624 24.2166 19.4282 24.517 19.6044 24.7369C19.7874 24.9461 19.9837 25.088 20.193 25.1626C20.4005 25.2285 20.6186 25.2368 20.8474 25.1876C21.0762 25.1384 21.2672 25.0421 21.4205 24.8987C21.5825 24.7534 21.6996 24.5487 21.7717 24.2846C21.8419 24.0118 21.8653 23.6708 21.8417 23.2616C21.827 22.8505 21.7572 22.3546 21.6323 21.7738ZM29.8755 20.0013C30.1858 21.4443 30.1612 22.6141 29.8017 23.5108C29.4421 24.4074 28.708 24.9749 27.5994 25.2133C26.4819 25.4536 25.5744 25.2575 24.8768 24.625C24.1862 23.9818 23.6791 22.9079 23.3556 21.4033C23.2061 20.7082 23.1378 20.0693 23.1505 19.4865C23.1702 18.8931 23.2739 18.3691 23.4615 17.9145C23.6579 17.4581 23.9402 17.0798 24.3084 16.7797C24.6853 16.4777 25.1509 16.2671 25.7053 16.1479C26.2772 16.0249 26.7882 16.0255 27.2384 16.1496C27.6867 16.265 28.08 16.4888 28.4184 16.8211C28.7568 17.1533 29.0438 17.5887 29.2793 18.1273C29.5235 18.6639 29.7223 19.2886 29.8755 20.0013ZM28.0938 20.3844C27.9689 19.8037 27.8287 19.3229 27.6732 18.9421C27.5245 18.5506 27.3631 18.2493 27.1888 18.0382C27.0127 17.8184 26.8208 17.6755 26.6134 17.6096C26.4128 17.5331 26.1981 17.5194 25.9693 17.5686C25.7406 17.6178 25.5461 17.7195 25.3859 17.8736C25.2238 18.0189 25.1033 18.2289 25.0243 18.5037C24.9522 18.7677 24.9245 19.1097 24.9411 19.5296C24.9647 19.9388 25.0389 20.4337 25.1637 21.0145C25.2867 21.5864 25.4216 22.0637 25.5683 22.4464C25.7238 22.8272 25.8897 23.1276 26.0659 23.3475C26.2489 23.5567 26.4451 23.6986 26.6545 23.7732C26.862 23.8391 27.0801 23.8474 27.3089 23.7982C27.5377 23.749 27.7287 23.6527 27.882 23.5093C28.044 23.364 28.1611 23.1593 28.2332 22.8952C28.3034 22.6224 28.3268 22.2813 28.3032 21.8721C28.2885 21.4611 28.2186 20.9652 28.0938 20.3844ZM33.722 16.661C33.8828 17.4089 33.8131 18.0269 33.513 18.5149C33.2129 19.0029 32.7461 19.315 32.1126 19.4512C31.4439 19.595 30.8768 19.5052 30.4114 19.1818C29.9548 18.8565 29.6461 18.3199 29.4853 17.572C29.3245 16.8241 29.3995 16.2096 29.7103 15.7286C30.0211 15.2475 30.4845 14.9407 31.1004 14.8083C31.7603 14.6664 32.322 14.7527 32.7855 15.0673C33.249 15.3819 33.5612 15.9131 33.722 16.661ZM32.3993 16.9316C32.3142 16.5357 32.1898 16.2356 32.0262 16.0315C31.8608 15.8185 31.624 15.7451 31.3161 15.8113C31.0169 15.8757 30.8357 16.0389 30.7724 16.3011C30.7179 16.5613 30.7332 16.8895 30.8183 17.2854C30.9054 17.6902 31.0326 18.0034 31.1999 18.2252C31.3654 18.4382 31.5933 18.5134 31.8837 18.451C32.1916 18.3848 32.3773 18.2206 32.4406 17.9584C32.5039 17.6962 32.4901 17.354 32.3993 16.9316ZM40.3745 20.0497C40.5353 20.7976 40.4657 21.4156 40.1656 21.9036C39.8655 22.3916 39.3986 22.7037 38.7651 22.8399C38.1052 22.9818 37.5426 22.8911 37.0772 22.5677C36.6118 22.2443 36.2987 21.7086 36.1379 20.9607C36.0584 20.5912 36.0402 20.2499 36.0834 19.9368C36.1265 19.6237 36.2197 19.3506 36.3628 19.1173C36.5148 18.8821 36.7079 18.6886 36.9423 18.537C37.1748 18.3765 37.445 18.2632 37.7529 18.197C38.4129 18.0551 38.9746 18.1414 39.4381 18.456C39.9015 18.7706 40.2137 19.3018 40.3745 20.0497ZM39.0519 20.3203C38.9667 19.9244 38.8424 19.6243 38.6788 19.4202C38.5133 19.2072 38.2766 19.1338 37.9686 19.2C37.6783 19.2625 37.5014 19.4248 37.4381 19.6869C37.3748 19.9491 37.3858 20.2782 37.4709 20.6741C37.5579 21.0789 37.6851 21.3921 37.8525 21.6139C38.018 21.8269 38.2459 21.9021 38.5362 21.8397C38.853 21.7716 39.0386 21.6074 39.0931 21.3471C39.1564 21.0849 39.1427 20.7427 39.0519 20.3203ZM33.9391 23.6429L32.4741 23.9579L35.6836 14.6098C35.7683 14.3615 35.8624 14.1571 35.966 13.9967C36.0677 13.8276 36.2594 13.7127 36.5409 13.6522C36.6289 13.6333 36.7223 13.6178 36.8209 13.6058C36.9284 13.5919 37.0192 13.5862 37.0934 13.5886L37.3555 13.5875L33.9391 23.6429Z" fill="white"/>
</svg>
