<svg width="23" height="23" viewBox="0 0 23 23" fill="none" xmlns="http://www.w3.org/2000/svg">
<path fill-rule="evenodd" clip-rule="evenodd" d="M2.4733 13.1627C2.30569 13.1627 2.14557 13.0643 2.07147 12.8982C2.05515 12.8616 0.490176 9.21895 4.08635 6.44341C4.2822 6.2931 4.55832 6.33372 4.70476 6.53233C4.8512 6.73094 4.81238 7.01395 4.61786 7.16426C1.5801 9.50874 2.86102 12.4942 2.87425 12.524C2.97526 12.751 2.87734 13.0187 2.65547 13.1221C2.59636 13.1496 2.53461 13.1627 2.4733 13.1627" fill="#009BD0"/>
<path fill-rule="evenodd" clip-rule="evenodd" d="M21.4034 5.48088L21.2764 4.93696L18.958 3.15039L18.1169 3.27633C21.485 5.09585 20.5821 8.65635 20.2301 9.60606C18.1645 14.6281 12.6408 19.7188 12.3391 20.0181C12.332 20.0253 12.3223 20.0285 12.3144 20.0348C12.3065 20.0402 12.299 20.0452 12.291 20.0501C12.2579 20.0686 12.2227 20.0813 12.186 20.0813C12.1561 20.0813 12.1265 20.075 12.0987 20.0628C12.0978 20.0623 12.0974 20.0623 12.0965 20.0619C12.0965 20.0619 3.84466 17.2953 1.36399 13.3877C1.19638 13.1237 1.09272 12.9147 1.03627 12.7468C1.02039 12.7296 1.00318 12.712 0.987305 12.6944C0.990392 12.7323 0.995244 12.7689 0.996568 12.8077C1.01686 13.4135 1.38693 14.0197 1.78788 14.5478C1.9277 14.6791 2.05738 14.8249 2.1725 14.9856C2.21 15.038 2.24749 15.0903 2.28454 15.1423C2.66343 15.2885 2.99998 15.5598 3.24964 15.966C3.68102 16.0929 4.07535 16.3948 4.35985 16.9153C4.41455 16.9834 4.47012 17.0512 4.52261 17.1216C4.74977 17.2299 4.97517 17.3825 5.19218 17.5942C6.4259 18.798 8.18627 19.6105 9.68156 20.4329C10.9872 21.1511 12.4123 22.1224 13.8798 22.5169C13.8922 22.4984 13.9019 22.4781 13.9147 22.4601C14.4021 21.7735 14.9203 21.198 15.5599 20.664C15.6151 20.6184 15.6702 20.5728 15.7253 20.5268C15.8109 20.3002 15.9357 20.0759 16.106 19.8615C18.0031 17.4709 20.0158 15.0073 21.4114 12.2606C22.6813 9.75907 22.7779 7.60327 21.4034 5.48088" fill="#009BD0"/>
<path fill-rule="evenodd" clip-rule="evenodd" d="M22.0619 3.88792C22.0016 3.89462 21.9386 3.87497 21.8926 3.82762C20.749 2.65504 19.4233 2.02609 17.9518 1.95775C17.8393 1.95239 17.7526 1.85679 17.7575 1.74378C17.7633 1.63166 17.8571 1.54634 17.9715 1.54991C19.5483 1.62317 20.9661 2.29366 22.1847 3.54263C22.2633 3.62303 22.262 3.75213 22.1816 3.83119C22.1472 3.86425 22.1061 3.88301 22.0619 3.88792" fill="#333333"/>
<mask id="mask0_11164_19785" style="mask-type:alpha" maskUnits="userSpaceOnUse" x="18" y="0" width="5" height="3">
<path fill-rule="evenodd" clip-rule="evenodd" d="M18.29 0.276367H22.7757V2.61596H18.29V0.276367Z" fill="white"/>
</mask>
<g mask="url(#mask0_11164_19785)">
<path fill-rule="evenodd" clip-rule="evenodd" d="M22.5946 2.61457C22.5343 2.62172 22.4713 2.60162 22.4253 2.55472C21.2818 1.38169 19.9555 0.752745 18.4846 0.6844C18.372 0.67904 18.2853 0.583893 18.2902 0.470879C18.296 0.358312 18.3899 0.271653 18.5042 0.276566C20.081 0.349824 21.4989 1.02032 22.7174 2.26928C22.7965 2.34968 22.7947 2.47878 22.7143 2.55829C22.6804 2.5909 22.6388 2.60966 22.5946 2.61457" fill="#333333"/>
</g>
<mask id="mask1_11164_19785" style="mask-type:alpha" maskUnits="userSpaceOnUse" x="0" y="4" width="14" height="19">
<path fill-rule="evenodd" clip-rule="evenodd" d="M0.276367 4.30273H13.9208V22.6673H0.276367V4.30273Z" fill="white"/>
</mask>
<g mask="url(#mask1_11164_19785)">
<path fill-rule="evenodd" clip-rule="evenodd" d="M13.6976 22.6673C13.6676 22.6673 13.6368 22.6611 13.6073 22.6481C13.1736 22.457 2.9581 17.9069 0.803681 13.1317C-0.0584427 11.2208 0.145698 9.00514 1.3491 7.2045C2.61057 5.319 4.70379 4.23174 6.96452 4.30634C7.30847 4.31706 7.6569 4.36039 7.99996 4.43409C9.69115 4.79815 11.1916 5.87782 12.0131 7.32288C12.0738 7.43009 12.0363 7.56633 11.9291 7.62753C11.8219 7.68828 11.6852 7.65075 11.6245 7.54355C10.8651 6.20748 9.47495 5.20822 7.90571 4.87096C7.589 4.80262 7.26738 4.76286 6.95067 4.75259C4.85254 4.69005 2.89511 5.69512 1.72075 7.45287C0.603561 9.12441 0.412822 11.1788 1.21107 12.9481C3.29535 17.5674 13.6833 22.1934 13.7878 22.2399C13.9004 22.2894 13.9517 22.4212 13.9017 22.5342C13.8651 22.6178 13.7829 22.6673 13.6976 22.6673" fill="#333333"/>
<path d="M13.6976 22.6673C13.6676 22.6673 13.6368 22.6611 13.6073 22.6481C13.1736 22.457 2.9581 17.9069 0.803681 13.1317C-0.0584427 11.2208 0.145698 9.00514 1.3491 7.2045C2.61057 5.319 4.70379 4.23174 6.96452 4.30634C7.30847 4.31706 7.6569 4.36039 7.99996 4.43409C9.69115 4.79815 11.1916 5.87782 12.0131 7.32288C12.0738 7.43009 12.0363 7.56633 11.9291 7.62753C11.8219 7.68828 11.6852 7.65075 11.6245 7.54355C10.8651 6.20748 9.47495 5.20822 7.90571 4.87096C7.589 4.80262 7.26738 4.76286 6.95067 4.75259C4.85254 4.69005 2.89511 5.69512 1.72075 7.45287C0.603561 9.12441 0.412822 11.1788 1.21107 12.9481C3.29535 17.5674 13.6833 22.1934 13.7878 22.2399C13.9004 22.2894 13.9517 22.4212 13.9017 22.5342C13.8651 22.6178 13.7829 22.6673 13.6976 22.6673" stroke="#444444" stroke-width="0.0986229"/>
</g>
<path fill-rule="evenodd" clip-rule="evenodd" d="M13.6975 22.6662C13.639 22.6662 13.5809 22.6434 13.5371 22.5983C13.4514 22.5094 13.4536 22.3682 13.542 22.2825C13.6349 22.1922 22.8391 13.2038 22.2598 8.07929C21.9524 5.35802 19.6908 3.31215 17.1102 3.40864C14.598 3.5078 12.6335 5.00111 12.1059 7.2127L12.0215 7.44945C11.979 7.56515 11.8522 7.6259 11.7351 7.58301C11.6195 7.54102 11.5596 7.41282 11.602 7.29668L11.6789 7.0845C12.2466 4.69735 14.3747 3.06959 17.0928 2.96239C19.8932 2.86009 22.3705 5.0766 22.7038 8.02926C23.3077 13.3709 14.2393 22.2288 13.8529 22.6032C13.8096 22.6452 13.7533 22.6662 13.6975 22.6662" fill="#333333"/>
<path d="M13.6975 22.6662C13.639 22.6662 13.5809 22.6434 13.5371 22.5983C13.4514 22.5094 13.4536 22.3682 13.542 22.2825C13.6349 22.1922 22.8391 13.2038 22.2598 8.07929C21.9524 5.35802 19.6908 3.31215 17.1102 3.40864C14.598 3.5078 12.6335 5.00111 12.1059 7.2127L12.0215 7.44945C11.979 7.56515 11.8522 7.6259 11.7351 7.58301C11.6195 7.54102 11.5596 7.41282 11.602 7.29668L11.6789 7.0845C12.2466 4.69735 14.3747 3.06959 17.0928 2.96239C19.8932 2.86009 22.3705 5.0766 22.7038 8.02926C23.3077 13.3709 14.2393 22.2288 13.8529 22.6032C13.8096 22.6452 13.7533 22.6662 13.6975 22.6662" stroke="#444444" stroke-width="0.0986229"/>
</svg>
