<svg width="160" height="62" viewBox="0 0 160 62" fill="none" xmlns="http://www.w3.org/2000/svg">
<path d="M32 0.00384787H160V61.9997H32C32 61.9997 0 62.0231 0 30.4997C0 -1.0236 32 0.00384787 32 0.00384787Z" fill="#00AF3F"/>
<path d="M23.326 40.1392L23.4711 39.599L23.188 39.1167C21.6847 36.5555 20.8053 33.574 20.8053 30.376C20.8053 20.9411 28.2926 13.3385 37.4697 13.3385C46.6469 13.3385 54.1341 20.9411 54.1341 30.376C54.1341 39.8108 46.6469 47.4134 37.4697 47.4134C34.486 47.4134 31.6903 46.6011 29.2631 45.1925L28.7832 44.914L28.2471 45.0576L21.5211 46.8598L23.326 40.1392Z" stroke="white" stroke-width="2.6712"/>
<path d="M31.283 21.235C31.0165 21.2388 30.7092 21.2629 30.4099 21.2844C30.103 21.3065 29.6191 21.4653 29.2333 21.9989C28.8553 22.5319 27.7601 23.8285 27.9308 26.303C28.1009 28.7691 29.8953 31.0426 30.1466 31.3556C30.3986 31.677 33.6858 36.6984 38.465 38.3767C42.427 39.7674 43.1904 39.3803 44.0269 39.2336C44.8562 39.0942 46.6394 37.8285 46.9377 36.6308C47.2359 35.4313 47.1665 34.4262 47.0337 34.2235C46.9046 34.0274 46.5962 33.9244 46.1215 33.7055C45.6469 33.4867 43.3208 32.432 42.8889 32.2967C42.4632 32.1609 42.1517 32.0958 41.8872 32.6206C41.615 33.146 40.8238 34.3387 40.5749 34.6876C40.3343 35.0444 40.0722 35.1026 39.5975 34.8838C39.1229 34.665 37.6171 34.2442 35.7573 32.6566C34.3108 31.4263 33.2807 29.8476 32.9822 29.3649C32.6836 28.8822 32.9007 28.5892 33.112 28.3211C33.304 28.0867 33.5297 27.7078 33.7383 27.4009C33.9386 27.086 34.0027 26.876 34.1298 26.5273C34.2652 26.1866 34.1643 25.8959 34.0334 25.6524C33.9024 25.4088 32.8458 22.9893 32.3709 22.0287C31.9712 21.2206 31.612 21.2198 31.283 21.235Z" fill="white"/>
<path d="M70.904 28.536C70.4347 28.536 69.9973 28.4773 69.592 28.36C69.1867 28.2533 68.8293 28.0827 68.52 27.848C68.2213 27.624 67.9813 27.3413 67.8 27C67.6293 26.6587 67.544 26.2587 67.544 25.8C67.544 25.4587 67.5867 25.16 67.672 24.904C67.7573 24.6373 67.8693 24.3973 68.008 24.184C68.1467 23.9707 68.3013 23.7787 68.472 23.608C68.6533 23.4267 68.8347 23.256 69.016 23.096C69.3573 22.8187 69.6507 22.5413 69.896 22.264C70.152 21.976 70.28 21.6293 70.28 21.224C70.28 21.0213 70.2587 20.8347 70.216 20.664C70.28 20.6427 70.36 20.632 70.456 20.632C70.552 20.6213 70.6427 20.616 70.728 20.616C71.1227 20.616 71.4427 20.7173 71.688 20.92C71.944 21.1227 72.072 21.432 72.072 21.848C72.072 22.2213 71.9707 22.5467 71.768 22.824C71.576 23.1013 71.352 23.3627 71.096 23.608C70.936 23.7573 70.776 23.9067 70.616 24.056C70.4667 24.1947 70.328 24.344 70.2 24.504C70.0827 24.6533 69.9867 24.8133 69.912 24.984C69.8373 25.1547 69.8 25.3413 69.8 25.544C69.8 26.024 69.944 26.36 70.232 26.552C70.52 26.7547 70.8667 26.856 71.272 26.856C71.6987 26.856 72.088 26.76 72.44 26.568C72.792 26.3867 73.0907 26.2 73.336 26.008C73.496 26.168 73.6453 26.3387 73.784 26.52C73.9333 26.7013 74.008 26.8933 74.008 27.096C74.008 27.2453 73.9493 27.384 73.832 27.512C73.7147 27.6507 73.5653 27.7787 73.384 27.896C73.096 28.0773 72.7387 28.2267 72.312 28.344C71.8853 28.472 71.416 28.536 70.904 28.536ZM69.88 18.584C69.88 18.2427 69.9867 17.96 70.2 17.736C70.4133 17.512 70.7013 17.4 71.064 17.4C71.4267 17.4 71.7147 17.512 71.928 17.736C72.152 17.96 72.264 18.2427 72.264 18.584C72.264 18.9253 72.152 19.208 71.928 19.432C71.7147 19.6453 71.4267 19.752 71.064 19.752C70.7227 19.752 70.44 19.6453 70.216 19.432C69.992 19.208 69.88 18.9253 69.88 18.584ZM83.6766 25H81.8206L77.2606 17.96V25H75.1646V14.312C75.2713 14.2907 75.4153 14.2693 75.5966 14.248C75.778 14.2267 75.9593 14.216 76.1406 14.216C76.482 14.216 76.7486 14.2747 76.9406 14.392C77.1326 14.5093 77.3033 14.6907 77.4526 14.936L81.5806 21.672V14.296C81.73 14.2747 81.8686 14.2587 81.9966 14.248C82.1246 14.2267 82.226 14.216 82.3006 14.216C82.4606 14.216 82.6206 14.232 82.7806 14.264C82.9406 14.296 83.0846 14.36 83.2126 14.456C83.3513 14.5413 83.4633 14.664 83.5486 14.824C83.634 14.984 83.6766 15.1973 83.6766 15.464V25ZM89.6631 23.64C89.9298 23.64 90.1645 23.6133 90.3671 23.56C90.5698 23.496 90.7511 23.4213 90.9111 23.336C91.0711 23.2507 91.2098 23.16 91.3271 23.064C91.4445 22.9573 91.5511 22.8613 91.6471 22.776C91.7751 22.936 91.9085 23.144 92.0471 23.4C92.1858 23.6453 92.2551 23.848 92.2551 24.008C92.2551 24.2427 92.1218 24.456 91.8551 24.648C91.6311 24.8187 91.3111 24.9627 90.8951 25.08C90.4898 25.208 90.0098 25.272 89.4551 25.272C88.9538 25.272 88.4578 25.208 87.9671 25.08C87.4871 24.952 87.0551 24.728 86.6711 24.408C86.2978 24.088 85.9938 23.6613 85.7591 23.128C85.5245 22.584 85.4071 21.9013 85.4071 21.08C85.4071 20.408 85.5085 19.832 85.7111 19.352C85.9245 18.8613 86.2018 18.456 86.5431 18.136C86.8951 17.816 87.2898 17.5813 87.7271 17.432C88.1645 17.2827 88.6125 17.208 89.0711 17.208C89.6685 17.208 90.1751 17.304 90.5911 17.496C91.0071 17.6773 91.3431 17.928 91.5991 18.248C91.8658 18.5573 92.0578 18.9147 92.1751 19.32C92.2925 19.7253 92.3511 20.152 92.3511 20.6C92.3511 20.664 92.3511 20.7387 92.3511 20.824C92.3511 20.9093 92.3458 21 92.3351 21.096C92.3351 21.192 92.3298 21.288 92.3191 21.384C92.3191 21.4693 92.3138 21.5387 92.3031 21.592H87.5991C87.6418 22.1787 87.8231 22.6693 88.1431 23.064C88.4631 23.448 88.9698 23.64 89.6631 23.64ZM90.3831 20.392C90.3831 19.88 90.2818 19.464 90.0791 19.144C89.8871 18.824 89.5351 18.664 89.0231 18.664C88.5751 18.664 88.2231 18.8187 87.9671 19.128C87.7111 19.4267 87.5831 19.848 87.5831 20.392H90.3831ZM97.7699 23.624C98.0045 23.624 98.2179 23.5973 98.4099 23.544C98.6019 23.4907 98.7725 23.4267 98.9219 23.352C99.0712 23.2667 99.1992 23.1813 99.3059 23.096C99.4125 23 99.4925 22.92 99.5459 22.856C99.6099 22.92 99.6739 23.0053 99.7379 23.112C99.8019 23.208 99.8605 23.3147 99.9139 23.432C99.9672 23.5387 100.01 23.6453 100.042 23.752C100.074 23.8587 100.09 23.9547 100.09 24.04C100.09 24.1467 100.069 24.2533 100.026 24.36C99.9832 24.456 99.8925 24.5573 99.7539 24.664C99.5512 24.8133 99.2632 24.952 98.8899 25.08C98.5165 25.208 98.0419 25.272 97.4659 25.272C97.0819 25.272 96.6659 25.2187 96.2179 25.112C95.7699 25.0053 95.3539 24.8027 94.9699 24.504C94.5859 24.2053 94.2659 23.7947 94.0099 23.272C93.7539 22.7387 93.6259 22.0453 93.6259 21.192C93.6259 20.3813 93.7592 19.72 94.0259 19.208C94.2925 18.696 94.6232 18.2907 95.0179 17.992C95.4125 17.6933 95.8285 17.4907 96.2659 17.384C96.7139 17.2667 97.1139 17.208 97.4659 17.208C97.9139 17.208 98.3192 17.256 98.6819 17.352C99.0552 17.448 99.3645 17.576 99.6099 17.736C99.8125 17.864 99.9512 17.9867 100.026 18.104C100.111 18.2213 100.154 18.36 100.154 18.52C100.154 18.6693 100.106 18.856 100.01 19.08C99.9139 19.2933 99.7912 19.4907 99.6419 19.672C99.4712 19.4907 99.2205 19.3093 98.8899 19.128C98.5592 18.9467 98.1912 18.856 97.7859 18.856C97.0819 18.856 96.5805 19.0747 96.2819 19.512C95.9832 19.9387 95.8339 20.488 95.8339 21.16C95.8339 21.5013 95.8659 21.8213 95.9299 22.12C95.9939 22.4187 96.1005 22.68 96.2499 22.904C96.4099 23.128 96.6125 23.304 96.8579 23.432C97.1032 23.56 97.4072 23.624 97.7699 23.624ZM105.194 23.64C105.461 23.64 105.696 23.6133 105.898 23.56C106.101 23.496 106.282 23.4213 106.442 23.336C106.602 23.2507 106.741 23.16 106.858 23.064C106.976 22.9573 107.082 22.8613 107.178 22.776C107.306 22.936 107.44 23.144 107.578 23.4C107.717 23.6453 107.786 23.848 107.786 24.008C107.786 24.2427 107.653 24.456 107.386 24.648C107.162 24.8187 106.842 24.9627 106.426 25.08C106.021 25.208 105.541 25.272 104.986 25.272C104.485 25.272 103.989 25.208 103.498 25.08C103.018 24.952 102.586 24.728 102.202 24.408C101.829 24.088 101.525 23.6613 101.29 23.128C101.056 22.584 100.938 21.9013 100.938 21.08C100.938 20.408 101.04 19.832 101.242 19.352C101.456 18.8613 101.733 18.456 102.074 18.136C102.426 17.816 102.821 17.5813 103.258 17.432C103.696 17.2827 104.144 17.208 104.602 17.208C105.2 17.208 105.706 17.304 106.122 17.496C106.538 17.6773 106.874 17.928 107.13 18.248C107.397 18.5573 107.589 18.9147 107.706 19.32C107.824 19.7253 107.882 20.152 107.882 20.6C107.882 20.664 107.882 20.7387 107.882 20.824C107.882 20.9093 107.877 21 107.866 21.096C107.866 21.192 107.861 21.288 107.85 21.384C107.85 21.4693 107.845 21.5387 107.834 21.592H103.13C103.173 22.1787 103.354 22.6693 103.674 23.064C103.994 23.448 104.501 23.64 105.194 23.64ZM105.914 20.392C105.914 19.88 105.813 19.464 105.61 19.144C105.418 18.824 105.066 18.664 104.554 18.664C104.106 18.664 103.754 18.8187 103.498 19.128C103.242 19.4267 103.114 19.848 103.114 20.392H105.914ZM114.741 18.312C114.741 18.472 114.688 18.664 114.581 18.888C114.485 19.1013 114.378 19.304 114.261 19.496C114.165 19.4213 114.037 19.336 113.877 19.24C113.717 19.144 113.541 19.0587 113.349 18.984C113.157 18.8987 112.954 18.8293 112.741 18.776C112.528 18.7227 112.32 18.696 112.117 18.696C112 18.696 111.877 18.7067 111.749 18.728C111.621 18.7387 111.504 18.7707 111.397 18.824C111.301 18.8667 111.216 18.936 111.141 19.032C111.077 19.1173 111.045 19.2347 111.045 19.384C111.045 19.7467 111.434 20.0133 112.213 20.184C112.533 20.248 112.848 20.3333 113.157 20.44C113.477 20.536 113.76 20.6747 114.005 20.856C114.261 21.0373 114.464 21.2667 114.613 21.544C114.773 21.8213 114.853 22.168 114.853 22.584C114.853 23.0107 114.768 23.3893 114.597 23.72C114.437 24.0507 114.213 24.328 113.925 24.552C113.637 24.776 113.296 24.9467 112.901 25.064C112.517 25.1813 112.096 25.24 111.637 25.24C111.157 25.24 110.757 25.2027 110.437 25.128C110.117 25.064 109.85 24.984 109.637 24.888C109.488 24.824 109.322 24.7333 109.141 24.616C108.97 24.488 108.885 24.3173 108.885 24.104C108.885 23.9227 108.938 23.736 109.045 23.544C109.152 23.3413 109.274 23.1333 109.413 22.92C109.509 23.0053 109.626 23.096 109.765 23.192C109.914 23.2773 110.08 23.3627 110.261 23.448C110.453 23.5227 110.656 23.5867 110.869 23.64C111.082 23.6933 111.301 23.72 111.525 23.72C111.664 23.72 111.808 23.7093 111.957 23.688C112.106 23.6667 112.234 23.624 112.341 23.56C112.458 23.496 112.554 23.4107 112.629 23.304C112.704 23.1973 112.741 23.0587 112.741 22.888C112.741 22.5787 112.618 22.36 112.373 22.232C112.138 22.0933 111.781 21.976 111.301 21.88C110.992 21.816 110.693 21.7307 110.405 21.624C110.117 21.5173 109.861 21.3787 109.637 21.208C109.413 21.0267 109.232 20.8027 109.093 20.536C108.965 20.2693 108.901 19.944 108.901 19.56C108.901 19.176 108.986 18.84 109.157 18.552C109.328 18.264 109.552 18.0187 109.829 17.816C110.117 17.6133 110.448 17.464 110.821 17.368C111.194 17.2613 111.584 17.208 111.989 17.208C112.416 17.208 112.794 17.24 113.125 17.304C113.466 17.368 113.76 17.4533 114.005 17.56C114.474 17.752 114.72 18.0027 114.741 18.312ZM118.528 25.096C118.485 25.1173 118.389 25.1333 118.24 25.144C118.091 25.1547 117.931 25.16 117.76 25.16C117.344 25.16 117.003 25.0747 116.736 24.904C116.48 24.7227 116.352 24.3653 116.352 23.832V17.432C116.373 17.4213 116.459 17.4107 116.608 17.4C116.757 17.3787 116.917 17.368 117.088 17.368C117.259 17.368 117.429 17.384 117.6 17.416C117.771 17.448 117.925 17.512 118.064 17.608C118.203 17.6933 118.315 17.8213 118.4 17.992C118.485 18.152 118.528 18.3653 118.528 18.632V25.096ZM118.544 14.872C118.544 15.2133 118.427 15.4907 118.192 15.704C117.968 15.9173 117.696 16.024 117.376 16.024C117.045 16.024 116.768 15.9173 116.544 15.704C116.32 15.4907 116.208 15.2133 116.208 14.872C116.208 14.5307 116.32 14.2533 116.544 14.04C116.768 13.816 117.045 13.704 117.376 13.704C117.696 13.704 117.968 13.816 118.192 14.04C118.427 14.2533 118.544 14.5307 118.544 14.872ZM120.683 23.848C120.608 23.6347 120.56 23.4107 120.539 23.176C120.518 22.9413 120.507 22.7067 120.507 22.472V15.048L120.747 15.016C120.822 15.0053 120.902 15 120.987 15C121.072 14.9893 121.158 14.984 121.243 14.984C121.414 14.984 121.584 15 121.755 15.032C121.926 15.064 122.08 15.128 122.219 15.224C122.358 15.32 122.47 15.4533 122.555 15.624C122.64 15.784 122.683 15.9973 122.683 16.264V17.384H124.923V19.016H122.683V22.44C122.683 23.1867 122.987 23.56 123.595 23.56C123.744 23.56 123.883 23.5387 124.011 23.496C124.15 23.4427 124.272 23.3893 124.379 23.336C124.496 23.272 124.592 23.208 124.667 23.144C124.742 23.08 124.795 23.032 124.827 23C124.987 23.2347 125.11 23.4373 125.195 23.608C125.28 23.7787 125.323 23.9387 125.323 24.088C125.323 24.2267 125.264 24.3653 125.147 24.504C125.04 24.632 124.886 24.7547 124.683 24.872C124.48 24.9787 124.235 25.064 123.947 25.128C123.659 25.2027 123.344 25.24 123.003 25.24C122.331 25.24 121.814 25.112 121.451 24.856C121.088 24.6 120.832 24.264 120.683 23.848ZM132.811 23.144C132.811 23.976 132.933 24.5893 133.179 24.984C132.987 25.0587 132.805 25.112 132.635 25.144C132.475 25.176 132.304 25.192 132.123 25.192C131.739 25.192 131.445 25.1173 131.243 24.968C131.051 24.8187 130.928 24.6053 130.875 24.328C130.64 24.5733 130.331 24.7813 129.947 24.952C129.563 25.1227 129.093 25.208 128.539 25.208C128.251 25.208 127.963 25.1653 127.674 25.08C127.387 25.0053 127.125 24.8773 126.891 24.696C126.656 24.5147 126.464 24.2747 126.315 23.976C126.165 23.6667 126.09 23.2933 126.09 22.856C126.09 22.312 126.219 21.8693 126.475 21.528C126.741 21.1867 127.072 20.92 127.467 20.728C127.861 20.5253 128.288 20.3867 128.747 20.312C129.205 20.2373 129.627 20.1893 130.011 20.168C130.139 20.1573 130.261 20.152 130.379 20.152C130.507 20.152 130.624 20.152 130.731 20.152V19.864C130.731 19.4587 130.619 19.1707 130.395 19C130.181 18.8293 129.829 18.744 129.339 18.744C128.88 18.744 128.469 18.8187 128.107 18.968C127.755 19.1173 127.408 19.288 127.067 19.48C126.917 19.2987 126.795 19.1013 126.699 18.888C126.613 18.664 126.571 18.4987 126.571 18.392C126.571 18.2533 126.651 18.1147 126.811 17.976C126.981 17.8267 127.211 17.6987 127.499 17.592C127.787 17.4747 128.117 17.384 128.491 17.32C128.864 17.2453 129.259 17.208 129.674 17.208C130.251 17.208 130.736 17.2667 131.131 17.384C131.536 17.5013 131.861 17.6827 132.107 17.928C132.363 18.1733 132.544 18.4827 132.651 18.856C132.757 19.2187 132.811 19.6453 132.811 20.136V23.144ZM130.763 21.288C130.688 21.288 130.613 21.288 130.539 21.288C130.464 21.288 130.389 21.2933 130.315 21.304C130.048 21.3253 129.781 21.3627 129.515 21.416C129.259 21.4587 129.029 21.5333 128.827 21.64C128.624 21.736 128.459 21.8693 128.331 22.04C128.203 22.2107 128.139 22.4293 128.139 22.696C128.139 22.9947 128.224 23.2507 128.395 23.464C128.565 23.6667 128.853 23.768 129.259 23.768C129.461 23.768 129.653 23.7413 129.835 23.688C130.016 23.6347 130.176 23.5653 130.315 23.48C130.453 23.3947 130.56 23.304 130.635 23.208C130.72 23.1013 130.763 23.0053 130.763 22.92V21.288ZM140.116 18.312C140.116 18.472 140.063 18.664 139.956 18.888C139.86 19.1013 139.753 19.304 139.636 19.496C139.54 19.4213 139.412 19.336 139.252 19.24C139.092 19.144 138.916 19.0587 138.724 18.984C138.532 18.8987 138.329 18.8293 138.116 18.776C137.903 18.7227 137.695 18.696 137.492 18.696C137.375 18.696 137.252 18.7067 137.124 18.728C136.996 18.7387 136.879 18.7707 136.772 18.824C136.676 18.8667 136.591 18.936 136.516 19.032C136.452 19.1173 136.42 19.2347 136.42 19.384C136.42 19.7467 136.809 20.0133 137.588 20.184C137.908 20.248 138.223 20.3333 138.532 20.44C138.852 20.536 139.135 20.6747 139.38 20.856C139.636 21.0373 139.839 21.2667 139.988 21.544C140.148 21.8213 140.228 22.168 140.228 22.584C140.228 23.0107 140.143 23.3893 139.972 23.72C139.812 24.0507 139.588 24.328 139.3 24.552C139.012 24.776 138.671 24.9467 138.276 25.064C137.892 25.1813 137.471 25.24 137.012 25.24C136.532 25.24 136.132 25.2027 135.812 25.128C135.492 25.064 135.225 24.984 135.012 24.888C134.863 24.824 134.697 24.7333 134.516 24.616C134.345 24.488 134.26 24.3173 134.26 24.104C134.26 23.9227 134.313 23.736 134.42 23.544C134.527 23.3413 134.649 23.1333 134.788 22.92C134.884 23.0053 135.001 23.096 135.14 23.192C135.289 23.2773 135.455 23.3627 135.636 23.448C135.828 23.5227 136.031 23.5867 136.244 23.64C136.457 23.6933 136.676 23.72 136.9 23.72C137.039 23.72 137.183 23.7093 137.332 23.688C137.481 23.6667 137.609 23.624 137.716 23.56C137.833 23.496 137.929 23.4107 138.004 23.304C138.079 23.1973 138.116 23.0587 138.116 22.888C138.116 22.5787 137.993 22.36 137.748 22.232C137.513 22.0933 137.156 21.976 136.676 21.88C136.367 21.816 136.068 21.7307 135.78 21.624C135.492 21.5173 135.236 21.3787 135.012 21.208C134.788 21.0267 134.607 20.8027 134.468 20.536C134.34 20.2693 134.276 19.944 134.276 19.56C134.276 19.176 134.361 18.84 134.532 18.552C134.703 18.264 134.927 18.0187 135.204 17.816C135.492 17.6133 135.823 17.464 136.196 17.368C136.569 17.2613 136.959 17.208 137.364 17.208C137.791 17.208 138.169 17.24 138.5 17.304C138.841 17.368 139.135 17.4533 139.38 17.56C139.849 17.752 140.095 18.0027 140.116 18.312ZM74.248 42.144C74.248 42.976 74.3707 43.5893 74.616 43.984C74.424 44.0587 74.2427 44.112 74.072 44.144C73.912 44.176 73.7413 44.192 73.56 44.192C73.176 44.192 72.8827 44.1173 72.68 43.968C72.488 43.8187 72.3653 43.6053 72.312 43.328C72.0773 43.5733 71.768 43.7813 71.384 43.952C71 44.1227 70.5307 44.208 69.976 44.208C69.688 44.208 69.4 44.1653 69.112 44.08C68.824 44.0053 68.5627 43.8773 68.328 43.696C68.0933 43.5147 67.9013 43.2747 67.752 42.976C67.6027 42.6667 67.528 42.2933 67.528 41.856C67.528 41.312 67.656 40.8693 67.912 40.528C68.1787 40.1867 68.5093 39.92 68.904 39.728C69.2987 39.5253 69.7253 39.3867 70.184 39.312C70.6427 39.2373 71.064 39.1893 71.448 39.168C71.576 39.1573 71.6987 39.152 71.816 39.152C71.944 39.152 72.0613 39.152 72.168 39.152V38.864C72.168 38.4587 72.056 38.1707 71.832 38C71.6187 37.8293 71.2667 37.744 70.776 37.744C70.3173 37.744 69.9067 37.8187 69.544 37.968C69.192 38.1173 68.8453 38.288 68.504 38.48C68.3547 38.2987 68.232 38.1013 68.136 37.888C68.0507 37.664 68.008 37.4987 68.008 37.392C68.008 37.2533 68.088 37.1147 68.248 36.976C68.4187 36.8267 68.648 36.6987 68.936 36.592C69.224 36.4747 69.5547 36.384 69.928 36.32C70.3013 36.2453 70.696 36.208 71.112 36.208C71.688 36.208 72.1733 36.2667 72.568 36.384C72.9733 36.5013 73.2987 36.6827 73.544 36.928C73.8 37.1733 73.9813 37.4827 74.088 37.856C74.1947 38.2187 74.248 38.6453 74.248 39.136V42.144ZM72.2 40.288C72.1253 40.288 72.0507 40.288 71.976 40.288C71.9013 40.288 71.8267 40.2933 71.752 40.304C71.4853 40.3253 71.2187 40.3627 70.952 40.416C70.696 40.4587 70.4667 40.5333 70.264 40.64C70.0613 40.736 69.896 40.8693 69.768 41.04C69.64 41.2107 69.576 41.4293 69.576 41.696C69.576 41.9947 69.6613 42.2507 69.832 42.464C70.0027 42.6667 70.2907 42.768 70.696 42.768C70.8987 42.768 71.0907 42.7413 71.272 42.688C71.4533 42.6347 71.6133 42.5653 71.752 42.48C71.8907 42.3947 71.9973 42.304 72.072 42.208C72.1573 42.1013 72.2 42.0053 72.2 41.92V40.288ZM80.1051 45.312C79.8918 46.016 79.5345 46.576 79.0331 46.992C78.5425 47.4187 77.8651 47.632 77.0011 47.632C76.5211 47.632 76.1265 47.5627 75.8171 47.424C75.5078 47.2853 75.3531 47.0507 75.3531 46.72C75.3531 46.5707 75.3905 46.4053 75.4651 46.224C75.5505 46.0427 75.6625 45.84 75.8011 45.616C75.9185 45.7013 76.0731 45.776 76.2651 45.84C76.4571 45.904 76.6598 45.936 76.8731 45.936C77.2038 45.936 77.4758 45.8453 77.6891 45.664C77.9025 45.4933 78.0838 45.184 78.2331 44.736L78.5051 43.936H77.5131L75.0491 36.544C75.2091 36.4907 75.4011 36.448 75.6251 36.416C75.8598 36.384 76.0731 36.368 76.2651 36.368C76.5638 36.368 76.8251 36.448 77.0491 36.608C77.2838 36.768 77.4491 37.0133 77.5451 37.344L78.9851 42.272L80.1691 37.968C80.2331 37.744 80.3025 37.536 80.3771 37.344C80.4625 37.152 80.5638 36.9867 80.6811 36.848C80.7985 36.6987 80.9425 36.5813 81.1131 36.496C81.2838 36.4107 81.4918 36.368 81.7371 36.368C81.9398 36.368 82.1211 36.3893 82.2811 36.432C82.4411 36.464 82.6011 36.512 82.7611 36.576L80.1051 45.312ZM90.8114 44H89.3554C89.0887 44 88.918 43.9307 88.8434 43.792C88.7794 43.6427 88.7474 43.4293 88.7474 43.152C88.566 43.3973 88.2887 43.6267 87.9154 43.84C87.542 44.0427 87.0354 44.144 86.3954 44.144C85.638 44.144 85.078 43.9947 84.7154 43.696C84.3527 43.3973 84.118 43.0027 84.0114 42.512C83.958 42.2667 83.9207 42 83.8994 41.712C83.8887 41.424 83.8834 41.1413 83.8834 40.864V36.432C83.9047 36.4213 83.99 36.4107 84.1394 36.4C84.2887 36.3787 84.4487 36.368 84.6194 36.368C84.79 36.368 84.9607 36.384 85.1314 36.416C85.302 36.448 85.4567 36.512 85.5954 36.608C85.734 36.6933 85.846 36.8213 85.9314 36.992C86.0167 37.152 86.0594 37.3653 86.0594 37.632V40.768C86.0594 41.0133 86.0647 41.2373 86.0754 41.44C86.0967 41.632 86.1394 41.8027 86.2034 41.952C86.278 42.0907 86.39 42.2027 86.5394 42.288C86.6994 42.3627 86.918 42.4 87.1954 42.4C87.59 42.4 87.926 42.32 88.2034 42.16C88.4914 41.9893 88.6354 41.7813 88.6354 41.536V36.432C88.6567 36.4213 88.742 36.4107 88.8914 36.4C89.0407 36.3787 89.2007 36.368 89.3714 36.368C89.542 36.368 89.7127 36.3893 89.8834 36.432C90.054 36.464 90.2087 36.5333 90.3474 36.64C90.486 36.736 90.598 36.8747 90.6834 37.056C90.7687 37.2267 90.8114 37.4453 90.8114 37.712V44ZM98.3241 44C98.1428 44 97.9988 43.9413 97.8921 43.824C97.7855 43.696 97.7321 43.536 97.7321 43.344C97.5828 43.5253 97.3268 43.712 96.9641 43.904C96.6121 44.096 96.1588 44.192 95.6041 44.192C95.2095 44.192 94.8255 44.128 94.4521 44C94.0895 43.872 93.7641 43.6587 93.4761 43.36C93.1881 43.0613 92.9588 42.6667 92.7881 42.176C92.6175 41.6747 92.5321 41.056 92.5321 40.32C92.5321 39.584 92.6175 38.9547 92.7881 38.432C92.9695 37.9093 93.2041 37.488 93.4921 37.168C93.7908 36.8373 94.1268 36.5973 94.5001 36.448C94.8841 36.288 95.2841 36.208 95.7001 36.208C96.1801 36.208 96.5748 36.2933 96.8841 36.464C97.1935 36.624 97.4228 36.784 97.5721 36.944V32.72C97.5935 32.7093 97.6788 32.6987 97.8281 32.688C97.9775 32.6667 98.1375 32.656 98.3081 32.656C98.4788 32.656 98.6495 32.672 98.8201 32.704C99.0015 32.736 99.1561 32.8 99.2841 32.896C99.4228 32.992 99.5348 33.1253 99.6201 33.296C99.7055 33.456 99.7481 33.6693 99.7481 33.936V44H98.3241ZM94.7721 40.208C94.7721 40.5813 94.7988 40.9227 94.8521 41.232C94.9055 41.5307 94.9961 41.7867 95.1241 42C95.2521 42.2133 95.4228 42.3787 95.6361 42.496C95.8495 42.6133 96.1215 42.672 96.4521 42.672C96.7615 42.672 97.0228 42.608 97.2361 42.48C97.4601 42.352 97.5721 42.1707 97.5721 41.936V38.336C97.4868 38.2507 97.3375 38.1493 97.1241 38.032C96.9215 37.9147 96.6815 37.856 96.4041 37.856C95.8495 37.856 95.4388 38.0587 95.1721 38.464C94.9055 38.8587 94.7721 39.44 94.7721 40.208ZM108.014 42.144C108.014 42.976 108.136 43.5893 108.382 43.984C108.19 44.0587 108.008 44.112 107.838 44.144C107.678 44.176 107.507 44.192 107.326 44.192C106.942 44.192 106.648 44.1173 106.446 43.968C106.254 43.8187 106.131 43.6053 106.078 43.328C105.843 43.5733 105.534 43.7813 105.15 43.952C104.766 44.1227 104.296 44.208 103.742 44.208C103.454 44.208 103.166 44.1653 102.878 44.08C102.59 44.0053 102.328 43.8773 102.094 43.696C101.859 43.5147 101.667 43.2747 101.518 42.976C101.368 42.6667 101.294 42.2933 101.294 41.856C101.294 41.312 101.422 40.8693 101.678 40.528C101.944 40.1867 102.275 39.92 102.67 39.728C103.064 39.5253 103.491 39.3867 103.95 39.312C104.408 39.2373 104.83 39.1893 105.214 39.168C105.342 39.1573 105.464 39.152 105.582 39.152C105.71 39.152 105.827 39.152 105.934 39.152V38.864C105.934 38.4587 105.822 38.1707 105.598 38C105.384 37.8293 105.032 37.744 104.542 37.744C104.083 37.744 103.672 37.8187 103.31 37.968C102.958 38.1173 102.611 38.288 102.27 38.48C102.12 38.2987 101.998 38.1013 101.902 37.888C101.816 37.664 101.774 37.4987 101.774 37.392C101.774 37.2533 101.854 37.1147 102.014 36.976C102.184 36.8267 102.414 36.6987 102.702 36.592C102.99 36.4747 103.32 36.384 103.694 36.32C104.067 36.2453 104.462 36.208 104.878 36.208C105.454 36.208 105.939 36.2667 106.334 36.384C106.739 36.5013 107.064 36.6827 107.31 36.928C107.566 37.1733 107.747 37.4827 107.854 37.856C107.96 38.2187 108.014 38.6453 108.014 39.136V42.144ZM105.966 40.288C105.891 40.288 105.816 40.288 105.742 40.288C105.667 40.288 105.592 40.2933 105.518 40.304C105.251 40.3253 104.984 40.3627 104.718 40.416C104.462 40.4587 104.232 40.5333 104.03 40.64C103.827 40.736 103.662 40.8693 103.534 41.04C103.406 41.2107 103.342 41.4293 103.342 41.696C103.342 41.9947 103.427 42.2507 103.598 42.464C103.768 42.6667 104.056 42.768 104.462 42.768C104.664 42.768 104.856 42.7413 105.038 42.688C105.219 42.6347 105.379 42.5653 105.518 42.48C105.656 42.3947 105.763 42.304 105.838 42.208C105.923 42.1013 105.966 42.0053 105.966 41.92V40.288ZM112.471 33.104C112.93 33.104 113.362 33.1627 113.767 33.28C114.183 33.3867 114.541 33.5573 114.839 33.792C115.149 34.016 115.389 34.2987 115.559 34.64C115.741 34.9813 115.831 35.3813 115.831 35.84C115.831 36.1813 115.789 36.4853 115.703 36.752C115.618 37.008 115.506 37.2427 115.367 37.456C115.229 37.6693 115.069 37.8667 114.887 38.048C114.717 38.2187 114.541 38.384 114.359 38.544C114.018 38.8213 113.719 39.104 113.463 39.392C113.218 39.6693 113.095 40.0107 113.095 40.416C113.095 40.6187 113.117 40.8053 113.159 40.976C113.095 40.9973 113.015 41.0133 112.919 41.024C112.823 41.024 112.733 41.024 112.647 41.024C112.253 41.024 111.927 40.9227 111.671 40.72C111.426 40.5173 111.303 40.208 111.303 39.792C111.303 39.4187 111.399 39.0933 111.591 38.816C111.794 38.5387 112.023 38.2773 112.279 38.032C112.439 37.8827 112.594 37.7387 112.743 37.6C112.903 37.4507 113.042 37.3013 113.159 37.152C113.287 36.992 113.389 36.8267 113.463 36.656C113.538 36.4853 113.575 36.2987 113.575 36.096C113.575 35.616 113.431 35.28 113.143 35.088C112.855 34.8853 112.509 34.784 112.103 34.784C111.677 34.784 111.287 34.88 110.935 35.072C110.583 35.2533 110.285 35.44 110.039 35.632C109.879 35.472 109.725 35.3013 109.575 35.12C109.437 34.9387 109.367 34.7467 109.367 34.544C109.367 34.3947 109.426 34.256 109.543 34.128C109.661 33.9893 109.81 33.8613 109.991 33.744C110.279 33.5627 110.637 33.4133 111.063 33.296C111.49 33.168 111.959 33.104 112.471 33.104ZM113.495 43.056C113.495 43.3973 113.389 43.68 113.175 43.904C112.962 44.128 112.674 44.24 112.311 44.24C111.949 44.24 111.655 44.128 111.431 43.904C111.218 43.68 111.111 43.3973 111.111 43.056C111.111 42.7147 111.218 42.4373 111.431 42.224C111.655 42 111.949 41.888 112.311 41.888C112.653 41.888 112.935 42 113.159 42.224C113.383 42.4373 113.495 42.7147 113.495 43.056Z" fill="white"/>
</svg>
