<svg width="31" height="30" viewBox="0 0 31 30" fill="none" xmlns="http://www.w3.org/2000/svg">
<g clip-path="url(#clip0_11155_143743)">
<path d="M27.1667 26.6667H3.83333C3.77808 26.6667 3.72509 26.6447 3.68602 26.6056C3.64695 26.5666 3.625 26.5136 3.625 26.4583C3.625 26.4031 3.64695 26.3501 3.68602 26.311C3.72509 26.2719 3.77808 26.25 3.83333 26.25H27.1667C27.2219 26.25 27.2749 26.2719 27.314 26.311C27.3531 26.3501 27.375 26.4031 27.375 26.4583C27.375 26.5136 27.3531 26.5666 27.314 26.6056C27.2749 26.6447 27.2219 26.6667 27.1667 26.6667Z" fill="black"/>
<path d="M20.8544 26.6663H5.57943C5.52417 26.6663 5.47118 26.6444 5.43211 26.6053C5.39304 26.5663 5.37109 26.5133 5.37109 26.458V10.4455C5.37109 9.88524 5.59366 9.34792 5.98983 8.95174C6.386 8.55557 6.92332 8.33301 7.48359 8.33301H10.1086C10.1638 8.33301 10.2168 8.35496 10.2559 8.39403C10.295 8.4331 10.3169 8.48609 10.3169 8.54134C10.3169 8.59659 10.295 8.64959 10.2559 8.68866C10.2168 8.72773 10.1638 8.74967 10.1086 8.74967H7.48359C7.03383 8.74967 6.60249 8.92834 6.28446 9.24637C5.96643 9.5644 5.78776 9.99574 5.78776 10.4455V26.2497H20.6461V10.4455C20.6461 9.99574 20.4674 9.5644 20.1494 9.24637C19.8314 8.92834 19.4 8.74967 18.9503 8.74967H16.3586C16.3033 8.74967 16.2504 8.72773 16.2113 8.68866C16.1722 8.64959 16.1503 8.59659 16.1503 8.54134C16.1503 8.48609 16.1722 8.4331 16.2113 8.39403C16.2504 8.35496 16.3033 8.33301 16.3586 8.33301H18.9503C19.5105 8.33301 20.0479 8.55557 20.444 8.95174C20.8402 9.34792 21.0628 9.88524 21.0628 10.4455V26.458C21.0628 26.5133 21.0408 26.5663 21.0017 26.6053C20.9627 26.6444 20.9097 26.6663 20.8544 26.6663Z" fill="black"/>
<path d="M16.3333 11.404H10.0833C10.0281 11.404 9.97509 11.382 9.93602 11.343C9.89695 11.3039 9.875 11.2509 9.875 11.1956V6.19564C9.875 6.14038 9.89695 6.08739 9.93602 6.04832C9.97509 6.00925 10.0281 5.9873 10.0833 5.9873H16.3333C16.3886 5.9873 16.4416 6.00925 16.4806 6.04832C16.5197 6.08739 16.5417 6.14038 16.5417 6.19564V11.1956C16.5417 11.2509 16.5197 11.3039 16.4806 11.343C16.4416 11.382 16.3886 11.404 16.3333 11.404ZM10.2917 10.9873H16.125V6.40397H10.2917V10.9873Z" fill="black"/>
<path d="M14.8462 8.25391H13.6629V7.06641H12.7712V8.25391H11.5879V9.14141H12.7712V10.3289H13.6629V9.14141H14.8462V8.25391Z" fill="#009DD4"/>
<path d="M11.75 17.6169V18.7502H8.83337V17.6169H11.75ZM11.9459 17.2002H8.65003C8.59108 17.2013 8.53492 17.2255 8.49362 17.2676C8.45232 17.3096 8.42919 17.3662 8.4292 17.4252V18.946C8.4292 19.0046 8.45247 19.0608 8.49388 19.1022C8.53529 19.1436 8.59146 19.1669 8.65003 19.1669H11.9584C12.0169 19.1669 12.0731 19.1436 12.1145 19.1022C12.1559 19.0608 12.1792 19.0046 12.1792 18.946V17.4252C12.1792 17.3662 12.1561 17.3096 12.1148 17.2676C12.0735 17.2255 12.0173 17.2013 11.9584 17.2002H11.9459Z" fill="black"/>
<path d="M17.6126 17.6169V18.7502H14.696V17.6169H17.6126ZM17.8085 17.2002H14.5001C14.4412 17.2013 14.385 17.2255 14.3437 17.2676C14.3024 17.3096 14.2793 17.3662 14.2793 17.4252V18.946C14.2793 19.0046 14.3026 19.0608 14.344 19.1022C14.3854 19.1436 14.4416 19.1669 14.5001 19.1669H17.8085C17.867 19.1669 17.9232 19.1436 17.9646 19.1022C18.006 19.0608 18.0293 19.0046 18.0293 18.946V17.4252C18.0293 17.3662 18.0062 17.3096 17.9649 17.2676C17.9236 17.2255 17.8674 17.2013 17.8085 17.2002V17.2002Z" fill="black"/>
<path d="M11.7498 13.5415V14.6748H8.83317V13.5415H11.7498ZM11.9457 13.1248H8.64984C8.62083 13.1231 8.59177 13.1272 8.56433 13.1367C8.53689 13.1463 8.5116 13.1612 8.48993 13.1805C8.46825 13.1999 8.45061 13.2233 8.43801 13.2495C8.42541 13.2757 8.4181 13.3041 8.4165 13.3331V14.854C8.41649 14.9129 8.43963 14.9695 8.48092 15.0116C8.52222 15.0537 8.57839 15.0779 8.63734 15.079H11.9582C12.0171 15.0779 12.0733 15.0537 12.1146 15.0116C12.1559 14.9695 12.179 14.9129 12.179 14.854V13.3331C12.179 13.2746 12.1557 13.2184 12.1143 13.177C12.0729 13.1356 12.0167 13.1123 11.9582 13.1123L11.9457 13.1248Z" fill="black"/>
<path d="M17.6126 13.5415V14.6748H14.696V13.5415H17.6126ZM17.8085 13.1248H14.5001C14.4711 13.1248 14.4424 13.1305 14.4156 13.1416C14.3888 13.1527 14.3645 13.169 14.344 13.1895C14.3235 13.21 14.3072 13.2343 14.2961 13.2611C14.285 13.2879 14.2793 13.3166 14.2793 13.3456V14.8665C14.2793 14.9254 14.3024 14.982 14.3437 15.0241C14.385 15.0662 14.4412 15.0904 14.5001 15.0915H17.8085C17.8674 15.0904 17.9236 15.0662 17.9649 15.0241C18.0062 14.982 18.0293 14.9254 18.0293 14.8665V13.3331C18.0293 13.2746 18.006 13.2184 17.9646 13.177C17.9232 13.1356 17.867 13.1123 17.8085 13.1123V13.1248Z" fill="black"/>
<path d="M26.1252 26.6667H20.2918C20.2366 26.6667 20.1836 26.6447 20.1445 26.6056C20.1054 26.5666 20.0835 26.5136 20.0835 26.4583C20.0835 26.4031 20.1054 26.3501 20.1445 26.311C20.1836 26.2719 20.2366 26.25 20.2918 26.25H25.9168V15.4958C25.9168 15.1433 25.7768 14.8052 25.5275 14.556C25.2783 14.3067 24.9402 14.1667 24.5877 14.1667H21.5418C21.4866 14.1667 21.4336 14.1447 21.3945 14.1056C21.3554 14.0666 21.3335 14.0136 21.3335 13.9583C21.3335 13.9031 21.3554 13.8501 21.3945 13.811C21.4336 13.7719 21.4866 13.75 21.5418 13.75H24.5877C25.0503 13.7511 25.4938 13.9354 25.8209 14.2626C26.1481 14.5897 26.3324 15.0331 26.3335 15.4958V26.4583C26.3335 26.5136 26.3115 26.5666 26.2725 26.6056C26.2334 26.6447 26.1804 26.6667 26.1252 26.6667Z" fill="black"/>
<path d="M15.9165 26.6667H10.4998C10.4446 26.6667 10.3916 26.6447 10.3525 26.6056C10.3135 26.5666 10.2915 26.5136 10.2915 26.4583V22.3958C10.2915 22.3406 10.3135 22.2876 10.3525 22.2485C10.3916 22.2094 10.4446 22.1875 10.4998 22.1875H15.9165C15.9718 22.1875 16.0247 22.2094 16.0638 22.2485C16.1029 22.2876 16.1248 22.3406 16.1248 22.3958V26.4583C16.1248 26.5136 16.1029 26.5666 16.0638 26.6056C16.0247 26.6447 15.9718 26.6667 15.9165 26.6667ZM10.7082 26.25H15.7082V22.6042H10.7082V26.25Z" fill="black"/>
<path d="M13.1917 26.6667C13.1365 26.6667 13.0835 26.6447 13.0444 26.6056C13.0053 26.5666 12.9834 26.5136 12.9834 26.4583V22.3958C12.9834 22.3406 13.0053 22.2876 13.0444 22.2485C13.0835 22.2094 13.1365 22.1875 13.1917 22.1875C13.247 22.1875 13.3 22.2094 13.339 22.2485C13.3781 22.2876 13.4001 22.3406 13.4001 22.3958V26.4583C13.4001 26.5136 13.3781 26.5666 13.339 26.6056C13.3 26.6447 13.247 26.6667 13.1917 26.6667Z" fill="black"/>
<path d="M16.2123 21.6663H10.1707C10.0354 21.6706 9.90721 21.7274 9.81311 21.8246C9.71901 21.9218 9.66643 22.0518 9.6665 22.1871V22.3954H16.7498V22.1871C16.7499 22.1173 16.7359 22.0482 16.7087 21.9839C16.6814 21.9196 16.6416 21.8614 16.5914 21.8128C16.5413 21.7642 16.4819 21.7262 16.4168 21.701C16.3516 21.6759 16.2821 21.664 16.2123 21.6663Z" fill="#009DD4"/>
<path d="M24.6669 15H22.5752V24.175H24.6669V15Z" fill="#009DD4"/>
<path d="M16.7502 22.5502H9.66686C9.62631 22.5491 9.5877 22.5326 9.55902 22.5039C9.53033 22.4752 9.51375 22.4366 9.5127 22.396V22.1877C9.51379 22.009 9.58526 21.838 9.71161 21.7116C9.83796 21.5853 10.009 21.5138 10.1877 21.5127H16.2294C16.408 21.5138 16.5791 21.5853 16.7055 21.7116C16.8318 21.838 16.9033 22.009 16.9044 22.1877V22.396C16.9033 22.4366 16.8867 22.4752 16.858 22.5039C16.8294 22.5326 16.7908 22.5491 16.7502 22.5502V22.5502ZM9.82103 22.2419H16.5794V22.1877C16.5799 22.1394 16.5708 22.0915 16.5526 22.0467C16.5344 22.002 16.5074 21.9613 16.4732 21.9272C16.4391 21.893 16.3984 21.866 16.3537 21.8478C16.3089 21.8296 16.261 21.8205 16.2127 21.821H10.171C10.1227 21.8205 10.0748 21.8296 10.0301 21.8478C9.98531 21.866 9.94467 21.893 9.91051 21.9272C9.87635 21.9613 9.84936 22.002 9.83114 22.0467C9.81291 22.0915 9.8038 22.1394 9.80436 22.1877L9.82103 22.2419Z" fill="black"/>
<path d="M24.8251 24.4464H22.4417C22.3865 24.4464 22.3335 24.4244 22.2944 24.3853C22.2553 24.3463 22.2334 24.2933 22.2334 24.238V15.138C22.2334 15.0828 22.2553 15.0298 22.2944 14.9907C22.3335 14.9516 22.3865 14.9297 22.4417 14.9297H24.8251C24.8803 14.9297 24.9333 14.9516 24.9724 14.9907C25.0114 15.0298 25.0334 15.0828 25.0334 15.138V24.238C25.0334 24.2933 25.0114 24.3463 24.9724 24.3853C24.9333 24.4244 24.8803 24.4464 24.8251 24.4464ZM22.6501 24.0297H24.6167V15.3464H22.6501V24.0297Z" fill="black"/>
<path d="M24.8251 17.696H22.4417C22.3865 17.696 22.3335 17.674 22.2944 17.6349C22.2553 17.5959 22.2334 17.5429 22.2334 17.4876C22.2345 17.4327 22.2568 17.3803 22.2956 17.3415C22.3344 17.3027 22.3868 17.2804 22.4417 17.2793H24.8251C24.88 17.2804 24.9324 17.3027 24.9712 17.3415C25.01 17.3803 25.0323 17.4327 25.0334 17.4876C25.0334 17.5429 25.0114 17.5959 24.9724 17.6349C24.9333 17.674 24.8803 17.696 24.8251 17.696Z" fill="black"/>
<path d="M24.8251 19.8962H22.4417C22.3865 19.8962 22.3335 19.8742 22.2944 19.8351C22.2553 19.7961 22.2334 19.7431 22.2334 19.6878C22.2334 19.6326 22.2553 19.5796 22.2944 19.5405C22.3335 19.5014 22.3865 19.4795 22.4417 19.4795H24.8251C24.8803 19.4795 24.9333 19.5014 24.9724 19.5405C25.0114 19.5796 25.0334 19.6326 25.0334 19.6878C25.0334 19.7431 25.0114 19.7961 24.9724 19.8351C24.9333 19.8742 24.8803 19.8962 24.8251 19.8962V19.8962Z" fill="black"/>
<path d="M24.8251 22.0837H22.4417C22.3868 22.0826 22.3344 22.0603 22.2956 22.0215C22.2568 21.9826 22.2345 21.9302 22.2334 21.8753C22.2334 21.8201 22.2553 21.7671 22.2944 21.728C22.3335 21.6889 22.3865 21.667 22.4417 21.667H24.8251C24.8803 21.667 24.9333 21.6889 24.9724 21.728C25.0114 21.7671 25.0334 21.8201 25.0334 21.8753C25.0323 21.9302 25.01 21.9826 24.9712 22.0215C24.9324 22.0603 24.88 22.0826 24.8251 22.0837Z" fill="black"/>
<path d="M2193.8 1075.58H-1606.74V-1500.64H2193.8V1075.58ZM-1606.34 1075.16H2193.42V-1500.26H-1606.34V1075.16Z" fill="#333333"/>
<path d="M2193.8 1075.58H-1606.74V-1500.64H2193.8V1075.58ZM-1606.34 1075.16H2193.42V-1500.26H-1606.34V1075.16Z" fill="#333333"/>
<path d="M2193.8 1075.58H-1606.74V-1500.64H2193.8V1075.58ZM-1606.34 1075.16H2193.42V-1500.26H-1606.34V1075.16Z" fill="#333333"/>
<path d="M11.8084 5.5505C11.7521 5.55036 11.6982 5.52789 11.6584 5.488L10.5626 4.39217C10.5431 4.3728 10.5276 4.34976 10.517 4.32437C10.5064 4.29899 10.501 4.27176 10.501 4.24425C10.501 4.21675 10.5064 4.18952 10.517 4.16413C10.5276 4.13875 10.5431 4.1157 10.5626 4.09634C10.5813 4.07641 10.6039 4.06052 10.629 4.04966C10.6541 4.03881 10.6811 4.0332 10.7084 4.0332C10.7358 4.0332 10.7628 4.03881 10.7879 4.04966C10.813 4.06052 10.8356 4.07641 10.8543 4.09634L11.9543 5.19217C11.9927 5.23182 12.0142 5.28487 12.0142 5.34009C12.0142 5.39531 11.9927 5.44836 11.9543 5.488C11.9158 5.52726 11.8634 5.54972 11.8084 5.5505Z" fill="black"/>
<path d="M13.2083 5.41634C13.1531 5.41634 13.1001 5.39439 13.061 5.35532C13.0219 5.31625 13 5.26326 13 5.20801V3.54134C13 3.48609 13.0219 3.4331 13.061 3.39403C13.1001 3.35496 13.1531 3.33301 13.2083 3.33301C13.2636 3.33301 13.3166 3.35496 13.3556 3.39403C13.3947 3.4331 13.4167 3.48609 13.4167 3.54134V5.20801C13.4167 5.26326 13.3947 5.31625 13.3556 5.35532C13.3166 5.39439 13.2636 5.41634 13.2083 5.41634Z" fill="black"/>
<path d="M14.6081 5.5505C14.5532 5.54972 14.5007 5.52726 14.4623 5.488C14.4238 5.44836 14.4023 5.39531 14.4023 5.34009C14.4023 5.28487 14.4238 5.23182 14.4623 5.19217L15.5623 4.09634C15.581 4.07641 15.6036 4.06052 15.6287 4.04966C15.6537 4.03881 15.6808 4.0332 15.7081 4.0332C15.7354 4.0332 15.7625 4.03881 15.7876 4.04966C15.8126 4.06052 15.8352 4.07641 15.8539 4.09634C15.8735 4.1157 15.889 4.13875 15.8995 4.16413C15.9101 4.18952 15.9156 4.21675 15.9156 4.24425C15.9156 4.27176 15.9101 4.29899 15.8995 4.32437C15.889 4.34976 15.8735 4.3728 15.8539 4.39217L14.7581 5.488C14.7184 5.52789 14.6644 5.55036 14.6081 5.5505Z" fill="black"/>
</g>
<defs>
<clipPath id="clip0_11155_143743">
<rect width="30" height="30" fill="white" transform="translate(0.5)"/>
</clipPath>
</defs>
</svg>
