<svg width="75" height="77" viewBox="0 0 75 77" fill="none" xmlns="http://www.w3.org/2000/svg">
<g filter="url(#filter0_d_11558_145718)">
<circle cx="38" cy="32.5" r="23" fill="#00AF3F"/>
</g>
<path d="M28.6787 38.8849L28.7925 38.4716L28.5715 38.1042C27.5791 36.4541 27 34.5358 27 32.4797C27 26.4198 31.9331 21.5 38.0254 21.5C44.1178 21.5 49.0508 26.4198 49.0508 32.4797C49.0508 38.5396 44.1178 43.4593 38.0254 43.4593C36.0472 43.4593 34.1947 42.9337 32.5877 42.0235L32.2346 41.8235L31.8419 41.9262L27.5317 43.0533L28.6787 38.8849Z" stroke="white" stroke-width="2"/>
<path d="M33.8921 26.5197C33.7141 26.5222 33.5087 26.5379 33.3088 26.5519C33.1038 26.5663 32.7805 26.6699 32.5228 27.0178C32.2702 27.3653 31.5386 28.2107 31.6526 29.8242C31.7662 31.4321 32.965 32.9145 33.1329 33.1186C33.3013 33.3281 35.4974 36.6022 38.6902 37.6965C41.3372 38.6033 41.8472 38.3509 42.4061 38.2552C42.9601 38.1644 44.1514 37.3391 44.3507 36.5581C44.5499 35.776 44.5035 35.1207 44.4148 34.9885C44.3285 34.8607 44.1225 34.7935 43.8054 34.6508C43.4883 34.5081 41.9343 33.8204 41.6458 33.7322C41.3614 33.6437 41.1533 33.6012 40.9765 33.9434C40.7947 34.286 40.2661 35.0636 40.0999 35.2911C39.9391 35.5238 39.764 35.5617 39.4469 35.4191C39.1298 35.2764 38.1238 35.002 36.8813 33.9669C35.9149 33.1647 35.2267 32.1353 35.0273 31.8206C34.8279 31.5059 34.9729 31.3149 35.114 31.1401C35.2423 30.9872 35.3931 30.7402 35.5324 30.54C35.6663 30.3347 35.7091 30.1978 35.794 29.9704C35.8844 29.7483 35.817 29.5587 35.7296 29.4C35.6421 29.2412 34.9362 27.6636 34.6189 27.0373C34.3519 26.5103 34.1119 26.5098 33.8921 26.5197Z" fill="white"/>
<defs>
<filter id="filter0_d_11558_145718" x="0" y="0.5" width="76" height="76" filterUnits="userSpaceOnUse" color-interpolation-filters="sRGB">
<feFlood flood-opacity="0" result="BackgroundImageFix"/>
<feColorMatrix in="SourceAlpha" type="matrix" values="0 0 0 0 0 0 0 0 0 0 0 0 0 0 0 0 0 0 127 0" result="hardAlpha"/>
<feOffset dy="6"/>
<feGaussianBlur stdDeviation="7.5"/>
<feComposite in2="hardAlpha" operator="out"/>
<feColorMatrix type="matrix" values="0 0 0 0 0.00784314 0 0 0 0 0.0196078 0 0 0 0 0.12549 0 0 0 0.15 0"/>
<feBlend mode="normal" in2="BackgroundImageFix" result="effect1_dropShadow_11558_145718"/>
<feBlend mode="normal" in="SourceGraphic" in2="effect1_dropShadow_11558_145718" result="shape"/>
</filter>
</defs>
</svg>
