<svg width="16" height="16" viewBox="0 0 16 16" fill="none" xmlns="http://www.w3.org/2000/svg">
<path d="M8 0C3.59135 0 0 3.59135 0 8C0 12.4087 3.59135 16 8 16C12.4087 16 16 12.4087 16 8C16 3.59135 12.4087 0 8 0ZM8 1.23077C11.7452 1.23077 14.7692 4.25481 14.7692 8C14.7692 11.7452 11.7452 14.7692 8 14.7692C4.25481 14.7692 1.23077 11.7452 1.23077 8C1.23077 4.25481 4.25481 1.23077 8 1.23077ZM7.38462 3.69231V4.92308H8.61539V3.69231H7.38462ZM7.38462 6.15385V12.3077H8.61539V6.15385H7.38462Z" fill="#0099CC"/>
</svg>
