<svg width="73" height="73" viewBox="0 0 73 73" fill="none" xmlns="http://www.w3.org/2000/svg">
<g clip-path="url(#clip0_11862_146846)">
<path d="M35.8944 14.1719L61.3544 57.2519H10.4344L35.8944 14.1719ZM35.8944 13.1719C35.7209 13.1719 35.5503 13.2171 35.3995 13.303C35.2487 13.3889 35.1229 13.5126 35.0344 13.6619L9.5744 56.7419C9.48438 56.8937 9.43615 57.0666 9.43461 57.2431C9.43307 57.4196 9.47827 57.5934 9.56562 57.7468C9.65297 57.9001 9.77936 58.0277 9.93195 58.1164C10.0845 58.2051 10.2579 58.2518 10.4344 58.2519H61.3544C61.5309 58.2518 61.7043 58.2051 61.8568 58.1164C62.0094 58.0277 62.1358 57.9001 62.2232 57.7468C62.3105 57.5934 62.3557 57.4196 62.3542 57.2431C62.3526 57.0666 62.3044 56.8937 62.2144 56.7419L36.7544 13.6619C36.6659 13.5126 36.5401 13.3889 36.3893 13.303C36.2385 13.2171 36.0679 13.1719 35.8944 13.1719Z" fill="#333333"/>
<path d="M36.9444 45.5715H34.8444C34.5792 45.5715 34.3248 45.4661 34.1373 45.2786C33.9497 45.0911 33.8444 44.8367 33.8444 44.5715L32.9544 28.5715C32.9476 28.436 32.9684 28.3006 33.0157 28.1734C33.0629 28.0463 33.1354 27.93 33.229 27.8318C33.3225 27.7336 33.4351 27.6554 33.5598 27.6021C33.6845 27.5487 33.8187 27.5213 33.9544 27.5215H37.8344C37.97 27.5213 38.1043 27.5487 38.229 27.6021C38.3537 27.6554 38.4662 27.7336 38.5598 27.8318C38.6533 27.93 38.7259 28.0463 38.7731 28.1734C38.8203 28.3006 38.8412 28.436 38.8344 28.5715L37.9444 44.5715C37.9444 44.8367 37.839 45.0911 37.6515 45.2786C37.4639 45.4661 37.2096 45.5715 36.9444 45.5715Z" fill="#009DD4"/>
<path d="M35.8945 53.5703C37.5514 53.5703 38.8945 52.2272 38.8945 50.5703C38.8945 48.9135 37.5514 47.5703 35.8945 47.5703C34.2377 47.5703 32.8945 48.9135 32.8945 50.5703C32.8945 52.2272 34.2377 53.5703 35.8945 53.5703Z" fill="#009DD4"/>
<path d="M5264.02 2857.88H-3857.27V-3325.04H5264.02V2857.88ZM-3856.31 2856.88H5263.1V-3324.12H-3856.31V2856.88Z" fill="#333333"/>
<path d="M5264.02 2857.88H-3857.27V-3325.04H5264.02V2857.88ZM-3856.31 2856.88H5263.1V-3324.12H-3856.31V2856.88Z" fill="#333333"/>
<path d="M5264.02 2857.88H-3857.27V-3325.04H5264.02V2857.88ZM-3856.31 2856.88H5263.1V-3324.12H-3856.31V2856.88Z" fill="#333333"/>
</g>
<defs>
<clipPath id="clip0_11862_146846">
<rect width="72" height="72" fill="white" transform="translate(0.104492 0.5)"/>
</clipPath>
</defs>
</svg>
