<svg width="31" height="31" viewBox="0 0 31 31" fill="none" xmlns="http://www.w3.org/2000/svg">
<g clip-path="url(#clip0_11152_142744)">
<path d="M10.7542 24.8954L8.8667 6.92044L21.6209 5.59961L23.5084 23.5746L10.7542 24.8954ZM9.35837 7.32044L11.1542 24.4038L23.0167 23.1538L21.2209 6.07044L9.35837 7.32044Z" fill="#333333"/>
<path d="M10.7542 24.8964L8.8667 6.92142L21.6209 5.60059L23.5084 23.5756L10.7542 24.8964ZM9.35837 7.32142L11.1542 24.4048L23.0167 23.1548L21.2209 6.07142L9.35837 7.32142Z" fill="#333333"/>
<path fill-rule="evenodd" clip-rule="evenodd" d="M15.6667 12.0871L17.1125 10.3538C17.2457 10.1811 17.306 9.96308 17.2802 9.74652C17.2545 9.52996 17.145 9.33211 16.975 9.19542C16.797 9.05474 16.5712 8.98909 16.3455 9.01244C16.1198 9.03578 15.9121 9.14628 15.7667 9.32042L15.4 9.75792L14.9542 9.40792C14.7762 9.26724 14.5503 9.20159 14.3246 9.22494C14.099 9.24828 13.8913 9.35878 13.7459 9.53292C13.6076 9.70174 13.541 9.91808 13.5605 10.1355C13.5799 10.3528 13.6839 10.5539 13.85 10.6954V10.6954L15.6667 12.0871Z" fill="#009DD4"/>
<path d="M12.0958 14.1955C12.0361 14.1988 11.9775 14.1783 11.933 14.1385C11.8885 14.0986 11.8616 14.0427 11.8583 13.983C11.8549 13.9234 11.8755 13.8648 11.9153 13.8203C11.9552 13.7757 12.0111 13.7488 12.0708 13.7455L19.9041 12.9122C19.9335 12.9081 19.9635 12.9102 19.9921 12.9182C20.0208 12.9262 20.0474 12.94 20.0705 12.9588C20.0935 12.9775 20.1125 13.0008 20.1262 13.0272C20.1398 13.0536 20.1479 13.0825 20.1499 13.1122C20.1558 13.1713 20.138 13.2303 20.1005 13.2763C20.0631 13.3223 20.0089 13.3517 19.9499 13.358L12.1208 14.1914L12.0958 14.1955Z" fill="#333333"/>
<path d="M12.2503 15.6877C12.1906 15.6905 12.1323 15.6694 12.0882 15.6292C12.044 15.5889 12.0177 15.5328 12.0149 15.4731C12.0121 15.4135 12.0332 15.3551 12.0734 15.311C12.1137 15.2668 12.1698 15.2405 12.2295 15.2377L20.0586 14.4044C20.0883 14.4003 20.1185 14.4023 20.1474 14.4103C20.1762 14.4183 20.2032 14.432 20.2266 14.4507C20.2499 14.4694 20.2693 14.4927 20.2834 14.5191C20.2975 14.5455 20.3061 14.5745 20.3086 14.6044C20.3145 14.6635 20.2967 14.7224 20.2593 14.7685C20.2218 14.8145 20.1677 14.8439 20.1086 14.8502L12.2753 15.6836L12.2503 15.6877Z" fill="#333333"/>
<path d="M12.5583 18.0703C12.5034 18.0696 12.4507 18.0489 12.41 18.0121C12.3694 17.9752 12.3435 17.9248 12.3375 17.8703C12.334 17.8409 12.3365 17.8112 12.3447 17.7828C12.353 17.7544 12.3668 17.728 12.3855 17.7051C12.4041 17.6821 12.4272 17.6632 12.4533 17.6493C12.4794 17.6355 12.508 17.627 12.5375 17.6244L20.3666 16.7911C20.3963 16.787 20.4265 16.7891 20.4553 16.797C20.4842 16.805 20.5112 16.8187 20.5345 16.8375C20.5579 16.8562 20.5773 16.8794 20.5914 16.9058C20.6055 16.9323 20.6141 16.9613 20.6166 16.9911C20.6225 17.0502 20.6047 17.1092 20.5672 17.1552C20.5298 17.2013 20.4756 17.2306 20.4166 17.2369L12.5833 18.0703H12.5583Z" fill="#333333"/>
<path d="M12.7166 19.5627C12.6594 19.5628 12.6045 19.5406 12.5633 19.501C12.5221 19.4614 12.4979 19.4073 12.4957 19.3502C12.4917 19.3211 12.4936 19.2914 12.5013 19.2631C12.5091 19.2347 12.5225 19.2082 12.5409 19.1852C12.5592 19.1622 12.582 19.1432 12.6079 19.1293C12.6338 19.1154 12.6623 19.1069 12.6916 19.1044L20.5249 18.271C20.5543 18.2676 20.584 18.2701 20.6124 18.2783C20.6408 18.2866 20.6672 18.3004 20.6901 18.3191C20.713 18.3377 20.732 18.3608 20.7458 18.3869C20.7597 18.413 20.7682 18.4416 20.7707 18.471C20.7766 18.5301 20.7588 18.5891 20.7214 18.6352C20.6839 18.6812 20.6298 18.7106 20.5707 18.7169L12.7416 19.5502L12.7166 19.5627Z" fill="#333333"/>
<path d="M12.875 21.0544C12.8197 21.0539 12.7664 21.0333 12.7251 20.9966C12.6837 20.9598 12.6571 20.9093 12.65 20.8544C12.6442 20.7954 12.6619 20.7364 12.6994 20.6903C12.7369 20.6443 12.791 20.6149 12.85 20.6086L16.2083 20.2544C16.2377 20.251 16.2674 20.2535 16.2958 20.2617C16.3242 20.27 16.3506 20.2838 16.3736 20.3025C16.3965 20.3211 16.4154 20.3442 16.4293 20.3703C16.4431 20.3964 16.4516 20.425 16.4542 20.4544C16.46 20.5135 16.4423 20.5725 16.4048 20.6186C16.3673 20.6646 16.3132 20.694 16.2542 20.7003L12.8958 21.0544H12.875Z" fill="#333333"/>
<path d="M9.55859 27.6244L5.49609 10.0202L8.50443 9.2202C8.53316 9.21269 8.56309 9.21095 8.59249 9.21506C8.6219 9.21918 8.6502 9.22908 8.67577 9.24418C8.70133 9.25929 8.72365 9.27931 8.74144 9.30308C8.75923 9.32685 8.77214 9.35391 8.77943 9.3827C8.79257 9.44005 8.78357 9.50026 8.7542 9.55126C8.72484 9.60225 8.6773 9.64027 8.62109 9.6577L6.02943 10.341L9.89609 27.0827L21.7336 24.3494C21.7921 24.3368 21.8532 24.3477 21.9038 24.3796C21.9544 24.4116 21.9905 24.462 22.0044 24.5202C22.0168 24.5782 22.0059 24.6387 21.9739 24.6887C21.9419 24.7386 21.8915 24.7739 21.8336 24.7869L9.55859 27.6244Z" fill="#333333"/>
<path d="M22.2125 5.22555C22.17 5.22558 22.1283 5.21357 22.0923 5.1909C22.0564 5.16823 22.0276 5.13583 22.0092 5.09746C21.9909 5.05909 21.9839 5.01631 21.9889 4.97408C21.9939 4.93186 22.0107 4.89191 22.0375 4.85888L23.15 3.48388C23.1876 3.43747 23.242 3.40788 23.3014 3.40163C23.3608 3.39538 23.4203 3.41297 23.4667 3.45055C23.5131 3.48812 23.5427 3.54259 23.5489 3.60198C23.5552 3.66136 23.5376 3.7208 23.5 3.76721L22.3708 5.14221C22.3514 5.16601 22.3273 5.18565 22.3001 5.19997C22.2729 5.21429 22.2431 5.22298 22.2125 5.22555V5.22555Z" fill="#333333"/>
<path d="M20.1712 4.94596C20.1164 4.94528 20.0636 4.92458 20.023 4.88774C19.9823 4.85091 19.9565 4.80049 19.9504 4.74596L19.7629 2.98346C19.7599 2.95391 19.7627 2.92406 19.7712 2.89561C19.7798 2.86716 19.7938 2.84067 19.8126 2.81765C19.8505 2.77115 19.9053 2.74162 19.965 2.73554C20.0246 2.72946 20.0843 2.74734 20.1308 2.78524C20.1538 2.804 20.1729 2.82712 20.187 2.85326C20.2011 2.87941 20.2099 2.90808 20.2129 2.93762L20.3962 4.69596C20.3997 4.72531 20.3972 4.75505 20.389 4.78343C20.3807 4.81181 20.3669 4.83824 20.3482 4.86117C20.3296 4.88409 20.3065 4.90304 20.2804 4.91689C20.2543 4.93074 20.2257 4.9392 20.1962 4.94179L20.1712 4.94596Z" fill="#333333"/>
<path d="M22.5376 7.19998C22.482 7.20033 22.4282 7.18008 22.3867 7.14315C22.3451 7.10622 22.3187 7.05522 22.3126 6.99998C22.3091 6.97063 22.3116 6.94089 22.3198 6.91251C22.3281 6.88413 22.3419 6.8577 22.3606 6.83477C22.3792 6.81185 22.4023 6.7929 22.4284 6.77905C22.4545 6.7652 22.4831 6.75673 22.5126 6.75415L24.2751 6.56665C24.3057 6.56068 24.3373 6.56116 24.3678 6.56806C24.3983 6.57497 24.427 6.58815 24.4521 6.60676C24.4772 6.62537 24.4981 6.64901 24.5136 6.67617C24.529 6.70332 24.5387 6.7334 24.5419 6.76449C24.5451 6.79558 24.5418 6.82699 24.5321 6.85672C24.5225 6.88646 24.5068 6.91386 24.486 6.93719C24.4652 6.96052 24.4398 6.97927 24.4114 6.99223C24.383 7.00519 24.3521 7.01209 24.3209 7.01248L22.5584 7.19998H22.5376Z" fill="#333333"/>
<path d="M2150.21 884.092H-1650.33V-1692.12H2150.21V884.092ZM-1649.93 883.675H2149.8V-1691.74H-1649.93V883.675Z" fill="#333333"/>
<path d="M2150.21 884.092H-1650.33V-1692.12H2150.21V884.092ZM-1649.93 883.675H2149.8V-1691.74H-1649.93V883.675Z" fill="#333333"/>
<path d="M2150.21 884.092H-1650.33V-1692.12H2150.21V884.092ZM-1649.93 883.675H2149.8V-1691.74H-1649.93V883.675Z" fill="#333333"/>
</g>
<defs>
<clipPath id="clip0_11152_142744">
<rect width="30" height="30" fill="white" transform="translate(0.5 0.375)"/>
</clipPath>
</defs>
</svg>
