<svg width="18" height="17" viewBox="0 0 18 17" fill="none" xmlns="http://www.w3.org/2000/svg">
<rect x="0.845703" y="0.974609" width="16.6778" height="15.8" rx="7.9" fill="#3390BF"/>
<path d="M8.48118 4.93417V12.8163C8.48118 13.0636 8.77593 13.2641 9.13952 13.2641C9.50311 13.2641 9.79785 13.0636 9.79785 12.8163L9.79785 4.93417C9.79785 4.68684 9.50311 4.48633 9.13952 4.48633C8.77593 4.48633 8.48118 4.68684 8.48118 4.93417Z" fill="white"/>
<path d="M7.09684 10.7983C6.88454 10.5881 6.52466 10.5739 6.29302 10.7665C6.06138 10.9592 6.0457 11.2858 6.25799 11.4961L8.76083 13.9745C8.98629 14.1978 9.37409 14.1978 9.5996 13.9746L12.1034 11.4961C12.3157 11.2859 12.3001 10.9593 12.0685 10.7666C11.8369 10.5739 11.477 10.5881 11.2646 10.7983L9.18033 12.8615L7.09684 10.7983Z" fill="white"/>
</svg>
