<svg width="24" height="29" viewBox="0 0 24 29" fill="none" xmlns="http://www.w3.org/2000/svg">
<path d="M1.05141 21.1428V27.8218H1.14972V21.1428C1.14972 20.3913 1.33043 19.8977 1.69264 19.5708C2.04075 19.2567 2.52355 19.1312 3.02745 19.0245L3.02816 19.0244C3.7461 18.8749 5.84478 18.4604 9.2827 17.7979L9.33332 17.788V16.6921C9.33332 16.6787 9.32792 16.6646 9.31616 16.6532C9.3042 16.6416 9.28667 16.634 9.26712 16.634C9.24757 16.634 9.23004 16.6416 9.21807 16.6532C9.20632 16.6646 9.20091 16.6787 9.20091 16.6921V17.5149V17.6952L9.02378 17.729C5.72192 18.3585 3.69595 18.761 3.01112 18.9095C2.47254 19.028 1.99046 19.1725 1.63871 19.4843C1.29915 19.7854 1.05141 20.2711 1.05141 21.1428Z" stroke="black" stroke-width="0.43589"/>
<path d="M7.6047 2.46642C7.01994 2.72066 6.52029 3.13716 6.16493 3.6666C5.80957 4.19603 5.61338 4.81623 5.59961 5.45372V9.35929L5.88439 9.00477C6.73874 8.22017 6.31447 7.72035 7.31411 7.72035L7.83137 7.81915L8.11615 7.72035C9.13904 7.72035 9.66792 6.44755 10.2375 5.68038C11.3999 6.47661 12.4111 7.59248 13.8873 7.59248L14.9742 7.81915L16.6015 7.72035C16.784 7.73528 16.9663 7.68818 17.1187 7.58667C17.1127 7.62322 17.1088 7.66009 17.1071 7.6971L18.3276 8.57469V5.66876C18.3276 2.72795 15.6716 0.33346 12.4053 0.33346C10.8682 0.314912 9.37901 0.867925 8.22657 1.88523L7.6047 2.46642Z" fill="#009DD4"/>
<path d="M11.9866 17.5787C7.61609 17.5787 6.64551 13.3477 6.64551 11.8598V5.63532C6.64551 5.55825 6.67612 5.48434 6.73062 5.42984C6.78512 5.37534 6.85903 5.34473 6.9361 5.34473C7.01317 5.34473 7.08709 5.37534 7.14158 5.42984C7.19608 5.48434 7.22669 5.55825 7.22669 5.63532V11.8598C7.22669 11.9121 7.36037 17.015 11.9982 17.015C16.6361 17.015 16.7291 11.9121 16.7291 11.8598V5.63532C16.7291 5.55825 16.7597 5.48434 16.8142 5.42984C16.8687 5.37534 16.9426 5.34473 17.0197 5.34473C17.0968 5.34473 17.1707 5.37534 17.2252 5.42984C17.2797 5.48434 17.3103 5.55825 17.3103 5.63532V11.8598C17.2987 13.4523 16.3397 17.5787 11.9866 17.5787Z" fill="#333333"/>
<path d="M15.4398 8.04163C14.8152 8.03698 14.1931 7.96093 13.5858 7.81497C12.3761 7.52258 11.2565 6.93787 10.3254 6.11209C10.0449 6.70413 9.59079 7.19674 9.02349 7.52437C8.37718 7.85954 7.65926 8.03303 6.93122 8.03001C6.85415 8.03001 6.78023 7.99939 6.72574 7.94489C6.67124 7.8904 6.64062 7.81648 6.64062 7.73941C6.64062 7.66234 6.67124 7.58843 6.72574 7.53393C6.78023 7.47943 6.85415 7.44882 6.93122 7.44882C7.56753 7.45192 8.19532 7.30244 8.76196 7.01293C9.32263 6.66653 9.7489 6.13984 9.97083 5.51928L10.1336 5.12988L10.4358 5.42048C11.3515 6.31343 12.4892 6.94547 13.7311 7.25122C14.7798 7.53433 15.8848 7.53433 16.9334 7.25122C17.0105 7.22886 17.0933 7.23805 17.1636 7.27674C17.2339 7.31543 17.286 7.38047 17.3083 7.45754C17.3307 7.53461 17.3215 7.6174 17.2828 7.6877C17.2441 7.758 17.1791 7.81005 17.102 7.8324C16.5615 7.98497 16.0012 8.0555 15.4398 8.04163Z" fill="#333333"/>
<path d="M6.96036 10.8759C6.37917 10.8236 5.63525 10.4574 5.63525 9.05095C5.63525 7.64448 6.33849 7.23184 6.9313 7.12141C6.96946 7.11416 7.00868 7.1145 7.04671 7.1224C7.08474 7.13031 7.12084 7.14562 7.15295 7.16748C7.18506 7.18934 7.21256 7.21731 7.23386 7.24979C7.25516 7.28227 7.26986 7.31863 7.27711 7.35679C7.28436 7.39495 7.28402 7.43417 7.27612 7.4722C7.26821 7.51023 7.25289 7.54633 7.23104 7.57844C7.20918 7.61055 7.18121 7.63805 7.14873 7.65935C7.11625 7.68065 7.07989 7.69535 7.04173 7.7026C6.6872 7.77234 6.21644 7.98738 6.21644 9.06257C6.21644 10.1378 6.64071 10.2773 7.01267 10.3121C7.08974 10.316 7.16212 10.3503 7.21389 10.4075C7.26566 10.4647 7.29258 10.5402 7.28873 10.6172C7.28488 10.6943 7.25057 10.7667 7.19334 10.8185C7.13612 10.8702 7.06068 10.8972 6.98361 10.8933L6.96036 10.8759Z" fill="#333333"/>
<path d="M17.3058 10.8756C17.2338 10.8747 17.1647 10.8476 17.1112 10.7995C17.0578 10.7514 17.0236 10.6855 17.0152 10.614C17.012 10.5759 17.0164 10.5374 17.0281 10.5009C17.0399 10.4645 17.0587 10.4307 17.0835 10.4015C17.1084 10.3723 17.1388 10.3484 17.1729 10.331C17.2071 10.3136 17.2443 10.3031 17.2825 10.3002C17.6545 10.2653 18.0787 10.091 18.0787 9.05066C18.0787 8.01033 17.608 7.76042 17.2534 7.69068C17.1776 7.6752 17.1108 7.63066 17.0674 7.56659C17.0239 7.50251 17.0073 7.42397 17.021 7.34778C17.0286 7.31038 17.0435 7.27484 17.0649 7.24321C17.0862 7.21157 17.1136 7.18446 17.1455 7.16341C17.1773 7.14236 17.213 7.12779 17.2505 7.12053C17.2879 7.11328 17.3265 7.11347 17.3639 7.12112C17.9451 7.23154 18.6599 7.66162 18.6599 9.05066C18.6599 10.4397 17.9393 10.8349 17.3348 10.8756H17.3058Z" fill="#333333"/>
<path d="M12.4104 20.3686L9.03373 16.8815C9.01007 16.8521 8.99243 16.8184 8.98182 16.7822C8.97121 16.746 8.96783 16.708 8.97187 16.6705C8.97592 16.633 8.98732 16.5967 9.00541 16.5636C9.0235 16.5305 9.04794 16.5012 9.07732 16.4776C9.10671 16.4539 9.14046 16.4363 9.17667 16.4257C9.21287 16.4151 9.25081 16.4117 9.28831 16.4157C9.32582 16.4198 9.36217 16.4312 9.39527 16.4493C9.42837 16.4674 9.45759 16.4918 9.48125 16.5212L12.4221 19.4271L14.9212 16.5212C14.946 16.4922 14.9762 16.4683 15.0103 16.451C15.0443 16.4337 15.0814 16.4233 15.1194 16.4203C15.1575 16.4174 15.1957 16.4219 15.232 16.4337C15.2683 16.4456 15.3019 16.4644 15.3309 16.4892C15.3599 16.514 15.3837 16.5443 15.401 16.5783C15.4183 16.6123 15.4288 16.6494 15.4317 16.6875C15.4347 16.7255 15.4302 16.7638 15.4183 16.8C15.4065 16.8363 15.3877 16.8699 15.3629 16.8989L12.4104 20.3686Z" fill="#333333"/>
<path fill-rule="evenodd" clip-rule="evenodd" d="M12.2315 24.1976C12.3709 24.1984 12.5091 24.1716 12.6381 24.1188C12.7671 24.0659 12.8844 23.9881 12.9833 23.8899C13.0821 23.7916 13.1605 23.6747 13.214 23.546C13.2676 23.4173 13.2951 23.2792 13.2951 23.1398V22.0763C13.2951 21.7942 13.1831 21.5237 12.9836 21.3242C12.7841 21.1248 12.5136 21.0127 12.2315 21.0127C11.9495 21.0127 11.6789 21.1248 11.4795 21.3242C11.28 21.5237 11.168 21.7942 11.168 22.0763V23.1398C11.168 23.2792 11.1955 23.4173 11.249 23.546C11.3026 23.6747 11.381 23.7916 11.4798 23.8899C11.5787 23.9881 11.696 24.0659 11.825 24.1188C11.954 24.1716 12.0921 24.1984 12.2315 24.1976ZM11.7259 22.0763C11.7259 21.9422 11.7792 21.8136 11.874 21.7187C11.9688 21.6239 12.0974 21.5706 12.2315 21.5706C12.3656 21.5706 12.4943 21.6239 12.5891 21.7187C12.6839 21.8136 12.7372 21.9422 12.7372 22.0763V23.1398C12.7372 23.2739 12.6839 23.4026 12.5891 23.4974C12.4943 23.5922 12.3656 23.6455 12.2315 23.6455C12.0974 23.6455 11.9688 23.5922 11.874 23.4974C11.7792 23.4026 11.7259 23.2739 11.7259 23.1398V22.0763Z" fill="#333333"/>
<path d="M4.26899 22.8826C4.19187 22.8796 4.11879 22.8472 4.06476 22.7921C4.01073 22.737 3.97983 22.6633 3.9784 22.5861C4.00591 21.9461 3.94925 21.3052 3.80986 20.6799C3.76603 20.4661 3.67697 20.2643 3.54866 20.0879C3.42034 19.9114 3.25575 19.7645 3.06594 19.657C3.02888 19.6402 2.99576 19.6159 2.9687 19.5855C2.94164 19.5552 2.92126 19.5195 2.90886 19.4808C2.89646 19.442 2.89233 19.4011 2.89672 19.3607C2.90112 19.3203 2.91396 19.2812 2.93439 19.2461C2.95483 19.2109 2.98242 19.1805 3.01537 19.1567C3.04832 19.1328 3.08591 19.1162 3.12569 19.1078C3.16548 19.0994 3.20658 19.0995 3.24635 19.108C3.28611 19.1165 3.32365 19.1332 3.35653 19.1571C3.61401 19.3029 3.83775 19.5016 4.01303 19.74C4.18832 19.9783 4.3112 20.2511 4.37361 20.5404C4.52501 21.2151 4.58753 21.9068 4.55959 22.5978C4.55959 22.6357 4.55204 22.6732 4.53737 22.7081C4.52269 22.743 4.50119 22.7747 4.47413 22.8012C4.44707 22.8277 4.41498 22.8486 4.37976 22.8626C4.34454 22.8765 4.30688 22.8833 4.26899 22.8826Z" fill="#333333"/>
<path d="M12.1667 10.0229C10.1849 9.99541 7.22656 11.1853 7.22656 11.1853C7.22656 11.1853 7.62479 13.0532 8.09834 14.0908C8.96335 15.986 10.1325 16.416 12.1659 16.4155C14.1994 16.415 15.4376 14.7433 15.9444 13.8002C16.4278 12.9005 16.8161 11.1853 16.8161 11.1853C16.8161 11.1853 14.0381 10.0489 12.1667 10.0229Z" fill="#009DD4" stroke="#333333" stroke-width="0.43589"/>
<path d="M19.6577 22.8826C19.5821 22.8812 19.5099 22.8509 19.4558 22.7979C19.4018 22.745 19.3701 22.6734 19.3671 22.5978C19.345 21.907 19.4075 21.2161 19.5531 20.5404C19.6192 20.2495 19.746 19.9759 19.9253 19.7375C20.1046 19.4992 20.3323 19.3014 20.5934 19.1572C20.6607 19.1188 20.7403 19.1082 20.8153 19.1278C20.8902 19.1473 20.9545 19.1954 20.9944 19.2618C21.0141 19.2945 21.027 19.3308 21.0324 19.3685C21.0378 19.4062 21.0355 19.4447 21.0258 19.4815C21.016 19.5184 20.9989 19.5529 20.9756 19.5831C20.9522 19.6132 20.9231 19.6384 20.8898 19.657C20.6999 19.7651 20.5349 19.9121 20.4057 20.0884C20.2765 20.2646 20.186 20.4662 20.1401 20.6799C20.0062 21.306 19.9496 21.9463 19.9716 22.5862C19.9723 22.6244 19.9656 22.6623 19.9517 22.6979C19.9378 22.7334 19.917 22.7659 19.8906 22.7934C19.8641 22.8209 19.8325 22.843 19.7975 22.8583C19.7626 22.8736 19.7249 22.8818 19.6868 22.8826H19.6577Z" fill="#333333"/>
<path d="M23.2816 21.3792V28.403H23.1833V21.3792C23.1833 20.5946 23.0041 20.0812 22.6443 19.7403C22.2961 19.4104 21.8123 19.2782 21.3077 19.1661L21.307 19.1659C20.589 19.0089 18.4902 18.5737 15.0523 17.878L14.9997 17.8673V16.7059C14.9997 16.6854 15.0077 16.6667 15.0206 16.6535C15.0334 16.6405 15.0498 16.634 15.0659 16.634C15.082 16.634 15.0984 16.6405 15.1112 16.6535C15.1241 16.6667 15.1321 16.6854 15.1321 16.7059V17.5698V17.7485L15.3073 17.7835C18.6092 18.4445 20.6351 18.8672 21.3197 19.0231C21.8574 19.1472 22.3386 19.2986 22.6904 19.626C23.0318 19.9439 23.2816 20.4584 23.2816 21.3792Z" stroke="black" stroke-width="0.43589"/>
<path d="M1.41502 28.0391V28.2369L22.9189 28.4143V28.6202" stroke="black" stroke-width="0.43589"/>
</svg>
