<svg width="21" height="21" viewBox="0 0 21 21" fill="none" xmlns="http://www.w3.org/2000/svg">
<path d="M10.5007 3.92188C9.83962 3.92188 9.19338 4.11791 8.64371 4.48519C8.09404 4.85247 7.66562 5.37449 7.41264 5.98526C7.15965 6.59602 7.09346 7.26808 7.22243 7.91647C7.3514 8.56485 7.66974 9.16042 8.1372 9.62788C8.60466 10.0953 9.20023 10.4137 9.84861 10.5427C10.497 10.6716 11.1691 10.6054 11.7798 10.3524C12.3906 10.0995 12.9126 9.67104 13.2799 9.12137C13.6472 8.5717 13.8432 7.92546 13.8432 7.26438C13.8432 6.37789 13.491 5.52771 12.8642 4.90087C12.2374 4.27403 11.3872 3.92188 10.5007 3.92188ZM10.5007 9.44021C10.0704 9.44021 9.64969 9.3126 9.29188 9.07352C8.93406 8.83443 8.65518 8.49461 8.4905 8.09703C8.32581 7.69945 8.28272 7.26196 8.36668 6.83989C8.45063 6.41782 8.65786 6.03012 8.96216 5.72583C9.26645 5.42153 9.65415 5.21431 10.0762 5.13035C10.4983 5.04639 10.9358 5.08948 11.3334 5.25417C11.7309 5.41885 12.0708 5.69773 12.3098 6.05555C12.5489 6.41336 12.6765 6.83404 12.6765 7.26438C12.675 7.84043 12.4451 8.39237 12.0372 8.79915C11.6293 9.20594 11.0768 9.43438 10.5007 9.43438V9.44021Z" fill="#8B8D8E"/>
<path d="M10.5006 1.16797C8.68361 1.16949 6.94106 1.88995 5.65354 3.17201C4.36602 4.45406 3.63815 6.19352 3.62891 8.01047C3.62891 10.7346 5.15724 13.0155 6.27724 14.678L6.48141 14.9813C7.59574 16.5963 8.79116 18.1539 10.0631 19.648L10.5064 20.1671L10.9497 19.648C12.2215 18.1538 13.4169 16.5962 14.5314 14.9813L14.7356 14.6721C15.8497 13.0096 17.3781 10.7346 17.3781 8.01047C17.3688 6.19251 16.6401 4.45217 15.3514 3.16995C14.0626 1.88773 12.3186 1.16795 10.5006 1.16797ZM13.7614 14.0013L13.5514 14.3105C12.5481 15.8155 11.2181 17.5013 10.5006 18.3355C9.81224 17.5013 8.45307 15.8155 7.44974 14.3105L7.24557 14.0013C6.21307 12.4613 4.79557 10.3555 4.79557 7.98714C4.79557 7.23794 4.94314 6.49609 5.22984 5.80393C5.51654 5.11176 5.93677 4.48285 6.46653 3.95309C6.99629 3.42333 7.6252 3.00311 8.31736 2.7164C9.00953 2.4297 9.75138 2.28214 10.5006 2.28214C11.2498 2.28214 11.9916 2.4297 12.6838 2.7164C13.3759 3.00311 14.0049 3.42333 14.5346 3.95309C15.0644 4.48285 15.4846 5.11176 15.7713 5.80393C16.058 6.49609 16.2056 7.23794 16.2056 7.98714C16.2056 10.3788 14.7939 12.4846 13.7614 14.0013Z" fill="#8B8D8E"/>
</svg>
