<svg width="21" height="26" viewBox="0 0 21 26" fill="none" xmlns="http://www.w3.org/2000/svg">
  <path d="M6.2542 22.8959L4.3667 4.92093L17.1209 3.6001L19.0084 21.5751L6.2542 22.8959ZM4.85837 5.32093L6.6542 22.4043L18.5167 21.1543L16.7209 4.07093L4.85837 5.32093Z" fill="#333333"/>
  <path d="M6.2542 22.8959L4.3667 4.92093L17.1209 3.6001L19.0084 21.5751L6.2542 22.8959ZM4.85837 5.32093L6.6542 22.4043L18.5167 21.1543L16.7209 4.07093L4.85837 5.32093Z" fill="#333333"/>
  <path fill-rule="evenodd" clip-rule="evenodd" d="M11.1667 10.0876L12.6125 8.35424C12.7457 8.18157 12.806 7.96356 12.7802 7.74701C12.7545 7.53045 12.645 7.3326 12.475 7.19591C12.297 7.05523 12.0712 6.98958 11.8455 7.01293C11.6198 7.03627 11.4121 7.14677 11.2667 7.32091L10.9 7.75841L10.4542 7.40841C10.2762 7.26773 10.0503 7.20208 9.82465 7.22543C9.59897 7.24877 9.39131 7.35927 9.24588 7.53341C9.10755 7.70222 9.04098 7.91856 9.06046 8.13594C9.07993 8.35332 9.18391 8.55437 9.35004 8.69591L11.1667 10.0876Z" fill="#009DD4"/>
  <path d="M7.596 12.196C7.53633 12.1993 7.47778 12.1788 7.43324 12.139C7.3887 12.0991 7.36182 12.0432 7.3585 11.9835C7.35519 11.9238 7.37571 11.8653 7.41556 11.8208C7.45542 11.7762 7.51133 11.7493 7.571 11.746L15.4043 10.9127C15.4338 10.9086 15.4637 10.9106 15.4924 10.9187C15.521 10.9267 15.5477 10.9405 15.5707 10.9592C15.5938 10.978 15.6127 11.0013 15.6264 11.0277C15.6401 11.0541 15.6482 11.083 15.6502 11.1127C15.656 11.1718 15.6383 11.2307 15.6008 11.2768C15.5633 11.3228 15.5092 11.3522 15.4502 11.3585L7.621 12.1919L7.596 12.196Z" fill="#333333"/>
  <path d="M7.75006 13.6877C7.69039 13.6905 7.63206 13.6694 7.58791 13.6292C7.54376 13.5889 7.51741 13.5328 7.51465 13.4731C7.51188 13.4135 7.53294 13.3551 7.57318 13.311C7.61342 13.2668 7.66955 13.2405 7.72923 13.2377L15.5584 12.4044C15.5881 12.4003 15.6183 12.4023 15.6471 12.4103C15.676 12.4183 15.7029 12.432 15.7263 12.4507C15.7497 12.4694 15.769 12.4927 15.7831 12.5191C15.7973 12.5455 15.8058 12.5745 15.8084 12.6044C15.8142 12.6635 15.7965 12.7224 15.759 12.7685C15.7216 12.8145 15.6674 12.8439 15.6084 12.8502L7.77506 13.6836L7.75006 13.6877Z" fill="#333333"/>
  <path d="M8.05829 16.0708C8.00342 16.0701 7.9507 16.0494 7.91003 16.0125C7.86936 15.9757 7.84355 15.9253 7.83746 15.8708C7.834 15.8414 7.83646 15.8117 7.84471 15.7833C7.85296 15.7549 7.86682 15.7285 7.88547 15.7055C7.90412 15.6826 7.92718 15.6637 7.95329 15.6498C7.97939 15.636 8.00802 15.6275 8.03746 15.6249L15.8666 14.7916C15.8963 14.7875 15.9265 14.7895 15.9553 14.7975C15.9842 14.8055 16.0112 14.8192 16.0345 14.8379C16.0579 14.8566 16.0773 14.8799 16.0914 14.9063C16.1055 14.9327 16.1141 14.9618 16.1166 14.9916C16.1225 15.0507 16.1047 15.1096 16.0672 15.1557C16.0298 15.2017 15.9756 15.2311 15.9166 15.2374L8.08329 16.0708H8.05829Z" fill="#333333"/>
  <path d="M8.21657 17.5627C8.15942 17.5628 8.10447 17.5406 8.06329 17.501C8.02211 17.4614 7.99789 17.4073 7.99574 17.3502C7.99167 17.3211 7.99357 17.2914 8.00133 17.2631C8.00908 17.2347 8.02253 17.2082 8.04085 17.1852C8.05917 17.1622 8.08198 17.1432 8.10789 17.1293C8.13381 17.1154 8.16228 17.1069 8.19157 17.1044L16.0249 16.271C16.0543 16.2676 16.084 16.2701 16.1124 16.2783C16.1408 16.2866 16.1672 16.3004 16.1901 16.3191C16.213 16.3377 16.232 16.3608 16.2458 16.3869C16.2597 16.413 16.2682 16.4416 16.2707 16.471C16.2766 16.5301 16.2588 16.5891 16.2214 16.6352C16.1839 16.6812 16.1298 16.7106 16.0707 16.7169L8.24157 17.5502L8.21657 17.5627Z" fill="#333333"/>
  <path d="M8.37501 19.054C8.31969 19.0534 8.26643 19.0328 8.22507 18.9961C8.18371 18.9593 8.15705 18.9088 8.15002 18.854C8.14418 18.7949 8.16193 18.7359 8.19939 18.6899C8.23685 18.6438 8.29099 18.6144 8.35001 18.6081L11.7083 18.254C11.7377 18.2505 11.7674 18.253 11.7958 18.2612C11.8242 18.2695 11.8506 18.2833 11.8736 18.302C11.8965 18.3206 11.9154 18.3437 11.9293 18.3698C11.9431 18.3959 11.9516 18.4245 11.9542 18.454C11.96 18.513 11.9423 18.572 11.9048 18.6181C11.8673 18.6641 11.8132 18.6935 11.7542 18.6998L8.39585 19.054H8.37501Z" fill="#333333"/>
  <path d="M5.05835 25.6249L0.99585 8.02069L4.00418 7.22069C4.03291 7.21318 4.06284 7.21143 4.09225 7.21555C4.12166 7.21967 4.14996 7.22956 4.17552 7.24467C4.20109 7.25978 4.22341 7.27979 4.2412 7.30357C4.25899 7.32734 4.2719 7.3544 4.27918 7.38319C4.29233 7.44054 4.28332 7.50075 4.25396 7.55174C4.2246 7.60274 4.17705 7.64076 4.12085 7.65819L1.52918 8.34152L5.39585 25.0832L17.2334 22.3499C17.2919 22.3373 17.3529 22.3482 17.4036 22.3801C17.4542 22.412 17.4903 22.4625 17.5042 22.5207C17.5166 22.5787 17.5056 22.6392 17.4736 22.6892C17.4416 22.7391 17.3912 22.7744 17.3333 22.7874L5.05835 25.6249Z" fill="#333333"/>
  <path d="M17.7125 3.22506C17.67 3.2251 17.6283 3.21308 17.5923 3.19041C17.5564 3.16774 17.5276 3.13535 17.5092 3.09697C17.4909 3.0586 17.4839 3.01582 17.4889 2.97359C17.4939 2.93137 17.5107 2.89142 17.5375 2.85839L18.65 1.48339C18.6876 1.43698 18.742 1.40739 18.8014 1.40114C18.8608 1.39489 18.9203 1.41249 18.9667 1.45006C19.0131 1.48763 19.0427 1.5421 19.0489 1.60149C19.0552 1.66087 19.0376 1.72031 19 1.76672L17.8708 3.14172C17.8514 3.16552 17.8273 3.18517 17.8001 3.19948C17.7729 3.2138 17.7431 3.2225 17.7125 3.22506Z" fill="#333333"/>
  <path d="M15.671 2.94596C15.6161 2.94528 15.5634 2.92458 15.5227 2.88774C15.482 2.85091 15.4562 2.80049 15.4501 2.74596L15.2626 0.983456C15.2596 0.953909 15.2625 0.924058 15.271 0.895608C15.2795 0.867158 15.2936 0.840667 15.3123 0.817645C15.3502 0.771152 15.405 0.741618 15.4647 0.73554C15.5244 0.729462 15.584 0.747338 15.6305 0.785236C15.6536 0.804001 15.6727 0.827117 15.6867 0.853264C15.7008 0.87941 15.7096 0.908076 15.7126 0.937623L15.896 2.69596C15.8994 2.72531 15.897 2.75505 15.8887 2.78343C15.8805 2.81181 15.8666 2.83824 15.848 2.86117C15.8293 2.88409 15.8062 2.90304 15.7801 2.91689C15.754 2.93074 15.7254 2.9392 15.696 2.94179L15.671 2.94596Z" fill="#333333"/>
  <path d="M18.0376 5.19998C17.982 5.20033 17.9282 5.18008 17.8867 5.14315C17.8451 5.10622 17.8187 5.05522 17.8126 4.99998C17.8091 4.97063 17.8116 4.94089 17.8198 4.91251C17.8281 4.88413 17.8419 4.8577 17.8606 4.83477C17.8792 4.81185 17.9023 4.7929 17.9284 4.77905C17.9545 4.7652 17.9831 4.75673 18.0126 4.75415L19.7751 4.56665C19.8057 4.56068 19.8373 4.56116 19.8678 4.56806C19.8983 4.57497 19.927 4.58815 19.9521 4.60676C19.9772 4.62537 19.9981 4.64901 20.0136 4.67617C20.029 4.70332 20.0387 4.7334 20.0419 4.76449C20.0451 4.79558 20.0418 4.82699 20.0321 4.85672C20.0225 4.88646 20.0068 4.91386 19.986 4.93719C19.9652 4.96052 19.9398 4.97927 19.9114 4.99223C19.883 5.00519 19.8521 5.01209 19.8209 5.01248L18.0584 5.19998H18.0376Z" fill="#333333"/>
</svg>
