<svg width="17" height="16" viewBox="0 0 17 16" fill="none" xmlns="http://www.w3.org/2000/svg">
<g clip-path="url(#clip0_11384_133183)">
<path d="M8.5 0C4.09135 0 0.5 3.59135 0.5 8C0.5 12.4087 4.09135 16 8.5 16C12.9087 16 16.5 12.4087 16.5 8C16.5 3.59135 12.9087 0 8.5 0ZM8.5 1.23077C12.2452 1.23077 15.2692 4.25481 15.2692 8C15.2692 11.7452 12.2452 14.7692 8.5 14.7692C4.75481 14.7692 1.73077 11.7452 1.73077 8C1.73077 4.25481 4.75481 1.23077 8.5 1.23077ZM7.88462 3.69231V4.92308H9.11539V3.69231H7.88462ZM7.88462 6.15385V12.3077H9.11539V6.15385H7.88462Z" fill="#0099CC"/>
</g>
<defs>
<clipPath id="clip0_11384_133183">
<rect width="16" height="16" fill="white" transform="translate(0.5)"/>
</clipPath>
</defs>
</svg>
