<svg width="17" height="16" viewBox="0 0 17 16" fill="none" xmlns="http://www.w3.org/2000/svg">
<path d="M8.51172 0C4.10307 0 0.511719 3.59135 0.511719 8C0.511719 12.4087 4.10307 16 8.51172 16C12.9204 16 16.5117 12.4087 16.5117 8C16.5117 3.59135 12.9204 0 8.51172 0ZM8.51172 1.23077C12.2569 1.23077 15.281 4.25481 15.281 8C15.281 11.7452 12.2569 14.7692 8.51172 14.7692C4.76653 14.7692 1.74249 11.7452 1.74249 8C1.74249 4.25481 4.76653 1.23077 8.51172 1.23077ZM7.89633 3.69231V4.92308H9.1271V3.69231H7.89633ZM7.89633 6.15385V12.3077H9.1271V6.15385H7.89633Z" fill="#0099CC"/>
</svg>
