<svg width="36" height="36" viewBox="0 0 36 36" fill="none" xmlns="http://www.w3.org/2000/svg">
<path d="M11.9978 3.59961C7.36695 3.59961 3.6001 7.36995 3.6001 12.002V24.002C3.6001 28.6328 7.37044 32.3996 12.0024 32.3996H24.0024C28.6332 32.3996 32.4001 28.6293 32.4001 23.9973V11.9973C32.4001 7.36647 28.6298 3.59961 23.9978 3.59961H11.9978ZM26.4001 8.39961C27.0625 8.39961 27.6001 8.93721 27.6001 9.59961C27.6001 10.262 27.0625 10.7996 26.4001 10.7996C25.7377 10.7996 25.2001 10.262 25.2001 9.59961C25.2001 8.93721 25.7377 8.39961 26.4001 8.39961ZM18.0001 10.7996C21.9709 10.7996 25.2001 14.0288 25.2001 17.9996C25.2001 21.9704 21.9709 25.1996 18.0001 25.1996C14.0293 25.1996 10.8001 21.9704 10.8001 17.9996C10.8001 14.0288 14.0293 10.7996 18.0001 10.7996ZM18.0001 13.1996C16.7271 13.1996 15.5062 13.7053 14.606 14.6055C13.7058 15.5057 13.2001 16.7266 13.2001 17.9996C13.2001 19.2726 13.7058 20.4935 14.606 21.3937C15.5062 22.2939 16.7271 22.7996 18.0001 22.7996C19.2731 22.7996 20.494 22.2939 21.3942 21.3937C22.2944 20.4935 22.8001 19.2726 22.8001 17.9996C22.8001 16.7266 22.2944 15.5057 21.3942 14.6055C20.494 13.7053 19.2731 13.1996 18.0001 13.1996Z" fill="#0099CC"/>
</svg>
