<svg width="39" height="25" viewBox="0 0 39 25" fill="none" xmlns="http://www.w3.org/2000/svg">
<g clip-path="url(#clip0_10009_120280)">
<path fill-rule="evenodd" clip-rule="evenodd" d="M0 1.78574C0 0.799502 0.799503 0 1.78574 0H36.31C37.2963 0 38.0958 0.799503 38.0958 1.78574V23.2146C38.0958 24.2009 37.2963 25.0004 36.31 25.0004H1.78574C0.799501 25.0004 0 24.2009 0 23.2146V1.78574Z" fill="#F4F6F7"/>
<path fill-rule="evenodd" clip-rule="evenodd" d="M14.8817 19.0476C18.4979 19.0476 21.4294 16.1161 21.4294 12.4999C21.4294 8.88366 18.4979 5.95215 14.8817 5.95215C11.2655 5.95215 8.33398 8.88366 8.33398 12.4999C8.33398 16.1161 11.2655 19.0476 14.8817 19.0476Z" fill="#D8232A"/>
<path fill-rule="evenodd" clip-rule="evenodd" d="M19.0483 17.551C20.1804 18.4859 21.6321 19.0476 23.215 19.0476C26.8312 19.0476 29.7627 16.1161 29.7627 12.4999C29.7627 8.88366 26.8312 5.95215 23.215 5.95215C21.6321 5.95215 20.1804 6.51382 19.0483 7.44874C20.5026 8.6497 21.4294 10.4665 21.4294 12.4999C21.4294 14.5332 20.5026 16.35 19.0483 17.551Z" fill="#ED9F2D"/>
<path fill-rule="evenodd" clip-rule="evenodd" d="M19.0482 7.44971C17.5942 8.65067 16.6675 10.4674 16.6675 12.5006C16.6675 14.5338 17.5942 16.3505 19.0482 17.5515C20.5023 16.3505 21.429 14.5338 21.429 12.5006C21.429 10.4674 20.5023 8.65067 19.0482 7.44971Z" fill="#D8232A"/>
<mask id="mask0_10009_120280" style="mask-type:alpha" maskUnits="userSpaceOnUse" x="16" y="7" width="6" height="11">
<path fill-rule="evenodd" clip-rule="evenodd" d="M19.0482 7.44971C17.5942 8.65067 16.6675 10.4674 16.6675 12.5006C16.6675 14.5338 17.5942 16.3505 19.0482 17.5515C20.5023 16.3505 21.429 14.5338 21.429 12.5006C21.429 10.4674 20.5023 8.65067 19.0482 7.44971Z" fill="white"/>
</mask>
<g mask="url(#mask0_10009_120280)">
<path fill-rule="evenodd" clip-rule="evenodd" d="M15.4771 8.3335H22.62V9.52399H15.4771V8.3335ZM15.4771 10.7148H22.62V11.9053H15.4771V10.7148ZM22.62 13.0938H15.4771V14.2843H22.62V13.0938ZM15.4771 15.4751H22.62V16.6656H15.4771V15.4751ZM22.62 17.8575H15.4771V19.048H22.62V17.8575Z" fill="#ED9F2D"/>
</g>
<path fill-rule="evenodd" clip-rule="evenodd" d="M0 1.5C0 0.671573 0.671573 0 1.5 0H30.5C31.3284 0 32 0.671573 32 1.5V19.5C32 20.3284 31.3284 21 30.5 21H1.5C0.671573 21 0 20.3284 0 19.5V1.5Z" fill="#E5E5E5" fill-opacity="0.01"/>
</g>
<defs>
<clipPath id="clip0_10009_120280">
<rect width="38.0958" height="25.0004" fill="white"/>
</clipPath>
</defs>
</svg>
