<svg width="208" height="25" viewBox="0 0 208 25" fill="none" xmlns="http://www.w3.org/2000/svg">
  <g clip-path="url(#clip0_2278_74820)">
    <path fill-rule="evenodd" clip-rule="evenodd" d="M0.96698 2.01116C0.96698 1.06439 1.73449 0.296875 2.68127 0.296875H35.8241C36.7709 0.296875 37.5384 1.06439 37.5384 2.01116V22.5826C37.5384 23.5294 36.7709 24.2969 35.8241 24.2969H2.68127C1.73449 24.2969 0.96698 23.5294 0.96698 22.5826V2.01116Z" fill="#F4F6F7"/>
    <path fill-rule="evenodd" clip-rule="evenodd" d="M0.96698 2.01116C0.96698 1.06439 1.73449 0.296875 2.68127 0.296875H35.8241C36.7709 0.296875 37.5384 1.06439 37.5384 2.01116V6.01116H0.96698V2.01116Z" fill="#4095DB"/>
    <path fill-rule="evenodd" clip-rule="evenodd" d="M0.96698 18.582H37.5384V22.582C37.5384 23.5288 36.7709 24.2963 35.8241 24.2963H2.68127C1.73449 24.2963 0.96698 23.5288 0.96698 22.582V18.582Z" fill="#F4B662"/>
    <path fill-rule="evenodd" clip-rule="evenodd" d="M23.9853 8.62215C23.6295 8.46661 23.0698 8.29688 22.3727 8.29688C20.5934 8.29688 19.3409 9.34871 19.3305 10.8547C19.3192 11.9686 20.2243 12.5899 20.9066 12.9602C21.6079 13.3397 21.8435 13.5826 21.8407 13.922C21.8359 14.441 21.281 14.6788 20.7635 14.6788C20.043 14.6788 19.6602 14.5618 19.0683 14.2724L18.8368 14.149L18.5851 15.8838C19.0048 16.0997 19.7828 16.287 20.5902 16.2969C22.4812 16.2969 23.7099 15.2579 23.7243 13.6497C23.7308 12.7663 23.2512 12.0966 22.2126 11.5438C21.5837 11.1846 21.1977 10.9465 21.2021 10.5828C21.2025 10.2606 21.5282 9.91583 22.2331 9.91583C22.8218 9.9053 23.2479 10.056 23.58 10.2135L23.7416 10.3022L23.9853 8.62215ZM15.6584 16.1826L16.7843 8.43259H18.584L17.4582 16.1826H15.6584ZM27.0999 11.2684C27.0999 11.2684 26.5321 12.9891 26.383 13.4346H27.8771C27.8059 13.0471 27.4606 11.1973 27.4606 11.1973L27.3391 10.5289C27.2912 10.6823 27.2243 10.8855 27.1733 11.0402L27.1732 11.0406L27.1731 11.0409C27.1276 11.1788 27.095 11.278 27.0999 11.2684ZM28.6036 8.44066H27.2128C26.7814 8.44066 26.4585 8.57778 26.2695 9.0831L23.5969 16.1855H25.4871C25.4871 16.1855 25.7955 15.2301 25.8655 15.0204C25.9624 15.0204 26.4195 15.0213 26.904 15.0222C27.4504 15.0233 28.0317 15.0244 28.1706 15.0244C28.2245 15.2949 28.3897 16.1855 28.3897 16.1855H30.0602L28.6036 8.44066ZM14.1485 8.44098L12.387 13.7246L12.1983 12.6506C12.1959 12.6415 12.1934 12.6323 12.1909 12.6231C12.1936 12.6312 12.1964 12.6393 12.1991 12.6475L11.5684 9.08645C11.4596 8.59533 11.1434 8.44974 10.7525 8.43257H7.85034L7.82635 8.59315C8.53167 8.79365 9.16244 9.08267 9.71533 9.44211L11.3168 16.1777L13.2215 16.1765L16.0556 8.44098H14.1485Z" fill="#0071CE"/>
    <path fill-rule="evenodd" clip-rule="evenodd" d="M0.96698 2.01116C0.96698 1.06439 1.73449 0.296875 2.68127 0.296875H35.8241C36.7709 0.296875 37.5384 1.06439 37.5384 2.01116V22.5826C37.5384 23.5294 36.7709 24.2969 35.8241 24.2969H2.68127C1.73449 24.2969 0.96698 23.5294 0.96698 22.5826V2.01116Z" fill="#E5E5E5" fill-opacity="0.01"/>
  </g>
  <g clip-path="url(#clip1_2278_74820)">
    <path fill-rule="evenodd" clip-rule="evenodd" d="M57.5394 2.01116C57.5394 1.06439 58.3069 0.296875 59.2537 0.296875H92.3965C93.3433 0.296875 94.1108 1.06439 94.1108 2.01116V22.5826C94.1108 23.5294 93.3433 24.2969 92.3965 24.2969H59.2537C58.3069 24.2969 57.5394 23.5294 57.5394 22.5826V2.01116Z" fill="url(#paint0_radial_2278_74820)"/>
    <path fill-rule="evenodd" clip-rule="evenodd" d="M57.5394 2.01116C57.5394 1.06439 58.3069 0.296875 59.2537 0.296875H92.3965C93.3433 0.296875 94.1108 1.06439 94.1108 2.01116V22.5826C94.1108 23.5294 93.3433 24.2969 92.3965 24.2969H59.2537C58.3069 24.2969 57.5394 23.5294 57.5394 22.5826V2.01116Z" fill="#E5E5E5" fill-opacity="0.01"/>
    <mask id="path-8-outside-1_2278_74820" maskUnits="userSpaceOnUse" x="61.9036" y="7.44141" width="29" height="9" fill="black">
      <rect fill="white" x="61.9036" y="7.44141" width="29" height="9"/>
      <path fill-rule="evenodd" clip-rule="evenodd" d="M65.9944 12.9474L66.7565 10.8506H66.7729L67.5105 12.9474H65.9944ZM66.1162 9.44141L63.9036 15.1557H65.1984L65.6573 13.8832H67.8453L68.2878 15.1557H69.6235L67.4355 9.44141H66.1162ZM70.1312 9.44141V15.1557H71.3358V11.1461H71.3522L72.7862 15.1557H73.7778L75.2119 11.1061H75.2282V15.1557H76.4329V9.44141H74.6218L73.3271 13.371H73.3107L71.9422 9.44141H70.1312ZM77.5648 9.44141V15.1557H82.0063V14.0993H78.8513V12.6987H81.6867V11.7223H78.8513V10.4978H81.9407V9.44141H77.5648ZM84.3084 12.1625L82.2679 15.1557H83.7101L85.0131 13.1789L86.2915 15.1557H87.8239L85.7834 12.1705L87.66 9.44141H86.2505L85.0623 11.2661L83.915 9.44141H82.4236L84.3084 12.1625Z"/>
    </mask>
    <path fill-rule="evenodd" clip-rule="evenodd" d="M65.9944 12.9474L66.7565 10.8506H66.7729L67.5105 12.9474H65.9944ZM66.1162 9.44141L63.9036 15.1557H65.1984L65.6573 13.8832H67.8453L68.2878 15.1557H69.6235L67.4355 9.44141H66.1162ZM70.1312 9.44141V15.1557H71.3358V11.1461H71.3522L72.7862 15.1557H73.7778L75.2119 11.1061H75.2282V15.1557H76.4329V9.44141H74.6218L73.3271 13.371H73.3107L71.9422 9.44141H70.1312ZM77.5648 9.44141V15.1557H82.0063V14.0993H78.8513V12.6987H81.6867V11.7223H78.8513V10.4978H81.9407V9.44141H77.5648ZM84.3084 12.1625L82.2679 15.1557H83.7101L85.0131 13.1789L86.2915 15.1557H87.8239L85.7834 12.1705L87.66 9.44141H86.2505L85.0623 11.2661L83.915 9.44141H82.4236L84.3084 12.1625Z" fill="#1793C0" fill-opacity="0.01"/>
    <path d="M65.9944 12.9474L64.9203 12.557L64.3631 14.0903H65.9944V12.9474ZM66.7565 10.8506V9.70773H65.9559L65.6824 10.4602L66.7565 10.8506ZM66.7729 10.8506L67.8511 10.4714L67.5825 9.70773H66.7729V10.8506ZM67.5105 12.9474V14.0903H69.1239L68.5886 12.5682L67.5105 12.9474ZM66.1162 9.44141V8.29855H65.3332L65.0504 9.02875L66.1162 9.44141ZM63.9036 15.1557L62.8379 14.743L62.2356 16.2985H63.9036V15.1557ZM65.1984 15.1557V16.2985H66.0011L66.2735 15.5434L65.1984 15.1557ZM65.6573 13.8832V12.7403H64.8545L64.5822 13.4955L65.6573 13.8832ZM67.8453 13.8832L68.9247 13.5078L68.6578 12.7403H67.8453V13.8832ZM68.2878 15.1557L67.2083 15.5311L67.4752 16.2985H68.2878V15.1557ZM69.6235 15.1557V16.2985H71.2849L70.6908 14.747L69.6235 15.1557ZM67.4355 9.44141L68.5028 9.03274L68.2217 8.29855H67.4355V9.44141ZM70.1312 9.44141V8.29855H68.9883V9.44141H70.1312ZM70.1312 15.1557H68.9883V16.2985H70.1312V15.1557ZM71.3358 15.1557V16.2985H72.4786V15.1557H71.3358ZM71.3358 11.1461V10.0032H70.1929V11.1461H71.3358ZM71.3522 11.1461L72.4283 10.7612L72.1572 10.0032H71.3522V11.1461ZM72.7862 15.1557L71.7101 15.5406L71.9812 16.2985H72.7862V15.1557ZM73.7778 15.1557V16.2985H74.5855L74.8551 15.5372L73.7778 15.1557ZM75.2119 11.1061V9.96322H74.4042L74.1346 10.7246L75.2119 11.1061ZM75.2282 11.1061H76.3711V9.96322H75.2282V11.1061ZM75.2282 15.1557H74.0854V16.2985H75.2282V15.1557ZM76.4329 15.1557V16.2985H77.5757V15.1557H76.4329ZM76.4329 9.44141H77.5757V8.29855H76.4329V9.44141ZM74.6218 9.44141V8.29855H73.7951L73.5364 9.08376L74.6218 9.44141ZM73.3271 13.371V14.5138H74.1538L74.4125 13.7286L73.3271 13.371ZM73.3107 13.371L72.2314 13.7468L72.4985 14.5138H73.3107V13.371ZM71.9422 9.44141L73.0215 9.06554L72.7544 8.29855H71.9422V9.44141ZM77.5648 9.44141V8.29855H76.4219V9.44141H77.5648ZM77.5648 15.1557H76.4219V16.2985H77.5648V15.1557ZM82.0063 15.1557V16.2985H83.1491V15.1557H82.0063ZM82.0063 14.0993H83.1491V12.9564H82.0063V14.0993ZM78.8513 14.0993H77.7085V15.2421H78.8513V14.0993ZM78.8513 12.6987V11.5559H77.7085V12.6987H78.8513ZM81.6867 12.6987V13.8416H82.8295V12.6987H81.6867ZM81.6867 11.7223H82.8295V10.5795H81.6867V11.7223ZM78.8513 11.7223H77.7085V12.8652H78.8513V11.7223ZM78.8513 10.4978V9.35497H77.7085V10.4978H78.8513ZM81.9407 10.4978V11.6407H83.0836V10.4978H81.9407ZM81.9407 9.44141H83.0836V8.29855H81.9407V9.44141ZM84.3084 12.1625L85.2527 12.8062L85.695 12.1573L85.2479 11.5117L84.3084 12.1625ZM82.2679 15.1557L81.3236 14.512L80.1056 16.2985H82.2679V15.1557ZM83.7101 15.1557V16.2985H84.3256L84.6644 15.7846L83.7101 15.1557ZM85.0131 13.1789L85.9728 12.5583L85.0222 11.0884L84.0589 12.5499L85.0131 13.1789ZM86.2915 15.1557L85.3318 15.7763L85.6695 16.2985H86.2915V15.1557ZM87.8239 15.1557V16.2985H89.9894L88.7674 14.5108L87.8239 15.1557ZM85.7834 12.1705L84.8417 11.523L84.3978 12.1686L84.8399 12.8154L85.7834 12.1705ZM87.66 9.44141L88.6017 10.0889L89.8328 8.29855H87.66V9.44141ZM86.2505 9.44141V8.29855H85.6309L85.2928 8.81777L86.2505 9.44141ZM85.0623 11.2661L84.0947 11.8744L85.0454 13.3864L86.02 11.8898L85.0623 11.2661ZM83.915 9.44141L84.8825 8.8331L84.5464 8.29855H83.915V9.44141ZM82.4236 9.44141V8.29855H80.2417L81.4841 10.0922L82.4236 9.44141ZM67.0686 13.3378L67.8307 11.241L65.6824 10.4602L64.9203 12.557L67.0686 13.3378ZM66.7565 11.9934H66.7729V9.70773H66.7565V11.9934ZM65.6948 11.2298L66.4323 13.3266L68.5886 12.5682L67.8511 10.4714L65.6948 11.2298ZM67.5105 11.8046H65.9944V14.0903H67.5105V11.8046ZM65.0504 9.02875L62.8379 14.743L64.9694 15.5684L67.1819 9.85406L65.0504 9.02875ZM63.9036 16.2985H65.1984V14.0128H63.9036V16.2985ZM66.2735 15.5434L66.7324 14.2709L64.5822 13.4955L64.1233 14.768L66.2735 15.5434ZM65.6573 15.026H67.8453V12.7403H65.6573V15.026ZM66.7658 14.2586L67.2083 15.5311L69.3672 14.7803L68.9247 13.5078L66.7658 14.2586ZM68.2878 16.2985H69.6235V14.0128H68.2878V16.2985ZM70.6908 14.747L68.5028 9.03274L66.3682 9.85007L68.5562 15.5644L70.6908 14.747ZM67.4355 8.29855H66.1162V10.5843H67.4355V8.29855ZM68.9883 9.44141V15.1557H71.274V9.44141H68.9883ZM70.1312 16.2985H71.3358V14.0128H70.1312V16.2985ZM72.4786 15.1557V11.1461H70.1929V15.1557H72.4786ZM71.3358 12.2889H71.3522V10.0032H71.3358V12.2889ZM70.2761 11.531L71.7101 15.5406L73.8623 14.7708L72.4283 10.7612L70.2761 11.531ZM72.7862 16.2985H73.7778V14.0128H72.7862V16.2985ZM74.8551 15.5372L76.2892 11.4876L74.1346 10.7246L72.7005 14.7742L74.8551 15.5372ZM75.2119 12.2489H75.2282V9.96322H75.2119V12.2489ZM74.0854 11.1061V15.1557H76.3711V11.1061H74.0854ZM75.2282 16.2985H76.4329V14.0128H75.2282V16.2985ZM77.5757 15.1557V9.44141H75.29V15.1557H77.5757ZM76.4329 8.29855H74.6218V10.5843H76.4329V8.29855ZM73.5364 9.08376L72.2416 13.0133L74.4125 13.7286L75.7073 9.79905L73.5364 9.08376ZM73.3271 12.2281H73.3107V14.5138H73.3271V12.2281ZM74.39 12.9951L73.0215 9.06554L70.8629 9.81728L72.2314 13.7468L74.39 12.9951ZM71.9422 8.29855H70.1312V10.5843H71.9422V8.29855ZM76.4219 9.44141V15.1557H78.7076V9.44141H76.4219ZM77.5648 16.2985H82.0063V14.0128H77.5648V16.2985ZM83.1491 15.1557V14.0993H80.8634V15.1557H83.1491ZM82.0063 12.9564H78.8513V15.2421H82.0063V12.9564ZM79.9942 14.0993V12.6987H77.7085V14.0993H79.9942ZM78.8513 13.8416H81.6867V11.5559H78.8513V13.8416ZM82.8295 12.6987V11.7223H80.5438V12.6987H82.8295ZM81.6867 10.5795H78.8513V12.8652H81.6867V10.5795ZM79.9942 11.7223V10.4978H77.7085V11.7223H79.9942ZM78.8513 11.6407H81.9407V9.35497H78.8513V11.6407ZM83.0836 10.4978V9.44141H80.7979V10.4978H83.0836ZM81.9407 8.29855H77.5648V10.5843H81.9407V8.29855ZM83.364 11.5188L81.3236 14.512L83.2122 15.7994L85.2527 12.8062L83.364 11.5188ZM82.2679 16.2985H83.7101V14.0128H82.2679V16.2985ZM84.6644 15.7846L85.9673 13.8079L84.0589 12.5499L82.7559 14.5267L84.6644 15.7846ZM84.0534 13.7995L85.3318 15.7763L87.2511 14.5351L85.9728 12.5583L84.0534 13.7995ZM86.2915 16.2985H87.8239V14.0128H86.2915V16.2985ZM88.7674 14.5108L86.7269 11.5256L84.8399 12.8154L86.8804 15.8006L88.7674 14.5108ZM86.7251 12.818L88.6017 10.0889L86.7183 8.79387L84.8417 11.523L86.7251 12.818ZM87.66 8.29855H86.2505V10.5843H87.66V8.29855ZM85.2928 8.81777L84.1046 10.6425L86.02 11.8898L87.2082 10.065L85.2928 8.81777ZM86.0298 10.6578L84.8825 8.8331L82.9475 10.0497L84.0947 11.8744L86.0298 10.6578ZM83.915 8.29855H82.4236V10.5843H83.915V8.29855ZM81.4841 10.0922L83.3689 12.8132L85.2479 11.5117L83.3631 8.79066L81.4841 10.0922Z" fill="white" mask="url(#path-8-outside-1_2278_74820)"/>
  </g>
  <g clip-path="url(#clip2_2278_74820)">
    <path fill-rule="evenodd" clip-rule="evenodd" d="M114.111 2.01116C114.111 1.06439 114.878 0.296875 115.825 0.296875H148.968C149.915 0.296875 150.682 1.06439 150.682 2.01116V22.5826C150.682 23.5294 149.915 24.2969 148.968 24.2969H115.825C114.878 24.2969 114.111 23.5294 114.111 22.5826V2.01116Z" fill="#F4F6F7"/>
    <path fill-rule="evenodd" clip-rule="evenodd" d="M128.397 18.5831C131.868 18.5831 134.682 15.7689 134.682 12.2974C134.682 8.82593 131.868 6.01172 128.397 6.01172C124.925 6.01172 122.111 8.82593 122.111 12.2974C122.111 15.7689 124.925 18.5831 128.397 18.5831Z" fill="#D8232A"/>
    <path fill-rule="evenodd" clip-rule="evenodd" d="M132.397 17.146C133.484 18.0438 134.878 18.5831 136.397 18.5831C139.869 18.5831 142.683 15.7689 142.683 12.2974C142.683 8.82593 139.869 6.01172 136.397 6.01172C134.878 6.01172 133.484 6.5511 132.397 7.44888C133.793 8.60179 134.682 10.3457 134.682 12.2974C134.682 14.2491 133.793 15.9931 132.397 17.146Z" fill="#ED9F2D"/>
    <path fill-rule="evenodd" clip-rule="evenodd" d="M132.397 17.1471C133.793 15.9942 134.682 14.2501 134.682 12.2982C134.682 10.3463 133.793 8.60212 132.397 7.44922C131.001 8.60212 130.111 10.3462 130.111 12.2982C130.111 14.2501 131.001 15.9942 132.397 17.1471Z" fill="#D8232A"/>
    <mask id="mask0_2278_74820" style="mask-type:luminance" maskUnits="userSpaceOnUse" x="130" y="7" width="5" height="11">
      <path fill-rule="evenodd" clip-rule="evenodd" d="M132.397 17.1471C133.793 15.9942 134.682 14.2501 134.682 12.2982C134.682 10.3463 133.793 8.60212 132.397 7.44922C131.001 8.60212 130.111 10.3462 130.111 12.2982C130.111 14.2501 131.001 15.9942 132.397 17.1471Z" fill="white"/>
    </mask>
    <g mask="url(#mask0_2278_74820)">
      <path fill-rule="evenodd" clip-rule="evenodd" d="M128.968 8.29688H135.825V9.43973H128.968V8.29688ZM128.968 10.582H135.825V11.7249H128.968V10.582ZM135.825 12.8672H128.968V14.01H135.825V12.8672ZM128.968 15.1553H135.825V16.2981H128.968V15.1553ZM135.825 17.4404H128.968V18.5833H135.825V17.4404Z" fill="#ED9F2D"/>
    </g>
    <path fill-rule="evenodd" clip-rule="evenodd" d="M114.111 2.01116C114.111 1.06439 114.878 0.296875 115.825 0.296875H148.968C149.915 0.296875 150.682 1.06439 150.682 2.01116V22.5826C150.682 23.5294 149.915 24.2969 148.968 24.2969H115.825C114.878 24.2969 114.111 23.5294 114.111 22.5826V2.01116Z" fill="#E5E5E5" fill-opacity="0.01"/>
  </g>
  <g clip-path="url(#clip3_2278_74820)">
    <path fill-rule="evenodd" clip-rule="evenodd" d="M170.684 2.01507C170.684 1.06829 171.452 0.300781 172.398 0.300781H205.541C206.488 0.300781 207.256 1.06829 207.256 2.01507V22.5865C207.256 23.5333 206.488 24.3008 205.541 24.3008H172.398C171.452 24.3008 170.684 23.5333 170.684 22.5865V2.01507Z" fill="#F4F6F7"/>
    <path fill-rule="evenodd" clip-rule="evenodd" d="M170.684 2.01507C170.684 1.06829 171.452 0.300781 172.398 0.300781H205.541C206.488 0.300781 207.256 1.06829 207.256 2.01507V22.5865C207.256 23.5333 206.488 24.3008 205.541 24.3008H172.398C171.452 24.3008 170.684 23.5333 170.684 22.5865V2.01507Z" fill="#E5E5E5" fill-opacity="0.01"/>
    <path fill-rule="evenodd" clip-rule="evenodd" d="M190.469 17.988C193.558 18.0029 196.378 15.4456 196.378 12.3346C196.378 8.93247 193.558 6.5809 190.469 6.58203H187.81C184.684 6.5809 182.111 8.93317 182.111 12.3346C182.111 15.4463 184.684 18.0029 187.81 17.988H190.469Z" fill="url(#paint1_linear_2278_74820)"/>
    <path fill-rule="evenodd" clip-rule="evenodd" d="M187.821 7.05664C184.965 7.05755 182.65 9.39418 182.649 12.278C182.65 15.1614 184.965 17.4978 187.821 17.4987C190.679 17.4978 192.994 15.1614 192.994 12.278C192.994 9.39418 190.679 7.05755 187.821 7.05664ZM184.544 12.2779C184.546 10.8687 185.418 9.66699 186.648 9.18945V15.3656C185.418 14.8884 184.546 13.6873 184.544 12.2779ZM188.995 15.3672V9.18945C190.225 9.66583 191.099 10.8682 191.101 12.2781C191.099 13.6884 190.225 14.8899 188.995 15.3672Z" fill="#F4F6F7"/>
  </g>
  <defs>
    <radialGradient id="paint0_radial_2278_74820" cx="0" cy="0" r="1" gradientUnits="userSpaceOnUse" gradientTransform="translate(69.8206 4.84598) rotate(90) scale(24 36.5714)">
      <stop stop-color="#71C8F2"/>
      <stop offset="1" stop-color="#0071BD"/>
    </radialGradient>
    <linearGradient id="paint1_linear_2278_74820" x1="199.339" y1="15.8052" x2="195.68" y2="3.8478" gradientUnits="userSpaceOnUse">
      <stop stop-color="#009BE0"/>
      <stop offset="1" stop-color="#006BA8"/>
    </linearGradient>
    <clipPath id="clip0_2278_74820">
      <rect width="36.5714" height="24" fill="white" transform="translate(0.967957 0.296875)"/>
    </clipPath>
    <clipPath id="clip1_2278_74820">
      <rect width="36.5714" height="24" fill="white" transform="translate(57.5394 0.296875)"/>
    </clipPath>
    <clipPath id="clip2_2278_74820">
      <rect width="36.5714" height="24" fill="white" transform="translate(114.111 0.296875)"/>
    </clipPath>
    <clipPath id="clip3_2278_74820">
      <rect width="36.5714" height="24" fill="white" transform="translate(170.682 0.296875)"/>
    </clipPath>
  </defs>
</svg>
