<svg width="242" height="134" viewBox="0 0 242 134" fill="none" xmlns="http://www.w3.org/2000/svg">
<g opacity="0.4" clip-path="url(#clip0_6296_34644)">
<path d="M13.3555 133.43H85.2896V99.2885H119.589V36.2316C119.589 36.2316 118.16 20.9028 136.263 14.632L183.901 0V86.3984H216.295V105.211H263.934V70.594" stroke="#57CBFC" stroke-linecap="round" stroke-linejoin="round"/>
<path d="M138.652 38.4883H146.538" stroke="#57CBFC" stroke-linecap="round" stroke-linejoin="round"/>
<path d="M157.051 38.4883H165.813" stroke="#57CBFC" stroke-linecap="round" stroke-linejoin="round"/>
<path d="M138.652 46.8281H146.538" stroke="#57CBFC" stroke-linecap="round" stroke-linejoin="round"/>
<path d="M157.051 46.8281H165.813" stroke="#57CBFC" stroke-linecap="round" stroke-linejoin="round"/>
<path d="M138.652 56.4512H146.538" stroke="#57CBFC" stroke-linecap="round" stroke-linejoin="round"/>
<path d="M157.051 56.4512H165.813" stroke="#57CBFC" stroke-linecap="round" stroke-linejoin="round"/>
<path d="M138.652 64.791H146.538" stroke="#57CBFC" stroke-linecap="round" stroke-linejoin="round"/>
<path d="M157.051 64.791H165.813" stroke="#57CBFC" stroke-linecap="round" stroke-linejoin="round"/>
<path d="M138.652 74.4141H146.538" stroke="#57CBFC" stroke-linecap="round" stroke-linejoin="round"/>
<path d="M157.051 74.4141H165.813" stroke="#57CBFC" stroke-linecap="round" stroke-linejoin="round"/>
<path d="M138.652 82.752H146.538" stroke="#57CBFC" stroke-linecap="round" stroke-linejoin="round"/>
<path d="M157.051 82.752H165.813" stroke="#57CBFC" stroke-linecap="round" stroke-linejoin="round"/>
<path d="M138.652 91.7305H146.538" stroke="#57CBFC" stroke-linecap="round" stroke-linejoin="round"/>
<path d="M157.051 91.7305H165.813" stroke="#57CBFC" stroke-linecap="round" stroke-linejoin="round"/>
<path d="M138.652 100.713H146.538" stroke="#57CBFC" stroke-linecap="round" stroke-linejoin="round"/>
<path d="M157.051 100.713H165.813" stroke="#57CBFC" stroke-linecap="round" stroke-linejoin="round"/>
<path d="M138.652 109.053H146.538" stroke="#57CBFC" stroke-linecap="round" stroke-linejoin="round"/>
<path d="M157.051 109.053H165.813" stroke="#57CBFC" stroke-linecap="round" stroke-linejoin="round"/>
<path d="M138.652 118.676H146.538" stroke="#57CBFC" stroke-linecap="round" stroke-linejoin="round"/>
<path d="M138.652 128.297H146.538" stroke="#57CBFC" stroke-linecap="round" stroke-linejoin="round"/>
<path d="M157.051 118.676H165.813" stroke="#57CBFC" stroke-linecap="round" stroke-linejoin="round"/>
<path d="M157.051 128.297H165.813" stroke="#57CBFC" stroke-linecap="round" stroke-linejoin="round"/>
<path d="M16.6829 112.718C16.6829 112.7 14.3896 113.144 14.1311 113.174C13.2158 113.29 12.2745 113.233 11.3989 113.007C9.60615 112.501 8.44106 111.184 7.90774 109.895C7.7957 109.638 7.7201 109.373 7.68211 109.105C7.52211 107.691 7.35801 105.922 10.4472 103.56C10.4472 103.56 1.83203 101.91 1.83203 96.1143C1.83203 90.3186 10.7712 88.6687 10.7712 88.6687C10.7712 88.6687 6.70573 81.5 15.3208 78.9029C23.936 76.3059 27.8333 83.1499 27.5092 84.5616C27.5092 84.5616 33.0352 83.4984 34.4833 87.0366C35.9315 90.5747 32.387 93.416 32.387 93.416C32.387 93.416 35.4761 94.7115 34.6638 97.663C33.8516 100.614 30.2742 100.492 30.2742 100.492C30.2742 100.492 34.9879 106.628 30.2742 111.113C28.0425 113.236 24.297 114.359 20.695 114.544C19.8007 114.588 18.8325 114.562 18.0982 114.189C17.3639 113.817 17.0849 113.239 16.6829 112.718Z" fill="#E3F6FD"/>
<path d="M17.396 131.629C13.4297 120.013 15.5045 105.865 18.9083 95.8096C20.0578 97.2393 20.278 98.9609 20.331 100.62C20.3967 102.811 20.2153 105.003 19.7888 107.173C19.4627 108.814 18.9368 110.529 17.396 111.745C16.6775 112.3 15.7842 112.718 14.7939 112.964C13.8035 113.209 12.7461 113.274 11.7135 113.153C10.6846 113.016 9.7173 112.698 8.89591 112.225C8.07451 111.752 7.42402 111.139 7.00122 110.44C6.36329 109.247 6.26894 107.935 6.73218 106.699C7.54746 104.286 10.1033 102.118 13.4297 101.597C13.2535 101.951 12.9641 102.269 12.5855 102.525C12.2068 102.781 11.7499 102.967 11.2529 103.068C10.254 103.263 9.20259 103.263 8.20375 103.068C6.88656 102.841 5.64441 102.425 4.54979 101.844C3.45518 101.262 2.53002 100.527 1.82831 99.6817C1.13701 98.8316 0.684361 97.8894 0.496792 96.91C0.309223 95.9307 0.390487 94.9339 0.735842 93.9778C1.5022 91.8929 3.51593 90.1296 5.94544 88.8965C6.728 88.4563 7.63653 88.1508 8.60324 88.003C9.08716 87.9357 9.58639 87.9573 10.056 88.066C10.5257 88.1746 10.9509 88.3669 11.2936 88.6255C11.9336 89.1676 11.9703 90.0939 11.2243 90.5615C8.74183 87.72 7.35994 84.0088 9.39813 80.9826C10.1456 79.9105 11.2686 79.0022 12.6527 78.3503C14.0368 77.6984 15.6327 77.3262 17.2778 77.2714C18.9171 77.2431 20.5377 77.531 21.9763 78.1062C23.4148 78.6814 24.6203 79.5236 25.4713 80.5478C26.2882 81.5885 26.7147 82.7684 26.7075 83.9681C26.7003 85.1679 26.2598 86.345 25.4305 87.3805C25.1044 87.7796 24.3176 88.1698 23.9304 87.8034C23.863 87.7192 23.8203 87.6257 23.8048 87.5288C23.7894 87.4319 23.8016 87.3337 23.8407 87.2405C24.121 86.275 24.8309 85.4045 25.8597 84.7649C26.8884 84.1253 28.1781 83.7526 29.5272 83.705C30.2367 83.6807 30.9449 83.7702 31.602 83.9673C32.259 84.1644 32.849 84.4642 33.3305 84.8458C34.5534 85.8733 34.6512 87.3834 34.2884 88.7178C33.9293 90.0256 33.1897 91.2618 32.1198 92.3426C31.223 93.2362 29.8248 94.1 28.3288 93.8676C28.8587 92.8847 30.689 92.5154 31.9975 92.9741C33.306 93.4328 34.0846 94.4633 34.2599 95.5207C34.3934 96.2956 34.2311 97.0824 33.7908 97.7942C33.3505 98.5059 32.6495 99.1148 31.7652 99.5536C29.9675 100.388 27.3953 100.277 25.8504 99.2081C26.426 99.1243 27.0211 99.1471 27.5815 99.2746C28.1419 99.4021 28.6497 99.6301 29.0585 99.9378C31.0966 101.359 31.6062 103.771 31.704 105.725C31.8105 107.166 31.4031 108.603 30.5219 109.895C29.5195 111.229 28.0272 112.331 26.2132 113.079C23.4412 114.27 19.8255 114.92 16.6133 114.434" stroke="#57CBFC" stroke-linecap="round" stroke-linejoin="round"/>
</g>
<defs>
<clipPath id="clip0_6296_34644">
<rect width="241.357" height="134" fill="white" transform="translate(0.398438)"/>
</clipPath>
</defs>
</svg>
