<svg width="132" height="153" viewBox="0 0 132 153" fill="none" xmlns="http://www.w3.org/2000/svg">
<g opacity="0.4" clip-path="url(#clip0_6296_34626)">
<path d="M26.5847 98.1167C26.5119 97.7437 24.0379 96.6472 23.6903 96.4234C21.2809 94.9017 19.0091 93.201 16.8827 91.3586C10.8917 86.152 6.03269 79.5505 4.49654 71.9868C3.58294 67.4888 2.84721 60.7606 6.85735 57.2622C9.35561 55.0915 14.1742 54.6663 15.7266 58.0081C15.7266 58.0081 13.2121 52.5852 13.2121 44.6858C13.2121 41.1949 14.6836 37.1445 17.9823 35.1379C21.7094 32.8703 24.1915 35.5706 25.4366 38.6587C24.6039 36.5999 25.3719 33.937 25.8166 31.8782C26.2855 29.7076 26.6979 27.4399 27.3447 25.314C28.808 20.5177 32.4544 16.2659 37.2892 14.0058C46.886 9.51526 57.7603 13.2001 62.6355 21.7187C65.7483 27.1565 67.0014 33.6386 67.0984 39.7552C67.0984 40.0088 67.1065 40.255 67.0984 40.5086C67.0984 40.5086 67.2682 45.7749 66.2576 49.9521C66.2576 49.9521 78.6761 48.8705 78.6761 57.8514C78.6761 66.8324 70.6154 71.1663 70.6154 71.1663C70.6154 71.1663 77.3259 68.9956 77.997 74.4185C78.668 79.8414 74.4719 103.226 45.9401 103.226C45.9401 103.226 40.6768 102.764 36.7636 101.317C36.7717 101.317 27.3123 101.831 26.5847 98.1167Z" fill="#E1F7FE"/>
<path d="M197.76 74.4453H169.482C147.438 74.4453 148.11 93.7262 148.11 93.7262V110.954H132.078V172.903H118.275V90.4435L92.4465 104.804V139.473H73.2936C73.2936 139.473 73.2936 129.497 73.2936 129.48C73.2936 129.565 58.1462 129.429 56.8755 129.489C53.1462 129.675 49.1959 130.456 46.0099 132.314C39.601 136.054 39.4629 142.705 39.4629 148.999C39.4629 154.258 39.4629 159.517 39.4629 164.785C39.4629 168.95 39.4629 173.106 39.4629 177.271C35.3192 177.271 30.4941 176.474 27.879 180.189C26.4886 182.166 26.0742 184.693 26.0742 187.018" stroke="#37CAFC" stroke-miterlimit="10" stroke-linecap="round" stroke-linejoin="round"/>
<path d="M27.866 59.168C27.866 59.168 26.9913 68.0068 34.8458 72.0276C34.8458 72.0276 14.7812 112.676 14.7812 199.198" stroke="#37CAFC" stroke-miterlimit="10" stroke-linecap="round" stroke-linejoin="round"/>
<path d="M26.488 97.3728C26.488 97.3728 0.105469 86.8841 0.105469 63.4479C0.105469 40.0118 20.1755 57.5871 16.787 59.0281C13.4067 60.4692 9.1223 50.1885 9.1223 42.374C9.1223 39.0833 10.6047 35.5474 13.032 33.1035C16.1435 29.9688 20.8678 30.0282 23.8816 33.2372C24.9079 34.3366 25.9749 35.5697 26.4066 36.9885C26.651 37.7833 26.651 38.6673 26.26 39.4101C25.6572 40.5318 24.5495 40.5466 23.8083 39.581C21.8045 36.9737 21.7882 33.7127 21.8371 30.6448C21.9104 25.133 23.5557 19.8515 27.3107 15.4986C32.9065 8.99144 43.8375 5.55958 52.0887 10.0091C56.8781 12.5867 59.7453 17.4076 61.5698 22.0429C63.5247 27.0049 64.4777 32.4721 64.4777 37.7462C64.4777 47.1058 60.1932 54.4003 55.6808 54.6083C52.1457 54.7717 57.7089 49.832 58.3524 49.364C61.9933 46.7121 67.7032 44.2088 72.0528 46.9869C76.4431 49.78 76.4838 55.7746 74.3905 59.7784C72.1261 64.0942 67.915 67.4518 63.6794 70.1408C66.0986 68.6031 69.9024 65.9215 73.0872 67.1472C74.0728 67.5261 74.7163 68.4249 75.0177 69.3608C77.7056 77.569 72.4926 86.6835 65.7402 91.9427C60.6657 95.8945 54.7359 97.8036 48.2115 98.747C47.1689 98.8956 46.1182 99.0144 45.0674 99.0813C41.1251 99.3338 37.0443 98.8807 33.5582 97.1796" stroke="#37CAFC" stroke-miterlimit="10" stroke-linecap="round" stroke-linejoin="round"/>
<path d="M40.3398 68.9899C40.3398 68.9899 49.5204 67.5818 52.3841 60.7109" stroke="#37CAFC" stroke-miterlimit="10" stroke-linecap="round" stroke-linejoin="round"/>
</g>
<defs>
<clipPath id="clip0_6296_34626">
<rect width="131.453" height="153" fill="white" transform="translate(0.0859375)"/>
</clipPath>
</defs>
</svg>
