<svg width="14" height="15" viewBox="0 0 14 15" fill="none" xmlns="http://www.w3.org/2000/svg">
<path d="M9.7614 9.42057C9.53134 9.2857 9.24857 9.28853 9.01964 9.42453L7.86024 10.1153C7.6007 10.27 7.27657 10.2519 7.03857 10.066C6.62717 9.7447 5.96474 9.2041 5.38844 8.6278C4.81214 8.0515 4.27154 7.38907 3.95024 6.97767C3.76437 6.73967 3.74624 6.41553 3.90094 6.156L4.5917 4.9966C4.72827 4.76767 4.7294 4.48263 4.59454 4.25257L2.89284 1.34613C2.72794 1.06507 2.4004 0.9268 2.08364 1.00443C1.77594 1.0798 1.37644 1.26227 0.957671 1.68103C-0.353596 2.9923 -1.05003 5.204 3.8811 10.1351C8.81224 15.0663 11.0245 14.3704 12.3358 13.0591C12.7557 12.6392 12.9376 12.2392 13.0129 11.9309C13.0894 11.6147 12.9534 11.2894 12.6729 11.1251C11.9725 10.7154 10.4618 9.83083 9.7614 9.42057Z" fill="#0099CC"/>
</svg>
