<svg width="21" height="20" viewBox="0 0 21 20" fill="none" xmlns="http://www.w3.org/2000/svg">
<g clip-path="url(#clip0_4213_133085)">
<path d="M10.5938 2.5C6.11621 2.5 2.46875 6.14746 2.46875 10.625C2.46875 15.1025 6.11621 18.75 10.5938 18.75C15.0713 18.75 18.7188 15.1025 18.7188 10.625C18.7188 6.14746 15.0713 2.5 10.5938 2.5ZM10.5938 3.75C14.3975 3.75 17.4688 6.82129 17.4688 10.625C17.4688 14.4287 14.3975 17.5 10.5938 17.5C6.79004 17.5 3.71875 14.4287 3.71875 10.625C3.71875 6.82129 6.79004 3.75 10.5938 3.75ZM9.96875 7.5V10H7.46875V11.25H9.96875V13.75H11.2188V11.25H13.7188V10H11.2188V7.5H9.96875Z" fill="#0099CC"/>
</g>
<defs>
<clipPath id="clip0_4213_133085">
<rect width="20" height="20" fill="white" transform="translate(0.46875)"/>
</clipPath>
</defs>
</svg>
