<svg width="30" height="30" viewBox="0 0 30 30" fill="none" xmlns="http://www.w3.org/2000/svg">
<g clip-path="url(#clip0_5640_144073)">
<path d="M2305.38 882.242H-1495.16V-1693.97H2305.38V882.242ZM-1494.76 881.825H2305V-1693.59H-1494.76V881.825Z" fill="#333333"/>
<path d="M2305.38 882.242H-1495.16V-1693.97H2305.38V882.242ZM-1494.76 881.825H2305V-1693.59H-1494.76V881.825Z" fill="#333333"/>
<path d="M2305.38 882.242H-1495.16V-1693.97H2305.38V882.242ZM-1494.76 881.825H2305V-1693.59H-1494.76V881.825Z" fill="#333333"/>
<path d="M2.85938 12.4665L8.15104 11.7998" stroke="black" stroke-width="0.5" stroke-linecap="round" stroke-linejoin="round"/>
<path d="M8.15234 11.8011L20.2232 10.2803" stroke="black" stroke-width="0.5" stroke-linecap="round" stroke-linejoin="round"/>
<path d="M20.4875 12.3457L3.125 14.5332" stroke="black" stroke-width="0.5" stroke-linejoin="round"/>
<path d="M6.33073 19.3714C6.90603 19.3714 7.3724 18.905 7.3724 18.3298C7.3724 17.7545 6.90603 17.2881 6.33073 17.2881C5.75543 17.2881 5.28906 17.7545 5.28906 18.3298C5.28906 18.905 5.75543 19.3714 6.33073 19.3714Z" fill="#009DD4"/>
<path d="M15.2453 17.6251L15.2703 17.8334L10.362 18.4501C10.3549 18.4501 10.3481 18.4476 10.3427 18.443C10.3373 18.4384 10.3338 18.4321 10.3328 18.4251L10.1328 16.8251C10.1328 16.8251 10.1328 16.8001 10.1536 16.7959L14.4245 16.2501L15.062 16.1709L15.2453 17.6251Z" stroke="black" stroke-width="0.5" stroke-linecap="round" stroke-linejoin="round"/>
<path d="M6.72069 9.6712L3.27486 10.0879C3.18264 10.0987 3.09349 10.1277 3.0126 10.1733C2.93172 10.2189 2.86071 10.2801 2.8037 10.3534C2.7467 10.4266 2.70485 10.5105 2.68058 10.6002C2.65632 10.6898 2.65012 10.7833 2.66235 10.8754L3.83735 20.2212C3.86125 20.4073 3.95805 20.5764 4.10648 20.6912C4.25491 20.8061 4.44284 20.8573 4.62902 20.8337L15.2957 19.492L16.0384 19.3984M6.29569 9.7212L19.2374 8.09204C19.4229 8.06961 19.6097 8.1214 19.7572 8.23613C19.9047 8.35085 20.0009 8.51921 20.0249 8.70453L20.5783 13.1086" stroke="black" stroke-width="0.5" stroke-linecap="round" stroke-linejoin="round"/>
<path d="M26.394 14.5536C26.3653 14.5538 26.3369 14.5475 26.311 14.5353C26.285 14.523 26.2621 14.5051 26.244 14.4828C25.4176 13.3425 24.1779 12.5708 22.7899 12.3328C22.7649 12.3287 22.7411 12.3198 22.7196 12.3065C22.6981 12.2932 22.6795 12.2758 22.6648 12.2553C22.6501 12.2347 22.6396 12.2115 22.6339 12.1869C22.6282 12.1623 22.6274 12.1368 22.6315 12.1119C22.6356 12.0876 22.6444 12.0642 22.6575 12.0433C22.6706 12.0223 22.6877 12.0041 22.7078 11.9898C22.7279 11.9755 22.7507 11.9653 22.7748 11.9598C22.7989 11.9543 22.8238 11.9536 22.8482 11.9578C24.3326 12.2084 25.6596 13.0312 26.544 14.2494C26.5746 14.2894 26.5882 14.3397 26.5819 14.3896C26.5757 14.4395 26.5501 14.4849 26.5107 14.5161C26.4766 14.5403 26.4358 14.5534 26.394 14.5536Z" fill="#333333"/>
<path d="M27.0258 13.4331C26.9966 13.4335 26.9678 13.4268 26.9417 13.4138C26.9156 13.4007 26.893 13.3817 26.8758 13.3581C26.0465 12.2189 24.806 11.4477 23.4174 11.2081C23.3729 11.1947 23.3347 11.1654 23.3101 11.1258C23.2855 11.0863 23.2762 11.0391 23.2839 10.9932C23.2915 10.9472 23.3156 10.9056 23.3517 10.8762C23.3878 10.8467 23.4334 10.8314 23.4799 10.8331C24.9639 11.085 26.2904 11.9075 27.1758 13.1248C27.2063 13.1647 27.2199 13.2151 27.2137 13.265C27.2074 13.3148 27.1819 13.3603 27.1424 13.3915C27.1096 13.4185 27.0683 13.4332 27.0258 13.4331V13.4331Z" fill="#333333"/>
<path d="M21.251 22.8165C23.6765 22.8165 25.6427 20.8503 25.6427 18.4249C25.6427 15.9994 23.6765 14.0332 21.251 14.0332C18.8256 14.0332 16.8594 15.9994 16.8594 18.4249C16.8594 20.8503 18.8256 22.8165 21.251 22.8165Z" fill="#009DD4"/>
<path d="M21.2487 23.8577C20.1774 23.8577 19.1301 23.5401 18.2394 22.9449C17.3486 22.3497 16.6543 21.5037 16.2444 20.514C15.8344 19.5242 15.7271 18.4351 15.9361 17.3843C16.1451 16.3336 16.661 15.3685 17.4185 14.6109C18.1761 13.8534 19.1412 13.3375 20.192 13.1285C21.2427 12.9195 22.3318 13.0268 23.3216 13.4367C24.3113 13.8467 25.1573 14.541 25.7525 15.4317C26.3477 16.3225 26.6654 17.3698 26.6654 18.4411C26.6588 19.8756 26.086 21.2496 25.0716 22.264C24.0572 23.2784 22.6833 23.8512 21.2487 23.8577ZM21.2487 13.4077C20.2598 13.4077 19.2931 13.701 18.4708 14.2504C17.6486 14.7998 17.0077 15.5807 16.6293 16.4943C16.2509 17.408 16.1518 18.4133 16.3448 19.3832C16.5377 20.3531 17.0139 21.244 17.7132 21.9433C18.4124 22.6425 19.3033 23.1187 20.2732 23.3117C21.2432 23.5046 22.2485 23.4056 23.1621 23.0271C24.0757 22.6487 24.8566 22.0078 25.406 21.1856C25.9555 20.3634 26.2487 19.3967 26.2487 18.4077C26.2421 17.0837 25.7132 15.8157 24.777 14.8795C23.8407 13.9432 22.5728 13.4143 21.2487 13.4077V13.4077Z" fill="#333333"/>
<path d="M23.9516 16.855C23.9368 16.6566 23.9208 16.4571 23.9037 16.2587C23.8946 16.1538 23.8421 16.0911 23.7418 16.0637C22.9733 15.8494 22.2048 15.6361 21.4352 15.4252C21.3873 15.4115 21.328 15.4138 21.279 15.4275C20.515 15.6373 19.7522 15.8505 18.9894 16.0626C18.8811 16.0922 18.8287 16.1538 18.8207 16.2655C18.799 16.5631 18.7796 16.8596 18.758 17.1572C18.7568 17.1754 18.7534 17.1948 18.75 17.213C18.75 17.3191 18.75 17.4263 18.75 17.5323C18.758 17.6691 18.7637 17.8048 18.7739 17.9416C18.8116 18.4388 18.8891 18.9279 19.0818 19.392C19.2095 19.6998 19.4079 19.9609 19.6325 20.2026C20.0361 20.6359 20.5184 20.9552 21.0714 21.1661C21.1478 21.1958 21.2265 21.222 21.304 21.2493C21.3417 21.2493 21.3804 21.2493 21.4181 21.2493C21.5435 21.2026 21.6701 21.1604 21.7932 21.108C22.4397 20.832 22.9722 20.4113 23.3872 19.8423C23.5924 19.5607 23.7156 19.2426 23.8011 18.9074C23.9094 18.4798 23.9527 18.0454 23.9653 17.6064C23.9664 17.5825 23.9698 17.5574 23.9733 17.5334C23.9733 17.4274 23.9733 17.3202 23.9733 17.2142C23.9676 17.0933 23.9607 16.9747 23.9516 16.855ZM22.8638 17.5882C22.3393 18.1138 21.8137 18.6394 21.2881 19.1639C21.1934 19.2574 21.0874 19.2574 20.9928 19.1628C20.6724 18.8435 20.3531 18.5231 20.0339 18.2039C19.9369 18.107 19.9369 18.0032 20.0339 17.904C20.0886 17.8481 20.1433 17.7934 20.1992 17.7387C20.2984 17.6418 20.401 17.6418 20.4991 17.7387C20.6986 17.9371 20.897 18.1355 21.0954 18.335C21.1102 18.3498 21.1182 18.3703 21.1296 18.3886C21.1387 18.3886 21.1467 18.3874 21.1558 18.3874C21.1672 18.3703 21.1763 18.3498 21.1912 18.335C21.5868 17.9382 21.9836 17.5426 22.3804 17.1458C22.5013 17.0249 22.5959 17.0249 22.7168 17.1469C22.7681 17.1982 22.8194 17.2484 22.8695 17.3008C22.9539 17.3921 22.9539 17.4981 22.8638 17.5882Z" fill="white"/>
</g>
<defs>
<clipPath id="clip0_5640_144073">
<rect width="30" height="30" fill="white"/>
</clipPath>
</defs>
</svg>
