<svg width="26" height="17" viewBox="0 0 26 17" fill="none" xmlns="http://www.w3.org/2000/svg">
<path fill-rule="evenodd" clip-rule="evenodd" d="M3.43623 14H20.5605C21.3891 14 22.052 13.3714 21.9968 12.5143V3.48571C21.9968 2.68571 21.3891 2 20.5605 2H3.43623C2.66288 2 2 2.68571 2 3.48571V12.5143C2 13.3143 2.60764 14 3.43623 14ZM2.9375 3.48499C2.9375 3.19927 3.15846 2.9707 3.43466 2.9707H20.559C20.8352 2.9707 21.0561 3.19927 21.0561 3.48499V12.5136C21.0561 12.7993 20.8352 13.0278 20.559 13.0278H3.43466C3.15846 13.0278 2.9375 12.7993 2.9375 12.5136V3.48499ZM4.42969 4H8.29647V8H4.42969V4ZM19.9521 9.0293H4.42969V10.0579H19.9521V9.0293ZM13.1562 4H19.9507V6H13.1562V4ZM19.9521 11.0293H4.42969V12.0579H19.9521V11.0293Z" fill="#0099CC"/>
<rect x="17" y="4" width="8" height="12" rx="2" fill="white"/>
<path fill-rule="evenodd" clip-rule="evenodd" d="M20.9999 5C19.3429 5 18 6.39285 18 8.11176V14.277C18 14.5759 18.2336 14.8182 18.5216 14.8182H23.4773C23.7654 14.8182 23.999 14.5759 23.999 14.277L24 8.11176C23.9999 6.39285 22.6567 5 20.9999 5ZM21.3578 11.719V12.6934C21.3578 12.8988 21.1972 13.0654 20.9992 13.0654C20.8011 13.0654 20.6406 12.8988 20.6406 12.6934V11.719C20.4897 11.6041 20.3906 11.4202 20.3906 11.2112C20.3906 10.8627 20.6632 10.5801 20.9993 10.5801C21.3355 10.5801 21.608 10.8627 21.608 11.2112C21.6077 11.4202 21.5086 11.604 21.3578 11.719ZM18.7891 8.58746H23.2103V8.11131C23.2103 6.84717 22.2184 5.81836 20.9996 5.81836C19.7807 5.81836 18.7891 6.84717 18.7891 8.11131V8.58746Z" fill="#0099CC"/>
</svg>
