<svg width="87" height="89" viewBox="0 0 87 89" fill="none" xmlns="http://www.w3.org/2000/svg">
<g clip-path="url(#clip0_5505_3885)">
<path d="M70.1612 36.978V50.3654V66.5418C70.1612 70.1118 68.6996 71.0043 67.9689 71.0043H53.1708H38.3726L25.7668 71.5621L24.1226 70.4465L23.5745 69.3308L23.0265 63.7528V45.3451V36.4202L20.8341 38.0936L20.2861 38.6514L18.6418 38.0936L18.0938 36.4202L19.1899 34.7468L23.5745 31.3999L23.0265 23.0328L23.5745 21.3594L24.6707 20.2438L26.3149 20.8016L27.4111 21.9172V28.0531L43.8534 15.2235L46.0457 14.1079L48.2381 14.6657L61.94 25.8219L73.4497 34.7468L73.9977 35.8624L73.4497 37.5358L71.2573 38.0936L70.1612 36.978Z" fill="white"/>
<g clip-path="url(#clip1_5505_3885)">
<path d="M25.7734 43.1326H35.6388V37.6519H25.7734V43.1326Z" fill="#0089C3"/>
<path d="M38.9219 58.4783H48.7873V52.9976H38.9219V58.4783Z" fill="#0089C3"/>
<path d="M38.9219 43.1326H48.7873V37.6519H38.9219V43.1326Z" fill="#0089C3"/>
<path d="M32.3438 51.9022H44.4015V46.4214H32.3438V51.9022Z" fill="#0089C3"/>
<path d="M25.7734 51.9022H30.1581V46.4214H25.7734V51.9022Z" fill="#0089C3"/>
<path d="M25.7734 58.4783H35.6388V52.9976H25.7734V58.4783Z" fill="#0089C3"/>
<path d="M25.7734 65.0545H30.1581V59.5737H25.7734V65.0545Z" fill="#0089C3"/>
<path d="M32.3438 65.0545H44.4015V59.5737H32.3438V65.0545Z" fill="#0089C3"/>
<path d="M67.6078 70.5363H67.4981H24.7316H24.6439C24.0256 70.5237 23.435 70.2771 22.9913 69.8463C22.5476 69.4154 22.2839 68.8323 22.2532 68.2146V39.0152C22.2423 38.8133 22.2652 38.611 22.3211 38.4167V36.9413L20.9466 38.0034C20.5357 38.3373 20.0225 38.52 19.4931 38.5208H19.3725H19.3089C18.9821 38.5207 18.6593 38.4495 18.3627 38.3123C18.0661 38.1751 17.8029 37.9751 17.5912 37.7261C17.374 37.4779 17.2105 37.1874 17.1111 36.8729C17.0117 36.5585 16.9785 36.2268 17.0136 35.8988C17.0491 35.5931 17.1449 35.2974 17.2955 35.0289C17.446 34.7605 17.6482 34.5245 17.8905 34.3346L22.3201 30.8982V22.278C22.3201 21.617 22.5826 20.9832 23.05 20.5158C23.5173 20.0484 24.1512 19.7859 24.8122 19.7859C25.4731 19.7859 26.107 20.0484 26.5744 20.5158C27.0417 20.9832 27.3043 21.617 27.3043 22.278V27.0879L44.1643 14.0601L44.1917 14.0447C44.6002 13.8022 45.0535 13.6447 45.5244 13.5816C45.9953 13.5185 46.4741 13.5511 46.9321 13.6775L46.9704 13.6874L47.0066 13.7038C47.6814 14.0073 48.3014 14.4203 48.8416 14.9261C49.6089 15.5322 50.4584 16.1932 51.5885 17.0701L60.2723 23.8828C62.8351 25.9008 65.8835 28.2948 69.0722 30.7436L73.1916 33.9389C73.6515 34.3509 73.931 34.9272 73.9698 35.5434C74.0086 36.1597 73.8035 36.7665 73.3988 37.2328L73.3746 37.2581C72.9418 37.6902 72.3718 37.958 71.7629 38.0155C71.1539 38.0729 70.544 37.9163 70.0379 37.5727L70.0193 68.4119V68.4492C69.9403 69.031 69.6518 69.564 69.2078 69.9483C68.7638 70.3325 68.1949 70.5416 67.6078 70.5363ZM23.3713 34.8049V38.5844L23.3428 38.6677C23.31 38.7643 23.2963 38.8663 23.3022 38.9681V68.1708C23.3229 68.5206 23.4748 68.8497 23.7276 69.0923C23.9804 69.335 24.3155 69.4733 24.6658 69.4796H24.7535H67.5332H67.6067C67.933 69.48 68.2488 69.3646 68.4981 69.1541C68.7473 68.9436 68.9139 68.6515 68.9681 68.3297L68.9878 35.4571L70.6321 36.7056C70.9334 36.9076 71.2951 36.9997 71.6564 36.9666C72.0176 36.9334 72.3565 36.777 72.6161 36.5236C72.8314 36.2677 72.9401 35.9389 72.9197 35.6051C72.8993 35.2713 72.7513 34.9581 72.5065 34.7303L68.4299 31.569C65.2675 29.1399 62.2037 26.736 59.6234 24.7038L50.9418 17.8977C49.804 17.0208 48.9501 16.35 48.174 15.7383L48.1389 15.7076C47.6905 15.2836 47.1754 14.9362 46.6142 14.6794C45.9857 14.5169 45.3186 14.6074 44.7562 14.9315L26.2553 29.2254V22.278C26.2553 21.8957 26.1034 21.529 25.8331 21.2587C25.5627 20.9884 25.1961 20.8365 24.8138 20.8365C24.4315 20.8365 24.0649 20.9884 23.7946 21.2587C23.5242 21.529 23.3724 21.8957 23.3724 22.278V31.4112L18.535 35.1622C18.4028 35.2654 18.2924 35.3939 18.2102 35.5401C18.128 35.6863 18.0756 35.8473 18.056 36.0139C18.0374 36.1973 18.057 36.3826 18.1136 36.5581C18.1702 36.7335 18.2626 36.8954 18.3849 37.0333L18.3903 37.0399C18.5045 37.1741 18.6465 37.2818 18.8064 37.3556C18.9663 37.4295 19.1404 37.4676 19.3166 37.4674H19.412H19.4909C19.7814 37.4685 20.0634 37.369 20.2889 37.1857L20.3009 37.1758L23.3702 34.806L23.3713 34.8049Z" fill="#272727"/>
<path d="M47.8789 50.9328H59.7174V45.7349H47.8789V50.9328Z" fill="#0089C3"/>
<path d="M47.9492 65.5067H59.7877V60.312H47.9492V65.5067Z" fill="#0089C3"/>
</g>
</g>
<defs>
<clipPath id="clip0_5505_3885">
<rect width="56.9999" height="58.0118" fill="white" transform="translate(17 13.5503)"/>
</clipPath>
<clipPath id="clip1_5505_3885">
<rect width="56.9738" height="56.9859" fill="white" transform="translate(17 13.5503)"/>
</clipPath>
</defs>
</svg>
