<svg width="87" height="89" viewBox="0 0 87 89" fill="none" xmlns="http://www.w3.org/2000/svg">
<g clip-path="url(#clip0_5505_22348)">
<mask id="mask0_5505_22348" style="mask-type:alpha" maskUnits="userSpaceOnUse" x="8" y="26" width="49" height="44">
<path fill-rule="evenodd" clip-rule="evenodd" d="M8.70703 26.373H56.0227V69.3203H8.70703V26.373Z" fill="white"/>
</mask>
<g mask="url(#mask0_5505_22348)">
<path fill-rule="evenodd" clip-rule="evenodd" d="M55.2079 60.0918C55.1325 60.0918 55.0651 60.0811 54.9969 60.0704L53.4905 67.5712C53.403 68.0078 53.0461 68.3295 52.6226 68.3533C52.5423 68.3583 52.4597 68.3517 52.3795 68.3336L10.4058 59.2382C9.89328 59.1274 9.5636 58.5997 9.67109 58.0613L15.6855 28.1224C15.773 27.6866 16.1291 27.3649 16.5535 27.3403C16.6337 27.3353 16.7163 27.3419 16.7965 27.36L47.5947 34.0334C47.679 33.6632 47.9124 33.3382 48.2958 33.1987L16.9914 26.4153C16.8262 26.3792 16.6609 26.3669 16.4997 26.3759C15.6687 26.4243 14.9387 27.0431 14.7607 27.9287L8.74702 57.8676C8.53445 58.9247 9.1906 59.9613 10.2109 60.1829L52.1838 69.2783C52.3498 69.3144 52.5151 69.3267 52.6763 69.3177C53.5073 69.2693 54.2365 68.6504 54.4145 67.7657L56.0228 59.7619C55.8295 59.9597 55.5608 60.0918 55.2079 60.0918" fill="#333333"/>
</g>
<path fill-rule="evenodd" clip-rule="evenodd" d="M14.2034 34.526L13.6836 33.7217L22.5489 27.7139L23.0695 28.5182L14.2034 34.526Z" fill="#333333"/>
<path fill-rule="evenodd" clip-rule="evenodd" d="M15.7944 61.3007L9.98047 52.1125L10.7723 51.5889L16.5871 60.7762L15.7944 61.3007Z" fill="#333333"/>
<path fill-rule="evenodd" clip-rule="evenodd" d="M46.6253 67.9801L46.1055 67.1758L54.9707 61.168L55.4913 61.9723L46.6253 67.9801Z" fill="#333333"/>
<path fill-rule="evenodd" clip-rule="evenodd" d="M29.7086 30.049L28.7852 29.8545L30.8197 19.7241L31.7439 19.9186L29.7086 30.049Z" fill="#333333"/>
<path fill-rule="evenodd" clip-rule="evenodd" d="M32.9711 30.757L32.0469 30.5625L34.0814 20.4321L35.0056 20.6266L32.9711 30.757Z" fill="#333333"/>
<path fill-rule="evenodd" clip-rule="evenodd" d="M43.5765 33.0531L42.6523 32.8585L44.6877 22.729L45.6119 22.9227L43.5765 33.0531Z" fill="#333333"/>
<path fill-rule="evenodd" clip-rule="evenodd" d="M46.8414 33.7596L45.918 33.5659L47.9525 23.4355L48.8767 23.6301L46.8414 33.7596Z" fill="#333333"/>
<path fill-rule="evenodd" clip-rule="evenodd" d="M49.0911 20.1572L31.9542 16.4434C30.8312 16.2004 29.7323 16.9457 29.4988 18.1078L29.4972 18.1169C29.263 19.2807 29.9849 20.4215 31.1079 20.6644L48.2449 24.3783C49.3679 24.6212 50.466 23.8768 50.7002 22.7138L50.7018 22.7048C50.9353 21.5418 50.2141 20.4002 49.0911 20.1572" fill="#009DD4"/>
<path fill-rule="evenodd" clip-rule="evenodd" d="M39.8904 55.8895C39.7885 55.8895 39.6866 55.8501 39.608 55.7705L32.7305 48.823L59.5765 21.0024L72.5039 34.062L68.5469 38.1632C68.3905 38.3249 68.137 38.3266 67.9798 38.1665C67.8218 38.0081 67.8202 37.748 67.9766 37.5863L71.3696 34.0702L59.5846 22.163L33.8647 48.8148L40.1727 55.1878C40.33 55.3462 40.3316 55.6064 40.1751 55.7681C40.0973 55.8485 39.9939 55.8895 39.8904 55.8895" fill="#333333"/>
<path fill-rule="evenodd" clip-rule="evenodd" d="M39.1618 46.2831C39.0118 46.2831 38.8674 46.1961 38.7992 46.0476C38.5071 45.4123 38.1092 44.8378 37.615 44.3396C37.4578 44.1796 37.4562 43.9202 37.6118 43.7594C37.7683 43.5985 38.0218 43.5969 38.179 43.7561C38.7398 44.3224 39.1923 44.9757 39.5244 45.698C39.6191 45.9031 39.5332 46.1477 39.3327 46.2437C39.2781 46.27 39.2188 46.2831 39.1618 46.2831" fill="#333333"/>
<path fill-rule="evenodd" clip-rule="evenodd" d="M37.9573 53.4491C37.8698 53.4491 37.7808 53.4154 37.7134 53.3473C37.5762 53.2094 37.5746 52.9846 37.7094 52.845C38.0527 52.488 38.3512 52.0916 38.5975 51.6656C38.6953 51.4957 38.9095 51.4408 39.0732 51.5401C39.2385 51.6402 39.293 51.8577 39.196 52.0268C38.9208 52.5028 38.587 52.946 38.2052 53.3432C38.137 53.4138 38.0471 53.4491 37.9573 53.4491" fill="#333333"/>
<path fill-rule="evenodd" clip-rule="evenodd" d="M66.8762 38.7295C66.7599 38.7295 66.6452 38.6786 66.5649 38.5785C64.4149 35.8823 64.597 31.9789 66.9918 29.4986C67.1466 29.3378 67.4001 29.3361 67.5589 29.4954C67.7162 29.6538 67.7178 29.9147 67.5614 30.0756C65.4562 32.2563 65.2958 35.6895 67.1875 38.0598C67.3271 38.2346 67.3014 38.4939 67.1297 38.6375C67.0559 38.6991 66.9653 38.7295 66.8762 38.7295" fill="#333333"/>
<path fill-rule="evenodd" clip-rule="evenodd" d="M59.3695 28.6038C57.6088 28.6038 55.9508 27.907 54.697 26.6398C54.5398 26.4814 54.5382 26.2212 54.6938 26.0595C54.8487 25.8995 55.1029 25.8962 55.261 26.0562C56.3727 27.1798 57.8687 27.8233 59.408 27.7822C60.9706 27.7724 62.4353 27.1404 63.5334 26.0021C63.6899 25.842 63.9433 25.8387 64.1006 25.9988C64.2586 26.158 64.2602 26.4174 64.1038 26.579C62.8564 27.8725 61.1904 28.5915 59.4136 28.603C59.3984 28.603 59.384 28.6038 59.3695 28.6038" fill="#333333"/>
<path fill-rule="evenodd" clip-rule="evenodd" d="M47.1364 44.0891C46.9775 44.0891 46.8259 43.9914 46.7634 43.8306C45.8377 41.448 46.3759 38.7313 48.1358 36.9077C49.319 35.6815 50.8976 35.0003 52.5813 34.9888H52.6238C54.2923 34.9888 55.8629 35.6486 57.0516 36.8502C58.0447 37.8515 58.672 39.1278 58.8653 40.5386C58.8958 40.7627 58.7434 40.9703 58.5236 41.0015C58.3046 41.0286 58.1016 40.8767 58.0712 40.6527C57.9019 39.4216 57.3549 38.3087 56.4877 37.4337C55.4506 36.3857 54.0797 35.8095 52.623 35.8095H52.5869C51.1174 35.8194 49.7393 36.4136 48.7062 37.4846C47.1701 39.076 46.7 41.4472 47.5094 43.5269C47.5904 43.737 47.4901 43.9758 47.2848 44.0604C47.2358 44.0793 47.1861 44.0891 47.1364 44.0891" fill="#333333"/>
<path fill-rule="evenodd" clip-rule="evenodd" d="M59.203 33.2485C58.858 33.2485 58.5138 33.3839 58.2531 33.6548C58.002 33.9149 57.8656 34.258 57.8672 34.6232C57.8696 34.9876 58.0108 35.3299 58.2651 35.5859C58.517 35.8404 58.85 35.9807 59.203 35.9807H59.2118C59.568 35.9783 59.9025 35.8338 60.1536 35.5745C60.4039 35.3151 60.5411 34.9704 60.5387 34.6052C60.5363 34.2408 60.3951 33.8985 60.1416 33.6424C59.8817 33.3798 59.5423 33.2485 59.203 33.2485V33.2485ZM59.2076 36.8012C58.642 36.8012 58.1085 36.5779 57.7058 36.17C57.299 35.7605 57.0736 35.2122 57.0704 34.6279C57.0664 34.0443 57.2854 33.4936 57.6865 33.0775C58.5144 32.219 59.8702 32.21 60.7102 33.0578V33.0586C61.1162 33.469 61.3416 34.0164 61.3456 34.6C61.3488 35.1843 61.1298 35.735 60.7287 36.1512C60.3275 36.5665 59.7924 36.7971 59.2212 36.8012H59.2076Z" fill="#333333"/>
<path fill-rule="evenodd" clip-rule="evenodd" d="M54.7498 41.5848C54.7234 41.5495 54.6937 41.5159 54.6608 41.4822C54.4915 41.3115 54.2813 41.2622 54.031 41.3369C53.7791 41.4108 53.4253 41.5987 52.9672 41.8991C52.4971 42.2143 52.0855 42.44 51.7325 42.5779C51.3812 42.7158 51.0562 42.7609 50.7602 42.7133C50.4642 42.6649 50.1834 42.5073 49.917 42.2373C49.6411 41.9599 49.471 41.6308 49.4076 41.2516C49.3434 40.8724 49.3867 40.4793 49.5392 40.0722C49.69 39.6643 49.9379 39.2834 50.2805 38.9289C50.907 38.2789 51.5873 37.9202 52.3198 37.8513C52.4265 37.8422 52.5139 37.848 52.5853 37.8701C52.6559 37.8923 52.7265 37.9399 52.7971 38.0113C52.891 38.1057 52.9448 38.2157 52.9592 38.3421C52.9728 38.4693 52.9424 38.571 52.8677 38.6474C52.8244 38.6933 52.7763 38.7286 52.7265 38.7533C52.6752 38.7787 52.6014 38.8058 52.5043 38.8329C52.1914 38.8846 51.9187 38.9658 51.6852 39.0758C51.4518 39.1858 51.2119 39.3672 50.9664 39.6216C50.668 39.931 50.4931 40.2371 50.4425 40.54C50.3912 40.8437 50.4746 41.1047 50.692 41.3246C50.8749 41.5085 51.0907 41.57 51.3426 41.5101C51.5938 41.4494 51.9459 41.2713 52.3984 40.975C52.8782 40.6606 53.2945 40.4308 53.6467 40.2889C53.9989 40.1469 54.3238 40.0943 54.6223 40.1304C54.9207 40.1666 55.1959 40.3127 55.4494 40.5687C55.6042 40.7255 55.7262 40.897 55.812 41.0833L54.7498 41.5848Z" fill="#009DD4"/>
<path fill-rule="evenodd" clip-rule="evenodd" d="M53.6135 41.7004L50.2473 38.3198C50.0475 38.1179 49.7234 38.1204 49.526 38.3247C49.3279 38.5299 49.3303 38.8607 49.5308 39.0626L52.7543 42.2988L53.6135 41.7004Z" fill="#009DD4"/>
<path fill-rule="evenodd" clip-rule="evenodd" d="M38.0742 46.6634L42.3593 63.0322L77.7185 53.3418L73.4326 36.9722L38.0742 46.6634ZM41.7982 64.0383L37.0977 46.0839L74.0058 35.9683L78.7063 53.9227L41.7982 64.0383Z" fill="#333333"/>
<path fill-rule="evenodd" clip-rule="evenodd" d="M39.4997 52.8262C39.3464 52.8262 39.206 52.722 39.1643 52.5636C39.1146 52.3731 39.2245 52.1786 39.4098 52.1277C42.5547 51.266 44.4287 47.9477 43.5864 44.7304C43.5358 44.54 43.6465 44.3455 43.831 44.2946C44.0196 44.2405 44.2073 44.3562 44.257 44.5458C45.1989 48.1414 43.1042 51.8512 39.5895 52.8139C39.559 52.8229 39.5293 52.8262 39.4997 52.8262" fill="#333333"/>
<path fill-rule="evenodd" clip-rule="evenodd" d="M48.4099 62.1548C48.2567 62.1548 48.1164 62.0505 48.0747 61.8921C47.2316 58.6748 43.9885 56.7568 40.8433 57.6194C40.6548 57.6727 40.4679 57.557 40.4182 57.3682C40.3685 57.1786 40.4784 56.9833 40.6637 56.9332C44.1795 55.9672 47.8035 58.1126 48.7452 61.7075C48.795 61.8979 48.6851 62.0924 48.4998 62.1425C48.4693 62.1515 48.4396 62.1548 48.4099 62.1548" fill="#333333"/>
<path fill-rule="evenodd" clip-rule="evenodd" d="M71.8946 55.7755C71.7173 55.7755 71.5553 55.6548 71.5071 55.4718C71.0466 53.7154 71.2833 51.8811 72.1722 50.3069C73.0603 48.7319 74.4955 47.6058 76.2124 47.1356C76.4242 47.0814 76.6456 47.2078 76.7034 47.4261C76.7603 47.6452 76.6336 47.8693 76.4194 47.9284C74.9103 48.342 73.6483 49.3318 72.8669 50.7172C72.0847 52.101 71.8778 53.7146 72.2821 55.2584C72.3399 55.4783 72.2123 55.7024 71.9989 55.7615C71.9636 55.7705 71.9291 55.7755 71.8946 55.7755" fill="#333333"/>
<path fill-rule="evenodd" clip-rule="evenodd" d="M73.4542 43.3531C70.5528 43.3531 67.8649 41.3858 67.0387 38.4073C66.9785 38.189 67.102 37.9625 67.3154 37.8993C67.5296 37.8377 67.751 37.965 67.8111 38.1825C68.6782 41.3119 71.8828 43.1742 74.9518 42.3296C75.1692 42.2763 75.3857 42.4019 75.4435 42.6194C75.5012 42.8393 75.3745 43.0634 75.1603 43.1233C74.5916 43.2784 74.0189 43.3531 73.4542 43.3531" fill="#333333"/>
<path fill-rule="evenodd" clip-rule="evenodd" d="M57.9167 44.3695C57.4387 44.3695 56.9582 44.4335 56.4833 44.564C55.0635 44.9531 53.8772 45.8846 53.1424 47.1871C52.4068 48.4896 52.2119 50.0063 52.5921 51.4599C52.9723 52.9118 53.8828 54.1264 55.1558 54.8782C56.4296 55.63 57.9111 55.8328 59.3309 55.4404C60.7507 55.0522 61.9379 54.1207 62.6726 52.8182C63.4082 51.5157 63.6031 49.9981 63.2221 48.5463V48.5454C62.8427 47.0927 61.9323 45.8789 60.6593 45.1271C59.8114 44.6256 58.8697 44.3695 57.9167 44.3695M57.9012 56.4564C56.8079 56.4564 55.7306 56.1625 54.7585 55.5888C53.2994 54.7271 52.2566 53.3359 51.821 51.6706C50.921 48.235 52.9223 44.6919 56.2801 43.771C59.6379 42.851 63.1015 44.8979 64.0015 48.3335C64.4371 49.9972 64.2133 51.7363 63.371 53.2284C62.5288 54.7205 61.1692 55.7875 59.5416 56.2339C58.9994 56.3825 58.4483 56.4564 57.9012 56.4564" fill="#333333"/>
<path fill-rule="evenodd" clip-rule="evenodd" d="M66.9592 46.1547C66.8453 46.1547 66.7298 46.1695 66.6142 46.2015C66.2709 46.2951 65.9821 46.5216 65.8048 46.8376C65.6259 47.1544 65.5785 47.5221 65.6716 47.8742C65.763 48.2271 65.9837 48.5217 66.2925 48.704C66.6014 48.8862 66.9616 48.937 67.3058 48.8402C67.6508 48.7466 67.9388 48.5201 68.1169 48.2041C68.2958 47.8881 68.3431 47.5196 68.2501 47.1675C68.0912 46.5577 67.5489 46.1547 66.9592 46.1547M66.9621 49.7089C66.5915 49.7089 66.2257 49.6096 65.8967 49.4151C65.4025 49.1221 65.0479 48.6502 64.9011 48.0863C64.5963 46.9225 65.2742 45.7201 66.4126 45.4074C67.5518 45.0988 68.7255 45.7907 69.0312 46.9545C69.1788 47.5192 69.1026 48.1085 68.8178 48.6141C68.5314 49.1196 68.0709 49.4824 67.5189 49.6334C67.3352 49.6843 67.1483 49.7089 66.9621 49.7089" fill="#333333"/>
<path fill-rule="evenodd" clip-rule="evenodd" d="M48.8502 51.0639C48.7323 51.0639 48.6111 51.0795 48.4916 51.1123C47.7519 51.315 47.3107 52.0964 47.508 52.8539C47.6043 53.2192 47.8337 53.5261 48.1562 53.7157C48.4763 53.9045 48.8502 53.9554 49.2096 53.8577C49.9501 53.655 50.3913 52.8736 50.1932 52.1169C50.0271 51.4833 49.4639 51.0639 48.8502 51.0639M48.8503 54.6166C47.9301 54.6166 47.0861 53.9879 46.8366 53.0366C46.5398 51.9016 47.2009 50.7304 48.3104 50.4259C49.4231 50.1189 50.5655 50.7977 50.8632 51.9328C51.0068 52.4826 50.9338 53.058 50.6546 53.5504C50.3762 54.0437 49.9269 54.3966 49.3894 54.5435C49.2089 54.5936 49.0284 54.6166 48.8503 54.6166" fill="#333333"/>
<path fill-rule="evenodd" clip-rule="evenodd" d="M57.4356 53.5121C56.9887 53.4989 56.6084 53.4202 56.2924 53.2749C56.1263 53.2076 56.018 53.0787 55.9682 52.8875C55.9337 52.7578 55.9426 52.6347 55.9931 52.519C56.0437 52.4024 56.1191 52.3302 56.2218 52.3023C56.3309 52.2719 56.4656 52.2818 56.6269 52.3302C56.9366 52.4509 57.2446 52.5149 57.5511 52.5231C57.856 52.5321 58.1817 52.4894 58.525 52.3951C58.9647 52.2744 59.2832 52.1037 59.4765 51.8813C59.6707 51.6597 59.7276 51.3979 59.649 51.095C59.5872 50.8611 59.43 50.7101 59.1773 50.6444C58.923 50.5779 58.525 50.5566 57.9819 50.5796C57.4203 50.6083 56.9534 50.5903 56.582 50.5271C56.2097 50.4639 55.9073 50.335 55.6754 50.1405C55.4444 49.946 55.2791 49.6645 55.182 49.2935C55.0817 48.9118 55.0978 48.5401 55.2302 48.1798C55.3617 47.8194 55.5944 47.5026 55.9265 47.2302C56.2587 46.9569 56.6606 46.7558 57.1315 46.6269C57.9931 46.3905 58.7577 46.4332 59.4236 46.7525C59.5198 46.7993 59.592 46.8502 59.6426 46.906C59.6923 46.9618 59.7308 47.0389 59.7573 47.1374C59.791 47.2671 59.783 47.3902 59.7316 47.5059C59.6819 47.6225 59.6049 47.6947 59.503 47.7226C59.4428 47.7398 59.3843 47.7456 59.3281 47.7415C59.2719 47.7366 59.1949 47.721 59.0979 47.6947C58.8018 47.5782 58.5258 47.5059 58.2707 47.4805C58.0156 47.4542 57.7188 47.4879 57.381 47.5798C56.9711 47.6931 56.6686 47.8662 56.4753 48.101C56.2811 48.3365 56.2234 48.6049 56.3036 48.9077C56.3694 49.1605 56.5258 49.3255 56.7721 49.4035C57.0184 49.4814 57.4107 49.5102 57.9482 49.488C58.517 49.4642 58.9895 49.4823 59.3634 49.5422C59.7381 49.6013 60.0445 49.7236 60.2844 49.909C60.5235 50.0953 60.6887 50.3637 60.781 50.7158C60.8813 51.0983 60.8652 51.4643 60.7337 51.8148C60.6029 52.1644 60.3694 52.473 60.0357 52.7398C59.702 53.0065 59.2904 53.2068 58.8018 53.3414C58.3373 53.4686 57.8824 53.5252 57.4356 53.5121" fill="#009DD4"/>
<path fill-rule="evenodd" clip-rule="evenodd" d="M59.0232 54.2844V54.2844C58.7513 54.359 58.4721 54.1941 58.3991 53.9158L56.4199 46.3577C56.3469 46.0794 56.5082 45.7938 56.7801 45.7191C57.0521 45.6444 57.3321 45.8094 57.4043 46.0885L59.3834 53.6458C59.4565 53.924 59.2952 54.2097 59.0232 54.2844" fill="#009DD4"/>
<path fill-rule="evenodd" clip-rule="evenodd" d="M38.0742 46.6634L42.3593 63.0322L77.7185 53.3418L73.4326 36.9722L38.0742 46.6634ZM41.7982 64.0383L37.0977 46.0839L74.0058 35.9683L78.7063 53.9227L41.7982 64.0383Z" fill="#333333"/>
<path fill-rule="evenodd" clip-rule="evenodd" d="M39.4951 52.8831C39.3178 52.8831 39.1558 52.7624 39.1077 52.5794C39.0499 52.3595 39.1775 52.1354 39.3909 52.0763C42.5076 51.2227 44.3641 47.934 43.5289 44.7455C43.4719 44.5263 43.5987 44.3023 43.8137 44.2432C44.0255 44.1898 44.2469 44.3154 44.3047 44.5337C45.2538 48.1581 43.1422 51.8982 39.5994 52.8691C39.5641 52.8782 39.5296 52.8831 39.4951 52.8831" fill="#333333"/>
<path fill-rule="evenodd" clip-rule="evenodd" d="M48.4093 62.2112C48.2321 62.2112 48.07 62.0906 48.0219 61.9075C47.1869 58.7198 43.9775 56.8182 40.8564 57.6742C40.6414 57.7292 40.4232 57.602 40.3655 57.3828C40.3077 57.1645 40.4352 56.9396 40.6494 56.8805C44.1901 55.9121 47.8478 58.0698 48.7968 61.6942C48.8545 61.9141 48.727 62.1382 48.5136 62.1973C48.4783 62.2063 48.4438 62.2112 48.4093 62.2112" fill="#333333"/>
<path fill-rule="evenodd" clip-rule="evenodd" d="M71.8946 55.7755C71.7173 55.7755 71.5553 55.6548 71.5071 55.4718C71.0466 53.7154 71.2833 51.8811 72.1722 50.3069C73.0603 48.7319 74.4955 47.6058 76.2124 47.1356C76.4242 47.0814 76.6456 47.2078 76.7034 47.4261C76.7603 47.6452 76.6336 47.8693 76.4194 47.9284C74.9103 48.342 73.6483 49.3318 72.8669 50.7172C72.0847 52.101 71.8778 53.7146 72.2821 55.2584C72.3399 55.4783 72.2123 55.7024 71.9989 55.7615C71.9636 55.7705 71.9291 55.7755 71.8946 55.7755" fill="#333333"/>
<path fill-rule="evenodd" clip-rule="evenodd" d="M73.4481 43.3541C70.5291 43.3541 67.8387 41.3679 67.0261 38.3616C66.9676 38.1433 67.0927 37.9176 67.3069 37.8568C67.5186 37.8002 67.7408 37.9258 67.8002 38.1433C68.6521 41.299 71.8558 43.181 74.9529 42.3298C75.1639 42.2765 75.386 42.4021 75.4438 42.6204C75.5016 42.8395 75.374 43.0636 75.1598 43.1235C74.5895 43.2794 74.0144 43.3541 73.4481 43.3541" fill="#333333"/>
<path fill-rule="evenodd" clip-rule="evenodd" d="M57.9167 44.3695C57.4387 44.3695 56.9582 44.4335 56.4833 44.564C55.0635 44.9531 53.8772 45.8846 53.1424 47.1871C52.4068 48.4896 52.2119 50.0063 52.5921 51.4599C52.9723 52.9118 53.8828 54.1264 55.1558 54.8782C56.4296 55.63 57.9111 55.8328 59.3309 55.4404C60.7507 55.0522 61.9379 54.1207 62.6726 52.8182C63.4082 51.5157 63.6031 49.9981 63.2221 48.5463V48.5454C62.8427 47.0927 61.9323 45.8789 60.6593 45.1271C59.8114 44.6256 58.8697 44.3695 57.9167 44.3695M57.9012 56.4564C56.8079 56.4564 55.7306 56.1625 54.7585 55.5888C53.2994 54.7271 52.2566 53.3359 51.821 51.6706C50.921 48.235 52.9223 44.6919 56.2801 43.771C59.6379 42.851 63.1015 44.8979 64.0015 48.3335C64.4371 49.9972 64.2133 51.7363 63.371 53.2284C62.5288 54.7205 61.1692 55.7875 59.5416 56.2339C58.9994 56.3825 58.4483 56.4564 57.9012 56.4564" fill="#333333"/>
<path fill-rule="evenodd" clip-rule="evenodd" d="M66.9592 46.1547C66.8453 46.1547 66.7298 46.1695 66.6142 46.2015C66.2709 46.2951 65.9821 46.5216 65.8048 46.8376C65.6259 47.1544 65.5785 47.5221 65.6716 47.8742C65.763 48.2271 65.9837 48.5217 66.2925 48.704C66.6014 48.8862 66.9616 48.937 67.3058 48.8402C67.6508 48.7466 67.9388 48.5201 68.1169 48.2041C68.2958 47.8881 68.3431 47.5196 68.2501 47.1675C68.0912 46.5577 67.5489 46.1547 66.9592 46.1547M66.9621 49.7089C66.5915 49.7089 66.2257 49.6096 65.8967 49.4151C65.4025 49.1221 65.0479 48.6502 64.9011 48.0863C64.5963 46.9225 65.2742 45.7201 66.4126 45.4074C67.5518 45.0988 68.7255 45.7907 69.0312 46.9545C69.1788 47.5192 69.1026 48.1085 68.8178 48.6141C68.5314 49.1196 68.0709 49.4824 67.5189 49.6334C67.3352 49.6843 67.1483 49.7089 66.9621 49.7089" fill="#333333"/>
<path fill-rule="evenodd" clip-rule="evenodd" d="M48.8311 51.1181C48.7172 51.1181 48.6016 51.1337 48.4861 51.1657C47.7753 51.3602 47.3509 52.1112 47.5418 52.8392C47.6333 53.1905 47.8547 53.4859 48.1636 53.6673C48.4725 53.8504 48.8335 53.8996 49.1768 53.8036C49.5218 53.71 49.8098 53.4835 49.9879 53.1675C50.1668 52.8515 50.2142 52.483 50.1211 52.1309C49.9615 51.5211 49.4207 51.1181 48.8311 51.1181M48.8377 54.6721C47.8934 54.6721 47.0278 54.027 46.7718 53.0512C46.4678 51.8865 47.1465 50.685 48.2841 50.3723C49.4233 50.0596 50.597 50.7547 50.9027 51.9185C51.0503 52.4832 50.9741 53.0725 50.6893 53.5781C50.4029 54.0837 49.9424 54.4464 49.3904 54.5974C49.2059 54.6483 49.0206 54.6721 48.8377 54.6721" fill="#333333"/>
<path fill-rule="evenodd" clip-rule="evenodd" d="M57.4356 53.5121C56.9887 53.4989 56.6084 53.4202 56.2924 53.2749C56.1263 53.2076 56.018 53.0787 55.9682 52.8875C55.9337 52.7578 55.9426 52.6347 55.9931 52.519C56.0437 52.4024 56.1191 52.3302 56.2218 52.3023C56.3309 52.2719 56.4656 52.2818 56.6269 52.3302C56.9366 52.4509 57.2446 52.5149 57.5511 52.5231C57.856 52.5321 58.1817 52.4894 58.525 52.3951C58.9647 52.2744 59.2832 52.1037 59.4765 51.8813C59.6707 51.6597 59.7276 51.3979 59.649 51.095C59.5872 50.8611 59.43 50.7101 59.1773 50.6444C58.923 50.5779 58.525 50.5566 57.9819 50.5796C57.4203 50.6083 56.9534 50.5903 56.582 50.5271C56.2097 50.4639 55.9073 50.335 55.6754 50.1405C55.4444 49.946 55.2791 49.6645 55.182 49.2935C55.0817 48.9118 55.0978 48.5401 55.2302 48.1798C55.3617 47.8194 55.5944 47.5026 55.9265 47.2302C56.2587 46.9569 56.6606 46.7558 57.1315 46.6269C57.9931 46.3905 58.7577 46.4332 59.4236 46.7525C59.5198 46.7993 59.592 46.8502 59.6426 46.906C59.6923 46.9618 59.7308 47.0389 59.7573 47.1374C59.791 47.2671 59.783 47.3902 59.7316 47.5059C59.6819 47.6225 59.6049 47.6947 59.503 47.7226C59.4428 47.7398 59.3843 47.7456 59.3281 47.7415C59.2719 47.7366 59.1949 47.721 59.0979 47.6947C58.8018 47.5782 58.5258 47.5059 58.2707 47.4805C58.0156 47.4542 57.7188 47.4879 57.381 47.5798C56.9711 47.6931 56.6686 47.8662 56.4753 48.101C56.2811 48.3365 56.2234 48.6049 56.3036 48.9077C56.3694 49.1605 56.5258 49.3255 56.7721 49.4035C57.0184 49.4814 57.4107 49.5102 57.9482 49.488C58.517 49.4642 58.9895 49.4823 59.3634 49.5422C59.7381 49.6013 60.0445 49.7236 60.2844 49.909C60.5235 50.0953 60.6887 50.3637 60.781 50.7158C60.8813 51.0983 60.8652 51.4643 60.7337 51.8148C60.6029 52.1644 60.3694 52.473 60.0357 52.7398C59.702 53.0065 59.2904 53.2068 58.8018 53.3414C58.3373 53.4686 57.8824 53.5252 57.4356 53.5121" fill="#009DD4"/>
<path fill-rule="evenodd" clip-rule="evenodd" d="M59.0232 54.2844V54.2844C58.7513 54.359 58.4721 54.1941 58.3991 53.9158L56.4199 46.3577C56.3469 46.0794 56.5082 45.7938 56.7801 45.7191C57.0521 45.6444 57.3321 45.8094 57.4043 46.0885L59.3834 53.6458C59.4565 53.924 59.2952 54.2097 59.0232 54.2844" fill="#009DD4"/>
</g>
<defs>
<clipPath id="clip0_5505_22348">
<rect width="87" height="88.5444" fill="white" transform="translate(0 0.319336)"/>
</clipPath>
</defs>
</svg>
