<svg width="51" height="51" viewBox="0 0 51 51" fill="none" xmlns="http://www.w3.org/2000/svg">
<g clip-path="url(#clip0_9780_120330)">
<path d="M17.5911 41.8101L14.4453 11.8518L35.7023 9.65039L38.8481 39.6087L17.5911 41.8101ZM15.2648 12.5184L18.2578 40.9907L38.0286 38.9073L35.0356 10.4351L15.2648 12.5184Z" fill="#333333"/>
<path d="M17.5911 41.8101L14.4453 11.8518L35.7023 9.65039L38.8481 39.6087L17.5911 41.8101ZM15.2648 12.5184L18.2578 40.9907L38.0286 38.9073L35.0356 10.4351L15.2648 12.5184Z" fill="#333333"/>
<path fill-rule="evenodd" clip-rule="evenodd" d="M25.7738 20.4637L28.1835 17.5748C28.4055 17.287 28.5059 16.9236 28.463 16.5627C28.4202 16.2018 28.2375 15.872 27.9543 15.6442C27.6577 15.4098 27.2812 15.3003 26.9051 15.3393C26.5289 15.3782 26.1828 15.5623 25.9404 15.8526L25.3293 16.5817L24.5863 15.9984C24.2896 15.7639 23.9131 15.6545 23.537 15.6934C23.1609 15.7323 22.8148 15.9165 22.5724 16.2067C22.3419 16.4881 22.2309 16.8486 22.2634 17.2109C22.2958 17.5732 22.4691 17.9083 22.746 18.1442L25.7738 20.4637Z" fill="#009DD4"/>
<path d="M19.8261 23.9782C19.7266 23.9838 19.6291 23.9495 19.5548 23.8831C19.4806 23.8167 19.4358 23.7235 19.4303 23.6241C19.4247 23.5246 19.459 23.427 19.5254 23.3528C19.5918 23.2786 19.685 23.2338 19.7844 23.2282L32.84 21.8393C32.8891 21.8326 32.939 21.8359 32.9867 21.8493C33.0344 21.8626 33.0789 21.8857 33.1173 21.9169C33.1557 21.9482 33.1873 21.987 33.2101 22.031C33.2329 22.075 33.2464 22.1232 33.2497 22.1727C33.2594 22.2711 33.2299 22.3694 33.1674 22.4462C33.105 22.5229 33.0147 22.5719 32.9164 22.5824L19.8678 23.9713L19.8261 23.9782Z" fill="#333333"/>
<path d="M20.0803 26.4646C19.9808 26.4692 19.8836 26.4341 19.81 26.367C19.7364 26.2999 19.6925 26.2064 19.6879 26.1069C19.6833 26.0075 19.7184 25.9103 19.7855 25.8367C19.8525 25.7631 19.9461 25.7192 20.0455 25.7146L33.0942 24.3257C33.1436 24.3189 33.1939 24.3223 33.242 24.3355C33.2901 24.3488 33.335 24.3717 33.374 24.4029C33.413 24.4341 33.4452 24.4729 33.4687 24.5169C33.4923 24.5609 33.5066 24.6093 33.5108 24.659C33.5205 24.7575 33.491 24.8558 33.4285 24.9325C33.3661 25.0092 33.2759 25.0582 33.1775 25.0687L20.1219 26.4576L20.0803 26.4646Z" fill="#333333"/>
<path d="M20.5971 30.4361C20.5057 30.435 20.4178 30.4005 20.35 30.3391C20.2823 30.2777 20.2392 30.1937 20.2291 30.1028C20.2233 30.0539 20.2274 30.0043 20.2412 29.957C20.2549 29.9097 20.278 29.8657 20.3091 29.8274C20.3402 29.7892 20.3786 29.7577 20.4221 29.7346C20.4657 29.7115 20.5134 29.6974 20.5624 29.6931L33.611 28.3042C33.6605 28.2974 33.7108 28.3008 33.7589 28.314C33.807 28.3273 33.8519 28.3503 33.8909 28.3814C33.9299 28.4126 33.9621 28.4514 33.9856 28.4954C34.0091 28.5394 34.0235 28.5878 34.0277 28.6375C34.0374 28.736 34.0078 28.8343 33.9454 28.911C33.883 28.9878 33.7927 29.0367 33.6944 29.0472L20.6388 30.4361H20.5971Z" fill="#333333"/>
<path d="M20.8637 32.9229C20.7685 32.923 20.6769 32.8861 20.6083 32.82C20.5396 32.754 20.4993 32.6639 20.4957 32.5687C20.4889 32.5202 20.492 32.4708 20.505 32.4235C20.5179 32.3762 20.5403 32.3321 20.5709 32.2938C20.6014 32.2554 20.6394 32.2237 20.6826 32.2005C20.7258 32.1774 20.7732 32.1632 20.8221 32.159L33.8776 30.7701C33.9265 30.7643 33.9761 30.7685 34.0234 30.7822C34.0707 30.7959 34.1147 30.819 34.153 30.8501C34.1912 30.8812 34.2227 30.9196 34.2458 30.9632C34.2689 31.0067 34.283 31.0544 34.2873 31.1034C34.297 31.2019 34.2675 31.3002 34.205 31.3769C34.1426 31.4537 34.0524 31.5026 33.954 31.5132L20.9054 32.9021L20.8637 32.9229Z" fill="#333333"/>
<path d="M21.1268 35.4081C21.0346 35.4072 20.9458 35.3729 20.8769 35.3117C20.808 35.2504 20.7635 35.1663 20.7518 35.0748C20.7421 34.9763 20.7717 34.878 20.8341 34.8013C20.8965 34.7246 20.9868 34.6756 21.0851 34.6651L26.6824 34.0748C26.7313 34.069 26.7809 34.0731 26.8282 34.0869C26.8755 34.1006 26.9195 34.1237 26.9577 34.1548C26.9959 34.1859 27.0275 34.2243 27.0506 34.2679C27.0737 34.3114 27.0878 34.3591 27.0921 34.4081C27.1018 34.5066 27.0722 34.6049 27.0098 34.6816C26.9474 34.7584 26.8571 34.8073 26.7588 34.8179L21.1615 35.4081H21.1268Z" fill="#333333"/>
<path d="M15.599 46.3596L8.82812 17.0193L13.842 15.686C13.8899 15.6735 13.9398 15.6706 13.9888 15.6774C14.0378 15.6843 14.085 15.7008 14.1276 15.726C14.1702 15.7512 14.2074 15.7845 14.237 15.8241C14.2667 15.8638 14.2882 15.9089 14.3003 15.9568C14.3223 16.0524 14.3072 16.1528 14.2583 16.2378C14.2094 16.3228 14.1301 16.3861 14.0365 16.4152L9.71701 17.5541L16.1615 45.4568L35.8906 40.9013C35.9881 40.8804 36.0899 40.8985 36.1743 40.9517C36.2586 41.0049 36.3188 41.089 36.342 41.186C36.3627 41.2827 36.3444 41.3836 36.2911 41.4668C36.2378 41.55 36.1537 41.6088 36.0573 41.6305L15.599 46.3596Z" fill="#333333"/>
<path d="M36.6878 9.0263C36.617 9.02636 36.5475 9.00634 36.4876 8.96856C36.4276 8.93078 36.3796 8.87678 36.3491 8.81282C36.3185 8.74887 36.3068 8.67757 36.3151 8.60719C36.3234 8.53682 36.3515 8.47025 36.3962 8.41519L38.2503 6.12352C38.313 6.04617 38.4037 5.99686 38.5027 5.98644C38.6017 5.97602 38.7008 6.00535 38.7781 6.06797C38.8555 6.13059 38.9048 6.22137 38.9152 6.32035C38.9256 6.41933 38.8963 6.51839 38.8337 6.59574L36.9517 8.88741C36.9193 8.92708 36.8792 8.95981 36.8339 8.98367C36.7886 9.00753 36.7389 9.02203 36.6878 9.0263V9.0263Z" fill="#333333"/>
<path d="M33.2841 8.56097C33.1926 8.55984 33.1047 8.52534 33.037 8.46395C32.9692 8.40256 32.9262 8.31852 32.916 8.22764L32.6035 5.29014C32.5985 5.24089 32.6032 5.19114 32.6174 5.14372C32.6316 5.09631 32.6551 5.05215 32.6863 5.01378C32.7495 4.93629 32.8408 4.88707 32.9403 4.87694C33.0398 4.86681 33.1392 4.89661 33.2167 4.95977C33.255 4.99104 33.2869 5.02957 33.3103 5.07315C33.3338 5.11673 33.3485 5.1645 33.3535 5.21375L33.6591 8.1443C33.6648 8.19322 33.6607 8.24279 33.647 8.29009C33.6332 8.33739 33.6101 8.38145 33.579 8.41965C33.548 8.45786 33.5095 8.48944 33.466 8.51252C33.4225 8.5356 33.3748 8.54972 33.3257 8.55402L33.2841 8.56097Z" fill="#333333"/>
<path d="M37.2291 12.3183C37.1365 12.3189 37.0469 12.2852 36.9776 12.2236C36.9084 12.1621 36.8644 12.0771 36.8541 11.985C36.8483 11.9361 36.8524 11.8865 36.8662 11.8392C36.8799 11.7919 36.903 11.7479 36.9341 11.7096C36.9652 11.6714 37.0036 11.6399 37.0471 11.6168C37.0907 11.5937 37.1384 11.5796 37.1874 11.5753L40.1249 11.2628C40.176 11.2528 40.2287 11.2536 40.2795 11.2651C40.3303 11.2766 40.3781 11.2986 40.42 11.3296C40.4618 11.3606 40.4967 11.4 40.5225 11.4453C40.5483 11.4906 40.5643 11.5407 40.5696 11.5925C40.575 11.6443 40.5694 11.6967 40.5534 11.7462C40.5374 11.7958 40.5112 11.8415 40.4766 11.8803C40.4419 11.9192 40.3995 11.9505 40.3522 11.9721C40.3048 11.9937 40.2534 12.0052 40.2013 12.0058L37.2638 12.3183H37.2291Z" fill="#333333"/>
<path d="M3583.35 1473.8H-2750.89V-2819.89H3583.35V1473.8ZM-2750.22 1473.11H3582.67V-2819.25H-2750.22V1473.11Z" fill="#333333"/>
<path d="M3583.35 1473.8H-2750.89V-2819.89H3583.35V1473.8ZM-2750.22 1473.11H3582.67V-2819.25H-2750.22V1473.11Z" fill="#333333"/>
<path d="M3583.35 1473.8H-2750.89V-2819.89H3583.35V1473.8ZM-2750.22 1473.11H3582.67V-2819.25H-2750.22V1473.11Z" fill="#333333"/>
</g>
<defs>
<clipPath id="clip0_9780_120330">
<rect width="50" height="50" fill="white" transform="translate(0.5 0.942871)"/>
</clipPath>
</defs>
</svg>
