<svg width="87" height="89" viewBox="0 0 87 89" fill="none" xmlns="http://www.w3.org/2000/svg">
<g clip-path="url(#clip0_5505_22212)">
<g clip-path="url(#clip1_5505_22212)">
<path d="M38.2424 48.2393L33.9088 57.2541V57.898L25.8607 56.6102L23.3844 60.4737L33.9088 63.6933L39.4806 72.0642L41.9569 68.2007L40.7187 64.9811L38.8615 61.1176L41.9569 57.2541L50.6241 47.5954L54.9577 41.1562L67.9584 60.4737L70.4348 64.3372H72.292L73.5302 62.4054L72.9111 61.1176L71.0539 56.6102L66.7203 45.6636L61.7676 32.7853L67.3394 25.7023L69.1966 22.4827L69.8157 17.9753V15.3996L68.5775 12.824L66.7203 11.5361H63.6249L59.9103 13.4679L56.1958 17.3314L51.2432 25.0584L43.1951 24.4144L22.1462 23.7705H20.2889L19.0508 24.4144V25.7023L19.6699 26.9901L45.6714 34.7171L38.2424 48.2393Z" fill="white"/>
<path d="M6743.44 3086.72H-4550.25V-4875.83H6743.44V3086.72ZM-4549.07 3085.43H6742.3V-4874.65H-4549.07V3085.43Z" fill="#333333"/>
<path d="M6743.44 3086.72H-4550.25V-4875.83H6743.44V3086.72ZM-4549.07 3085.43H6742.3V-4874.65H-4549.07V3085.43Z" fill="#333333"/>
<path d="M6743.44 3086.72H-4550.25V-4875.83H6743.44V3086.72ZM-4549.07 3085.43H6742.3V-4874.65H-4549.07V3085.43Z" fill="#333333"/>
<path d="M64.5716 40.0992L66.0946 44.246L70.2796 38.0387C70.3594 37.9255 70.4163 37.7967 70.4471 37.66C70.4779 37.5234 70.4818 37.3817 70.4587 37.2434C70.4356 37.1051 70.3859 36.9731 70.3126 36.8553C70.2392 36.7375 70.1438 36.6362 70.032 36.5577L68.7938 35.6562C68.5717 35.4955 68.2975 35.4324 68.031 35.4807C67.7644 35.5289 67.5268 35.6845 67.3699 35.9138L64.5469 40.1121L64.5716 40.0992Z" fill="#33ADD6"/>
<path d="M64.5716 40.0992L66.0946 44.246L70.2796 38.0387C70.3594 37.9255 70.4163 37.7967 70.4471 37.66C70.4779 37.5234 70.4818 37.3817 70.4587 37.2434C70.4356 37.1051 70.3859 36.9731 70.3126 36.8553C70.2392 36.7375 70.1438 36.6362 70.032 36.5577L68.7938 35.6562C68.5717 35.4955 68.2975 35.4324 68.031 35.4807C67.7644 35.5289 67.5268 35.6845 67.3699 35.9138L64.5469 40.1121L64.5716 40.0992Z" fill="white" fill-opacity="0.2"/>
<path d="M67.3359 46.667L68.9332 50.8138L73.1182 44.6193C73.2727 44.3883 73.3333 44.1032 73.287 43.8259C73.2406 43.5486 73.091 43.3015 72.8706 43.1383L71.6324 42.2239C71.5222 42.1433 71.3977 42.0864 71.2661 42.0563C71.1345 42.0263 70.9985 42.0237 70.866 42.0489C70.7334 42.0741 70.6071 42.1264 70.4942 42.2029C70.3813 42.2794 70.2842 42.3785 70.2085 42.4944L67.3359 46.6798V46.667Z" fill="#33ADD6"/>
<path d="M67.3359 46.667L68.9332 50.8138L73.1182 44.6193C73.2727 44.3883 73.3333 44.1032 73.287 43.8259C73.2406 43.5486 73.091 43.3015 72.8706 43.1383L71.6324 42.2239C71.5222 42.1433 71.3977 42.0864 71.2661 42.0563C71.1345 42.0263 70.9985 42.0237 70.866 42.0489C70.7334 42.0741 70.6071 42.1264 70.4942 42.2029C70.3813 42.2794 70.2842 42.3785 70.2085 42.4944L67.3359 46.6798V46.667Z" fill="white" fill-opacity="0.2"/>
<path d="M43.2248 24.4922L38.9531 24.3892L43.1381 18.1818C43.2951 17.9526 43.5326 17.7969 43.7992 17.7487C44.0658 17.7005 44.3399 17.7636 44.562 17.9243L45.8002 18.8386C46.0206 19.0019 46.1702 19.2489 46.2166 19.5262C46.263 19.8035 46.2023 20.0886 46.0478 20.3196L43.2248 24.5051V24.4922Z" fill="#33ADD6"/>
<path d="M43.2248 24.4922L38.9531 24.3892L43.1381 18.1818C43.2951 17.9526 43.5326 17.7969 43.7992 17.7487C44.0658 17.7005 44.3399 17.7636 44.562 17.9243L45.8002 18.8386C46.0206 19.0019 46.1702 19.2489 46.2166 19.5262C46.263 19.8035 46.2023 20.0886 46.0478 20.3196L43.2248 24.5051V24.4922Z" fill="white" fill-opacity="0.2"/>
<path d="M36.3811 23.9771L32.1094 23.874L36.2944 17.6667C36.4513 17.4374 36.6889 17.2818 36.9554 17.2336C37.222 17.1854 37.4961 17.2484 37.7183 17.4091L38.9565 18.3235C39.176 18.4844 39.3254 18.7292 39.3718 19.0043C39.4182 19.2795 39.3579 19.5626 39.2041 19.7916L36.3687 23.9899L36.3811 23.9771Z" fill="#33ADD6"/>
<path d="M36.3811 23.9771L32.1094 23.874L36.2944 17.6667C36.4513 17.4374 36.6889 17.2818 36.9554 17.2336C37.222 17.1854 37.4961 17.2484 37.7183 17.4091L38.9565 18.3235C39.176 18.4844 39.3254 18.7292 39.3718 19.0043C39.4182 19.2795 39.3579 19.5626 39.2041 19.7916L36.3687 23.9899L36.3811 23.9771Z" fill="white" fill-opacity="0.2"/>
<path d="M45.2791 35.1543H45.1057L19.9833 27.8137C19.4368 27.6128 18.9802 27.2102 18.7003 26.6822C18.4204 26.1543 18.3366 25.5378 18.4649 24.9499C18.5933 24.3619 18.9247 23.8435 19.3964 23.493C19.868 23.1425 20.447 22.9844 21.0234 23.0487L51.7919 24.3365C51.956 24.3365 52.1135 24.4044 52.2296 24.5251C52.3457 24.6459 52.4109 24.8097 52.4109 24.9804C52.4109 25.1512 52.3457 25.315 52.2296 25.4358C52.1135 25.5565 51.956 25.6244 51.7919 25.6244H50.7518L20.9367 24.3365C20.7313 24.3085 20.5225 24.3393 20.3327 24.4255C20.1429 24.5118 19.9793 24.6502 19.8595 24.8259C19.7581 24.9706 19.6908 25.138 19.6628 25.3147C19.6349 25.4914 19.6471 25.6724 19.6985 25.8433C19.7491 26.0154 19.8367 26.1733 19.9547 26.305C20.0727 26.4366 20.218 26.5386 20.3795 26.6031L45.4401 33.918C45.6042 33.9402 45.7532 34.0293 45.8542 34.1658C45.9552 34.3022 46 34.4748 45.9787 34.6456C45.9573 34.8164 45.8716 34.9714 45.7404 35.0764C45.6092 35.1815 45.4433 35.228 45.2791 35.2058V35.1543Z" fill="black"/>
<path d="M71.5156 64.9796C71.1769 64.9814 70.8418 64.9062 70.5339 64.7594C70.2259 64.6126 69.9525 64.3977 69.7326 64.1296L55.1346 42.2365C55.0877 42.1665 55.0547 42.0875 55.0374 42.0041C55.0201 41.9207 55.0189 41.8346 55.0338 41.7507C55.0488 41.6668 55.0797 41.5869 55.1246 41.5155C55.1695 41.4442 55.2277 41.3828 55.2956 41.335C55.3619 41.2865 55.4369 41.2524 55.5161 41.2346C55.5953 41.2167 55.6771 41.2156 55.7567 41.2312C55.8364 41.2468 55.9122 41.2788 55.9797 41.3254C56.0472 41.372 56.1051 41.4322 56.1499 41.5024L70.7108 63.3698C70.8273 63.492 70.968 63.5864 71.1231 63.6464C71.2783 63.7063 71.4441 63.7304 71.6091 63.7169C71.7741 63.7034 71.9343 63.6527 72.0785 63.5683C72.2227 63.4839 72.3475 63.3678 72.4442 63.2281C72.5596 63.0547 72.6294 62.853 72.6468 62.643C72.6642 62.4329 72.6285 62.2217 72.5433 62.0304L61.2017 33.1058C61.1403 32.9451 61.1423 32.7658 61.2072 32.6067C61.2721 32.4476 61.3947 32.3215 61.5483 32.2558C61.6239 32.2244 61.7047 32.2089 61.7861 32.21C61.8675 32.2112 61.9479 32.229 62.0226 32.2625C62.0974 32.296 62.1651 32.3445 62.2218 32.4052C62.2785 32.4659 62.3231 32.5377 62.3532 32.6164L73.67 61.5153C73.8274 61.8797 73.8971 62.2785 73.8731 62.6773C73.8491 63.076 73.732 63.4626 73.5321 63.8038C73.3321 64.1449 73.0553 64.4302 72.7255 64.6351C72.3958 64.8399 72.023 64.9582 71.6394 64.9796H71.5156Z" fill="black"/>
<path d="M11.8368 51.2129C11.7078 51.2187 11.5809 51.1778 11.4777 51.097C11.4112 51.0494 11.3544 50.9885 11.3108 50.9178C11.2672 50.8471 11.2377 50.768 11.2238 50.6852C11.21 50.6025 11.2122 50.5177 11.2303 50.4358C11.2483 50.3539 11.282 50.2766 11.3292 50.2084L23.5994 32.0242C23.6466 31.9549 23.7064 31.8959 23.7755 31.8506C23.8445 31.8053 23.9215 31.7746 24.002 31.7603C24.0825 31.7459 24.1649 31.7482 24.2445 31.767C24.3242 31.7858 24.3995 31.8207 24.4661 31.8697C24.5328 31.9188 24.5895 31.981 24.6331 32.0528C24.6766 32.1247 24.7061 32.2047 24.7199 32.2884C24.7337 32.3722 24.7315 32.4579 24.7135 32.5407C24.6954 32.6235 24.6619 32.7019 24.6147 32.7712L12.3445 50.9425C12.2862 51.0258 12.2098 51.0937 12.1217 51.1407C12.0335 51.1877 11.9359 51.2124 11.8368 51.2129V51.2129Z" fill="black"/>
<path d="M26.2401 40.6272C26.112 40.6266 25.9869 40.5863 25.881 40.5113C25.814 40.4625 25.757 40.4004 25.7133 40.3286C25.6695 40.2567 25.6399 40.1766 25.6261 40.0928C25.6123 40.009 25.6146 39.9231 25.6328 39.8403C25.6511 39.7574 25.6849 39.679 25.7324 39.6098L29.8184 33.557C29.9156 33.4266 30.0572 33.34 30.2139 33.315C30.3707 33.2901 30.5308 33.3286 30.661 33.4228C30.7913 33.517 30.8818 33.6596 30.9139 33.8211C30.946 33.9827 30.9173 34.1509 30.8337 34.2911L26.7477 40.3568C26.6894 40.4401 26.6131 40.508 26.5249 40.555C26.4367 40.602 26.3392 40.6267 26.2401 40.6272Z" fill="black"/>
<path d="M26.9969 50.2337C26.8724 50.2346 26.7508 50.194 26.6502 50.1178C26.5156 50.019 26.4235 49.8695 26.3934 49.7011C26.3634 49.5327 26.3977 49.3587 26.4892 49.2163L36.0355 35.0502C36.1323 34.9123 36.2769 34.8191 36.4387 34.7902C36.6005 34.7614 36.7668 34.7992 36.9022 34.8956C36.9692 34.9444 37.0262 35.0066 37.0699 35.0784C37.1137 35.1502 37.1433 35.2304 37.1571 35.3142C37.1709 35.398 37.1687 35.4838 37.1504 35.5667C37.1322 35.6496 37.0983 35.7279 37.0508 35.7971L27.5045 49.9633C27.4477 50.0482 27.3717 50.1172 27.2831 50.1644C27.1946 50.2116 27.0963 50.2354 26.9969 50.2337V50.2337Z" fill="black"/>
<path d="M51.6568 80.2924C51.5119 80.3028 51.3679 80.2619 51.2482 80.1765C51.1812 80.1277 51.1242 80.0656 51.0805 79.9937C51.0367 79.9219 51.0071 79.8418 50.9933 79.7579C50.9795 79.6741 50.9817 79.5883 51 79.5054C51.0182 79.4225 51.0521 79.3442 51.0996 79.275L63.4194 61.1166C63.5166 60.9862 63.6582 60.8996 63.815 60.8746C63.9717 60.8496 64.1318 60.8882 64.262 60.9824C64.3923 61.0765 64.4828 61.2191 64.5149 61.3807C64.5471 61.5423 64.5183 61.7105 64.4347 61.8507L52.1644 80.0219C52.1062 80.1053 52.0298 80.1732 51.9416 80.2202C51.8535 80.2672 51.7559 80.2919 51.6568 80.2924V80.2924Z" fill="black"/>
<path d="M56.3332 62.6109C56.2086 62.6118 56.0871 62.5712 55.9865 62.495C55.9195 62.4462 55.8625 62.3841 55.8188 62.3122C55.775 62.2404 55.7454 62.1603 55.7316 62.0764C55.7177 61.9926 55.72 61.9068 55.7383 61.8239C55.7565 61.741 55.7904 61.6627 55.8379 61.5935L59.9238 55.5407C59.9681 55.4664 60.0265 55.4024 60.0954 55.3523C60.1643 55.3023 60.2422 55.2674 60.3245 55.2497C60.4067 55.232 60.4916 55.2319 60.5739 55.2494C60.6562 55.2669 60.7342 55.3016 60.8032 55.3515C60.8722 55.4014 60.9307 55.4653 60.9751 55.5395C61.0196 55.6136 61.0491 55.6964 61.0618 55.7828C61.0745 55.8691 61.0702 55.9573 61.0491 56.0419C61.028 56.1265 60.9906 56.2057 60.9391 56.2748L56.8408 62.4048C56.7763 62.4764 56.6973 62.5321 56.6095 62.5677C56.5216 62.6034 56.4272 62.6181 56.3332 62.6109V62.6109Z" fill="black"/>
<path d="M47.3876 65.1215C47.2569 65.1134 47.1316 65.064 47.0286 64.9799C46.896 64.8792 46.8063 64.7287 46.7786 64.5605C46.7509 64.3922 46.7872 64.2193 46.88 64.0784L56.4263 49.9123C56.4706 49.838 56.5289 49.7739 56.5978 49.7239C56.6667 49.6739 56.7446 49.639 56.8269 49.6213C56.9092 49.6036 56.994 49.6035 57.0763 49.621C57.1586 49.6385 57.2367 49.6732 57.3056 49.7231C57.3746 49.773 57.4331 49.8369 57.4776 49.9111C57.522 49.9852 57.5515 50.068 57.5642 50.1544C57.5769 50.2407 57.5726 50.3289 57.5515 50.4135C57.5305 50.498 57.493 50.5773 57.4416 50.6463L47.8953 64.8125C47.8428 64.9045 47.7687 64.9812 47.6799 65.0353C47.5911 65.0893 47.4905 65.119 47.3876 65.1215V65.1215Z" fill="black"/>
<path d="M39.6871 73.0678C39.5882 73.0663 39.491 73.0411 39.4029 72.9942C39.3149 72.9473 39.2384 72.88 39.1795 72.7974L33.261 64.0401L23.009 60.988C22.915 60.9605 22.8288 60.9099 22.7577 60.8404C22.6866 60.7709 22.6326 60.6846 22.6004 60.5887C22.5688 60.4906 22.559 60.3863 22.5719 60.2836C22.5848 60.181 22.6199 60.0828 22.6747 59.9963L25.3987 55.9654C25.4679 55.8655 25.5624 55.7873 25.6716 55.7396C25.7809 55.6919 25.9006 55.6765 26.0177 55.695L33.3477 56.9828C34.4373 54.7549 39.3157 44.6712 40.6653 42.3917L56.1919 16.2359C58.037 13.6579 60.7222 11.8677 63.7448 11.2005C64.5337 10.9904 65.3554 10.9495 66.16 11.0801C66.9646 11.2107 67.7352 11.5102 68.425 11.9603C69.0249 12.4397 69.5251 13.0407 69.8954 13.7269C70.2657 14.413 70.4984 15.1702 70.5795 15.9525C70.9755 19.1971 70.2085 22.4797 68.425 25.1734L50.0878 49.1528C48.4905 51.2391 40.9872 59.4554 39.3157 61.3228L42.9559 68.071C43.016 68.1739 43.0478 68.2919 43.0478 68.4123C43.0478 68.5327 43.016 68.6507 42.9559 68.7536L40.2319 72.7974C40.1736 72.8807 40.0973 72.9486 40.0091 72.9956C39.9209 73.0426 39.8234 73.0673 39.7243 73.0678H39.6871ZM24.1853 59.9963L33.8182 62.8682C33.9522 62.9098 34.0696 62.9957 34.1525 63.1129L39.6871 71.3035L41.6806 68.3415L37.9661 61.5289C37.9001 61.4085 37.874 61.2688 37.8919 61.1315C37.9098 60.9942 37.9707 60.8668 38.0651 60.769C38.1518 60.6789 47.339 50.6081 49.0601 48.3544L67.385 24.3878C68.9617 21.9767 69.6477 19.0542 69.3165 16.1586C69.1848 14.9271 68.5935 13.7987 67.6698 13.0163C66.5494 12.3321 65.2153 12.1332 63.9553 12.4625C61.243 13.0359 58.8281 14.6263 57.1701 16.9313L41.7177 43.0871C40.2567 45.5598 34.2887 57.8843 34.2887 58.0131C34.2328 58.1393 34.1377 58.2423 34.0186 58.3054C33.8996 58.3685 33.7635 58.388 33.6325 58.3608L26.2035 57.073L24.1853 59.9963Z" fill="black"/>
<path d="M64.1064 27.1433H64.0321C63.8551 27.1324 63.6836 27.0747 63.5341 26.9755C63.3846 26.8763 63.2619 26.739 63.1778 26.5766C62.5402 25.3547 61.6396 24.3027 60.5463 23.5029C59.453 22.7031 58.1966 22.1772 56.8755 21.9662C56.6988 21.9418 56.5314 21.8694 56.3901 21.7564C56.2489 21.6434 56.1387 21.4936 56.0707 21.3223C55.9974 21.1525 55.968 20.9658 55.9853 20.7806C56.0027 20.5954 56.0663 20.4181 56.1697 20.2663L57.6679 18.0512C57.7764 17.8844 57.9284 17.7534 58.1061 17.6735C58.2838 17.5937 58.4797 17.5683 58.6708 17.6004H59.0918C60.6044 17.839 62.0432 18.4387 63.2956 19.3525C64.548 20.2664 65.5799 21.4695 66.3103 22.8677L66.5084 23.2669C66.5987 23.4436 66.6407 23.6427 66.6297 23.8425C66.6188 24.0424 66.5555 24.2352 66.4465 24.4002L64.936 26.6153C64.8512 26.7684 64.7308 26.8971 64.5859 26.9893C64.441 27.0816 64.2761 27.1345 64.1064 27.1433ZM57.3707 20.7041C58.7691 20.9723 60.0956 21.5505 61.26 22.3994C62.4243 23.2482 63.3994 24.3479 64.1188 25.6236L65.3569 23.7692L65.2083 23.4987C64.5708 22.2768 63.6702 21.2248 62.5769 20.425C61.4836 19.6252 60.2272 19.0993 58.9061 18.8883H58.6089L57.3707 20.7041Z" fill="black"/>
</g>
</g>
<defs>
<clipPath id="clip0_5505_22212">
<rect width="87" height="88.5444" fill="white" transform="translate(0 0.319336)"/>
</clipPath>
<clipPath id="clip1_5505_22212">
<rect width="89.1482" height="92.7238" fill="white" transform="translate(-2 -0.698242)"/>
</clipPath>
</defs>
</svg>
