<svg width="87" height="89" viewBox="0 0 87 89" fill="none" xmlns="http://www.w3.org/2000/svg">
<g clip-path="url(#clip0_5505_58458)">
<g clip-path="url(#clip1_5505_58458)">
<path fill-rule="evenodd" clip-rule="evenodd" d="M60.0875 42.0039L66.7903 54.8126C67.644 56.0174 67.3127 57.7085 66.0713 58.4846L51.4255 68.7629C48.395 70.6593 44.6907 71.0643 41.3355 69.8685L25.4572 63.172C24.1153 62.6936 23.4339 61.1696 23.9585 59.8203L27.3181 45.7944" fill="white"/>
<path d="M60.0875 42.0039L66.7903 54.8126C67.644 56.0174 67.3127 57.7085 66.0713 58.4846L51.4255 68.7629C48.395 70.6593 44.6907 71.0643 41.3355 69.8685L25.4572 63.172C24.1153 62.6936 23.4339 61.1696 23.9585 59.8203L27.3181 45.7944" stroke="#333333"/>
<path fill-rule="evenodd" clip-rule="evenodd" d="M11.8047 36.8992L39.8616 23.1891C40.8136 22.7232 41.8904 22.5924 42.923 22.8157L74.4908 29.6544C75.7311 29.9229 76.0271 31.5925 74.958 32.2886L46.8901 50.5438C45.6333 51.3617 44.0761 51.5354 42.6756 51.0142L11.9307 39.5615C10.7522 39.1227 10.6738 37.452 11.8047 36.8992Z" fill="white"/>
<path fill-rule="evenodd" clip-rule="evenodd" d="M11.8047 36.8992L39.8616 23.1891C40.8136 22.7232 41.8904 22.5924 42.923 22.8157L74.4908 29.6544C75.7311 29.9229 76.0271 31.5925 74.958 32.2886L46.8901 50.5438C45.6333 51.3617 44.0761 51.5354 42.6756 51.0142L11.9307 39.5615C10.7522 39.1227 10.6738 37.452 11.8047 36.8992Z" stroke="#333333"/>
<path d="M69.6031 47.0572L68.2987 36.8071L46.0898 34.6851" stroke="#333333"/>
<path fill-rule="evenodd" clip-rule="evenodd" d="M47.1066 36.3566C47.7825 36.2562 48.2165 35.5184 47.9305 34.8833C46.8978 32.5864 44.4913 31.1526 41.9169 31.5339C39.3425 31.9141 37.4329 33.9875 37.0806 36.4897C36.9823 37.1801 37.603 37.7622 38.28 37.663L47.1066 36.3566Z" fill="#0099CC"/>
<path fill-rule="evenodd" clip-rule="evenodd" d="M68.6253 45.7231C68.2928 45.7638 68.0477 46.0593 68.0675 46.4011C68.1725 48.2343 68.6396 54.8835 68.686 55.2998C68.7699 56.0522 68.9654 56.3895 69.5541 56.3252C70.1439 56.2609 71.0263 56.1616 71.4946 56.0985C71.9617 56.0364 72.6454 56.0263 72.4808 54.9444C72.3892 54.3454 71.1743 47.8248 70.8176 46.0526C70.7513 45.7243 70.4498 45.5032 70.1229 45.5426L68.6253 45.7231Z" fill="#0099CC"/>
<path fill-rule="evenodd" clip-rule="evenodd" d="M47.1066 36.3566C47.7825 36.2562 48.2165 35.5184 47.9305 34.8833C46.8978 32.5864 44.4913 31.1526 41.9169 31.5339C39.3425 31.9141 37.4329 33.9875 37.0806 36.4897C36.9823 37.1801 37.603 37.7622 38.28 37.663L47.1066 36.3566Z" stroke="#333333"/>
<path d="M79.1719 30.3578L81.9981 29.8817" stroke="#333333" stroke-linecap="round"/>
<path d="M77.9375 33.5142L80.2656 35.2187" stroke="#333333" stroke-linecap="round"/>
<path d="M77.1328 27.4938L78.8016 25.1157" stroke="#333333" stroke-linecap="round"/>
</g>
</g>
<defs>
<clipPath id="clip0_5505_58458">
<rect width="87" height="88.5444" fill="white" transform="translate(0 0.319336)"/>
</clipPath>
<clipPath id="clip1_5505_58458">
<rect width="72" height="73.2781" fill="white" transform="translate(8 7.44336)"/>
</clipPath>
</defs>
</svg>
