<svg width="87" height="89" viewBox="0 0 87 89" fill="none" xmlns="http://www.w3.org/2000/svg">
<g clip-path="url(#clip0_5505_47977)">
<path d="M5362.92 2166.48H-3758.37V-4126.2H5362.92V2166.48ZM-3757.41 2165.46H5362V-4125.26H-3757.41V2165.46Z" fill="#333333"/>
<path d="M5362.92 2166.48H-3758.37V-4126.2H5362.92V2166.48ZM-3757.41 2165.46H5362V-4125.26H-3757.41V2165.46Z" fill="#333333"/>
<path d="M5362.92 2166.48H-3758.37V-4126.2H5362.92V2166.48ZM-3757.41 2165.46H5362V-4125.26H-3757.41V2165.46Z" fill="#333333"/>
<path d="M50.5008 38.464V38.3215C50.5008 38.3215 50.5008 38.3215 50.5008 38.2401L50.5608 38.1383L50.6708 38.0162L50.8308 37.8941C51.0108 37.7618 51.2008 37.6193 51.3808 37.4666C51.6397 37.2422 51.8624 36.9777 52.0408 36.683C52.1926 36.4221 52.2624 36.1202 52.2408 35.8179H52.3008V39.3189C52.3012 39.9113 52.1034 40.4861 51.7398 40.9486C51.3762 41.4111 50.8687 41.7337 50.3008 41.8633C50.5333 40.7467 50.6007 39.6009 50.5008 38.464V38.464Z" fill="#009DD4"/>
<path d="M32.7797 38.4642C32.7844 38.4168 32.7844 38.3691 32.7797 38.3217C32.7797 38.3217 32.7797 38.3217 32.7797 38.2403L32.7197 38.1385L32.5597 37.9757L32.4097 37.8536C32.218 37.7225 32.0343 37.5798 31.8597 37.4261C31.5953 37.2073 31.3717 36.9418 31.1997 36.6424C31.0406 36.3843 30.967 36.0811 30.9897 35.7773H30.9297V39.2784C30.931 39.8702 31.1296 40.4441 31.4928 40.9063C31.8561 41.3684 32.3627 41.6915 32.9297 41.8228C32.7227 40.7163 32.6721 39.5853 32.7797 38.4642V38.4642Z" fill="#009DD4"/>
<path d="M62.2889 47.7354C62.6289 47.7965 62.9889 47.7354 63.3389 47.7354C63.6889 47.7354 63.9489 47.8168 64.2589 47.827C64.3985 47.8096 64.5401 47.8224 64.6745 47.8645C64.8089 47.9066 64.9331 47.977 65.0389 48.0713L65.1489 48.1934V46.1579C65.1471 44.6783 64.5811 43.2572 63.57 42.194C62.559 41.1308 61.1819 40.5086 59.7289 40.4585H58.5489C57.0968 40.506 55.7198 41.126 54.7084 42.1876C53.6971 43.2491 53.1307 44.6691 53.1289 46.1477V48.1832H53.5689C53.6428 48.1336 53.7237 48.0958 53.8089 48.0713C54.6289 47.8677 55.4389 47.6336 56.2389 47.3996C57.0166 47.268 57.763 46.9883 58.4389 46.5752C58.5568 46.4656 58.684 46.3669 58.8189 46.28C59.2289 46.0663 59.6889 46.4225 60.0289 46.6159C60.1965 46.7274 60.374 46.8227 60.5589 46.9009L61.1489 47.2164C61.4892 47.4254 61.8559 47.5863 62.2389 47.6947L62.2889 47.7354Z" fill="#009DD4"/>
<path d="M50.6289 31.7976C51.0489 31.4618 50.6889 30.9631 50.6289 31.7976V31.7976Z" fill="#009DD4"/>
<path d="M42.5286 19.1162C39.8786 19.0916 37.3136 20.067 35.3286 21.8539L34.2586 22.8717C33.2524 23.3169 32.3927 24.0463 31.7813 24.9734C31.1699 25.9005 30.8323 26.9866 30.8086 28.1029V34.9219L31.2986 34.301C31.7286 32.5505 33.2986 32.0111 35.0486 32.0111C36.1489 31.21 37.2071 30.3505 38.2186 29.4362C38.4486 29.1207 39.6086 31.4717 42.1486 31.4717L44.1486 31.1664L46.5586 29.7313L49.7686 32.0416C50.9128 32.1865 51.9726 32.7294 52.7686 33.5784V28.4897C52.7186 23.3093 48.1486 19.1162 42.5286 19.1162Z" fill="#009DD4"/>
<path d="M68.5996 59.1444C67.8996 58.9816 65.8296 58.5541 62.4596 57.8722V56.997C62.46 56.9535 62.4502 56.9105 62.4311 56.8715C62.412 56.8326 62.384 56.7989 62.3496 56.7731C62.9948 56.1707 63.5115 55.4397 63.8675 54.6256C64.2236 53.8115 64.4115 52.9316 64.4196 52.0405V51.3993C65.0196 51.3993 65.7396 50.9719 65.7396 49.547C65.7396 48.1222 65.0296 47.7049 64.4396 47.5828V45.7203C64.4396 45.642 64.409 45.5669 64.3546 45.5116C64.3002 45.4562 64.2265 45.4251 64.1496 45.4251C64.0727 45.4251 63.9989 45.4562 63.9445 45.5116C63.8901 45.5669 63.8596 45.642 63.8596 45.7203V52.0405C63.8596 52.0405 63.7896 57.3125 59.1296 57.3125C54.4696 57.3125 54.3696 52.1321 54.3696 52.0812V48.1527C56.0839 48.1851 57.7437 47.5393 58.9996 46.3513C59.5096 46.9314 60.9496 48.1425 63.8796 48.1425V47.5522C60.4596 47.5522 59.2696 45.761 59.2596 45.7508L58.9996 45.4048L58.7496 45.7203C58.1827 46.316 57.5011 46.7862 56.7474 47.1014C55.9937 47.4166 55.1842 47.5701 54.3696 47.5522V45.7203C54.3696 45.642 54.339 45.5669 54.2846 45.5116C54.2302 45.4562 54.1565 45.4251 54.0796 45.4251C54.0027 45.4251 53.9289 45.4562 53.8745 45.5116C53.8201 45.5669 53.7896 45.642 53.7896 45.7203V47.654C53.2696 47.8372 52.7296 48.3257 52.7296 49.547C52.7296 50.7683 53.2596 51.2161 53.7896 51.3485V52.0405C53.8071 53.0132 54.0411 53.9693 54.4742 54.8366C54.9072 55.7039 55.5279 56.46 56.2896 57.0479V57.8722C52.9096 58.5541 50.8496 58.9816 50.1496 59.1444C49.8372 59.1631 49.5318 59.2465 49.2521 59.3894C48.9724 59.5324 48.7244 59.7319 48.5231 59.9758C48.3219 60.2197 48.1716 60.5028 48.0816 60.8079C47.9916 61.1129 47.9637 61.4335 47.9996 61.7499V69.7087H70.7996V61.7499C70.8372 61.4291 70.8088 61.1039 70.7164 60.7949C70.6239 60.4859 70.4693 60.1998 70.2625 59.9548C70.0556 59.7098 69.801 59.5113 69.5147 59.3718C69.2284 59.2323 68.9168 59.1549 68.5996 59.1444ZM64.4196 48.1527C64.7596 48.2443 65.1696 48.5089 65.1696 49.5165C65.1696 50.5241 64.7796 50.7276 64.4196 50.7785V48.1527ZM53.7896 50.6971C53.5296 50.575 53.3096 50.2696 53.3096 49.5165C53.3096 48.7634 53.5396 48.4275 53.7896 48.2748V50.6971ZM56.8596 57.6687V57.343C57.6543 57.7022 58.5209 57.8664 59.3894 57.8222C60.2579 57.778 61.104 57.5267 61.8596 57.0886V57.8214C61.8624 57.8416 61.8624 57.8622 61.8596 57.8824C60.2727 58.5392 58.4965 58.5392 56.9096 57.8824H56.8196L56.8596 57.6687ZM70.1896 69.1184H48.5496V61.7499C48.5035 61.5105 48.5083 61.2639 48.5636 61.0265C48.619 60.7892 48.7235 60.5667 48.8704 60.3739C49.0172 60.1811 49.2028 60.0225 49.4148 59.9087C49.6268 59.795 49.8603 59.7287 50.0996 59.7144C50.103 59.7593 50.1165 59.8029 50.139 59.8417C50.1616 59.8805 50.1925 59.9135 50.2296 59.9383C50.4172 60.0456 50.5807 60.1916 50.7098 60.3668C50.839 60.542 50.9308 60.7427 50.9796 60.956C51.1128 61.5913 51.1699 62.2406 51.1496 62.8898C51.1482 62.928 51.1545 62.9662 51.1679 63.0019C51.1814 63.0377 51.2018 63.0703 51.228 63.0979C51.2541 63.1254 51.2854 63.1473 51.3201 63.1623C51.3547 63.1772 51.3919 63.1849 51.4296 63.1849C51.5038 63.1849 51.5751 63.1549 51.6276 63.1014C51.6801 63.048 51.7096 62.9755 51.7096 62.8999C51.7369 62.2164 51.6764 61.5321 51.5296 60.8644C51.4158 60.359 51.1286 59.9116 50.7196 59.6024L56.5596 58.4117L56.7196 58.4829C57.5723 58.8293 58.4815 59.0088 59.3996 59.0121C60.3657 59.0098 61.3215 58.809 62.2096 58.4218L67.5996 59.521C67.3651 59.6714 67.1622 59.8675 67.0026 60.0981C66.843 60.3287 66.7298 60.5891 66.6696 60.8644C66.5237 61.5323 66.4599 62.216 66.4796 62.8999C66.4795 62.9382 66.4871 62.9761 66.5018 63.0114C66.5165 63.0466 66.538 63.0785 66.5651 63.1051C66.5922 63.1317 66.6242 63.1525 66.6593 63.1662C66.6945 63.1799 66.732 63.1863 66.7696 63.1849C66.8072 63.1849 66.8444 63.1772 66.8791 63.1623C66.9137 63.1473 66.945 63.1254 66.9712 63.0979C66.9973 63.0703 67.0177 63.0377 67.0312 63.0019C67.0447 62.9662 67.0509 62.928 67.0496 62.8898C67.0243 62.2404 67.0814 61.5905 67.2196 60.956C67.2666 60.7433 67.3567 60.543 67.4841 60.3677C67.6115 60.1925 67.7735 60.0462 67.9596 59.9383C68.0168 59.9044 68.0609 59.8516 68.0846 59.7886C68.1082 59.7257 68.11 59.6564 68.0896 59.5922L68.4496 59.6737C69.4496 59.9077 70.1696 60.1724 70.1696 61.7092L70.1896 69.1184Z" fill="#333333" stroke="#333333" stroke-width="0.25" stroke-miterlimit="10"/>
<path d="M42.9282 24.5997C45.782 23.9632 47.5886 21.0926 46.9632 18.1881C46.3378 15.2836 43.5173 13.445 40.6635 14.0814C37.8096 14.7179 36.0031 17.5885 36.6284 20.493C37.2538 23.3975 40.0743 25.2362 42.9282 24.5997Z" fill="#009DD4"/>
<path d="M42.0908 56.1526L47.0008 50.3107L54.0008 51.7457C53.9401 51.4019 53.9819 51.0474 54.1208 50.7279C52.4008 50.3717 50.2108 49.9239 47.5008 49.3845V47.8681C47.5016 47.7939 47.4858 47.7206 47.4546 47.6536C47.4234 47.5866 47.3777 47.5276 47.3208 47.4813C50.1308 45.1405 50.8908 41.212 50.8908 39.3393V38.2096C51.8908 38.1078 53.1708 37.4768 53.1708 35.0139C53.1708 32.5509 52.0008 31.869 51.0008 31.6247H50.9508V31.4415C50.9508 31.3039 50.8971 31.1719 50.8014 31.0745C50.7058 30.9772 50.576 30.9225 50.4408 30.9225C50.3274 30.9212 50.2173 30.9617 50.1309 31.0365C50.0445 31.1113 49.9877 31.2154 49.9708 31.3296V31.7163C48.7487 31.164 47.7077 30.2669 46.9708 29.1313L46.6608 28.6631L45.1208 29.9963C44.3233 30.6928 43.3024 31.0672 42.2518 31.0484C41.2011 31.0297 40.1937 30.6191 39.4208 29.8946L38.2808 28.8768L37.9408 29.3246C37.4068 29.9864 36.7454 30.5301 35.9973 30.9221C35.2492 31.3142 34.4303 31.5463 33.5908 31.6044V31.4924C33.5908 31.3548 33.537 31.2227 33.4414 31.1254C33.3458 31.0281 33.216 30.9734 33.0808 30.9734C32.9508 30.9734 32.8262 31.0259 32.7343 31.1194C32.6424 31.213 32.5908 31.3398 32.5908 31.4721V31.7876C31.6808 32.1133 30.7708 32.9478 30.7708 35.0647C30.7708 37.1817 31.6808 37.9348 32.6008 38.1791V39.3698C32.6008 41.2628 33.5108 45.7206 36.9008 48.0004V49.4354C31.0808 50.6058 27.5208 51.3386 26.3108 51.6134C24.4108 52.0408 22.5508 52.7431 22.5508 56.122V69.8006H48.2808V68.7828H23.5508V56.0711C23.5508 53.5776 24.6008 53.0179 26.2208 52.6311C26.2294 52.7073 26.2545 52.7806 26.2943 52.8457C26.3341 52.9108 26.3875 52.9661 26.4508 53.0077C26.7765 53.1959 27.0597 53.4517 27.282 53.7586C27.5042 54.0654 27.6605 54.4164 27.7408 54.7888C27.9602 55.8867 28.0475 57.0076 28.0008 58.127C27.9981 58.1942 28.0088 58.2612 28.0322 58.3241C28.0556 58.387 28.0913 58.4444 28.137 58.4929C28.1828 58.5413 28.2377 58.5799 28.2985 58.6062C28.3593 58.6326 28.4247 58.6461 28.4908 58.646V58.646C28.6217 58.6461 28.7474 58.5939 28.8408 58.5006C28.9343 58.4074 28.9882 58.2805 28.9908 58.1473C29.0333 56.9408 28.9258 55.7337 28.6708 54.5547C28.4795 53.6825 27.9816 52.9115 27.2708 52.3869C28.9608 52.0205 32.3508 51.3691 37.4008 50.3514L42.0908 56.1526ZM50.9408 32.6628C51.5308 32.8155 52.2208 33.2633 52.2208 35.0139C52.2208 36.7644 51.5608 37.1002 50.9408 37.1817V32.6628ZM46.5508 49.3336C46.4978 49.3619 46.4503 49.3999 46.4108 49.4456L42.1108 54.5343L38.0508 49.4456C38.0079 49.3965 37.9572 49.3552 37.9008 49.3234V48.5092C39.1232 49.0805 40.4558 49.3657 41.8008 49.3438C43.4717 49.3847 45.1194 48.9398 46.5508 48.0614V49.3336ZM38.3808 30.3017L38.7508 30.6477C39.7026 31.5326 40.9391 32.0334 42.2281 32.0559C43.5171 32.0784 44.7698 31.6211 45.7508 30.7698L46.4608 30.1592C47.0808 30.9632 48.4608 32.5 49.9208 32.7443V35.2072H48.3008C48.2536 34.4925 47.961 33.8174 47.4742 33.3C46.9873 32.7827 46.3373 32.456 45.6377 32.3772C44.9381 32.2983 44.2336 32.4723 43.6473 32.8688C43.0611 33.2652 42.6305 33.8588 42.4308 34.5457H40.8208C40.6211 33.8588 40.1905 33.2652 39.6042 32.8688C39.018 32.4723 38.3134 32.2983 37.6139 32.3772C36.9143 32.456 36.2642 32.7827 35.7774 33.3C35.2906 33.8174 34.998 34.4925 34.9508 35.2072H33.6008V32.5713C34.5049 32.531 35.3925 32.3098 36.2126 31.9204C37.0328 31.531 37.7695 30.9809 38.3808 30.3017V30.3017ZM47.3808 35.594C47.3709 35.992 47.2465 36.3784 47.023 36.7052C46.7995 37.0321 46.4867 37.285 46.1233 37.4327C45.76 37.5804 45.3621 37.6164 44.9788 37.5363C44.5956 37.4561 44.2439 37.2633 43.9672 36.9818C43.6906 36.7002 43.5011 36.3422 43.4224 35.9522C43.3436 35.5621 43.379 35.1571 43.5241 34.7874C43.6693 34.4176 43.9178 34.0992 44.2389 33.8718C44.56 33.6443 44.9397 33.5177 45.3308 33.5076C45.8675 33.5182 46.3787 33.7428 46.7546 34.1329C47.1304 34.523 47.3409 35.0476 47.3408 35.594H47.3808ZM40.0508 35.594C40.0409 35.9942 39.9153 36.3827 39.6897 36.7106C39.464 37.0386 39.1483 37.2916 38.7821 37.4379C38.4159 37.5842 38.0155 37.6173 37.6309 37.5331C37.2462 37.4489 36.8946 37.2511 36.6198 36.9645C36.3451 36.6779 36.1595 36.3152 36.0863 35.9218C36.0131 35.5285 36.0556 35.1218 36.2083 34.7528C36.361 34.3838 36.6173 34.0689 36.945 33.8474C37.2727 33.6259 37.6574 33.5077 38.0508 33.5076C38.577 33.5337 39.073 33.765 39.4361 34.1535C39.7992 34.542 40.0014 35.0578 40.0008 35.594H40.0508ZM32.6008 37.0494C32.1508 36.8356 31.7708 36.3166 31.7708 35.0139C31.7708 33.7111 32.1608 33.131 32.6008 32.8562V37.0494ZM33.6008 39.3189V36.2657H35.0008C35.1832 36.9853 35.6132 37.6144 36.2127 38.0387C36.8121 38.463 37.5413 38.6543 38.2676 38.578C38.9939 38.5016 39.6692 38.1625 40.1707 37.6224C40.6723 37.0823 40.9668 36.377 41.0008 35.6347H42.2308C42.2648 36.377 42.5593 37.0823 43.0608 37.6224C43.5624 38.1625 44.2377 38.5016 44.964 38.578C45.6903 38.6543 46.4194 38.463 47.0189 38.0387C47.6184 37.6144 48.0484 36.9853 48.2308 36.2657H49.8908V39.3189C49.8908 39.4105 49.8008 48.3362 41.7508 48.3362C33.7008 48.3362 33.6008 39.4105 33.6008 39.3189Z" fill="#333333"/>
</g>
<defs>
<clipPath id="clip0_5505_47977">
<rect width="72" height="73.2781" fill="white" transform="translate(7 7.44336)"/>
</clipPath>
</defs>
</svg>
