<svg width="107" height="70" viewBox="0 0 107 70" fill="none" xmlns="http://www.w3.org/2000/svg">
  <path d="M1.39893 20.0237L24.3295 17.1348" stroke="black" stroke-linecap="round" stroke-linejoin="round"/>
  <path d="M24.3352 17.1372L76.6422 10.5469" stroke="black" stroke-linecap="round" stroke-linejoin="round"/>
  <path d="M77.779 19.5L2.5415 28.9792" stroke="black" stroke-linejoin="round"/>
  <path d="M16.4426 49.9438C18.9356 49.9438 20.9565 47.9229 20.9565 45.4299C20.9565 42.937 18.9356 40.916 16.4426 40.916C13.9496 40.916 11.9287 42.937 11.9287 45.4299C11.9287 47.9229 13.9496 49.9438 16.4426 49.9438Z" fill="#009DD4"/>
  <path d="M55.0658 42.3756L55.1741 43.2784L33.9047 45.9506C33.8741 45.9509 33.8444 45.9401 33.8211 45.9202C33.7979 45.9003 33.7827 45.8726 33.7783 45.8423L32.9116 38.9089C32.9116 38.9089 32.9116 38.8006 33.0019 38.7826L51.5088 36.4173L54.2713 36.0742L55.0658 42.3756Z" stroke="black" stroke-linecap="round" stroke-linejoin="round"/>
  <path d="M18.137 7.90821L3.20504 9.71377C2.80543 9.76055 2.41913 9.88636 2.06862 10.0839C1.7181 10.2814 1.41039 10.5467 1.16338 10.8642C0.916371 11.1818 0.735011 11.5454 0.629855 11.9337C0.524699 12.3221 0.497848 12.7274 0.550869 13.1263L5.64254 53.6249C5.7461 54.4315 6.16553 55.164 6.80873 55.6617C7.45193 56.1593 8.26632 56.3813 9.07309 56.2791L55.2953 50.4652L58.5138 50.0592M16.2953 8.12488L72.3759 1.06516C73.1798 0.967991 73.9895 1.19242 74.6287 1.68955C75.2678 2.18669 75.6847 2.91625 75.7884 3.71933L78.1867 22.8038" stroke="black" stroke-linecap="round" stroke-linejoin="round"/>
  <path d="M103.387 29.0689C103.262 29.0697 103.139 29.0425 103.027 28.9894C102.914 28.9363 102.815 28.8585 102.737 28.7619C99.1557 23.8208 93.7834 20.4769 87.7688 19.4453C87.6608 19.4278 87.5573 19.3891 87.4643 19.3314C87.3713 19.2738 87.2906 19.1983 87.2269 19.1094C87.1631 19.0205 87.1175 18.9198 87.0928 18.8133C87.0681 18.7067 87.0646 18.5962 87.0827 18.4883C87.1002 18.3827 87.1384 18.2815 87.1951 18.1907C87.2518 18.0999 87.326 18.0212 87.4132 17.9591C87.5005 17.897 87.5991 17.8528 87.7035 17.8289C87.8079 17.8051 87.916 17.8022 88.0216 17.8203C94.4541 18.9063 100.204 22.4717 104.037 27.7508C104.169 27.9239 104.228 28.142 104.201 28.3582C104.174 28.5743 104.063 28.7712 103.892 28.9064C103.744 29.011 103.568 29.0678 103.387 29.0689Z" fill="#333333"/>
  <path d="M106.112 24.2125C105.985 24.214 105.86 24.1852 105.747 24.1287C105.634 24.0722 105.536 23.9895 105.462 23.8875C101.868 18.951 96.4927 15.609 90.4757 14.5709C90.2825 14.5124 90.1171 14.3857 90.0106 14.2142C89.9041 14.0428 89.8636 13.8384 89.8968 13.6393C89.93 13.4402 90.0345 13.26 90.1909 13.1324C90.3473 13.0048 90.5448 12.9385 90.7465 12.9459C97.177 14.0374 102.925 17.6017 106.762 22.8764C106.894 23.0495 106.953 23.2676 106.926 23.4838C106.899 23.6999 106.788 23.8968 106.617 24.032C106.475 24.149 106.296 24.2128 106.112 24.2125Z" fill="#333333"/>
  <path d="M81.085 64.8717C91.5953 64.8717 100.116 56.3514 100.116 45.8411C100.116 35.3308 91.5953 26.8105 81.085 26.8105C70.5747 26.8105 62.0544 35.3308 62.0544 45.8411C62.0544 56.3514 70.5747 64.8717 81.085 64.8717Z" fill="#009DD4"/>
  <path d="M81.0833 69.3859C76.4409 69.3859 71.9028 68.0092 68.0428 65.4301C64.1829 62.8509 61.1744 59.1851 59.3978 54.8961C57.6213 50.6071 57.1564 45.8876 58.0621 41.3344C58.9678 36.7813 61.2033 32.5989 64.4859 29.3163C67.7686 26.0336 71.9509 23.7981 76.5041 22.8924C81.0573 21.9867 85.7768 22.4516 90.0657 24.2281C94.3547 26.0047 98.0206 29.0132 100.6 32.8732C103.179 36.7332 104.556 41.2713 104.556 45.9136C104.527 52.1301 102.045 58.0838 97.6492 62.4795C93.2535 66.8753 87.2998 69.3574 81.0833 69.3859ZM81.0833 24.1025C76.798 24.1025 72.609 25.3733 69.046 27.754C65.4829 30.1348 62.7058 33.5186 61.0659 37.4777C59.426 41.4368 58.997 45.7932 59.833 49.9962C60.669 54.1991 62.7325 58.0597 65.7627 61.0898C68.7928 64.12 72.6534 66.1835 76.8564 67.0195C81.0593 67.8556 85.4157 67.4265 89.3748 65.7866C93.3339 64.1467 96.7177 61.3696 99.0985 57.8065C101.479 54.2435 102.75 50.0545 102.75 45.7692C102.722 40.0316 100.43 34.5371 96.3725 30.48C92.3154 26.4229 86.8209 24.131 81.0833 24.1025Z" fill="#333333"/>
  <path d="M92.7902 39.0423C92.726 38.1826 92.6568 37.318 92.5827 36.4582C92.5432 36.0037 92.3159 35.7319 91.8811 35.6134C88.551 34.6845 85.2208 33.7605 81.8857 32.8465C81.6782 32.7872 81.4213 32.7971 81.2088 32.8564C77.8985 33.7655 74.593 34.6894 71.2876 35.6084C70.8182 35.7369 70.5909 36.0037 70.5563 36.4879C70.4625 37.7775 70.3785 39.0621 70.2846 40.3517C70.2796 40.4307 70.2648 40.5147 70.25 40.5938C70.25 41.0533 70.25 41.5177 70.25 41.9772C70.2846 42.5701 70.3093 43.1581 70.3538 43.751C70.5168 45.9052 70.8528 48.0248 71.6878 50.0357C72.2412 51.3698 73.1009 52.5012 74.0742 53.5487C75.8233 55.4262 77.9133 56.8097 80.3096 57.7237C80.6406 57.8522 80.9816 57.9658 81.3175 58.0844C81.4806 58.0844 81.6486 58.0844 81.8116 58.0844C82.3551 57.8818 82.9036 57.699 83.4372 57.4718C86.2386 56.2761 88.546 54.4529 90.3445 51.9874C91.2339 50.767 91.7675 49.3885 92.138 47.9359C92.6074 46.0831 92.7952 44.2006 92.8495 42.2984C92.8545 42.1946 92.8693 42.0859 92.8841 41.9821C92.8841 41.5226 92.8841 41.0582 92.8841 40.5987C92.8594 40.075 92.8298 39.5611 92.7902 39.0423ZM88.0766 42.2193C85.8038 44.497 83.5261 46.7748 81.2484 49.0476C80.8383 49.4527 80.3788 49.4527 79.9687 49.0426C78.5803 47.6592 77.1969 46.2708 75.8134 44.8874C75.3934 44.4674 75.3934 44.0178 75.8134 43.5879C76.0506 43.3458 76.2877 43.1087 76.5298 42.8715C76.9597 42.4515 77.4044 42.4515 77.8293 42.8715C78.6939 43.7312 79.5537 44.5909 80.4134 45.4556C80.4776 45.5198 80.5122 45.6087 80.5616 45.6878C80.6011 45.6878 80.6357 45.6828 80.6752 45.6828C80.7246 45.6087 80.7642 45.5198 80.8284 45.4556C82.5429 43.7361 84.2623 42.0217 85.9817 40.3022C86.5055 39.7785 86.9155 39.7785 87.4393 40.3072C87.6616 40.5295 87.884 40.7469 88.1014 40.9742C88.467 41.3695 88.467 41.829 88.0766 42.2193Z" fill="white"/>
</svg>
