<svg width="20" height="20" viewBox="0 0 20 20" fill="none" xmlns="http://www.w3.org/2000/svg">
<path fill-rule="evenodd" clip-rule="evenodd" d="M12.8366 2.09398C12.8366 2.15154 12.8292 2.20716 12.8154 2.25973H15.6859L15.69 2.25975H17.0367C17.3281 2.25975 17.5644 2.52308 17.5644 2.84792C17.5644 3.17276 17.3281 3.43609 17.0367 3.43609H16.1923L15.6326 18.5819C15.6035 19.3669 15.0486 20 14.3569 20H6.17892C5.48635 20 4.93136 19.3651 4.90312 18.5786L4.37127 3.43609H3.52766C3.23624 3.43609 3 3.17276 3 2.84792C3 2.52308 3.23624 2.25975 3.52766 2.25975H4.8746L4.87868 2.25973H7.74984C7.73601 2.20716 7.72859 2.15154 7.72859 2.09398V1.39676C7.72859 0.605326 8.35471 0 9.0924 0H11.4728C12.211 0 12.8366 0.605202 12.8366 1.39676V2.09398ZM11.4731 1.17648C11.6591 1.17648 11.7816 1.29503 11.7816 1.3969V1.50595H8.78423V1.3969C8.78423 1.2953 8.90712 1.17648 9.09271 1.17648H11.4731ZM5.42672 3.43621L5.95693 18.5322C5.96309 18.7038 6.06802 18.8238 6.17823 18.8238H14.3562C14.4664 18.8238 14.5711 18.7043 14.5775 18.5335L15.1354 3.43621H5.42672ZM9.75405 14.141V7.3649C9.75405 7.04006 9.9903 6.77673 10.2817 6.77673C10.5731 6.77673 10.8094 7.04006 10.8094 7.3649V14.141C10.8094 14.4659 10.5731 14.7292 10.2817 14.7292C9.9903 14.7292 9.75405 14.4659 9.75405 14.141ZM12.6242 7.34876L12.4574 14.1249C12.4494 14.4496 12.6791 14.7201 12.9704 14.729C13.2617 14.7379 13.5043 14.4819 13.5123 14.1572L13.6792 7.38104C13.6872 7.05632 13.4575 6.78586 13.1662 6.77695C12.8749 6.76804 12.6322 7.02405 12.6242 7.34876ZM7.22048 14.1572L7.05364 7.38104C7.04565 7.05632 7.27532 6.78586 7.56663 6.77695C7.85794 6.76804 8.10058 7.02405 8.10857 7.34876L8.27541 14.1249C8.2834 14.4496 8.05373 14.7201 7.76242 14.729C7.47111 14.7379 7.22847 14.4819 7.22048 14.1572Z" fill="#0099CC"/>
</svg>
