<svg width="38" height="25" viewBox="0 0 38 25" fill="none" xmlns="http://www.w3.org/2000/svg">
<g clip-path="url(#clip0_10009_120263)">
<path fill-rule="evenodd" clip-rule="evenodd" d="M0 1.77596C0 0.795124 0.795125 0 1.77596 0H36.1112C37.092 0 37.8872 0.795125 37.8872 1.77596V23.0875C37.8872 24.0683 37.092 24.8635 36.1112 24.8635H1.77596C0.795125 24.8635 0 24.0683 0 23.0875V1.77596Z" fill="#F4F6F7"/>
<path fill-rule="evenodd" clip-rule="evenodd" d="M0 1.77596C0 0.795124 0.795125 0 1.77596 0H36.1112C37.092 0 37.8872 0.795125 37.8872 1.77596V5.91987H0V1.77596Z" fill="#4095DB"/>
<path fill-rule="evenodd" clip-rule="evenodd" d="M0 18.9424H37.8872V23.0863C37.8872 24.0671 37.092 24.8623 36.1112 24.8623H1.77596C0.795125 24.8623 0 24.0671 0 23.0863V18.9424Z" fill="#F4B662"/>
<path fill-rule="evenodd" clip-rule="evenodd" d="M23.8456 8.62582C23.4769 8.46468 22.8971 8.28884 22.1749 8.28884C20.3316 8.28884 19.034 9.37852 19.0232 10.9387C19.0115 12.0926 19.9492 12.7364 20.6561 13.1199C21.3826 13.5131 21.6267 13.7647 21.6238 14.1163C21.6188 14.654 21.0439 14.9004 20.5078 14.9004C19.7614 14.9004 19.3648 14.7791 18.7516 14.4794L18.5118 14.3515L18.2511 16.1487C18.6858 16.3724 19.4918 16.5665 20.3283 16.5767C22.2873 16.5767 23.5602 15.5003 23.5751 13.8342C23.5819 12.9191 23.085 12.2253 22.0091 11.6526C21.3575 11.2804 20.9576 11.0338 20.9622 10.657C20.9626 10.3232 21.3 9.96604 22.0303 9.96604C22.6401 9.95513 23.0816 10.1113 23.4256 10.2744L23.593 10.3663L23.8456 8.62582ZM15.2188 16.4574L16.3852 8.42851H18.2496L17.0833 16.4574H15.2188ZM27.0706 11.3661C27.0706 11.3661 26.4824 13.1487 26.3278 13.6102H27.8757C27.802 13.2088 27.4442 11.2925 27.4442 11.2925L27.3184 10.6C27.2686 10.7591 27.1991 10.9701 27.1463 11.1304L27.1463 11.1306C27.0992 11.2734 27.0654 11.376 27.0706 11.3661ZM28.6275 8.43803H27.1866C26.7397 8.43803 26.4052 8.58008 26.2094 9.10358L23.4406 16.4616H25.3989C25.3989 16.4616 25.7183 15.4717 25.7909 15.2545C25.8912 15.2545 26.3646 15.2554 26.8664 15.2564L26.8667 15.2564L26.867 15.2564C27.433 15.2575 28.0349 15.2586 28.1789 15.2586C28.2348 15.5388 28.4059 16.4616 28.4059 16.4616H30.1364L28.6275 8.43803ZM13.6529 8.43601L11.828 13.9098L11.6326 12.7971C11.6313 12.7922 11.63 12.7873 11.6287 12.7824C11.6303 12.7873 11.6319 12.7922 11.6335 12.797L10.9802 9.10792C10.8675 8.59913 10.5399 8.44831 10.135 8.43052H7.12836L7.10352 8.59688C7.83449 8.80467 8.48819 9.10425 9.06114 9.47683L10.7193 16.4511L12.6925 16.4498L15.6287 8.43601H13.6529Z" fill="#0071CE"/>
<path fill-rule="evenodd" clip-rule="evenodd" d="M0 1.5C0 0.671573 0.671573 0 1.5 0H30.5C31.3284 0 32 0.671573 32 1.5V19.5C32 20.3284 31.3284 21 30.5 21H1.5C0.671573 21 0 20.3284 0 19.5V1.5Z" fill="#E5E5E5" fill-opacity="0.01"/>
</g>
<defs>
<clipPath id="clip0_10009_120263">
<rect width="37.8872" height="24.8635" fill="white"/>
</clipPath>
</defs>
</svg>
