<svg width="24" height="24" viewBox="0 0 24 24" fill="none" xmlns="http://www.w3.org/2000/svg">
<path d="M12.0004 0.899902C5.87042 0.899902 0.900391 5.86993 0.900391 11.9999C0.900391 14.0823 1.48531 16.0237 2.48301 17.689L0.999756 23.0999L6.52627 21.6492C8.14254 22.5681 10.0084 23.0999 12.0004 23.0999C18.1304 23.0999 23.1004 18.1299 23.1004 11.9999C23.1004 5.86993 18.1304 0.899902 12.0004 0.899902ZM8.20103 6.82207C8.3814 6.82207 8.56673 6.82097 8.72676 6.8293C8.92471 6.83392 9.14016 6.84842 9.34644 7.30444C9.59156 7.84649 10.1253 9.20632 10.1937 9.34414C10.2622 9.48197 10.3107 9.64433 10.2154 9.82471C10.1248 10.0097 10.0776 10.1217 9.94443 10.2854C9.80661 10.4445 9.65559 10.6421 9.53071 10.7624C9.39289 10.9002 9.25057 11.0513 9.40967 11.326C9.56877 11.6007 10.1213 12.5014 10.9381 13.2284C11.988 14.1664 12.8738 14.4546 13.1494 14.5924C13.4251 14.7303 13.5847 14.7088 13.7438 14.5238C13.9075 14.3434 14.4314 13.7245 14.6164 13.4488C14.7968 13.1732 14.9809 13.2209 15.2307 13.3115C15.4841 13.4022 16.8357 14.068 17.1114 14.2058C17.387 14.3436 17.5677 14.4119 17.6371 14.5238C17.7083 14.6394 17.7084 15.1898 17.4799 15.8318C17.2515 16.4728 16.1295 17.0927 15.6263 17.1362C15.1185 17.1834 14.6446 17.3644 12.3256 16.4515C9.52839 15.3498 7.76434 12.4848 7.62651 12.2998C7.48869 12.1194 6.5064 10.8103 6.5064 9.45977C6.5064 8.10464 7.2169 7.44098 7.46572 7.16533C7.71917 6.88968 8.01603 6.82207 8.20103 6.82207Z" fill="#33BF66"/>
</svg>
