<svg width="30" height="23" viewBox="0 0 30 23" fill="none" xmlns="http://www.w3.org/2000/svg">
<path d="M18.1 0C11.97 0 7 4.97003 7 11.1C7 13.1824 7.58492 15.1238 8.58262 16.7891L7.09937 22.2L12.6259 20.7493C14.2422 21.6682 16.108 22.2 18.1 22.2C24.23 22.2 29.2 17.23 29.2 11.1C29.2 4.97003 24.23 0 18.1 0ZM14.3006 5.92217C14.481 5.92217 14.6663 5.92107 14.8264 5.92939C15.0243 5.93402 15.2398 5.94852 15.446 6.40454C15.6912 6.94659 16.2249 8.30641 16.2934 8.44424C16.3618 8.58206 16.4103 8.74443 16.315 8.9248C16.2244 9.1098 16.1772 9.22177 16.044 9.3855C15.9062 9.5446 15.7552 9.7422 15.6303 9.86245C15.4925 10.0003 15.3502 10.1514 15.5093 10.4261C15.6684 10.7008 16.2209 11.6015 17.0377 12.3285C18.0876 13.2665 18.9734 13.5547 19.249 13.6925C19.5247 13.8304 19.6843 13.8089 19.8434 13.6239C20.0071 13.4435 20.531 12.8246 20.716 12.5489C20.8964 12.2733 21.0805 12.321 21.3303 12.4116C21.5837 12.5023 22.9353 13.1681 23.211 13.3059C23.4866 13.4437 23.6673 13.512 23.7367 13.6239C23.8079 13.7395 23.808 14.2899 23.5795 14.9319C23.3511 15.5729 22.2291 16.1928 21.7259 16.2363C21.2181 16.2835 20.7442 16.4645 18.4252 15.5516C15.628 14.4499 13.8639 11.5849 13.7261 11.3999C13.5883 11.2195 12.606 9.91036 12.606 8.55986C12.606 7.20474 13.3165 6.54108 13.5653 6.26543C13.8188 5.98978 14.1156 5.92217 14.3006 5.92217Z" fill="#33BF66"/>
<path d="M2.35352 7.70813C2.35352 7.2321 2.73942 6.84619 3.21546 6.84619H7.23784C7.71388 6.84619 8.09978 7.2321 8.09978 7.70813C8.09978 8.18417 7.71388 8.57007 7.23784 8.57007H3.21546C2.73942 8.57007 2.35352 8.18417 2.35352 7.70813Z" fill="#33BF66"/>
<path d="M0.0546875 11.1559C0.0546875 10.6798 0.440591 10.2939 0.916628 10.2939H4.93902C5.41505 10.2939 5.80096 10.6798 5.80096 11.1559C5.80096 11.6319 5.41505 12.0178 4.93902 12.0178H0.916628C0.440591 12.0178 0.0546875 11.6319 0.0546875 11.1559Z" fill="#33BF66"/>
<path d="M2.35352 14.6036C2.35352 14.1276 2.73942 13.7417 3.21546 13.7417H7.23784C7.71388 13.7417 8.09978 14.1276 8.09978 14.6036C8.09978 15.0797 7.71388 15.4656 7.23784 15.4656H3.21546C2.73942 15.4656 2.35352 15.0797 2.35352 14.6036Z" fill="#33BF66"/>
</svg>
