<svg width="13" height="13" viewBox="0 0 13 13" fill="none" xmlns="http://www.w3.org/2000/svg">
<path d="M6.44476 0.0996094C2.88564 0.0996094 0 2.96521 0 6.49961C0 7.70025 0.339607 8.81964 0.918881 9.77982L0.0576923 12.8996L3.26643 12.0632C4.20486 12.593 5.28818 12.8996 6.44476 12.8996C10.0039 12.8996 12.8895 10.034 12.8895 6.49961C12.8895 2.96521 10.0039 0.0996094 6.44476 0.0996094ZM4.23881 3.51419C4.34354 3.51419 4.45114 3.51356 4.54406 3.51836C4.65899 3.52103 4.78408 3.52938 4.90385 3.79232C5.04617 4.10485 5.35606 4.88889 5.3958 4.96836C5.43555 5.04783 5.46371 5.14144 5.40839 5.24544C5.35576 5.35211 5.32839 5.41667 5.25105 5.51107C5.17103 5.6028 5.08334 5.71673 5.01084 5.78607C4.93082 5.86553 4.84818 5.95267 4.94056 6.11107C5.03293 6.26947 5.35375 6.78874 5.82797 7.20794C6.43754 7.74874 6.95184 7.91493 7.11189 7.9944C7.27193 8.07387 7.36462 8.06148 7.45699 7.95482C7.55205 7.85082 7.85622 7.49396 7.96364 7.33503C8.06836 7.17609 8.17527 7.20359 8.32028 7.25586C8.46743 7.30813 9.25219 7.69202 9.41224 7.77148C9.57228 7.85095 9.6772 7.89028 9.71748 7.95482C9.75884 8.02148 9.75888 8.33885 9.62622 8.70898C9.49357 9.07858 8.84216 9.436 8.55 9.46107C8.25515 9.48827 7.97998 9.59268 6.63357 9.06628C5.00949 8.43108 3.98527 6.77919 3.90524 6.67253C3.82522 6.56853 3.2549 5.81369 3.2549 5.03503C3.2549 4.25369 3.66742 3.87104 3.81189 3.71211C3.95904 3.55318 4.1314 3.51419 4.23881 3.51419Z" fill="#0099CC"/>
</svg>
