<svg width="13" height="13" viewBox="0 0 13 13" fill="none" xmlns="http://www.w3.org/2000/svg">
<path d="M6.4 0.0996094C2.8656 0.0996094 0 2.96521 0 6.49961C0 7.70025 0.337249 8.81964 0.9125 9.77982L0.0572917 12.8996L3.24375 12.0632C4.17566 12.593 5.25146 12.8996 6.4 12.8996C9.9344 12.8996 12.8 10.034 12.8 6.49961C12.8 2.96521 9.9344 0.0996094 6.4 0.0996094ZM4.20937 3.51419C4.31337 3.51419 4.42023 3.51356 4.5125 3.51836C4.62663 3.52103 4.75086 3.52938 4.86979 3.79232C5.01112 4.10485 5.31887 4.88889 5.35833 4.96836C5.3978 5.04783 5.42577 5.14144 5.37083 5.24544C5.31857 5.35211 5.29138 5.41667 5.21458 5.51107C5.13512 5.6028 5.04804 5.71673 4.97604 5.78607C4.89657 5.86553 4.81452 5.95267 4.90625 6.11107C4.99798 6.26947 5.31657 6.78874 5.7875 7.20794C6.39283 7.74874 6.90357 7.91493 7.0625 7.9944C7.22143 8.07387 7.31347 8.06148 7.40521 7.95482C7.49961 7.85082 7.80167 7.49396 7.90833 7.33503C8.01233 7.17609 8.1185 7.20359 8.2625 7.25586C8.40863 7.30813 9.18794 7.69202 9.34687 7.77148C9.50581 7.85095 9.61 7.89028 9.65 7.95482C9.69107 8.02148 9.69111 8.33885 9.55937 8.70898C9.42764 9.07858 8.78076 9.436 8.49062 9.46107C8.19782 9.48827 7.92457 9.59268 6.5875 9.06628C4.9747 8.43108 3.95759 6.77919 3.87812 6.67253C3.79866 6.56853 3.23229 5.81369 3.23229 5.03503C3.23229 4.25369 3.64195 3.87104 3.78542 3.71211C3.93155 3.55318 4.10271 3.51419 4.20937 3.51419Z" fill="#0099CC"/>
</svg>
