<svg width="33" height="26" viewBox="0 0 33 26" fill="none" xmlns="http://www.w3.org/2000/svg">
<path fill-rule="evenodd" clip-rule="evenodd" d="M10.2214 13.3637C10.233 13.3888 10.242 13.4137 10.2499 13.4385C10.2602 13.4577 10.2698 13.4776 10.2785 13.4986C10.9719 15.1731 9.42164 17.0988 7.62102 16.6355C6.39995 16.3213 5.94592 15.2235 5.50825 14.1652C5.49898 14.1428 5.48971 14.1203 5.48044 14.098C4.7976 12.4487 6.25345 10.6143 8.01759 10.9391C9.22837 11.1619 9.66965 12.1408 10.1161 13.1311C10.151 13.2087 10.186 13.2863 10.2214 13.3637ZM6.67634 14.0576C6.88574 14.5829 7.13214 15.201 7.59912 15.4326C8.68285 15.9702 9.59303 14.8501 9.20352 13.8343C9.16489 13.743 9.12577 13.643 9.08495 13.5387C8.89269 13.0472 8.66245 12.4587 8.26532 12.226C7.31641 11.6699 6.02602 12.6012 6.51501 13.6701C6.56846 13.7869 6.62111 13.919 6.67634 14.0576Z" fill="#0099CC"/>
<path fill-rule="evenodd" clip-rule="evenodd" d="M18.2138 15.4623C18.2253 15.4875 18.2345 15.5125 18.2424 15.5374C18.2525 15.5565 18.262 15.5763 18.2708 15.5974C18.9638 17.2718 17.4139 19.1974 15.6132 18.7341C14.3922 18.42 13.9382 17.3223 13.5006 16.2641C13.4913 16.2416 13.482 16.2191 13.4727 16.1967C12.7896 14.5473 14.2459 12.713 16.0098 13.0377C17.2208 13.2605 17.6622 14.2396 18.1086 15.23C18.1435 15.3075 18.1784 15.385 18.2138 15.4623ZM14.6686 16.1563C14.878 16.6816 15.1244 17.2997 15.5914 17.5312C16.6747 18.0684 17.5844 16.9494 17.1963 15.934C17.1575 15.8424 17.1182 15.7419 17.0771 15.6371C16.8849 15.1457 16.6547 14.5573 16.2577 14.3246C15.3087 13.7685 14.0181 14.6998 14.5072 15.7687C14.5606 15.8856 14.6133 16.0177 14.6686 16.1563Z" fill="#0099CC"/>
<path d="M11.7774 9.11935C11.4682 12.938 11.159 16.7565 10.8499 20.575C10.791 21.302 11.9197 21.2964 11.9781 20.575C12.2872 16.7564 12.5964 12.9379 12.9056 9.11935C12.9644 8.39229 11.8357 8.39794 11.7774 9.11935Z" fill="#0099CC"/>
<path fill-rule="evenodd" clip-rule="evenodd" d="M31.1287 0.460882C32.081 0.96449 32.6875 1.90558 32.8333 2.96574C32.9856 4.07224 32.7023 5.22029 32.188 6.20161C31.6444 7.23906 30.8615 7.99909 29.9363 8.69874C28.906 9.47789 27.7838 10.0751 26.5921 10.4248C26.5711 10.4844 26.5497 10.5439 26.5283 10.6033L26.5283 10.6035L26.528 10.6041C26.4865 10.7195 26.4451 10.8344 26.4072 10.9494C26.277 11.3444 26.1483 11.74 26.0196 12.1355L26.0194 12.1359L26.0193 12.1363C25.9256 12.4241 25.8319 12.712 25.7376 12.9998L25.7323 13.0159C25.2932 14.3561 24.8525 15.7014 24.316 17.0064C23.9223 17.9642 23.2843 18.7702 22.4133 19.3349C21.4924 19.932 20.4505 20.3836 19.4249 20.8281C19.054 20.9889 18.6852 21.1487 18.325 21.3142L13.3764 23.5879C12.8967 23.8083 12.4179 24.0314 11.939 24.2545L11.939 24.2546L11.9389 24.2546C11.0883 24.6509 10.2376 25.0474 9.3809 25.4289C8.61626 25.7694 7.81345 26.0646 6.96363 25.9347C5.9693 25.7825 5.22732 24.989 4.81082 24.1119C3.91731 22.2299 3.05803 20.3304 2.19895 18.4314L2.19893 18.4314C1.78454 17.5153 1.3702 16.5994 0.95208 15.6856C0.888135 15.5458 0.820243 15.4036 0.751311 15.2591C0.280861 14.2733 -0.238068 13.186 0.118148 12.098C0.413456 11.1962 1.0948 10.5526 1.94387 10.1626L8.22632 7.27611L11.7978 5.63516L13.7948 4.71763C13.9783 4.63334 14.164 4.54114 14.352 4.44776C15.1183 4.06724 15.9237 3.66728 16.7783 3.70457C17.4598 3.73431 18.0577 3.97678 18.6769 4.22793L18.6771 4.22801L18.6773 4.22809C18.7386 4.25293 18.8 4.27785 18.8618 4.30266L20.9419 5.13824L23.2433 6.06285C23.3106 5.89196 23.3797 5.72193 23.4534 5.55377C24.3519 3.50514 25.9163 1.04061 28.1656 0.315998C29.1201 0.00861361 30.2223 -0.0183284 31.1287 0.460882ZM23.8262 15.1395L23.8263 15.1394L23.8264 15.139C23.872 15.0048 23.9173 14.8712 23.9635 14.7388C24.2849 13.8172 24.5874 12.8893 24.8898 11.9615L24.8899 11.9613L24.89 11.961C25.0271 11.5404 25.1642 11.1198 25.3031 10.6998C24.9242 10.7506 24.5396 10.7763 24.1498 10.7744C23.9676 11.2498 23.6 11.6528 23.0972 11.8554C22.1385 12.2417 21.0285 11.7661 20.6431 10.8059C20.2575 9.84509 20.7322 8.73303 21.6906 8.3468C22.607 7.97743 23.6385 8.39107 24.0878 9.26132C24.1053 9.29532 24.1185 9.32895 24.1291 9.3623C24.1343 9.37351 24.1399 9.38444 24.1447 9.39631C24.1767 9.47629 24.2006 9.55749 24.221 9.63898C24.7139 9.63398 25.1966 9.58264 25.6685 9.4874C25.6912 9.28958 25.6769 9.08638 25.5982 8.86642C25.4603 8.48066 25.2365 8.10564 24.8596 7.92269L18.5619 5.39278C18.4983 5.36726 18.4353 5.34164 18.3727 5.31619C17.5402 4.9779 16.7788 4.66846 15.8742 5.004C15.4643 5.15603 15.0684 5.34885 14.6733 5.54129L14.6733 5.54132C14.4835 5.63375 14.294 5.72609 14.1031 5.81377L6.8556 9.14375C6.36772 9.36789 5.87866 9.58988 5.38956 9.8119C4.40926 10.2569 3.42877 10.7019 2.4572 11.1645C1.66473 11.5418 0.96355 12.2344 1.16052 13.1958C1.27804 13.7693 1.5365 14.3064 1.79166 14.8366L1.79168 14.8366C1.86332 14.9855 1.9347 15.1338 2.00263 15.2822L2.92023 17.2875L4.86093 21.5277C4.96325 21.7512 5.06191 21.9785 5.16082 22.2063C5.3779 22.7063 5.59614 23.209 5.85676 23.6815C6.07968 24.0857 6.34951 24.5 6.77823 24.7084C7.42591 25.0233 8.20305 24.7291 8.81153 24.4528C9.14576 24.301 9.47862 24.146 9.81145 23.991C10.0552 23.8775 10.299 23.764 10.5433 23.6518L19.9558 19.3273C20.076 19.272 20.1983 19.2174 20.3216 19.1623C21.0107 18.8544 21.7294 18.5333 22.2805 18.0239C23.1055 17.2612 23.4712 16.1847 23.8262 15.1395ZM22.9462 10.6218C22.8986 10.6728 22.8426 10.7203 22.7762 10.7632C22.4125 10.9981 21.9504 10.8223 21.7329 10.4842C21.4984 10.1197 21.6738 9.65669 22.0114 9.43879C22.3513 9.2193 22.7219 9.35024 22.961 9.61335C22.5806 9.75786 22.5786 10.3771 22.9462 10.6218ZM26.8144 9.16401C27.5802 8.8846 28.3131 8.48942 29.0073 7.98835C30.527 6.89117 31.9419 5.26532 31.7379 3.24166C31.5431 1.30908 29.4677 0.767512 27.9461 1.63738C26.2 2.63556 25.0009 4.63661 24.2848 6.48129L25.2752 6.87921C25.2971 6.88806 25.3179 6.89786 25.3379 6.90841C25.3617 6.91614 25.3858 6.92499 25.4101 6.9362C26.204 7.3019 26.7411 8.30082 26.8144 9.16401Z" fill="#0099CC"/>
</svg>
