<svg width="27" height="28" viewBox="0 0 27 28" fill="none" xmlns="http://www.w3.org/2000/svg">
<path fill-rule="evenodd" clip-rule="evenodd" d="M16.9714 11.4279C17.4857 11.3302 18.0321 11.2651 18.6107 11.2651C23.1107 11.2651 26.775 14.9767 26.7429 19.5023C26.7429 24.0605 23.0786 27.7721 18.5786 27.7721C16.3607 27.7721 14.3679 26.893 12.8893 25.4279H0.578571C0.257143 25.4279 0 25.1674 0 24.8419V21.814V18.786V15.7581V14.0651V12.7302V9.70233V6.67442C0 6.34884 0.257143 6.08837 0.578571 6.08837H4.5V4.2H2.15357C1.83214 4.2 1.575 3.93953 1.575 3.61395V0.586047C1.575 0.260465 1.83214 0 2.15357 0H17.6464C17.9679 0 18.225 0.260465 18.225 0.586047V3.06047H20.5714C20.8929 3.06047 21.15 3.32093 21.15 3.64651V6.67442C21.15 7 20.8929 7.26047 20.5714 7.26047H16.9714V9.73488V11.4279ZM1.125 12.2093H14.8179C15.1393 12.0465 15.4929 11.8837 15.8143 11.7535V10.3209H1.125V12.2093ZM1.15714 19.4047H10.4464V19.5349C10.4464 20.1209 10.5107 20.707 10.6393 21.293H1.15714V19.4047ZM1.15714 18.2651H10.5429C10.6393 17.614 10.8 16.9628 11.0571 16.3767H1.15714V18.2651ZM11.6357 15.2372H1.15714V14.1302V13.3488H13.2107C12.6 13.9023 12.0536 14.5209 11.6357 15.2372ZM17.0679 1.23721H2.7V3.12558H5.04643H5.11071H17.0679V1.23721ZM5.625 4.26512H19.9929V6.15349H16.4571H16.425H16.3929H5.625V4.26512ZM15.8143 9.1814V7.29302H1.125V9.1814H15.8143ZM1.15714 22.4326H10.9607C11.2179 23.1163 11.5393 23.7349 11.9571 24.3209H1.15714V22.4326ZM11.5714 19.5674C11.5714 23.507 14.7214 26.6977 18.6107 26.6977C22.5 26.6977 25.65 23.4744 25.65 19.5674C25.65 15.6279 22.5 12.4372 18.6107 12.4372C14.7214 12.4372 11.5714 15.6279 11.5714 19.5674Z" fill="#0099CC"/>
<path d="M19.9948 22.335C20.3805 21.749 20.4448 21.0001 20.1233 20.3815C19.6412 19.4699 18.5162 18.949 17.0698 18.949C16.009 18.949 15.2376 18.6559 14.9483 18.135C14.8198 17.8745 14.8519 17.6141 15.0126 17.3862C15.3019 16.9629 16.009 16.6048 17.2305 16.735C17.809 16.8001 18.4198 16.9955 19.1269 17.2559L19.2555 17.2885C19.5448 17.3862 19.8662 17.2234 19.9626 16.9303C20.059 16.6373 19.8983 16.3117 19.609 16.2141L19.4805 16.1815C18.7412 15.921 18.0662 15.6931 17.359 15.628C15.8805 15.4652 14.659 15.8885 14.0805 16.7676C13.6948 17.3536 13.6305 18.0699 13.9519 18.6885C14.434 19.6001 15.559 20.0885 17.0698 20.0885C18.0983 20.0885 18.8698 20.3815 19.1269 20.9024C19.2555 21.1629 19.2555 21.4234 19.0626 21.6838C18.8055 22.0745 18.0662 22.4652 16.8769 22.3024C16.2983 22.2373 15.6876 22.042 15.0126 21.8141L14.884 21.7815C14.5948 21.6838 14.2733 21.8466 14.1769 22.1396C14.0805 22.4327 14.2412 22.7583 14.5305 22.8559L14.659 22.8885C15.3662 23.1164 16.0733 23.3769 16.7483 23.442C16.9733 23.4745 17.1662 23.4745 17.359 23.4745C18.5162 23.5071 19.4805 23.0838 19.9948 22.335Z" fill="#0099CC"/>
<path d="M22.6939 15.042C22.4047 14.9443 22.0832 15.1397 21.9868 15.4327L19.2868 25.2327C19.1904 25.5257 19.3832 25.8513 19.6725 25.949C19.7368 25.949 19.7689 25.9815 19.8332 25.9815C20.0904 25.9815 20.3154 25.8188 20.3797 25.5583L23.0797 15.7583C23.1761 15.4327 22.9832 15.1071 22.6939 15.042Z" fill="#0099CC"/>
<path d="M22.3713 22.4002C22.0498 22.3677 21.7927 22.6281 21.7605 22.9212V23.0514C21.7284 23.377 21.9855 23.6374 22.2748 23.67H22.307C22.5963 23.67 22.8534 23.4421 22.8534 23.1491V23.0188C22.9177 22.6932 22.6927 22.4328 22.3713 22.4002Z" fill="#0099CC"/>
</svg>
