<svg width="33" height="27" viewBox="0 0 33 27" fill="none" xmlns="http://www.w3.org/2000/svg">
<path fill-rule="evenodd" clip-rule="evenodd" d="M25.2904 0.46659L32.5558 7.7765C32.8731 8.05645 33 8.49194 33 9.02074C32.9365 9.42512 32.7145 9.82949 32.3972 10.1406L31.5088 10.9804C31.1281 11.3537 30.6205 11.5714 30.1446 11.5714C30.1128 13.0645 29.51 14.4021 28.3679 15.5219L26.9402 16.9217C27.7651 17.8548 27.4478 19.1924 26.6863 19.9389C26.3056 20.2811 25.8297 20.4988 25.2904 20.4988H25.1952C25.1952 21.0899 24.9414 21.6498 24.5289 22.023C24.0847 22.4274 23.4819 22.7074 22.8474 22.7074C22.7205 22.7074 22.6253 22.7074 22.4984 22.6763C22.4984 23.2051 22.2446 23.7028 21.8638 24.0449C21.4197 24.4493 20.8169 24.6982 20.214 24.6982C19.7381 24.6982 19.2305 24.5115 18.8181 24.1382C18.7229 24.4182 18.5642 24.6671 18.3422 24.8848L16.7875 26.409C16.3751 26.7823 15.8675 27 15.2964 27C14.7253 27 14.1859 26.7823 13.8052 26.409L13.6148 26.2224C13.2024 25.818 13.012 25.2581 13.012 24.7293C12.8851 24.7604 12.7899 24.7604 12.6948 24.7604C12.1237 24.7604 11.5843 24.5426 11.2036 24.1694L11.0132 23.9827C10.6008 23.5783 10.4104 23.0184 10.4104 22.4896C10.2835 22.5207 10.1566 22.5207 10.0297 22.5207C9.45861 22.5207 8.91925 22.303 8.53853 21.9297L8.34817 21.7431C7.96745 21.3387 7.74536 20.841 7.74536 20.2811V20.1256C7.11082 20.1878 6.47628 19.97 6.0321 19.5346L5.84174 19.3479C5.01684 18.5392 5.01684 17.2327 5.84174 16.424L6.15901 16.1129L4.69957 14.682C3.62086 13.6244 3.01804 12.3491 2.89114 10.9804H2.79595C2.28832 10.9804 1.74897 10.7316 1.36824 10.2961L0.543342 9.39401C0.226073 9.05184 0.0357114 8.64747 0.00398442 8.24309C-0.0277425 7.8076 0.130892 7.37212 0.448162 7.09217L8.22126 0.31106C8.44335 0.124424 8.76062 0 9.10962 0C9.61725 0 10.1566 0.248848 10.5373 0.684332L11.3622 1.58641C11.7112 1.99078 11.9016 2.45737 11.9016 2.89286H12.0919C13.2341 3.1106 14.2811 3.67051 15.2012 4.54147L15.9309 5.25691L16.851 4.35484C18.0249 3.23502 19.643 2.67512 21.4514 2.73733V2.64401C21.5148 2.23963 21.7369 1.83525 22.0542 1.52419L22.9426 0.684332C23.3233 0.31106 23.8309 0.093318 24.3068 0.093318C24.6875 0.093318 25.0365 0.217742 25.2904 0.46659ZM1.33652 8.67857L2.16142 9.58065C2.3835 9.82949 2.63732 9.89171 2.76423 9.89171C2.82768 9.89171 2.89114 9.89171 2.92286 9.8606L2.95459 9.82949C2.96995 9.81444 2.98531 9.79756 3.00111 9.78018L3.00114 9.78015L3.00122 9.78006L3.00123 9.78005C3.0507 9.72566 3.10459 9.66642 3.17668 9.64286L10.696 3.07949C10.8229 2.98618 10.7911 2.6129 10.5056 2.30184L9.6807 1.39977C9.45861 1.18203 9.23652 1.08871 9.07789 1.08871C9.01443 1.08871 8.95098 1.08871 8.91925 1.11982L1.14615 7.90092C1.0827 7.96313 1.0827 8.08756 1.0827 8.14977C1.11443 8.33641 1.17788 8.52304 1.33652 8.67857ZM8.18953 18.7569C7.80881 19.1302 7.17427 19.1302 6.79355 18.7569L6.60319 18.5703C6.22246 18.197 6.22246 17.5749 6.60319 17.2016L8.88753 14.962C9.07789 14.7753 9.3317 14.682 9.58552 14.682C9.83934 14.682 10.0932 14.7753 10.2835 14.962L10.4739 15.1486C10.6642 15.3353 10.7594 15.5841 10.7594 15.8329C10.7594 16.0818 10.6642 16.3306 10.4739 16.5173L8.18953 18.7569ZM9.29998 21.121C9.6807 21.4942 10.3152 21.4942 10.696 21.121L14.3446 17.5438C14.7253 17.1705 14.7253 16.5484 14.3446 16.1751L14.1542 15.9885C13.9638 15.8018 13.71 15.7085 13.4562 15.7085C13.2024 15.7085 12.9486 15.8018 12.7582 15.9885L9.10962 19.5657C8.91925 19.7523 8.82407 20.0012 8.82407 20.25C8.82407 20.4988 8.91925 20.7477 9.10962 20.9343L9.29998 21.121ZM13.3293 23.3606C12.9486 23.7339 12.314 23.7339 11.9333 23.3606L11.743 23.174C11.3622 22.8007 11.3622 22.1786 11.743 21.8053L14.2494 19.3479C14.4397 19.1613 14.6936 19.068 14.9474 19.068C15.2012 19.068 15.455 19.1613 15.6454 19.3479L15.8357 19.5346C16.0261 19.7212 16.1213 19.97 16.1213 20.2189C16.1213 20.4677 16.0261 20.7166 15.8357 20.9032L13.3293 23.3606ZM15.8992 25.6313L17.4538 24.1071C18.0566 23.485 17.3903 22.2719 16.5654 22.2719C16.3116 22.2719 16.0578 22.3652 15.8675 22.5518L14.3128 24.076C13.9321 24.4493 13.9321 25.0714 14.3128 25.4447L14.5032 25.6313C14.8839 26.0046 15.5185 26.0046 15.8992 25.6313ZM27.5112 14.682L26.1153 16.0507L20.341 10.1094C20.1189 9.89171 19.7699 9.89171 19.5478 10.0783C19.3257 10.2961 19.3257 10.6382 19.5161 10.856L25.9566 17.4816C26.4325 17.9482 26.2422 18.6947 25.8297 19.068C25.5759 19.2857 25.0683 19.5968 24.4337 18.9435L21.1976 15.6463C20.9755 15.4286 20.6265 15.4286 20.4044 15.6463C20.1823 15.8641 20.1823 16.2062 20.4044 16.424L20.6265 16.6417L23.6406 19.6901C24.3385 20.4055 23.8944 20.9654 23.6723 21.1832C23.3233 21.5253 22.5936 21.7742 22.0859 21.2765L18.7546 17.9171C18.5325 17.6993 18.1835 17.6993 17.9614 17.9171C17.7393 18.1348 17.7393 18.477 17.9614 18.6947C18.1521 18.8816 18.3427 19.0666 18.5329 19.2511L18.5335 19.2517C19.1026 19.8038 19.6672 20.3516 20.214 20.9343C20.2666 20.9919 20.3237 21.0525 20.3832 21.1156C20.9342 21.7 21.6913 22.5032 20.9755 23.2051C20.6265 23.5472 19.9285 23.765 19.4209 23.2673L18.6277 22.4896C18.5325 22.2719 18.4056 22.0853 18.2152 21.9297L18.0249 21.7431C17.7393 21.4631 17.3586 21.2454 16.9462 21.1832C17.1048 20.8721 17.2 20.53 17.2 20.1878C17.2 19.6279 16.9779 19.1302 16.5972 18.7258L16.4068 18.5392C16.1213 18.2592 15.7405 18.0415 15.3281 17.9793C15.8992 17.1705 15.804 16.0818 15.0743 15.3664L14.8839 15.1797C14.5032 14.8065 13.9638 14.5887 13.3928 14.5887C12.8217 14.5887 12.314 14.8065 11.9016 15.1797L11.743 15.3353C11.6478 14.962 11.4574 14.6198 11.1719 14.3399L10.9815 14.1532C10.6008 13.78 10.0614 13.5622 9.49034 13.5622C8.91925 13.5622 8.41162 13.78 7.99917 14.1532L6.82528 15.3041L5.36584 13.8733C4.35057 12.8779 3.84294 11.6647 3.87467 10.3583L11.3305 3.82604L11.4257 3.73272C11.4891 3.82604 11.616 3.88825 11.7112 3.88825C12.663 4.07488 13.5197 4.54147 14.2494 5.25691L14.9791 5.97235L11.6795 9.17627C11.0767 9.76728 11.045 10.5138 11.616 11.1048C12.0602 11.5403 12.8851 11.8514 13.7735 11.8514C14.6301 11.8514 15.5502 11.5714 16.2482 10.9182L17.4855 9.70507C18.0883 9.17627 18.7229 9.3318 19.8016 9.67396C21.1024 10.0783 22.7522 10.5449 24.5606 9.14516C24.8145 8.95853 24.8462 8.61636 24.6558 8.36751C24.4655 8.11866 24.1165 8.08756 23.8626 8.27419C22.4984 9.3318 21.3245 8.98963 20.1189 8.61636L20.0784 8.60469C19.0093 8.29619 17.7889 7.94406 16.6924 8.89631L15.4233 10.1094C14.4715 11.0426 12.8534 10.7938 12.3775 10.3272C12.2823 10.2339 12.2189 10.1717 12.4409 9.95392L17.4538 5.07028C18.7546 3.82604 20.4044 3.67051 21.6418 3.79493L28.7803 10.9493C29.0659 12.4113 28.5582 13.6555 27.5112 14.682ZM31.5406 9.26959C31.6992 9.11406 31.7944 8.95853 31.8261 8.77189C31.8261 8.74078 31.8261 8.58525 31.7626 8.55415L24.4972 1.24424C24.4337 1.18203 24.3703 1.18203 24.3068 1.18203C24.1482 1.18203 23.9261 1.24424 23.704 1.46198L22.8157 2.30184C22.657 2.45737 22.5618 2.6129 22.5301 2.79954V2.92396C22.5936 2.98618 22.6253 3.04839 22.657 3.1106L29.859 10.3272C29.9225 10.3894 29.9859 10.3894 30.0494 10.3894C30.208 10.3894 30.4301 10.3272 30.6522 10.1094L31.5406 9.26959Z" fill="#0099CC"/>
</svg>
