<svg width="33" height="29" viewBox="0 0 33 29" fill="none" xmlns="http://www.w3.org/2000/svg">
<path d="M0.5 1C0.5 0.723858 0.723858 0.5 1 0.5H21C21.2761 0.5 21.5 0.723858 21.5 1V28C21.5 28.2761 21.2761 28.5 21 28.5H1C0.723857 28.5 0.5 28.2761 0.5 28V1Z" stroke="#0099CC" stroke-linejoin="round"/>
<path d="M3.7405 17.8554H8.79849C9.03704 17.8554 9.22258 17.6683 9.22258 17.4277C9.22258 17.1871 9.03704 17 8.79849 17L3.7405 17C3.50195 17 3.31641 17.1871 3.31641 17.4277C3.31641 17.6683 3.52845 17.8554 3.7405 17.8554Z" fill="#0099CC"/>
<path d="M3.7405 19.8554H8.79849C9.03704 19.8554 9.22258 19.6683 9.22258 19.4277C9.22258 19.1871 9.03704 19 8.79849 19L3.7405 19C3.50195 19 3.31641 19.1871 3.31641 19.4277C3.31641 19.6683 3.52845 19.8554 3.7405 19.8554Z" fill="#0099CC"/>
<path d="M3.7405 21.8554H8.79849C9.03704 21.8554 9.22258 21.6683 9.22258 21.4277C9.22258 21.1871 9.03704 21 8.79849 21L3.7405 21C3.50195 21 3.31641 21.1871 3.31641 21.4277C3.31641 21.6683 3.52845 21.8554 3.7405 21.8554Z" fill="#0099CC"/>
<path d="M3.7405 23.8554H8.79849C9.03704 23.8554 9.22258 23.6683 9.22258 23.4277C9.22258 23.1871 9.03704 23 8.79849 23L3.7405 23C3.50195 23 3.31641 23.1871 3.31641 23.4277C3.31641 23.6683 3.52845 23.8554 3.7405 23.8554Z" fill="#0099CC"/>
<path d="M13.4241 17.8554H18.4821C18.7206 17.8554 18.9062 17.6683 18.9062 17.4277C18.9062 17.1871 18.7206 17 18.4821 17L13.4241 17C13.1855 17 13 17.1871 13 17.4277C13 17.6683 13.212 17.8554 13.4241 17.8554Z" fill="#0099CC"/>
<path d="M13.4241 19.8554H18.4821C18.7206 19.8554 18.9062 19.6683 18.9062 19.4277C18.9062 19.1871 18.7206 19 18.4821 19L13.4241 19C13.1855 19 13 19.1871 13 19.4277C13 19.6683 13.212 19.8554 13.4241 19.8554Z" fill="#0099CC"/>
<path d="M13.4241 21.8554H18.4821C18.7206 21.8554 18.9062 21.6683 18.9062 21.4277C18.9062 21.1871 18.7206 21 18.4821 21L13.4241 21C13.1855 21 13 21.1871 13 21.4277C13 21.6683 13.212 21.8554 13.4241 21.8554Z" fill="#0099CC"/>
<path d="M13.4241 23.8554H18.4821C18.7206 23.8554 18.9062 23.6683 18.9062 23.4277C18.9062 23.1871 18.7206 23 18.4821 23L13.4241 23C13.1855 23 13 23.1871 13 23.4277C13 23.6683 13.212 23.8554 13.4241 23.8554Z" fill="#0099CC"/>
<path d="M11.4179 23.7341V16.4238C11.4179 16.1853 11.2308 15.9997 10.9902 15.9997C10.7496 15.9997 10.5625 16.1853 10.5625 16.4238L10.5625 23.7341C10.5625 23.9727 10.7496 24.1582 10.9902 24.1582C11.2308 24.1582 11.4179 23.9462 11.4179 23.7341Z" fill="#0099CC"/>
<path d="M3.06082 4.85545H7.07422C7.31277 4.85545 7.49832 4.66832 7.49832 4.42772C7.49832 4.18713 7.31277 4 7.07422 4L3.06082 4C2.82226 4 2.63672 4.18713 2.63672 4.42772C2.63672 4.66832 2.84877 4.85545 3.06082 4.85545Z" fill="#0099CC"/>
<path d="M2.9241 6.85545H18.7344C18.9729 6.85545 19.1585 6.66832 19.1585 6.42772C19.1585 6.18713 18.9729 6 18.7344 6L2.9241 6C2.68554 6 2.5 6.18713 2.5 6.42772C2.5 6.66832 2.71205 6.85545 2.9241 6.85545Z" fill="#0099CC"/>
<path d="M2.9241 8.85545H18.7344C18.9729 8.85545 19.1585 8.66832 19.1585 8.42772C19.1585 8.18713 18.9729 8 18.7344 8L2.9241 8C2.68554 8 2.5 8.18713 2.5 8.42772C2.5 8.66832 2.71205 8.85545 2.9241 8.85545Z" fill="#0099CC"/>
<path d="M3.4 12C3.4 11.6686 3.66863 11.4 4 11.4H18C18.3314 11.4 18.6 11.6686 18.6 12V14C18.6 14.3314 18.3314 14.6 18 14.6H4C3.66863 14.6 3.4 14.3314 3.4 14V12Z" stroke="#0099CC" stroke-width="0.8" stroke-linejoin="round"/>
<circle cx="24.5" cy="20.5" r="8.5" fill="#0099CC"/>
<circle cx="24.5" cy="20.5" r="7.5" fill="white"/>
<path d="M26.2487 23.3184C26.6344 22.7324 26.6987 21.9835 26.3772 21.3649C25.8951 20.4533 24.7701 19.9324 23.3237 19.9324C22.2629 19.9324 21.4915 19.6393 21.2022 19.1184C21.0737 18.8579 21.1058 18.5975 21.2665 18.3696C21.5558 17.9463 22.2629 17.5882 23.4844 17.7184C24.0629 17.7835 24.6737 17.9789 25.3808 18.2393L25.5094 18.2719C25.7987 18.3696 26.1201 18.2068 26.2165 17.9137C26.3129 17.6207 26.1522 17.2951 25.8629 17.1975L25.7344 17.1649C24.9951 16.9044 24.3201 16.6765 23.6129 16.6114C22.1344 16.4486 20.9129 16.8719 20.3344 17.751C19.9487 18.337 19.8844 19.0533 20.2058 19.6719C20.6879 20.5835 21.8129 21.0719 23.3237 21.0719C24.3522 21.0719 25.1237 21.3649 25.3808 21.8858C25.5094 22.1463 25.5094 22.4068 25.3165 22.6672C25.0594 23.0579 24.3201 23.4486 23.1308 23.2858C22.5522 23.2207 21.9415 23.0254 21.2665 22.7975L21.1379 22.7649C20.8487 22.6672 20.5272 22.83 20.4308 23.123C20.3344 23.4161 20.4951 23.7417 20.7844 23.8393L20.9129 23.8719C21.6201 24.0998 22.3272 24.3603 23.0022 24.4254C23.2272 24.4579 23.4201 24.4579 23.6129 24.4579C24.7701 24.4905 25.7344 24.0672 26.2487 23.3184Z" fill="#0099CC"/>
<path d="M28.9479 16.0254C28.6586 15.9277 28.3371 16.1231 28.2407 16.4161L25.5407 26.2161C25.4443 26.5091 25.6371 26.8347 25.9264 26.9324C25.9907 26.9324 26.0229 26.9649 26.0871 26.9649C26.3443 26.9649 26.5693 26.8022 26.6336 26.5417L29.3336 16.7417C29.43 16.4161 29.2371 16.0905 28.9479 16.0254Z" fill="#0099CC"/>
<path d="M28.6252 23.3836C28.3037 23.3511 28.0466 23.6115 28.0144 23.9045V24.0348C27.9823 24.3604 28.2394 24.6208 28.5287 24.6534H28.5609C28.8502 24.6534 29.1073 24.4255 29.1073 24.1325V24.0022C29.1716 23.6766 28.9466 23.4162 28.6252 23.3836Z" fill="#0099CC"/>
</svg>
