<svg width="35" height="22" viewBox="0 0 35 22" fill="none" xmlns="http://www.w3.org/2000/svg">
<path fill-rule="evenodd" clip-rule="evenodd" d="M6.79709 10C7.84709 10 8.89709 10.3821 9.70209 11.0421C10.6471 11.8411 11.2421 12.9179 11.3471 14.0989C11.4871 15.3147 11.1021 16.4958 10.3321 17.4337C9.45709 18.5105 8.16209 19.1011 6.79709 19.1011C5.74709 19.1011 4.69709 18.7189 3.89209 18.0589C2.94709 17.2947 2.35209 16.2179 2.24709 15.0021C2.10709 13.7863 2.49209 12.6053 3.26209 11.6674C4.13709 10.5905 5.43209 10 6.79709 10ZM6.79709 17.8853C7.81209 17.8853 8.75709 17.4337 9.38709 16.6695C9.94709 16.0095 10.2271 15.1411 10.1221 14.2379C10.0521 13.3347 9.63209 12.5358 8.93209 11.98C8.33709 11.4937 7.56709 11.2158 6.79709 11.2158C5.78209 11.2158 4.83709 11.6674 4.20709 12.4316C3.64709 13.1263 3.40209 13.9947 3.47209 14.8632C3.54209 15.7663 3.96209 16.5653 4.66209 17.1211C5.25709 17.6074 6.02709 17.8853 6.79709 17.8853Z" fill="#0099CC"/>
<path fill-rule="evenodd" clip-rule="evenodd" d="M27.3836 5.84375C28.3636 5.84375 29.3086 6.15638 30.0786 6.71217C32.1086 8.17112 32.5636 11.0195 31.0936 13.0343C30.2186 14.2153 28.8536 14.9101 27.3836 14.9101C26.4036 14.9101 25.4586 14.5974 24.6886 14.0416C23.7086 13.3469 23.0436 12.3048 22.8686 11.089C22.6586 9.90796 22.9386 8.69217 23.6736 7.71954C24.5486 6.53849 25.9136 5.84375 27.3836 5.84375ZM27.3486 13.729C28.4336 13.729 29.4486 13.208 30.0786 12.3395C31.1636 10.8459 30.8486 8.76164 29.3436 7.71954C28.7836 7.3027 28.0836 7.09428 27.3836 7.09428C26.2986 7.09428 25.2836 7.58059 24.6536 8.44901C24.1286 9.14375 23.9186 10.0469 24.0586 10.9153C24.1986 11.8185 24.6536 12.5827 25.3886 13.1038C25.9486 13.5206 26.6486 13.729 27.3486 13.729Z" fill="#0099CC"/>
<path fill-rule="evenodd" clip-rule="evenodd" d="M27.3844 3.13385C28.9244 3.13385 30.3944 3.62017 31.6544 4.52333C34.9094 6.88543 35.6444 11.4012 33.1944 14.5623C31.8294 16.4381 29.6244 17.5496 27.3144 17.5496C25.7744 17.5496 24.3044 17.0633 23.0444 16.1602C21.0144 14.6665 19.8944 12.2696 20.0694 9.76859L19.5094 9.38648C18.4594 8.62227 18.2144 7.12859 18.9844 6.05175L19.3694 5.53069C18.9494 5.39175 18.5294 5.18333 18.1444 4.90543C17.7594 4.62754 17.4444 4.24543 17.1994 3.86333C16.8844 4.14122 16.4994 4.34964 16.0794 4.52333C15.7994 4.62754 15.5194 4.69701 15.2394 4.73175C15.5194 5.39175 15.5194 6.22543 15.2394 7.05912C14.8894 8.03175 14.1544 8.79596 13.3844 9.03912C14.0494 9.69912 14.1194 10.7412 13.5244 11.4707L12.8594 12.2696C13.7344 14.4928 13.3494 17.0633 11.8094 18.9391C10.5494 20.5023 8.65942 21.3707 6.66442 21.3707C5.12442 21.3707 3.61942 20.8496 2.42942 19.877C-0.405578 17.5844 -0.825578 13.3812 1.51942 10.5675C2.77942 9.00438 4.66942 8.13596 6.66442 8.13596C7.08442 8.13596 7.46942 8.1707 7.88942 8.24017L8.55442 7.44122C8.90442 7.02438 9.42942 6.78122 9.95442 6.78122C10.2694 6.78122 10.5844 6.8507 10.8644 7.02438C10.8294 6.60754 10.8994 6.12122 11.0744 5.66964C11.3894 4.80122 12.0194 4.10648 12.7194 3.79385C12.6494 3.68964 12.6144 3.62017 12.5794 3.51596C12.3694 2.92543 12.4744 2.23069 12.8594 1.64017C13.2444 1.08438 13.8044 0.6328 14.5044 0.389642C14.9244 0.215958 15.3444 0.146484 15.7644 0.146484C16.6394 0.146484 17.3394 0.493853 17.7594 1.04964C18.0394 0.875958 18.3894 0.806484 18.7744 0.806484C19.4394 0.806484 20.1394 1.08438 20.7694 1.53596C21.3294 1.91806 21.7144 2.43912 21.9244 2.96017C22.1694 2.89069 22.3794 2.85596 22.6244 2.85596C23.1494 2.85596 23.6394 2.99491 24.0594 3.30754L24.6194 3.68964C25.4944 3.30754 26.4394 3.13385 27.3844 3.13385ZM11.7394 11.7486L12.6494 10.6717C12.8594 10.4286 12.8244 10.0465 12.5794 9.90754L10.4094 8.13596C10.3044 8.03175 10.1644 7.99701 10.0594 7.99701C9.88442 7.99701 9.70942 8.06648 9.60442 8.20543L8.69442 9.28227C8.51942 9.45596 8.30942 9.56017 8.06442 9.49069C7.60942 9.38648 7.18942 9.31701 6.73442 9.31701C5.12442 9.31701 3.58442 10.0465 2.53442 11.297C0.609422 13.5896 0.959422 16.9939 3.26942 18.9044C4.24942 19.6686 5.47442 20.1202 6.73442 20.1202C8.34442 20.1202 9.88442 19.3907 10.9344 18.1402C12.2644 16.5423 12.5444 14.2844 11.6694 12.4086C11.5644 12.1654 11.5994 11.9223 11.7394 11.7486ZM14.1194 6.64227C13.8394 7.44122 13.2444 7.8928 12.8244 7.8928C12.7544 7.8928 12.6844 7.8928 12.6494 7.85806C12.3694 7.75385 12.2294 7.44122 12.1944 7.26754C12.0894 6.88543 12.1244 6.43385 12.2644 5.98227C12.5444 5.18333 13.1394 4.73175 13.5594 4.73175C13.6294 4.73175 13.6644 4.73175 13.7344 4.76648C14.1894 4.94017 14.4344 5.73912 14.1194 6.64227ZM15.6944 3.41175C16.2544 3.20333 16.7094 2.78648 16.8494 2.36964C16.8494 2.26543 16.8844 2.16122 16.9194 2.09175C16.9194 2.02227 16.9194 1.9528 16.8844 1.88333C16.7794 1.53596 16.3244 1.32754 15.7994 1.32754C15.5544 1.32754 15.2744 1.36227 14.9944 1.46648C14.5394 1.64017 14.1544 1.91806 13.9444 2.2307C13.8394 2.36964 13.6994 2.68227 13.8044 2.99491C13.9094 3.34227 14.3644 3.55069 14.8894 3.55069C15.1344 3.55069 15.4144 3.51596 15.6944 3.41175ZM18.9144 3.96754C18.5294 3.68964 18.2494 3.30754 18.1094 2.92543C18.0744 2.85596 18.0394 2.71701 18.0394 2.57806C18.0569 2.52596 18.0657 2.47385 18.0744 2.42175C18.0832 2.36964 18.0919 2.31754 18.1094 2.26543C18.1094 2.24806 18.1182 2.23938 18.1269 2.23069C18.1357 2.22201 18.1444 2.21333 18.1444 2.19596C18.3194 1.98754 18.5994 1.9528 18.7744 1.9528C19.1944 1.9528 19.6494 2.12648 20.0344 2.43912C20.4894 2.78648 20.7694 3.20333 20.8394 3.55069C20.7694 3.62017 20.6994 3.68964 20.6294 3.79385L20.1744 4.41912H20.1394C19.7894 4.45385 19.3344 4.28017 18.9144 3.96754ZM22.6594 4.03701C22.4844 4.03701 22.3094 4.10648 22.1344 4.17596L20.9444 5.56543L20.0344 6.81596C19.6494 7.33701 19.7894 8.06648 20.3144 8.44859L21.1544 9.03912C21.3294 9.14333 21.4344 9.38648 21.3994 9.59491C21.1194 11.7833 22.0644 13.937 23.8494 15.2223C24.8994 15.9865 26.1244 16.3686 27.4194 16.3686C29.3444 16.3686 31.1994 15.4654 32.3194 13.9023C34.2794 11.2275 33.6844 7.44122 30.9894 5.49596C29.9394 4.73175 28.7144 4.34964 27.4194 4.34964C26.5444 4.34964 25.6344 4.52333 24.8294 4.90543C24.6194 4.97491 24.3744 4.97491 24.1994 4.83596L23.3594 4.24543C23.1494 4.10648 22.9044 4.03701 22.6594 4.03701Z" fill="#0099CC"/>
</svg>
