<svg width="22" height="23" viewBox="0 0 22 23" fill="none" xmlns="http://www.w3.org/2000/svg">
<path fill-rule="evenodd" clip-rule="evenodd" d="M7.70874 9.85159C8.50381 9.85159 9.14846 9.20694 9.14846 8.41187C9.14846 7.6168 8.50381 6.97266 7.70874 6.97266C6.91367 6.97266 6.26953 7.6168 6.26953 8.41187C6.26953 9.20694 6.91367 9.85159 7.70874 9.85159Z" fill="#0099CC"/>
<path fill-rule="evenodd" clip-rule="evenodd" d="M7.10502 16.6088C7.04567 16.9802 7.22065 17.2237 7.63046 17.3399C8.24544 17.5143 8.446 16.8282 8.4813 16.8001C8.51712 16.7709 9.19093 14.8293 11.2339 14.8452C13.2768 14.8605 13.8416 16.7244 14.0115 17.0431C14.1819 17.3614 14.5436 17.4504 14.8956 17.3051C15.2471 17.1603 15.4103 16.9669 15.3632 16.6088C15.3161 16.2506 14.2949 13.4121 11.1592 13.4121C9.06865 13.4121 7.71744 14.4778 7.10502 16.6088Z" fill="#0099CC"/>
<path fill-rule="evenodd" clip-rule="evenodd" d="M14.7014 9.71096C15.4965 9.71096 16.1406 9.06631 16.1406 8.27124C16.1406 7.47617 15.4965 6.83203 14.7014 6.83203C13.9064 6.83203 13.2617 7.47617 13.2617 8.27124C13.2617 9.06631 13.9064 9.71096 14.7014 9.71096Z" fill="#0099CC"/>
<path fill-rule="evenodd" clip-rule="evenodd" d="M11 1.99591C5.49898 1.99591 1.02326 6.47163 1.02326 11.9727C1.02326 17.4737 5.49898 21.9494 11 21.9494C16.501 21.9494 20.9767 17.4737 20.9767 11.9727C20.9767 6.47163 16.501 1.99591 11 1.99591ZM11 22.9727C4.93465 22.9727 0 18.038 0 11.9727C0 5.90731 4.93465 0.972656 11 0.972656C17.0653 0.972656 22 5.90731 22 11.9727C22 18.038 17.0653 22.9727 11 22.9727Z" fill="#0099CC"/>
</svg>
