<svg width="27" height="28" viewBox="0 0 27 28" fill="none" xmlns="http://www.w3.org/2000/svg">
<path fill-rule="evenodd" clip-rule="evenodd" d="M0.241071 3.91566C0.321429 3.99666 0.428571 4.02366 0.535714 4.02366C0.669643 4.02366 0.776786 3.96966 0.857143 3.88866L1.125 3.59166L3.72321 6.21066C3.16071 6.58866 2.625 7.12866 2.03571 7.88466C2.02232 7.89816 2.01563 7.91166 2.00893 7.92516C2.00223 7.93866 1.99554 7.95216 1.98214 7.96566C1.97191 7.98628 1.96168 8.00297 1.95294 8.01722C1.9388 8.04028 1.92857 8.05697 1.92857 8.07366L1.36607 8.80266C0.375 10.0447 0.0803571 10.7737 0.0803571 13.0687V15.6877C0.0803571 17.7397 0.294643 18.5497 1.125 19.6567L1.875 20.6287L1.98214 20.8177C1.98214 20.8447 2.00893 20.8717 2.03571 20.8987C2.65179 21.6817 3.1875 22.2217 3.77679 22.6267L1.07143 25.3537L0.830357 25.1107C0.75 25.0297 0.642857 25.0027 0.508929 25.0027C0.375 25.0027 0.267857 25.0567 0.1875 25.1107C0.107143 25.1917 0.0535714 25.2997 0.0535714 25.4347C0.0535714 25.5697 0.107143 25.6507 0.1875 25.7587L1.36607 26.9467C1.44643 27.0277 1.55357 27.0547 1.6875 27.0547C1.82143 27.0547 1.92857 27.0007 2.00893 26.9467C2.08929 26.8657 2.14286 26.7577 2.14286 26.6227C2.14286 26.5147 2.08929 26.4067 2.00893 26.2987L1.6875 25.9747L4.58036 23.0587C5.51786 23.4367 6.53571 23.4637 7.82143 23.4637H18.0268C18.1239 23.5833 18.2145 23.6953 18.2984 23.799L18.2984 23.799L18.2986 23.7993L18.2988 23.7994C18.631 24.2101 18.8574 24.4899 18.9643 24.5977L21.8304 27.4867C22.1518 27.8107 22.5536 27.9727 22.9554 27.9727C23.2232 27.9727 23.4643 27.8917 23.6518 27.7297L25.5 25.8667C25.9286 25.3267 25.8482 24.5167 25.3125 23.9767L23.7857 22.4377C24.1875 22.1137 24.6161 21.6817 25.0446 21.0877C25.058 21.0742 25.0647 21.0607 25.0714 21.0472C25.0781 21.0337 25.0848 21.0202 25.0982 21.0067L25.1786 20.8447L25.9554 19.8187C26.7589 18.7117 27 18.0097 27 15.7957V13.1767C27 10.9627 26.7054 10.2337 25.7143 8.93766L25.1518 8.20866L25.0714 8.10066C25.0714 8.07366 25.0446 8.04666 25.0179 8.01966C24.5893 7.47966 24.1339 6.99366 23.6518 6.58866L25.2589 4.96866C25.8214 4.40166 25.875 3.59166 25.4196 3.02466L23.625 1.21566C23.4375 1.05366 23.1964 0.972656 22.9554 0.972656C22.5536 0.972656 22.125 1.13466 21.7768 1.43166L18.9107 4.32066C18.8036 4.42866 18.4821 4.80666 18.0536 5.37366C18 5.34666 17.9464 5.34666 17.8661 5.34666H7.76786C6.40179 5.34666 5.38393 5.37366 4.41964 5.77866L1.60714 2.94366L1.92857 2.61966C2.08929 2.43066 2.08929 2.16066 1.90179 1.99866C1.82143 1.91766 1.71429 1.89066 1.60714 1.89066C1.47321 1.89066 1.36607 1.94466 1.28571 2.02566L0.776786 2.56566L0.696429 2.64666C0.683036 2.66016 0.669643 2.68041 0.65625 2.70066C0.642857 2.72091 0.629464 2.74116 0.616071 2.75466L0.133929 3.26766C0.0535714 3.34866 0 3.45666 0 3.59166C0.0469765 3.65085 0.0836547 3.70485 0.116807 3.75366L0.116809 3.75366C0.159269 3.81617 0.195947 3.87017 0.241071 3.91566ZM7.875 22.5997C6.83036 22.5997 6.05357 22.5727 5.33036 22.3837L8.22321 19.4677C8.65179 19.5217 9.13393 19.5217 9.61607 19.5217H15.0804C15.4018 19.9807 15.8304 20.5747 16.3929 21.3307C16.6875 21.7357 17.0357 22.1947 17.3839 22.6267H7.875V22.5997ZM14.6786 11.7187L14.3839 11.4217C14.1696 11.1787 14.1429 10.9627 14.5982 10.2607H9.61607H8.94643L12.5357 13.8787L14.6786 11.7187ZM14.5179 18.6307H9.61607H9.05357L12.5357 15.1207L14.6786 17.2807L14.3839 17.5777C14.1696 17.7667 14.1429 17.9827 14.5179 18.6307ZM15.2946 12.3127L13.1518 14.4727L15.2946 16.6327L15.5089 16.4167C15.5893 16.3357 15.7232 16.2817 15.8571 16.2817C16.0179 16.2817 16.3929 16.2817 19.3661 18.5767C20.1696 18.5227 20.8125 17.8477 21.4286 17.1997L21.4821 17.1457C21.5357 17.0917 21.5826 17.0377 21.6294 16.9837L21.6295 16.9837C21.6763 16.9297 21.7232 16.8757 21.7768 16.8217C22.0982 16.4707 22.0982 16.3087 22.0982 15.4447V15.4447V13.7707C22.0982 12.9067 22.0179 12.5827 21.6429 12.1777C20.8393 11.2327 20.1161 10.6657 19.3929 10.3687C17.3839 11.9077 16.2321 12.6637 15.8571 12.6637C15.7232 12.6637 15.5893 12.6097 15.5089 12.5287L15.2946 12.3127ZM11.9196 14.4727L7.92857 18.4957C7.25893 18.3607 6.75 18.0637 6.10714 17.4157L5.4375 16.7947C5.11607 16.4707 5.11607 16.2817 5.11607 15.4177V13.7437C5.11607 12.5827 5.11607 12.3937 5.59821 11.9077L6.10714 11.3947C6.72321 10.8007 7.23214 10.5037 7.84821 10.3417L11.9196 14.4727ZM24.9375 25.2727C25.0714 25.1377 24.9911 24.8137 24.7768 24.5977L23.0089 22.8157C22.9286 22.7887 22.8482 22.7077 22.7946 22.6267C22.7946 22.6132 22.7879 22.5997 22.7812 22.5862C22.7746 22.5727 22.7679 22.5592 22.7679 22.5457L21.9107 21.6817C21.5357 21.3037 17.0893 17.7667 15.9911 17.1997L15.9375 17.2537L19.5536 20.8987C19.7143 21.0607 19.7143 21.3577 19.5536 21.5197C19.4732 21.5737 19.3661 21.6277 19.2321 21.6277C19.0982 21.6277 18.9911 21.6007 18.9107 21.5197L15.2946 17.8747L15.1875 17.9827C15.75 19.0627 19.2589 23.5717 19.6339 23.9497L22.5 26.8387C22.6339 27.0007 22.8482 27.0817 23.0089 27.0817C23.0893 27.0817 23.1429 27.0817 23.1696 27.0547L24.9375 25.2727ZM24.4286 8.53266L24.4821 8.61366C24.5089 8.66766 24.5357 8.69466 24.5625 8.72166L25.1518 9.47766C25.9821 10.5847 26.25 11.0977 26.25 13.2037V15.8227C26.25 17.7937 26.0625 18.3607 25.3929 19.3057L24.6161 20.3317C24.6027 20.3452 24.596 20.3587 24.5893 20.3722C24.5826 20.3857 24.5759 20.3992 24.5625 20.4127L24.4821 20.6017C24.0536 21.1687 23.6786 21.5737 23.3036 21.8437L22.5804 21.1147C22.5536 21.0877 21.5089 20.2237 20.3036 19.2787C21.0536 18.9547 21.6161 18.3607 22.125 17.8207L22.1518 17.7937L22.4732 17.4697C23.0625 16.8757 23.0625 16.4167 23.0625 15.4717V13.7977C23.0625 12.7177 22.9018 12.2317 22.3929 11.6377C21.6429 10.7737 20.9732 10.1797 20.25 9.80166C21.5089 8.80266 22.5536 7.93866 22.5804 7.91166L23.2232 7.26366L23.2768 7.31766C23.625 7.64166 24.0536 8.07366 24.4286 8.53266ZM22.4732 2.10666L19.6339 4.99566C19.2589 5.37366 15.75 9.85566 15.1607 10.9087L15.2679 11.0167L18.8839 7.37166C18.9643 7.31766 19.0714 7.26366 19.2054 7.26366C19.3393 7.26366 19.4464 7.29066 19.5268 7.37166C19.6071 7.47966 19.6607 7.58766 19.6607 7.69566C19.6607 7.83066 19.6071 7.93866 19.5268 8.01966L15.9107 11.6647L15.9643 11.7187C17.0357 11.1517 21.5089 7.61466 21.8839 7.23666L24.75 4.34766C24.9643 4.13166 25.0179 3.80766 24.8839 3.64566L23.1161 1.86366H23.0357C22.875 1.86366 22.6339 1.97166 22.4732 2.10666ZM7.875 6.26466H17.4911C17.1161 6.75066 16.7411 7.23666 16.4196 7.66866C16.1072 8.08311 15.8351 8.45686 15.5972 8.78363L15.5971 8.78364C15.4476 8.98906 15.3116 9.17591 15.1875 9.34266H9.64286C9.16071 9.34266 8.625 9.34266 8.14286 9.42366L5.22321 6.48066C5.94643 6.26466 6.75 6.26466 7.875 6.26466ZM5.46429 10.8007C6.05357 10.2337 6.5625 9.88266 7.125 9.66666L4.33929 6.91266C3.80357 7.23666 3.29464 7.72266 2.73214 8.47866L2.70536 8.53266C2.69196 8.54616 2.67857 8.56641 2.66518 8.58666C2.65179 8.60691 2.63839 8.62716 2.625 8.64066L2.57143 8.69466L2.03571 9.39666C1.23214 10.3957 0.9375 10.9627 0.9375 13.0957V15.7147C0.9375 17.6857 1.125 18.2797 1.79464 19.1437L2.57143 20.1697C2.58482 20.1832 2.59152 20.1967 2.59821 20.2102C2.60491 20.2237 2.61161 20.2372 2.625 20.2507L2.73214 20.4667C3.29464 21.1957 3.83036 21.7087 4.39286 22.0327L7.15179 19.2517C6.5625 19.0357 6.02679 18.6847 5.4375 18.0907L5.33036 17.9827L4.79464 17.4967C4.20536 16.8757 4.20536 16.4167 4.20536 15.4717V13.7977C4.20536 12.5287 4.20536 12.0697 4.95536 11.3137L5.46429 10.8007Z" fill="#0099CC"/>
</svg>
