<svg width="32" height="24" viewBox="0 0 32 24" fill="none" xmlns="http://www.w3.org/2000/svg">
<path fill-rule="evenodd" clip-rule="evenodd" d="M6 19.6213C6 18.1915 7.19149 17 8.62128 17C10.0511 17 11.2426 18.1915 11.2426 19.6213C11.2426 21.0511 10.0511 22.2426 8.62128 22.2426C7.19149 22.2426 6 21.0511 6 19.6213ZM7.15745 19.6553C7.15745 20.4723 7.80426 21.1191 8.62128 21.1191C9.4383 21.1191 10.0851 20.4723 10.0851 19.6553C10.0851 18.8383 9.4383 18.1915 8.62128 18.1915C7.80426 18.1915 7.15745 18.8383 7.15745 19.6553Z" fill="#0099CC"/>
<path fill-rule="evenodd" clip-rule="evenodd" d="M26.9957 14.917V10.7979C26.9957 9.81066 26.1787 8.99364 25.1915 8.99364H24.2383V2.21917C24.5787 2.01492 24.783 1.67449 24.783 1.26598C24.783 0.653216 24.2723 0.142578 23.6596 0.142578C23.0468 0.142578 22.5362 0.653216 22.5362 1.26598C22.5362 1.64045 22.7404 2.01492 23.0809 2.21917V8.99364H21.583V6.10002C21.583 5.35109 20.9702 4.77237 20.2553 4.77237H15.2851C14.5362 4.77237 13.9574 5.38513 13.9574 6.10002V8.99364H10.3489C9.3617 8.99364 8.54468 9.81066 8.54468 10.7979V11.2745H0.578723C0.27234 11.2745 0 11.5468 0 11.8532V13.7256C0 14.0319 0.27234 14.3043 0.578723 14.3043H8.54468V14.917H8.30638C5.9234 15.1213 4.11915 16.9596 4.11915 19.2064C4.11915 21.5894 6.19574 23.5298 8.71489 23.5298H26.8596C29.3787 23.5298 31.4553 21.5894 31.4553 19.2064C31.4213 16.9256 29.4468 15.0192 26.9957 14.917ZM15.0809 6.13407C15.0809 6.03194 15.183 5.92981 15.2851 5.92981H20.2553C20.3574 5.92981 20.4596 6.03194 20.4596 6.13407V9.02768H15.1149V6.13407H15.0809ZM10.3489 10.1851C10.0085 10.1851 9.70213 10.4575 9.70213 10.8319V14.917H25.8383V10.8319C25.8383 10.4915 25.566 10.1851 25.1915 10.1851H10.3489ZM1.15745 13.1809V12.466H8.54468V13.1809H1.15745ZM8.68085 22.4405H26.8255C28.7319 22.4405 30.2638 21.0107 30.2298 19.2745C30.2298 17.5383 28.6979 16.1085 26.7915 16.1085H8.34043C6.57021 16.2447 5.24255 17.6064 5.24255 19.2745C5.24255 21.0107 6.77447 22.4405 8.68085 22.4405Z" fill="#0099CC"/>
<path fill-rule="evenodd" clip-rule="evenodd" d="M12.1211 19.2404C12.1211 17.8106 13.3126 16.6191 14.7424 16.6191C16.2062 16.6191 17.3636 17.8106 17.3636 19.2404C17.3636 20.6702 16.1722 21.8617 14.7424 21.8617C13.3126 21.8617 12.1211 20.6702 12.1211 19.2404ZM13.2785 19.2745C13.2785 20.0915 13.9253 20.7383 14.7424 20.7383C15.5594 20.7383 16.2062 20.0915 16.2062 19.2745C16.2062 18.4574 15.5594 17.8106 14.7424 17.8106C13.9253 17.8106 13.2785 18.4574 13.2785 19.2745Z" fill="#0099CC"/>
<path fill-rule="evenodd" clip-rule="evenodd" d="M18.1445 19.2404C18.1445 17.8106 19.336 16.6191 20.7658 16.6191C22.2296 16.6191 23.3871 17.8106 23.3871 19.2404C23.3871 20.6702 22.1956 21.8617 20.7658 21.8617C19.336 21.8617 18.1445 20.6702 18.1445 19.2404ZM19.302 19.2745C19.302 20.0915 19.9488 20.7383 20.7658 20.7383C21.5828 20.7383 22.2296 20.0915 22.2296 19.2745C22.2296 18.4574 21.5828 17.8106 20.7658 17.8106C19.9488 17.8106 19.302 18.4574 19.302 19.2745Z" fill="#0099CC"/>
<path fill-rule="evenodd" clip-rule="evenodd" d="M24.2031 19.2404C24.2031 17.8106 25.3946 16.6191 26.8244 16.6191C28.2542 16.6191 29.4457 17.8106 29.4457 19.2404C29.4457 20.6702 28.2542 21.8617 26.8244 21.8617C25.3946 21.8617 24.2031 20.6702 24.2031 19.2404ZM25.3606 19.2745C25.3606 20.0915 26.0074 20.7383 26.8244 20.7383C27.6414 20.7383 28.2882 20.0915 28.2882 19.2745C28.2882 18.4574 27.6414 17.8106 26.8244 17.8106C26.0074 17.8106 25.3606 18.4574 25.3606 19.2745Z" fill="#0099CC"/>
</svg>
