<svg width="22" height="27" viewBox="0 0 22 27" fill="none" xmlns="http://www.w3.org/2000/svg">
<path fill-rule="evenodd" clip-rule="evenodd" d="M1.35264 26.7327H20.5165C21.2852 26.7327 21.8948 26.1178 21.8948 25.3426V6.76337C21.8948 6.6297 21.8418 6.49604 21.7358 6.44257L15.4804 0.133663C15.4671 0.120297 15.4472 0.106931 15.4273 0.0935643C15.4075 0.080198 15.3876 0.0668317 15.3743 0.0534653C15.3213 0 15.2683 0 15.2418 0H1.37915C0.610471 0 0.000832679 0.614852 0.000832679 1.3901V25.3426C-0.0256733 26.0911 0.583965 26.7327 1.35264 26.7327ZM15.6129 1.44356L20.4635 6.33564H16.143C15.8514 6.33564 15.6129 6.09505 15.6129 5.80099V1.44356ZM1.35264 0.855446C1.06107 0.855446 0.822519 1.09604 0.822519 1.3901V25.3426C0.822519 25.6366 1.06107 25.8772 1.35264 25.8772H20.5165C20.8081 25.8772 21.0466 25.6366 21.0466 25.3426V7.19109H16.143C15.3743 7.19109 14.7647 6.57624 14.7647 5.80099V0.855446H1.35264Z" fill="#0099CC"/>
<path d="M4.16238 16.0928H17.3094C17.5479 16.0928 17.7335 15.9056 17.7335 15.665C17.7335 15.4244 17.5479 15.2373 17.3094 15.2373H4.16238C3.92382 15.2373 3.73828 15.4244 3.73828 15.665C3.73828 15.9056 3.95033 16.0928 4.16238 16.0928Z" fill="#0099CC"/>
<path d="M4.16238 19.1133H17.3094C17.5479 19.1133 17.7335 18.9261 17.7335 18.6855C17.7335 18.4449 17.5479 18.2578 17.3094 18.2578H4.16238C3.92382 18.2578 3.73828 18.4449 3.73828 18.6855C3.73828 18.9261 3.95033 19.1133 4.16238 19.1133Z" fill="#0099CC"/>
<path d="M4.16238 22.1611H17.3094C17.5479 22.1611 17.7335 21.974 17.7335 21.7334C17.7335 21.4928 17.5479 21.3057 17.3094 21.3057H4.16238C3.92382 21.3057 3.73828 21.4928 3.73828 21.7334C3.73828 21.974 3.95033 22.1611 4.16238 22.1611Z" fill="#0099CC"/>
<path d="M4.93191 8.96672H6.57528V10.6241C6.57528 10.8647 6.76082 11.0519 6.99938 11.0519C7.23793 11.0519 7.42348 10.8647 7.42348 10.6241V8.96672H9.11986C9.35841 8.96672 9.54396 8.77959 9.54396 8.53899C9.54396 8.2984 9.35841 8.11127 9.11986 8.11127H7.42348V6.40038C7.42348 6.15978 7.23793 5.97266 6.99938 5.97266C6.76082 5.97266 6.57528 6.15978 6.57528 6.40038V8.11127H4.93191C4.69335 8.11127 4.50781 8.2984 4.50781 8.53899C4.50781 8.77959 4.69335 8.96672 4.93191 8.96672Z" fill="#0099CC"/>
</svg>
