<svg width="28" height="26" viewBox="0 0 28 26" fill="none" xmlns="http://www.w3.org/2000/svg">
<path fill-rule="evenodd" clip-rule="evenodd" d="M27.4567 16.2673L27.3959 16.2371C27.0307 16.0557 25.0828 15.2092 22.5872 14.9975H22.435C22.1915 14.9673 21.9176 14.9673 21.6741 14.9673L21.735 14.9068L21.9176 14.7255C23.5307 13.0324 24.5046 11.158 24.9915 9.85801C25.4538 8.74633 25.6437 7.88579 25.7169 7.55435C25.7353 7.47116 25.7463 7.42131 25.7524 7.40917C25.8133 7.10685 25.6915 6.77429 25.448 6.5929C25.2046 6.38127 24.8698 6.3208 24.5959 6.4115C24.5654 6.4115 23.4698 6.74406 22.0393 7.46964C20.7915 8.10452 18.9959 9.16266 17.4437 10.6743L17.4741 10.3115V10.2813V10.1603V9.94871V9.85801V9.55569C17.4741 6.98592 16.7437 4.68824 16.1046 3.20685C15.435 1.60452 14.7654 0.60685 14.735 0.576617C14.5524 0.334757 14.2785 0.183594 13.9741 0.183594C13.6698 0.183594 13.3959 0.334757 13.2133 0.576617C13.1828 0.60685 12.5133 1.63476 11.8437 3.20685C11.235 4.68824 10.4741 6.98592 10.4741 9.55569V9.85801L10.5046 10.7045C8.95239 9.16266 7.15674 8.10452 5.90891 7.49987C4.44804 6.77429 3.38283 6.44173 3.35239 6.44173C3.04804 6.35104 2.71326 6.4115 2.50022 6.62313C2.25674 6.83476 2.135 7.13708 2.19587 7.43941C2.19587 7.46964 2.37848 8.49755 2.95674 9.88824C3.47413 11.158 4.41761 13.0627 6.03065 14.7557L6.21326 14.9371L6.27413 14.9975C6.03065 14.9975 5.75674 14.9975 5.51326 15.0278H5.36109C2.86543 15.2092 0.917609 16.0859 0.552391 16.2673L0.491522 16.2975C0.217609 16.4487 0.035 16.7208 0.00456522 17.0231C-0.0258696 17.3255 0.0958695 17.6278 0.369783 17.8092C0.491522 17.8999 3.26109 19.9255 6.9437 20.258C7.00455 20.258 7.0654 20.2656 7.12626 20.2731L7.1263 20.2731L7.12635 20.2731C7.1872 20.2807 7.24806 20.2882 7.30891 20.2882H7.36978H7.40022H7.8263H8.00891H8.16109C7.01642 21.5085 6.48641 22.8051 6.3831 23.0578C6.37379 23.0806 6.36795 23.0949 6.36543 23.0999C6.2437 23.4022 6.30456 23.7348 6.51761 23.9766C6.70022 24.1882 6.9437 24.3092 7.21761 24.3092H7.24804H7.36978C7.61326 24.2789 9.86544 23.9162 11.7828 22.4348C11.935 22.3138 12.0872 22.1929 12.2393 22.0417V24.9138C12.2393 25.3975 12.635 25.8208 13.1524 25.8208H14.735C14.9785 25.8208 15.1915 25.7301 15.3741 25.5487C15.5567 25.3673 15.648 25.1557 15.648 24.9138V22.0417C15.8002 22.1929 15.9524 22.3138 16.1046 22.4348C18.022 23.9162 20.2741 24.2789 20.5176 24.3092H20.6393H20.6698C20.9437 24.3092 21.1872 24.1882 21.3698 23.9766C21.5828 23.7348 21.6437 23.4022 21.522 23.0999C21.5194 23.0949 21.5136 23.0806 21.5043 23.0578C21.401 22.8051 20.871 21.5085 19.7263 20.2882H19.9089H20.2437H20.4567H20.4872H20.548H20.6089C20.6698 20.2882 20.7306 20.2807 20.7915 20.2731L20.7915 20.2731L20.7916 20.2731C20.8524 20.2656 20.9133 20.258 20.9741 20.258C24.6567 19.9255 27.4567 17.8999 27.548 17.8092C27.7915 17.6278 27.9437 17.3255 27.9133 17.0231C27.9437 16.6906 27.7611 16.4185 27.4567 16.2673ZM20.9133 19.1696C20.8524 19.1696 20.7991 19.1772 20.7459 19.1848C20.6926 19.1923 20.6393 19.1999 20.5785 19.1999H20.4263H20.2437H19.9089L18.2959 19.1092C18.0524 19.0789 17.8393 19.2301 17.748 19.4417C17.6567 19.6534 17.748 19.9255 17.9307 20.0766C17.9611 20.0917 17.9839 20.1144 18.0067 20.1371C18.0296 20.1598 18.0524 20.1824 18.0828 20.1975C19.4524 21.2557 20.1828 22.6162 20.4263 23.1906C19.8176 23.0696 18.1741 22.6464 16.7741 21.558C16.4089 21.2557 15.9828 20.8627 15.5567 20.3185C15.4046 20.1371 15.1915 20.0766 14.9785 20.1673C14.7654 20.2278 14.6133 20.4394 14.6133 20.651V24.7324H13.335V20.6813C13.335 20.4696 13.1828 20.258 12.9698 20.1975C12.7567 20.1371 12.5133 20.1975 12.3915 20.3487C11.9654 20.8627 11.5393 21.2859 11.1741 21.5882C9.77413 22.6766 8.13065 23.0696 7.52196 23.1906C7.76543 22.6162 8.49587 21.2557 9.86543 20.1975C9.89587 20.1824 9.9187 20.1598 9.94152 20.1371C9.96435 20.1144 9.98717 20.0917 10.0176 20.0766C10.2002 19.9255 10.2915 19.6836 10.2002 19.4417C10.1089 19.2301 9.89587 19.0789 9.65239 19.1092L8.03935 19.1999L7.40022 19.1696C7.30891 19.1696 7.18717 19.1696 7.06543 19.1394C4.235 18.8975 1.98283 17.5371 1.25239 17.0534C1.86109 16.7813 3.47413 16.1766 5.48283 15.9952H5.635C6.21326 15.965 6.79152 15.965 7.33935 16.0255C7.40022 16.0255 7.49152 16.0255 7.55239 16.0557H7.61326C7.85674 16.0859 8.06978 15.965 8.16109 15.7534C8.25239 15.5417 8.19152 15.2999 8.03935 15.1487C7.76543 14.9068 7.52196 14.665 7.27848 14.3929L7.035 14.151L7.00457 14.1208L6.85239 13.9696C5.36109 12.3975 4.44804 10.6441 3.99152 9.43476C3.6263 8.55801 3.4437 7.83243 3.35239 7.46964C3.74804 7.59057 4.50891 7.8929 5.48283 8.37662C6.73065 9.0115 8.55674 10.0696 10.048 11.672L10.2307 11.8534L10.2611 11.8836C10.3524 11.9743 10.4133 12.0348 10.4741 12.1255C10.535 12.201 10.6035 12.2691 10.672 12.3371C10.7404 12.4051 10.8089 12.4731 10.8698 12.5487C11.022 12.7301 11.2959 12.7603 11.5089 12.6696C11.722 12.5789 11.8437 12.3371 11.8133 12.0952L11.6307 10.765V10.7348L11.5698 9.76731V9.46499C11.5698 7.07662 12.2698 4.89987 12.848 3.50918C13.2628 2.49289 13.7027 1.7511 13.9395 1.35184L13.9395 1.35182C13.9633 1.31163 13.9851 1.27491 14.0046 1.24173C14.2176 1.60452 14.6741 2.39057 15.1611 3.50918C15.7393 4.89987 16.4393 7.04638 16.4393 9.46499V9.76731L16.4089 10.1603L16.207 11.9944L16.1959 12.065V12.0952C16.1654 12.3371 16.2872 12.5487 16.5002 12.6696C16.7133 12.7603 16.9872 12.7301 17.1393 12.5487C17.2611 12.3975 17.4133 12.2464 17.535 12.1255L17.7785 11.8836L17.8089 11.8534L17.8089 11.8533C17.8698 11.7929 17.9307 11.7324 17.9611 11.672C19.4524 10.0999 21.2785 9.0115 22.5263 8.37662C23.5002 7.8929 24.2915 7.59057 24.6567 7.46964C24.5654 7.83243 24.3828 8.55801 24.0176 9.43476C23.5307 10.6441 22.648 12.3975 21.1567 13.9696L20.9741 14.151L20.9437 14.1813L20.9437 14.1813L20.9437 14.1813C20.8524 14.272 20.7915 14.3324 20.7307 14.4231C20.6506 14.5026 20.5706 14.5854 20.4894 14.6693L20.4894 14.6694C20.3238 14.8407 20.1536 15.0166 19.9698 15.1789C19.7872 15.3301 19.7567 15.572 19.848 15.7836C19.9393 15.9952 20.1828 16.1162 20.3959 16.0859H20.4567C20.4872 16.0859 20.5252 16.0784 20.5633 16.0708C20.6013 16.0632 20.6393 16.0557 20.6698 16.0557C21.2176 15.9952 21.7959 15.9952 22.3741 16.0255H22.5263C24.535 16.1766 26.148 16.8115 26.7567 17.0836C26.0263 17.5673 23.7741 18.9278 20.9133 19.1696ZM16.2206 11.9075L16.207 11.9944L16.1959 12.0952V12.1255L16.2206 11.9075ZM16.2206 11.9075L16.348 11.0975L16.4089 10.251L16.2206 11.9075Z" fill="#0099CC"/>
</svg>
