<svg width="123" height="123" viewBox="0 0 123 123" fill="none" xmlns="http://www.w3.org/2000/svg">
<path fill-rule="evenodd" clip-rule="evenodd" d="M12.0081 70.4514C11.0917 70.4514 10.2164 69.9135 9.81122 69.0053C9.722 68.8054 1.1659 48.8901 20.8271 33.7155C21.8978 32.8938 23.4074 33.1159 24.208 34.2017C25.0087 35.2875 24.7965 36.8349 23.733 37.6566C7.12478 50.4745 14.1279 66.7966 14.2002 66.9595C14.7524 68.2008 14.2171 69.6642 13.0041 70.2293C12.6809 70.3799 12.3433 70.4514 12.0081 70.4514Z" fill="#009BD0"/>
<path fill-rule="evenodd" clip-rule="evenodd" d="M115.502 28.4523L114.807 25.4786L102.132 15.7109L97.5335 16.3995C115.948 26.3472 111.012 45.8134 109.087 51.0056C97.7939 78.4626 67.5944 106.295 65.9449 107.931C65.9063 107.97 65.8533 107.988 65.8098 108.022C65.7664 108.052 65.7254 108.079 65.682 108.106C65.5012 108.207 65.3083 108.276 65.1081 108.276C64.9441 108.276 64.7825 108.242 64.6306 108.175C64.6258 108.173 64.6234 108.173 64.6186 108.17C64.6186 108.17 19.5037 93.0449 5.94128 71.681C5.0249 70.2373 4.45819 69.0947 4.14952 68.1767C4.0627 68.0829 3.96865 67.9867 3.88184 67.8904C3.89872 68.0977 3.92524 68.2976 3.93248 68.5099C4.04341 71.8217 6.06668 75.1359 8.25876 78.0233C9.02321 78.7414 9.7322 79.5385 10.3616 80.4171C10.5666 80.7033 10.7716 80.9896 10.9741 81.2734C13.0456 82.073 14.8856 83.5561 16.2506 85.7772C18.609 86.4706 20.7649 88.1216 22.3204 90.967C22.6194 91.3396 22.9233 91.7098 23.2102 92.0948C24.4522 92.687 25.6845 93.5212 26.8709 94.6786C33.616 101.26 43.2404 105.702 51.4154 110.199C58.5536 114.125 66.3452 119.436 74.3684 121.593C74.4359 121.491 74.4889 121.38 74.5589 121.282C77.2236 117.528 80.0572 114.382 83.5539 111.462C83.8553 111.213 84.1568 110.964 84.4582 110.712C84.926 109.473 85.6085 108.247 86.5393 107.074C96.9113 94.0049 107.915 80.5355 115.545 65.5189C122.488 51.8422 123.016 40.0559 115.502 28.4523Z" fill="#009BD0"/>
<path fill-rule="evenodd" clip-rule="evenodd" d="M119.101 19.7479C118.771 19.7845 118.426 19.6771 118.175 19.4182C111.923 13.0074 104.674 9.56882 96.6299 9.19516C96.0144 9.16586 95.5406 8.64323 95.5675 8.02535C95.5992 7.41236 96.1121 6.9459 96.7373 6.96544C105.358 7.36596 113.11 11.0317 119.772 17.8601C120.202 18.2997 120.195 19.0055 119.755 19.4377C119.567 19.6185 119.342 19.721 119.101 19.7479Z" fill="#333333"/>
<mask id="mask0_12498_146428" style="mask-type:alpha" maskUnits="userSpaceOnUse" x="98" y="0" width="25" height="13">
<path fill-rule="evenodd" clip-rule="evenodd" d="M98.4746 0H122.999V12.7911H98.4746V0Z" fill="white"/>
</mask>
<g mask="url(#mask0_12498_146428)">
<path fill-rule="evenodd" clip-rule="evenodd" d="M122.009 12.7836C121.679 12.8226 121.335 12.7127 121.083 12.4563C114.831 6.04309 107.58 2.60447 99.5381 2.23082C98.9226 2.20151 98.4488 1.68132 98.4757 1.06344C98.5074 0.448011 99.0203 -0.025776 99.6455 0.00108815C108.266 0.401609 116.018 4.06735 122.68 10.8957C123.113 11.3353 123.103 12.0411 122.663 12.4758C122.478 12.6541 122.251 12.7567 122.009 12.7836Z" fill="#333333"/>
</g>
<mask id="mask1_12498_146428" style="mask-type:alpha" maskUnits="userSpaceOnUse" x="0" y="22" width="75" height="101">
<path fill-rule="evenodd" clip-rule="evenodd" d="M0 22.0117H74.5977V122.416H0V22.0117Z" fill="white"/>
</mask>
<g mask="url(#mask1_12498_146428)">
<path fill-rule="evenodd" clip-rule="evenodd" d="M73.377 122.416C73.2134 122.416 73.0449 122.381 72.8837 122.311C70.5123 121.265 14.6617 96.389 2.88296 70.2819C-1.83049 59.8342 -0.714403 47.7209 5.86488 37.8764C12.7616 27.5679 24.2058 21.6236 36.5658 22.0314C38.4462 22.09 40.3512 22.3269 42.2268 22.7299C51.4729 24.7203 59.6763 30.6231 64.1675 38.5236C64.4996 39.1097 64.2945 39.8546 63.7083 40.1892C63.1222 40.5213 62.3749 40.3162 62.0428 39.73C57.891 32.4254 50.2909 26.9622 41.7115 25.1184C39.9799 24.7447 38.2216 24.5274 36.49 24.4712C25.019 24.1293 14.3173 29.6242 7.89679 39.2343C1.78885 48.373 0.746032 59.6046 5.11024 69.2782C16.5055 94.533 73.2989 119.824 73.8703 120.078C74.4858 120.349 74.7666 121.07 74.4931 121.688C74.2928 122.144 73.8435 122.416 73.377 122.416Z" fill="#333333"/>
<path d="M73.377 122.416C73.2134 122.416 73.0449 122.381 72.8837 122.311C70.5123 121.265 14.6617 96.389 2.88296 70.2819C-1.83049 59.8342 -0.714403 47.7209 5.86488 37.8764C12.7616 27.5679 24.2058 21.6236 36.5658 22.0314C38.4462 22.09 40.3512 22.3269 42.2268 22.7299C51.4729 24.7203 59.6763 30.6231 64.1675 38.5236C64.4996 39.1097 64.2945 39.8546 63.7083 40.1892C63.1222 40.5213 62.3749 40.3162 62.0428 39.73C57.891 32.4254 50.2909 26.9622 41.7115 25.1184C39.9799 24.7447 38.2216 24.5274 36.49 24.4712C25.019 24.1293 14.3173 29.6242 7.89679 39.2343C1.78885 48.373 0.746032 59.6046 5.11024 69.2782C16.5055 94.533 73.2989 119.824 73.8703 120.078C74.4858 120.349 74.7666 121.07 74.4931 121.688C74.2928 122.144 73.8435 122.416 73.377 122.416" stroke="#444444" stroke-width="0.2"/>
</g>
<path fill-rule="evenodd" clip-rule="evenodd" d="M73.3855 122.416C73.0655 122.416 72.7481 122.291 72.5087 122.045C72.0398 121.559 72.052 120.787 72.5356 120.318C73.0436 119.825 123.365 70.6828 120.198 42.6659C118.517 27.788 106.152 16.6027 92.0439 17.1302C78.309 17.6724 67.5682 25.8367 64.6839 37.928L64.2223 39.2224C63.9903 39.8549 63.2968 40.187 62.6569 39.9526C62.0244 39.723 61.6971 39.0221 61.9291 38.3871L62.3492 37.2271C65.4532 24.176 77.0878 15.2766 91.9486 14.6905C107.259 14.1312 120.803 26.2494 122.625 42.3923C125.927 71.5961 76.3479 120.025 74.2354 122.072C73.9985 122.301 73.6908 122.416 73.3855 122.416Z" fill="#333333"/>
<path d="M73.3855 122.416C73.0655 122.416 72.7481 122.291 72.5087 122.045C72.0398 121.559 72.052 120.787 72.5356 120.318C73.0436 119.825 123.365 70.6828 120.198 42.6659C118.517 27.788 106.152 16.6027 92.0439 17.1302C78.309 17.6724 67.5682 25.8367 64.6839 37.928L64.2223 39.2224C63.9903 39.8549 63.2968 40.187 62.6569 39.9526C62.0244 39.723 61.6971 39.0221 61.9291 38.3871L62.3492 37.2271C65.4532 24.176 77.0879 15.2766 91.9486 14.6905C107.259 14.1312 120.803 26.2494 122.625 42.3923C125.927 71.5961 76.3479 120.025 74.2354 122.072C73.9985 122.301 73.6908 122.416 73.3855 122.416" stroke="#444444" stroke-width="0.2"/>
</svg>
