<svg width="143" height="63" viewBox="0 0 143 63" fill="none" xmlns="http://www.w3.org/2000/svg">
<path d="M1 62.1383H42.2298C40.1042 62.1383 38.3084 56.9443 38.0061 55.4855C37.5216 53.4875 37.5838 51.3933 38.186 49.4285C38.7882 47.4637 39.9076 45.7028 41.4235 44.3354C46.4536 40.0334 54.2506 41.8824 57.7414 47.2159C56.224 44.573 55.6059 41.4974 55.9823 38.4631C57.1642 30.2213 66.2622 27.4245 72.3184 32.4142C74.1623 34.0177 75.7536 35.8978 77.0369 37.9892C71.5396 29.5245 72.3459 16.9342 77.6142 8.59956C78.9405 6.33433 80.8144 4.44936 83.0588 3.12272C85.3032 1.79607 87.844 1.07154 90.4412 1.01753C110.653 0.246315 119.11 25.1016 123.553 40.9718C123.627 41.2134 123.7 41.4643 123.764 41.7059C123.764 41.7059 125.597 32.4142 133.842 32.4142C142.088 32.4142 142.088 42.635 142.088 42.635" stroke="#57CBFC" stroke-width="0.783825" stroke-linecap="round" stroke-linejoin="round"/>
</svg>
