<svg width="47" height="57" viewBox="0 0 47 57" fill="none" xmlns="http://www.w3.org/2000/svg">
<path d="M31.8227 1.32116L6.20847 5.41931C5.64676 5.50918 5.26426 6.03739 5.35413 6.5991L13.086 54.9245C13.1758 55.4862 13.704 55.8687 14.2657 55.7788L39.88 51.6807C40.4417 51.5908 40.8242 51.0626 40.7343 50.5009L33.0025 2.1755C32.9126 1.61379 32.3844 1.23129 31.8227 1.32116Z" stroke="#444444" stroke-miterlimit="10"/>
<path d="M30.0457 6.03442L9.36863 9.34265C8.80692 9.43252 8.42442 9.96073 8.51429 10.5224L14.7057 49.2203C14.7956 49.782 15.3238 50.1645 15.8855 50.0746L36.5626 46.7664C37.1243 46.6765 37.5068 46.1483 37.4169 45.5866L31.2254 6.88876C31.1356 6.32705 30.6074 5.94455 30.0457 6.03442Z" stroke="#444444" stroke-miterlimit="10"/>
<path d="M30.8742 49.0725L21.9872 50.4944C21.4418 50.5816 21.0705 51.0944 21.1577 51.6398C21.245 52.1851 21.7578 52.5565 22.3032 52.4692L31.1901 51.0474C31.7355 50.9601 32.1069 50.4473 32.0196 49.9019C31.9323 49.3566 31.4195 48.9852 30.8742 49.0725Z" fill="#009DD4"/>
<path d="M19.6602 6.29102C20.2124 6.29102 20.6602 5.8433 20.6602 5.29102C20.6602 4.73873 20.2124 4.29102 19.6602 4.29102C19.1079 4.29102 18.6602 4.73873 18.6602 5.29102C18.6602 5.8433 19.1079 6.29102 19.6602 6.29102Z" fill="#009DD4"/>
<path d="M38.1602 54.4903L41.4702 54.0003C42.1574 53.8894 42.7734 53.5126 43.1851 52.9513C43.5967 52.3899 43.771 51.6891 43.6702 51.0003L43.2802 48.5703" stroke="#444444" stroke-miterlimit="10" stroke-linecap="round"/>
<path d="M43.469 55.001C44.1562 54.8901 44.7722 54.5133 45.1839 53.9519C45.5956 53.3906 45.7698 52.6898 45.669 52.001" stroke="#444444" stroke-miterlimit="10" stroke-linecap="round"/>
<path d="M8.55899 2.40088L5.24899 2.93088C4.56119 3.03918 3.9444 3.41582 3.53387 3.97819C3.12334 4.54056 2.95256 5.24278 3.05899 5.93088L3.449 8.36088" stroke="#444444" stroke-miterlimit="10" stroke-linecap="round"/>
<path d="M3.24899 1.93115C2.56119 2.03946 1.9444 2.41609 1.53387 2.97846C1.12334 3.54084 0.952563 4.24306 1.05899 4.93115" stroke="#444444" stroke-miterlimit="10" stroke-linecap="round"/>
</svg>
