<svg width="72" height="72" viewBox="0 0 72 72" fill="none" xmlns="http://www.w3.org/2000/svg">
<path d="M5083.92 2489.38H-4037.37V-3693.54H5083.92V2489.38ZM-4036.41 2488.38H5083V-3692.62H-4036.41V2488.38Z" fill="#333333"/>
<path d="M5083.92 2489.38H-4037.37V-3693.54H5083.92V2489.38ZM-4036.41 2488.38H5083V-3692.62H-4036.41V2488.38Z" fill="#333333"/>
<path d="M5083.92 2489.38H-4037.37V-3693.54H5083.92V2489.38ZM-4036.41 2488.38H5083V-3692.62H-4036.41V2488.38Z" fill="#333333"/>
<path d="M36 58.9999C36 58.9999 12.53 45.1999 12.52 28.6599C12.5 9.89992 36 13.4599 36 29.4099L36.09 27.7199C37.68 13.2299 59.5 10.5799 59.48 28.6599C59.48 43.4099 40.81 56.0099 36.77 58.5599L36 58.9999Z" stroke="black" stroke-miterlimit="10" stroke-linecap="round"/>
<path d="M57.21 14.5601C60.15 16.4401 62.21 20.0601 62.21 25.6601" stroke="black" stroke-miterlimit="10" stroke-linecap="round"/>
<path d="M46.9997 59.8701C46.9997 59.8701 36.0597 56.1101 34.6597 49.2601C33.0697 41.5001 43.1097 41.0001 44.4497 47.6001L44.3497 46.8901C43.7797 40.7501 52.5997 37.8201 54.1097 45.3101C55.3497 51.4201 48.6797 58.2101 47.2297 59.6101L46.9997 59.8701Z" fill="#009DD4"/>
<path d="M32.6799 60.3C28.4767 57.6985 24.5438 54.6835 20.9399 51.3" stroke="black" stroke-miterlimit="10" stroke-linecap="round"/>
</svg>
