<svg width="56" height="56" viewBox="0 0 56 56" fill="none" xmlns="http://www.w3.org/2000/svg">
<path d="M39.0093 10.2587L44.6211 9.88462C45.0915 9.85326 45.4997 10.2058 45.537 10.6758L48.4173 46.8846C48.4546 47.3531 48.1094 47.765 47.6416 47.8103L21.7823 50.3131" stroke="#333333" stroke-width="1.5" stroke-linecap="round"/>
<path d="M23.2278 50.1732L47.6416 47.8103C48.1094 47.765 48.4546 47.3531 48.4173 46.8846L45.5344 10.6425C45.498 10.1859 45.1107 9.83758 44.6528 9.84975L39.5523 9.98532C39.2157 9.99427 38.9152 10.1985 38.783 10.5081L22.3527 48.9775C22.0957 49.579 22.5767 50.2362 23.2278 50.1732Z" fill="white"/>
<path d="M37.7176 12.9059L43.1642 43.4909C43.2481 43.9621 42.9318 44.4113 42.4599 44.4912L16.1436 48.9447C15.6854 49.0222 15.2483 48.7223 15.1558 48.2669L15 47.5M37.2869 10.3217L36.1439 3.84494C36.0615 3.37775 35.6168 3.06517 35.1493 3.14578L23.5048 5.15345L8.80809 8.41939C8.35669 8.5197 8.06503 8.95852 8.14732 9.41355L14.7515 45.9307" stroke="#333333" stroke-width="1.5" stroke-linecap="round"/>
<path d="M16.1615 48.9417L42.4599 44.4912C42.9318 44.4113 43.2481 43.9621 43.1642 43.4909L37.7176 12.9059L36.1422 3.84741C36.0608 3.3792 35.6155 3.0654 35.1472 3.14614L23.5048 5.15345L8.80809 8.41939C8.35669 8.5197 8.06503 8.95852 8.14732 9.41355L14.6736 45.5L14.8544 46.5L15.0353 47.5L15.1701 48.2457C15.2541 48.7101 15.6962 49.0204 16.1615 48.9417Z" fill="white"/>
<path d="M21.7821 18.9182C25.1122 18.9182 27.8118 16.2203 27.8118 12.8923C27.8118 9.56433 25.1122 6.86646 21.7821 6.86646C18.452 6.86646 15.7524 9.56433 15.7524 12.8923C15.7524 16.2203 18.452 18.9182 21.7821 18.9182Z" fill="#009DD4"/>
<path d="M14.0375 23.1997L31.3544 19.8278M36.0182 19.0556L33.9387 19.3971" stroke="#333333" stroke-width="0.861379" stroke-linecap="round"/>
<path d="M14.4701 27.7881L28.0598 25.0003M36.9166 23.5544L30.8267 24.5346" stroke="#333333" stroke-width="0.861379" stroke-linecap="round"/>
<path d="M14.9511 31.224L25.2428 28.9214M36.9318 27.0799L28.6732 28.4107" stroke="#333333" stroke-width="0.861379" stroke-linecap="round"/>
<path d="M15.8124 35.5306L22.6091 34.0989" stroke="#333333" stroke-width="0.861379" stroke-linecap="round"/>
<path d="M22.521 14.2026L21.8671 14.3539C21.7889 14.3694 21.7077 14.3556 21.6391 14.3149C21.5706 14.2743 21.5194 14.2098 21.4955 14.1338L20.0708 9.27082C20.0594 9.22926 20.0565 9.18585 20.0621 9.14314C20.0678 9.10043 20.0819 9.05929 20.1037 9.02212C20.1255 8.98495 20.1546 8.95252 20.1891 8.92672C20.2236 8.90091 20.2629 8.88227 20.3048 8.87188L21.5024 8.59674C21.5445 8.58672 21.5882 8.58543 21.6308 8.59297C21.6735 8.6005 21.7141 8.6167 21.7502 8.64055C21.7864 8.6644 21.8172 8.69541 21.8409 8.73165C21.8645 8.76789 21.8805 8.80859 21.8878 8.85124L22.7619 13.838C22.7746 13.9179 22.757 13.9996 22.7124 14.0671C22.6678 14.1346 22.5995 14.1829 22.521 14.2026Z" fill="white"/>
<path d="M22.5552 16.7671C23.0797 16.7671 23.505 16.3421 23.505 15.8179C23.505 15.2936 23.0797 14.8687 22.5552 14.8687C22.0306 14.8687 21.6053 15.2936 21.6053 15.8179C21.6053 16.3421 22.0306 16.7671 22.5552 16.7671Z" fill="white"/>
<line x1="12.6256" y1="49.7504" x2="42.6256" y2="4.75038" stroke="#333333" stroke-width="0.9"/>
<path d="M49.3734 44.5C52.901 39.9372 55 34.2137 55 28C55 13.0883 42.9117 1 28 1C21.861 1 16.2006 3.04882 11.6651 6.5M45.5 48.5616C40.7871 52.5767 34.6765 55 28 55C13.0883 55 1 42.9117 1 28C1 21.2894 3.44813 15.1506 7.5 10.428" stroke="#333333" stroke-linecap="round" stroke-linejoin="round"/>
</svg>
