<svg width="118" height="147" viewBox="0 0 118 147" fill="none" xmlns="http://www.w3.org/2000/svg">
<path d="M24.0312 91.2651C23.9662 90.8922 21.754 89.7956 21.4431 89.5719C19.2888 88.0502 17.2574 86.3494 15.3561 84.507C9.99915 79.3004 5.65434 72.699 4.28078 65.1352C3.46387 60.6373 2.806 53.909 6.39173 50.4106C8.62559 48.2399 12.9342 47.8148 14.3223 51.1565C14.3223 51.1565 12.074 45.7336 12.074 37.8342C12.074 34.3433 13.3897 30.2929 16.3392 28.2864C19.672 26.0187 21.8913 28.719 23.0047 31.8071C22.26 29.7484 22.9468 27.0854 23.3444 25.0266C23.7637 22.856 24.1324 20.5884 24.7108 18.4625C26.0193 13.6661 29.2797 9.41435 33.6028 7.15419C42.184 2.6637 51.9074 6.34859 56.2667 14.8671C59.0499 20.3049 60.1705 26.787 60.2572 32.9037C60.2572 33.1573 60.2645 33.4034 60.2572 33.657C60.2572 33.657 60.409 38.9233 59.5054 43.1005C59.5054 43.1005 70.6096 42.0189 70.6096 50.9999C70.6096 59.9809 63.402 64.3147 63.402 64.3147C63.402 64.3147 69.4023 62.1441 70.0023 67.567C70.6023 72.9899 66.8503 96.3747 41.3382 96.3747C41.3382 96.3747 36.6319 95.9123 33.1329 94.4652C33.1401 94.4652 24.6819 94.9799 24.0312 91.2651Z" fill="#E1F7FE"/>
<path d="M177.089 67.5938H151.803C132.092 67.5938 132.693 86.8747 132.693 86.8747V104.103H118.358V166.051H106.016V83.5919L82.9211 97.9529V132.621H65.7952C65.7952 132.621 65.7952 122.646 65.7952 122.629C65.7952 122.714 52.2509 122.578 51.1146 122.637C47.78 122.824 44.2478 123.604 41.399 125.462C35.6684 129.203 35.5449 135.853 35.5449 142.147C35.5449 147.406 35.5449 152.666 35.5449 157.933C35.5449 162.098 35.5449 166.255 35.5449 170.42C31.8398 170.42 27.5254 169.622 25.187 173.338C23.9438 175.314 23.5732 177.842 23.5732 180.166" stroke="#37CAFC" stroke-miterlimit="10" stroke-linecap="round" stroke-linejoin="round"/>
<path d="M25.1755 52.3164C25.1755 52.3164 24.3933 61.1553 31.4166 65.176C31.4166 65.176 13.4756 105.825 13.4756 192.347" stroke="#37CAFC" stroke-miterlimit="10" stroke-linecap="round" stroke-linejoin="round"/>
<path d="M23.9449 90.5212C23.9449 90.5212 0.354492 80.0325 0.354492 56.5964C0.354492 33.1602 18.3004 50.7355 15.2706 52.1766C12.248 53.6177 8.41703 43.3369 8.41703 35.5224C8.41703 32.2317 9.74258 28.6959 11.913 26.252C14.6952 23.1173 18.9195 23.1767 21.6143 26.3857C22.5319 27.4851 23.486 28.7182 23.8721 30.1369C24.0905 30.9318 24.0905 31.8157 23.741 32.5586C23.202 33.6802 22.2115 33.6951 21.5487 32.7294C19.757 30.1221 19.7425 26.8611 19.7862 23.7932C19.8517 18.2815 21.3229 13 24.6805 8.64702C29.6841 2.13987 39.4582 -1.29198 46.8361 3.15754C51.1186 5.73515 53.6823 10.5561 55.3138 15.1913C57.0617 20.1534 57.9139 25.6206 57.9139 30.8946C57.9139 40.2542 54.0829 47.5488 50.048 47.7568C46.8871 47.9202 51.8615 42.9804 52.4369 42.5124C55.6925 39.8605 60.798 37.3572 64.6873 40.1354C68.613 42.9284 68.6494 48.923 66.7776 52.9268C64.7528 57.2426 60.9874 60.6002 57.2001 63.2892C59.3632 61.7516 62.7645 59.07 65.6123 60.2956C66.4935 60.6745 67.0689 61.5733 67.3384 62.5093C69.7419 70.7175 65.0806 79.8319 59.0428 85.0911C54.5053 89.043 49.2031 90.952 43.3693 91.8954C42.437 92.044 41.4975 92.1628 40.5579 92.2297C37.0329 92.4823 33.384 92.0291 30.2667 90.3281" stroke="#37CAFC" stroke-miterlimit="10" stroke-linecap="round" stroke-linejoin="round"/>
<path d="M36.3311 62.1384C36.3311 62.1384 44.54 60.7303 47.1006 53.8594" stroke="#37CAFC" stroke-miterlimit="10" stroke-linecap="round" stroke-linejoin="round"/>
</svg>
