<svg width="91" height="124" viewBox="0 0 91 124" fill="none" xmlns="http://www.w3.org/2000/svg">
<path d="M-37.468 119.852H7.69534V89.5018H29.2302V33.447C29.2302 33.447 28.3329 19.8205 39.6985 14.2459L69.608 1.23877V78.043H89.9465V94.7666" stroke="#57CBFC" stroke-linecap="round" stroke-linejoin="round"/>
<path d="M41.1976 35.4521H46.1486" stroke="#57CBFC" stroke-linecap="round" stroke-linejoin="round"/>
<path d="M52.7484 35.4521H58.2494" stroke="#57CBFC" stroke-linecap="round" stroke-linejoin="round"/>
<path d="M41.1976 42.8667H46.1486" stroke="#57CBFC" stroke-linecap="round" stroke-linejoin="round"/>
<path d="M52.7484 42.8667H58.2494" stroke="#57CBFC" stroke-linecap="round" stroke-linejoin="round"/>
<path d="M41.1976 51.4214H46.1486" stroke="#57CBFC" stroke-linecap="round" stroke-linejoin="round"/>
<path d="M52.7484 51.4214H58.2494" stroke="#57CBFC" stroke-linecap="round" stroke-linejoin="round"/>
<path d="M41.1976 58.8345H46.1486" stroke="#57CBFC" stroke-linecap="round" stroke-linejoin="round"/>
<path d="M52.7484 58.8345H58.2494" stroke="#57CBFC" stroke-linecap="round" stroke-linejoin="round"/>
<path d="M41.1976 67.3892H46.1486" stroke="#57CBFC" stroke-linecap="round" stroke-linejoin="round"/>
<path d="M52.7484 67.3892H58.2494" stroke="#57CBFC" stroke-linecap="round" stroke-linejoin="round"/>
<path d="M41.1976 74.8037H46.1486" stroke="#57CBFC" stroke-linecap="round" stroke-linejoin="round"/>
<path d="M52.7484 74.8037H58.2494" stroke="#57CBFC" stroke-linecap="round" stroke-linejoin="round"/>
<path d="M41.1976 82.7837H46.1486" stroke="#57CBFC" stroke-linecap="round" stroke-linejoin="round"/>
<path d="M52.7484 82.7837H58.2494" stroke="#57CBFC" stroke-linecap="round" stroke-linejoin="round"/>
<path d="M41.1976 90.7671H46.1486" stroke="#57CBFC" stroke-linecap="round" stroke-linejoin="round"/>
<path d="M52.7484 90.7671H58.2494" stroke="#57CBFC" stroke-linecap="round" stroke-linejoin="round"/>
<path d="M41.1976 98.1797H46.1486" stroke="#57CBFC" stroke-linecap="round" stroke-linejoin="round"/>
<path d="M52.7484 98.1797H58.2494" stroke="#57CBFC" stroke-linecap="round" stroke-linejoin="round"/>
<path d="M41.1976 106.736H46.1486" stroke="#57CBFC" stroke-linecap="round" stroke-linejoin="round"/>
<path d="M41.1976 115.29H46.1486" stroke="#57CBFC" stroke-linecap="round" stroke-linejoin="round"/>
<path d="M41.1976 123.844H46.1486" stroke="#57CBFC" stroke-linecap="round" stroke-linejoin="round"/>
<path d="M52.7484 106.736H58.2494" stroke="#57CBFC" stroke-linecap="round" stroke-linejoin="round"/>
<path d="M52.7484 115.29H58.2494" stroke="#57CBFC" stroke-linecap="round" stroke-linejoin="round"/>
<path d="M52.7484 123.844H58.2494" stroke="#57CBFC" stroke-linecap="round" stroke-linejoin="round"/>
</svg>
