<svg width="216" height="135" viewBox="0 0 216 135" fill="none" xmlns="http://www.w3.org/2000/svg">
<g opacity="0.4" clip-path="url(#clip0_765_63507)">
<path d="M11.5859 133.578H75.907V99.4369H106.577V36.38C106.577 36.38 105.299 21.0513 121.485 14.7804L164.082 0.148438V86.5468H193.048V105.359H235.645V70.7424" stroke="#57CBFC" stroke-linecap="round" stroke-linejoin="round"/>
<path d="M123.621 38.6367H130.672" stroke="#57CBFC" stroke-linecap="round" stroke-linejoin="round"/>
<path d="M140.073 38.6367H147.908" stroke="#57CBFC" stroke-linecap="round" stroke-linejoin="round"/>
<path d="M123.621 46.9766H130.672" stroke="#57CBFC" stroke-linecap="round" stroke-linejoin="round"/>
<path d="M140.073 46.9766H147.908" stroke="#57CBFC" stroke-linecap="round" stroke-linejoin="round"/>
<path d="M123.621 56.5996H130.672" stroke="#57CBFC" stroke-linecap="round" stroke-linejoin="round"/>
<path d="M140.073 56.5996H147.908" stroke="#57CBFC" stroke-linecap="round" stroke-linejoin="round"/>
<path d="M123.621 64.9395H130.672" stroke="#57CBFC" stroke-linecap="round" stroke-linejoin="round"/>
<path d="M140.073 64.9395H147.908" stroke="#57CBFC" stroke-linecap="round" stroke-linejoin="round"/>
<path d="M123.621 74.5625H130.672" stroke="#57CBFC" stroke-linecap="round" stroke-linejoin="round"/>
<path d="M140.073 74.5625H147.908" stroke="#57CBFC" stroke-linecap="round" stroke-linejoin="round"/>
<path d="M123.621 82.9004H130.672" stroke="#57CBFC" stroke-linecap="round" stroke-linejoin="round"/>
<path d="M140.073 82.9004H147.908" stroke="#57CBFC" stroke-linecap="round" stroke-linejoin="round"/>
<path d="M123.621 91.8789H130.672" stroke="#57CBFC" stroke-linecap="round" stroke-linejoin="round"/>
<path d="M140.073 91.8789H147.908" stroke="#57CBFC" stroke-linecap="round" stroke-linejoin="round"/>
<path d="M123.621 100.861H130.672" stroke="#57CBFC" stroke-linecap="round" stroke-linejoin="round"/>
<path d="M140.073 100.861H147.908" stroke="#57CBFC" stroke-linecap="round" stroke-linejoin="round"/>
<path d="M123.621 109.201H130.672" stroke="#57CBFC" stroke-linecap="round" stroke-linejoin="round"/>
<path d="M140.073 109.201H147.908" stroke="#57CBFC" stroke-linecap="round" stroke-linejoin="round"/>
<path d="M123.621 118.824H130.672" stroke="#57CBFC" stroke-linecap="round" stroke-linejoin="round"/>
<path d="M123.621 128.445H130.672" stroke="#57CBFC" stroke-linecap="round" stroke-linejoin="round"/>
<path d="M140.073 118.824H147.908" stroke="#57CBFC" stroke-linecap="round" stroke-linejoin="round"/>
<path d="M140.073 128.445H147.908" stroke="#57CBFC" stroke-linecap="round" stroke-linejoin="round"/>
<path d="M14.5603 112.867C14.5603 112.849 12.5098 113.292 12.2787 113.322C11.4603 113.439 10.6186 113.381 9.83563 113.155C8.2326 112.649 7.19081 111.333 6.71394 110.043C6.61376 109.786 6.54616 109.522 6.51219 109.254C6.36912 107.839 6.22239 106.07 8.98459 103.708C8.98459 103.708 1.28125 102.058 1.28125 96.2627C1.28125 90.467 9.27438 88.8171 9.27438 88.8171C9.27438 88.8171 5.63914 81.6484 13.3425 79.0514C21.0458 76.4543 24.5307 83.2984 24.2409 84.7101C24.2409 84.7101 29.182 83.6468 30.4769 87.185C31.7718 90.7232 28.6024 93.5644 28.6024 93.5644C28.6024 93.5644 31.3646 94.86 30.6383 97.8114C29.912 100.763 26.7133 100.641 26.7133 100.641C26.7133 100.641 30.9281 106.776 26.7133 111.261C24.7178 113.385 21.3686 114.508 18.1479 114.692C17.3482 114.737 16.4825 114.71 15.8259 114.338C15.1693 113.965 14.9198 113.388 14.5603 112.867Z" fill="#E3F6FD"/>
<path d="M15.1986 131.777C11.6521 120.161 13.5074 106.013 16.5509 95.958C17.5788 97.3877 17.7756 99.1093 17.823 100.768C17.8817 102.96 17.7196 105.151 17.3382 107.321C17.0466 108.962 16.5764 110.678 15.1986 111.893C14.5561 112.448 13.7574 112.867 12.8719 113.112C11.9864 113.358 11.0408 113.423 10.1175 113.302C9.19757 113.165 8.33261 112.846 7.59814 112.373C6.86368 111.9 6.28204 111.287 5.90398 110.588C5.33356 109.395 5.2492 108.083 5.66342 106.847C6.39241 104.435 8.67779 102.267 11.6521 101.745C11.4946 102.1 11.2358 102.418 10.8972 102.674C10.5586 102.93 10.1501 103.116 9.70567 103.217C8.81254 103.412 7.87237 103.412 6.97924 103.217C5.80146 102.99 4.69077 102.573 3.712 101.992C2.73323 101.411 1.90599 100.676 1.27854 99.8301C0.660402 98.98 0.255663 98.0378 0.0879452 97.0585C-0.0797724 96.0792 -0.0071087 95.0824 0.301695 94.1263C0.986946 92.0413 2.78755 90.2781 4.95994 89.045C5.65968 88.6047 6.47205 88.2992 7.33645 88.1514C7.76916 88.0841 8.21556 88.1058 8.63548 88.2144C9.05541 88.3231 9.43569 88.5153 9.74212 88.7739C10.3144 89.316 10.3472 90.2423 9.68015 90.7099C7.46038 87.8684 6.22474 84.1572 8.04721 81.1311C8.71559 80.0589 9.71972 79.1507 10.9574 78.4988C12.195 77.8469 13.6219 77.4746 15.0929 77.4199C16.5588 77.3915 18.0079 77.6794 19.2941 78.2546C20.5804 78.8299 21.6583 79.672 22.4193 80.6962C23.1497 81.737 23.5311 82.9168 23.5247 84.1166C23.5183 85.3163 23.1244 86.4934 22.3828 87.5289C22.0912 87.928 21.3877 88.3182 21.0415 87.9518C20.9812 87.8676 20.943 87.7741 20.9292 87.6772C20.9154 87.5804 20.9263 87.4822 20.9613 87.3889C21.2119 86.4234 21.8467 85.5529 22.7666 84.9133C23.6864 84.2737 24.8396 83.901 26.046 83.8534C26.6804 83.8291 27.3136 83.9186 27.9011 84.1157C28.4886 84.3128 29.0162 84.6127 29.4467 84.9942C30.5402 86.0218 30.6277 87.5319 30.3033 88.8662C29.9821 90.1741 29.3208 91.4103 28.3642 92.4911C27.5623 93.3846 26.3121 94.2484 24.9744 94.0161C25.4482 93.0332 27.0848 92.6638 28.2548 93.1225C29.4248 93.5812 30.121 94.6118 30.2778 95.6691C30.3971 96.4441 30.252 97.2309 29.8583 97.9426C29.4646 98.6543 28.8378 99.2632 28.0471 99.702C26.4396 100.536 24.1397 100.426 22.7582 99.3565C23.2729 99.2727 23.8051 99.2956 24.3062 99.4231C24.8073 99.5505 25.2613 99.7785 25.6268 100.086C27.4493 101.507 27.9049 103.92 27.9924 105.873C28.0876 107.315 27.7233 108.752 26.9353 110.043C26.039 111.377 24.7047 112.48 23.0826 113.227C20.6041 114.419 17.371 115.068 14.4988 114.583" stroke="#57CBFC" stroke-linecap="round" stroke-linejoin="round"/>
</g>
<defs>
<clipPath id="clip0_765_63507">
<rect width="215.813" height="134" fill="white" transform="translate(0 0.148438)"/>
</clipPath>
</defs>
</svg>
