<svg width="50" height="124" viewBox="0 0 50 124" fill="none" xmlns="http://www.w3.org/2000/svg">
<path d="M12.6797 129.427C12.6797 129.427 14.3707 125.39 16.5558 129.676C17.9967 132.506 11.7747 124.348 17.3775 124.348C22.9804 124.348 23.6413 130.327 23.2721 130.327C22.903 130.327 22.4088 122.832 27.8449 131.026" stroke="white" stroke-miterlimit="10" stroke-linecap="round" stroke-linejoin="round"/>
<path d="M17.6343 62.894C17.5873 62.6337 15.9876 61.8685 15.7628 61.7123C14.2049 60.6503 12.7358 59.4633 11.3609 58.1774C7.48702 54.5437 4.34506 49.9364 3.35176 44.6576C2.76101 41.5184 2.28528 36.8226 4.87831 34.381C6.49372 32.8661 9.60954 32.5693 10.6133 34.9016C10.6133 34.9016 8.98742 31.1168 8.98742 25.6037C8.98742 23.1673 9.9389 20.3405 12.0719 18.9401C14.4819 17.3575 16.0869 19.2421 16.892 21.3973C16.3535 19.9605 16.8502 18.1019 17.1377 16.6651C17.4409 15.1502 17.7075 13.5676 18.1258 12.0839C19.072 8.73642 21.4298 5.76902 24.5561 4.19162C30.7616 1.05763 37.7931 3.62937 40.9455 9.57458C42.9582 13.3697 43.7685 17.8937 43.8313 22.1626C43.8313 22.3396 43.8365 22.5114 43.8313 22.6884C43.8313 22.6884 43.9411 26.3638 43.2876 29.2791C43.2876 29.2791 51.3176 28.5243 51.3176 34.7923C51.3176 41.0602 46.1054 44.0849 46.1054 44.0849C46.1054 44.0849 50.4445 42.57 50.8784 46.3547C51.3124 50.1394 48.5991 66.4601 30.1499 66.4601C30.1499 66.4601 26.7465 66.1374 24.2162 65.1274C24.2215 65.1274 18.1048 65.4866 17.6343 62.894Z" fill="#E1F7FE"/>
<path d="M128.316 46.373H110.031C95.7765 46.373 96.2111 59.8295 96.2111 59.8295V71.8533H85.8449V115.088H76.9197V57.5384L60.2183 67.5612V91.7568H47.8337C47.8337 91.7568 47.8337 84.7947 47.8337 84.7829C47.8337 84.8421 38.0391 84.7474 37.2174 84.7888C34.806 84.9191 32.2517 85.4637 30.1915 86.7602C26.0474 89.371 25.9581 94.0124 25.9581 98.4051C25.9581 102.076 25.9581 105.746 25.9581 109.422C25.9581 112.329 25.9581 115.23 25.9581 118.137C23.2787 118.137 20.1588 117.58 18.4678 120.173C17.5687 121.553 17.3008 123.317 17.3008 124.939" stroke="#37CAFC" stroke-miterlimit="10" stroke-linecap="round" stroke-linejoin="round"/>
<path d="M18.4608 35.7109C18.4608 35.7109 17.8952 41.8797 22.9741 44.6859C22.9741 44.6859 10 73.0552 10 133.441" stroke="#37CAFC" stroke-miterlimit="10" stroke-linecap="round" stroke-linejoin="round"/>
<path d="M17.5712 62.3747C17.5712 62.3747 0.511719 55.0545 0.511719 38.698C0.511719 22.3416 13.4893 34.6076 11.2983 35.6134C9.11254 36.6191 6.34216 29.4441 6.34216 23.9902C6.34216 21.6935 7.30073 19.2258 8.87027 17.5202C10.8822 15.3324 13.937 15.3739 15.8858 17.6135C16.5494 18.3808 17.2394 19.2414 17.5185 20.2316C17.6765 20.7863 17.6765 21.4032 17.4237 21.9216C17.0339 22.7045 16.3176 22.7148 15.8384 22.0409C14.5427 20.2212 14.5322 17.9453 14.5638 15.8042C14.6112 11.9574 15.6751 8.27139 18.1031 5.23339C21.7215 0.691939 28.7896 -1.70321 34.125 1.40219C37.2219 3.20114 39.0759 6.56575 40.2556 9.80076C41.5197 13.2639 42.1359 17.0795 42.1359 20.7604C42.1359 27.2926 39.3655 32.3836 36.4477 32.5287C34.1619 32.6428 37.7591 29.1952 38.1752 28.8686C40.5295 27.0178 44.2216 25.2707 47.0341 27.2096C49.873 29.1589 49.8993 33.3427 48.5457 36.137C47.0815 39.1491 44.3585 41.4924 41.6198 43.3691C43.184 42.2959 45.6437 40.4244 47.703 41.2798C48.3403 41.5442 48.7564 42.1715 48.9513 42.8247C50.6893 48.5534 47.3185 54.9145 42.9523 58.585C39.671 61.3431 35.8367 62.6754 31.618 63.3338C30.9438 63.4375 30.2644 63.5205 29.5849 63.5671C27.0358 63.7434 24.3971 63.4272 22.1428 62.24" stroke="#37CAFC" stroke-miterlimit="10" stroke-linecap="round" stroke-linejoin="round"/>
<path d="M26.5273 42.5671C26.5273 42.5671 32.4636 41.5844 34.3154 36.7891" stroke="#37CAFC" stroke-miterlimit="10" stroke-linecap="round" stroke-linejoin="round"/>
</svg>
